ISO-10303-21;
HEADER;
/* Generated by software containing ST-Developer
 * from STEP Tools, Inc. (www.steptools.com) 
 */

FILE_DESCRIPTION(
/* description */ (''),
/* implementation_level */ '2;1');

FILE_NAME(
/* name */ 'Traeger.step',
/* time_stamp */ '2026-10-02T07:36:17+02:00',
/* author */ (''),
/* organization */ (''),
/* preprocessor_version */ 'ST-DEVELOPER v20.2',
/* originating_system */ 'Autodesk Translation Framework v15.15.0.0',
/* authorisation */ '');

FILE_SCHEMA (('AUTOMOTIVE_DESIGN { 1 0 10303 214 3 1 1 }'));
ENDSEC;

DATA;
#10=MECHANICAL_DESIGN_GEOMETRIC_PRESENTATION_REPRESENTATION('',(#13),#1264);
#11=SHAPE_REPRESENTATION_RELATIONSHIP('SRR','None',#1271,#12);
#12=ADVANCED_BREP_SHAPE_REPRESENTATION('',(#14),#1263);
#13=STYLED_ITEM('',(#1280),#14);
#14=MANIFOLD_SOLID_BREP('K\X\F6rper1',#686);
#15=FACE_BOUND('',#108,.T.);
#16=FACE_BOUND('',#109,.T.);
#17=FACE_BOUND('',#123,.T.);
#18=FACE_BOUND('',#125,.T.);
#19=FACE_BOUND('',#139,.T.);
#20=FACE_BOUND('',#140,.T.);
#21=CIRCLE('',#711,2.5);
#22=CIRCLE('',#714,4.);
#23=CIRCLE('',#715,4.);
#24=CIRCLE('',#716,2.5);
#25=CIRCLE('',#717,1.8);
#26=CIRCLE('',#718,1.8);
#27=CIRCLE('',#720,3.);
#28=CIRCLE('',#723,2.);
#29=CIRCLE('',#726,2.5);
#30=CIRCLE('',#729,4.);
#31=CIRCLE('',#732,4.);
#32=CIRCLE('',#734,3.);
#33=CIRCLE('',#736,2.);
#34=CIRCLE('',#739,0.75);
#35=CIRCLE('',#741,0.750000000000002);
#36=CIRCLE('',#744,0.75);
#37=CIRCLE('',#746,0.750000000000002);
#38=CIRCLE('',#750,1.8);
#39=CIRCLE('',#752,1.8);
#40=CYLINDRICAL_SURFACE('',#710,2.5);
#41=CYLINDRICAL_SURFACE('',#719,3.);
#42=CYLINDRICAL_SURFACE('',#722,2.);
#43=CYLINDRICAL_SURFACE('',#725,2.5);
#44=CYLINDRICAL_SURFACE('',#728,4.);
#45=CYLINDRICAL_SURFACE('',#731,4.);
#46=CYLINDRICAL_SURFACE('',#733,3.);
#47=CYLINDRICAL_SURFACE('',#735,2.);
#48=CYLINDRICAL_SURFACE('',#743,0.75);
#49=CYLINDRICAL_SURFACE('',#745,0.750000000000002);
#50=CYLINDRICAL_SURFACE('',#749,1.8);
#51=CYLINDRICAL_SURFACE('',#751,1.8);
#52=B_SPLINE_SURFACE_WITH_KNOTS('',3,3,((#1053,#1054,#1055,#1056,#1057,
#1058,#1059,#1060),(#1061,#1062,#1063,#1064,#1065,#1066,#1067,#1068),(#1069,
#1070,#1071,#1072,#1073,#1074,#1075,#1076),(#1077,#1078,#1079,#1080,#1081,
#1082,#1083,#1084),(#1085,#1086,#1087,#1088,#1089,#1090,#1091,#1092)),
 .UNSPECIFIED.,.F.,.F.,.F.,(4,1,4),(4,1,1,1,1,4),(0.,0.571428571428571,
1.),(0.174270644237308,0.179351482819309,0.184432321401311,0.194593998565314,
0.235240707221325,0.316534124533347),.UNSPECIFIED.);
#53=B_SPLINE_CURVE_WITH_KNOTS('',3,(#986,#987,#988,#989,#990,#991,#992,
#993,#994,#995,#996,#997,#998,#999,#1000,#1001,#1002,#1003,#1004,#1005,
#1006,#1007,#1008,#1009,#1010,#1011,#1012,#1013,#1014,#1015,#1016,#1017,
#1018,#1019,#1020,#1021,#1022,#1023,#1024,#1025,#1026,#1027,#1028,#1029,
#1030,#1031,#1032,#1033,#1034,#1035,#1036,#1037),.UNSPECIFIED.,.F.,.F.,
(4,3,3,3,3,3,3,3,3,3,3,3,3,3,3,3,3,4),(-9.93500147703289E-7,0.,1.34898669752276E-6,
4.04818295319462E-6,9.43738156025441E-6,2.02017967451767E-5,4.17462189611733E-5,
8.5055117568292E-5,0.000172899431560869,0.000354426370516837,0.000650977081609729,
0.00074496401604649,0.00132372763274352,0.00154319628970196,0.0017689836224142,
0.00236264043060379,0.00296366637157536,0.00341382145826797),
 .UNSPECIFIED.);
#54=B_SPLINE_CURVE_WITH_KNOTS('',3,(#1094,#1095,#1096,#1097,#1098,#1099,
#1100,#1101),.UNSPECIFIED.,.F.,.F.,(4,2,2,4),(0.,0.0224583228639867,0.0357334085191212,
0.0485734050938926),.UNSPECIFIED.);
#55=B_SPLINE_CURVE_WITH_KNOTS('',3,(#1102,#1103,#1104,#1105,#1106,#1107,
#1108,#1109),.UNSPECIFIED.,.F.,.F.,(4,1,1,1,1,4),(0.178813542747298,0.179351482819309,
0.184432321401311,0.194593998565314,0.235240707221325,0.282732291382281),
 .UNSPECIFIED.);
#56=B_SPLINE_CURVE_WITH_KNOTS('',3,(#1117,#1118,#1119,#1120,#1121,#1122,
#1123,#1124,#1125,#1126,#1127,#1128),.UNSPECIFIED.,.F.,.F.,(4,2,2,2,2,4),
(0.590357473520024,0.697763770260131,0.805170067000238,0.861005446567067,
0.916840826133895,0.970422956018857),.UNSPECIFIED.);
#57=B_SPLINE_CURVE_WITH_KNOTS('',3,(#1200,#1201,#1202,#1203),
 .UNSPECIFIED.,.F.,.F.,(4,4),(0.628141728962747,0.667409474737121),
 .UNSPECIFIED.);
#58=ELLIPSE('',#703,2.01556443707464,2.);
#59=ELLIPSE('',#704,2.01556443707464,2.);
#60=ELLIPSE('',#705,3.02334665561196,3.);
#61=ELLIPSE('',#706,20.1556443707464,2.5);
#62=ELLIPSE('',#707,3.02334665561196,3.);
#63=FACE_OUTER_BOUND('',#99,.T.);
#64=FACE_OUTER_BOUND('',#100,.T.);
#65=FACE_OUTER_BOUND('',#101,.T.);
#66=FACE_OUTER_BOUND('',#102,.T.);
#67=FACE_OUTER_BOUND('',#103,.T.);
#68=FACE_OUTER_BOUND('',#104,.T.);
#69=FACE_OUTER_BOUND('',#105,.T.);
#70=FACE_OUTER_BOUND('',#106,.T.);
#71=FACE_OUTER_BOUND('',#107,.T.);
#72=FACE_OUTER_BOUND('',#110,.T.);
#73=FACE_OUTER_BOUND('',#111,.T.);
#74=FACE_OUTER_BOUND('',#112,.T.);
#75=FACE_OUTER_BOUND('',#113,.T.);
#76=FACE_OUTER_BOUND('',#114,.T.);
#77=FACE_OUTER_BOUND('',#115,.T.);
#78=FACE_OUTER_BOUND('',#116,.T.);
#79=FACE_OUTER_BOUND('',#117,.T.);
#80=FACE_OUTER_BOUND('',#118,.T.);
#81=FACE_OUTER_BOUND('',#119,.T.);
#82=FACE_OUTER_BOUND('',#120,.T.);
#83=FACE_OUTER_BOUND('',#121,.T.);
#84=FACE_OUTER_BOUND('',#122,.T.);
#85=FACE_OUTER_BOUND('',#124,.T.);
#86=FACE_OUTER_BOUND('',#126,.T.);
#87=FACE_OUTER_BOUND('',#127,.T.);
#88=FACE_OUTER_BOUND('',#128,.T.);
#89=FACE_OUTER_BOUND('',#129,.T.);
#90=FACE_OUTER_BOUND('',#130,.T.);
#91=FACE_OUTER_BOUND('',#131,.T.);
#92=FACE_OUTER_BOUND('',#132,.T.);
#93=FACE_OUTER_BOUND('',#133,.T.);
#94=FACE_OUTER_BOUND('',#134,.T.);
#95=FACE_OUTER_BOUND('',#135,.T.);
#96=FACE_OUTER_BOUND('',#136,.T.);
#97=FACE_OUTER_BOUND('',#137,.T.);
#98=FACE_OUTER_BOUND('',#138,.T.);
#99=EDGE_LOOP('',(#435,#436,#437,#438));
#100=EDGE_LOOP('',(#439,#440,#441,#442,#443));
#101=EDGE_LOOP('',(#444,#445,#446,#447,#448,#449,#450,#451,#452,#453,#454,
#455,#456,#457,#458));
#102=EDGE_LOOP('',(#459,#460,#461,#462));
#103=EDGE_LOOP('',(#463,#464,#465,#466,#467));
#104=EDGE_LOOP('',(#468,#469,#470,#471));
#105=EDGE_LOOP('',(#472,#473,#474,#475,#476,#477));
#106=EDGE_LOOP('',(#478,#479,#480,#481,#482));
#107=EDGE_LOOP('',(#483,#484,#485,#486,#487,#488,#489,#490,#491,#492,#493,
#494,#495));
#108=EDGE_LOOP('',(#496));
#109=EDGE_LOOP('',(#497));
#110=EDGE_LOOP('',(#498,#499,#500,#501));
#111=EDGE_LOOP('',(#502,#503,#504,#505,#506));
#112=EDGE_LOOP('',(#507,#508,#509,#510));
#113=EDGE_LOOP('',(#511,#512,#513,#514));
#114=EDGE_LOOP('',(#515,#516,#517,#518));
#115=EDGE_LOOP('',(#519,#520,#521,#522));
#116=EDGE_LOOP('',(#523,#524,#525,#526));
#117=EDGE_LOOP('',(#527,#528,#529,#530));
#118=EDGE_LOOP('',(#531,#532,#533,#534,#535));
#119=EDGE_LOOP('',(#536,#537,#538,#539,#540,#541,#542,#543));
#120=EDGE_LOOP('',(#544,#545,#546,#547));
#121=EDGE_LOOP('',(#548,#549,#550,#551,#552));
#122=EDGE_LOOP('',(#553,#554,#555,#556));
#123=EDGE_LOOP('',(#557));
#124=EDGE_LOOP('',(#558,#559,#560,#561));
#125=EDGE_LOOP('',(#562));
#126=EDGE_LOOP('',(#563,#564,#565,#566,#567,#568,#569,#570,#571,#572,#573,
#574));
#127=EDGE_LOOP('',(#575,#576,#577,#578));
#128=EDGE_LOOP('',(#579,#580,#581,#582));
#129=EDGE_LOOP('',(#583));
#130=EDGE_LOOP('',(#584));
#131=EDGE_LOOP('',(#585,#586,#587,#588));
#132=EDGE_LOOP('',(#589,#590,#591,#592));
#133=EDGE_LOOP('',(#593,#594,#595,#596));
#134=EDGE_LOOP('',(#597,#598,#599,#600));
#135=EDGE_LOOP('',(#601,#602,#603,#604));
#136=EDGE_LOOP('',(#605,#606,#607,#608));
#137=EDGE_LOOP('',(#609,#610,#611,#612));
#138=EDGE_LOOP('',(#613,#614,#615,#616,#617,#618,#619,#620,#621,#622,#623,
#624));
#139=EDGE_LOOP('',(#625));
#140=EDGE_LOOP('',(#626));
#141=LINE('',#950,#208);
#142=LINE('',#952,#209);
#143=LINE('',#954,#210);
#144=LINE('',#955,#211);
#145=LINE('',#958,#212);
#146=LINE('',#960,#213);
#147=LINE('',#962,#214);
#148=LINE('',#963,#215);
#149=LINE('',#966,#216);
#150=LINE('',#970,#217);
#151=LINE('',#974,#218);
#152=LINE('',#976,#219);
#153=LINE('',#978,#220);
#154=LINE('',#982,#221);
#155=LINE('',#1039,#222);
#156=LINE('',#1043,#223);
#157=LINE('',#1045,#224);
#158=LINE('',#1046,#225);
#159=LINE('',#1049,#226);
#160=LINE('',#1051,#227);
#161=LINE('',#1052,#228);
#162=LINE('',#1112,#229);
#163=LINE('',#1116,#230);
#164=LINE('',#1131,#231);
#165=LINE('',#1133,#232);
#166=LINE('',#1134,#233);
#167=LINE('',#1137,#234);
#168=LINE('',#1139,#235);
#169=LINE('',#1141,#236);
#170=LINE('',#1145,#237);
#171=LINE('',#1147,#238);
#172=LINE('',#1149,#239);
#173=LINE('',#1151,#240);
#174=LINE('',#1153,#241);
#175=LINE('',#1157,#242);
#176=LINE('',#1165,#243);
#177=LINE('',#1169,#244);
#178=LINE('',#1170,#245);
#179=LINE('',#1173,#246);
#180=LINE('',#1177,#247);
#181=LINE('',#1178,#248);
#182=LINE('',#1182,#249);
#183=LINE('',#1185,#250);
#184=LINE('',#1187,#251);
#185=LINE('',#1188,#252);
#186=LINE('',#1191,#253);
#187=LINE('',#1194,#254);
#188=LINE('',#1197,#255);
#189=LINE('',#1198,#256);
#190=LINE('',#1206,#257);
#191=LINE('',#1211,#258);
#192=LINE('',#1215,#259);
#193=LINE('',#1216,#260);
#194=LINE('',#1218,#261);
#195=LINE('',#1222,#262);
#196=LINE('',#1228,#263);
#197=LINE('',#1232,#264);
#198=LINE('',#1238,#265);
#199=LINE('',#1242,#266);
#200=LINE('',#1246,#267);
#201=LINE('',#1247,#268);
#202=LINE('',#1250,#269);
#203=LINE('',#1251,#270);
#204=LINE('',#1254,#271);
#205=LINE('',#1255,#272);
#206=LINE('',#1257,#273);
#207=LINE('',#1259,#274);
#208=VECTOR('',#763,10.);
#209=VECTOR('',#764,10.);
#210=VECTOR('',#765,10.);
#211=VECTOR('',#766,10.);
#212=VECTOR('',#769,10.);
#213=VECTOR('',#770,10.);
#214=VECTOR('',#771,10.);
#215=VECTOR('',#772,10.);
#216=VECTOR('',#775,10.);
#217=VECTOR('',#778,10.);
#218=VECTOR('',#781,10.);
#219=VECTOR('',#782,10.);
#220=VECTOR('',#783,10.);
#221=VECTOR('',#786,10.);
#222=VECTOR('',#789,10.);
#223=VECTOR('',#794,10.);
#224=VECTOR('',#795,10.);
#225=VECTOR('',#796,10.);
#226=VECTOR('',#799,10.);
#227=VECTOR('',#800,10.);
#228=VECTOR('',#801,10.);
#229=VECTOR('',#804,10.);
#230=VECTOR('',#807,10.);
#231=VECTOR('',#810,10.);
#232=VECTOR('',#811,10.);
#233=VECTOR('',#812,10.);
#234=VECTOR('',#815,10.);
#235=VECTOR('',#816,10.);
#236=VECTOR('',#817,10.);
#237=VECTOR('',#820,10.);
#238=VECTOR('',#821,10.);
#239=VECTOR('',#822,10.);
#240=VECTOR('',#823,10.);
#241=VECTOR('',#824,10.);
#242=VECTOR('',#827,10.);
#243=VECTOR('',#836,10.);
#244=VECTOR('',#841,10.);
#245=VECTOR('',#842,10.);
#246=VECTOR('',#845,10.);
#247=VECTOR('',#850,10.);
#248=VECTOR('',#851,10.);
#249=VECTOR('',#856,10.);
#250=VECTOR('',#859,10.);
#251=VECTOR('',#860,10.);
#252=VECTOR('',#861,10.);
#253=VECTOR('',#864,10.);
#254=VECTOR('',#867,10.);
#255=VECTOR('',#870,10.);
#256=VECTOR('',#871,10.);
#257=VECTOR('',#876,10.);
#258=VECTOR('',#883,10.);
#259=VECTOR('',#888,10.);
#260=VECTOR('',#889,10.);
#261=VECTOR('',#892,10.);
#262=VECTOR('',#897,10.);
#263=VECTOR('',#904,0.75);
#264=VECTOR('',#909,0.750000000000002);
#265=VECTOR('',#918,1.8);
#266=VECTOR('',#923,1.8);
#267=VECTOR('',#928,10.);
#268=VECTOR('',#929,10.);
#269=VECTOR('',#932,10.);
#270=VECTOR('',#933,10.);
#271=VECTOR('',#936,10.);
#272=VECTOR('',#937,10.);
#273=VECTOR('',#940,10.);
#274=VECTOR('',#943,10.);
#275=VERTEX_POINT('',#948);
#276=VERTEX_POINT('',#949);
#277=VERTEX_POINT('',#951);
#278=VERTEX_POINT('',#953);
#279=VERTEX_POINT('',#957);
#280=VERTEX_POINT('',#959);
#281=VERTEX_POINT('',#961);
#282=VERTEX_POINT('',#965);
#283=VERTEX_POINT('',#967);
#284=VERTEX_POINT('',#969);
#285=VERTEX_POINT('',#971);
#286=VERTEX_POINT('',#973);
#287=VERTEX_POINT('',#975);
#288=VERTEX_POINT('',#977);
#289=VERTEX_POINT('',#979);
#290=VERTEX_POINT('',#981);
#291=VERTEX_POINT('',#983);
#292=VERTEX_POINT('',#985);
#293=VERTEX_POINT('',#1038);
#294=VERTEX_POINT('',#1042);
#295=VERTEX_POINT('',#1044);
#296=VERTEX_POINT('',#1048);
#297=VERTEX_POINT('',#1050);
#298=VERTEX_POINT('',#1093);
#299=VERTEX_POINT('',#1111);
#300=VERTEX_POINT('',#1113);
#301=VERTEX_POINT('',#1115);
#302=VERTEX_POINT('',#1130);
#303=VERTEX_POINT('',#1132);
#304=VERTEX_POINT('',#1136);
#305=VERTEX_POINT('',#1138);
#306=VERTEX_POINT('',#1140);
#307=VERTEX_POINT('',#1142);
#308=VERTEX_POINT('',#1144);
#309=VERTEX_POINT('',#1146);
#310=VERTEX_POINT('',#1148);
#311=VERTEX_POINT('',#1150);
#312=VERTEX_POINT('',#1152);
#313=VERTEX_POINT('',#1154);
#314=VERTEX_POINT('',#1156);
#315=VERTEX_POINT('',#1159);
#316=VERTEX_POINT('',#1161);
#317=VERTEX_POINT('',#1164);
#318=VERTEX_POINT('',#1168);
#319=VERTEX_POINT('',#1172);
#320=VERTEX_POINT('',#1176);
#321=VERTEX_POINT('',#1180);
#322=VERTEX_POINT('',#1184);
#323=VERTEX_POINT('',#1186);
#324=VERTEX_POINT('',#1190);
#325=VERTEX_POINT('',#1192);
#326=VERTEX_POINT('',#1196);
#327=VERTEX_POINT('',#1204);
#328=VERTEX_POINT('',#1210);
#329=VERTEX_POINT('',#1214);
#330=VERTEX_POINT('',#1219);
#331=VERTEX_POINT('',#1223);
#332=VERTEX_POINT('',#1227);
#333=VERTEX_POINT('',#1231);
#334=VERTEX_POINT('',#1237);
#335=VERTEX_POINT('',#1241);
#336=VERTEX_POINT('',#1245);
#337=VERTEX_POINT('',#1249);
#338=VERTEX_POINT('',#1253);
#339=EDGE_CURVE('',#275,#276,#141,.T.);
#340=EDGE_CURVE('',#276,#277,#142,.T.);
#341=EDGE_CURVE('',#277,#278,#143,.T.);
#342=EDGE_CURVE('',#278,#275,#144,.T.);
#343=EDGE_CURVE('',#275,#279,#145,.T.);
#344=EDGE_CURVE('',#280,#279,#146,.T.);
#345=EDGE_CURVE('',#280,#281,#147,.T.);
#346=EDGE_CURVE('',#281,#276,#148,.T.);
#347=EDGE_CURVE('',#282,#278,#149,.T.);
#348=EDGE_CURVE('',#283,#282,#58,.T.);
#349=EDGE_CURVE('',#284,#283,#150,.T.);
#350=EDGE_CURVE('',#285,#284,#59,.T.);
#351=EDGE_CURVE('',#286,#285,#151,.T.);
#352=EDGE_CURVE('',#287,#286,#152,.T.);
#353=EDGE_CURVE('',#288,#287,#153,.T.);
#354=EDGE_CURVE('',#289,#288,#60,.T.);
#355=EDGE_CURVE('',#289,#290,#154,.T.);
#356=EDGE_CURVE('',#291,#290,#61,.T.);
#357=EDGE_CURVE('',#291,#292,#53,.F.);
#358=EDGE_CURVE('',#293,#292,#155,.T.);
#359=EDGE_CURVE('',#279,#293,#62,.T.);
#360=EDGE_CURVE('',#294,#287,#156,.T.);
#361=EDGE_CURVE('',#286,#295,#157,.T.);
#362=EDGE_CURVE('',#295,#294,#158,.T.);
#363=EDGE_CURVE('',#296,#285,#159,.T.);
#364=EDGE_CURVE('',#297,#296,#160,.T.);
#365=EDGE_CURVE('',#295,#297,#161,.T.);
#366=EDGE_CURVE('',#293,#298,#54,.F.);
#367=EDGE_CURVE('',#291,#298,#55,.T.);
#368=EDGE_CURVE('',#290,#299,#162,.T.);
#369=EDGE_CURVE('',#299,#300,#21,.T.);
#370=EDGE_CURVE('',#300,#301,#163,.T.);
#371=EDGE_CURVE('',#301,#298,#56,.T.);
#372=EDGE_CURVE('',#302,#289,#164,.T.);
#373=EDGE_CURVE('',#303,#302,#165,.T.);
#374=EDGE_CURVE('',#299,#303,#166,.T.);
#375=EDGE_CURVE('',#304,#289,#167,.T.);
#376=EDGE_CURVE('',#304,#305,#168,.T.);
#377=EDGE_CURVE('',#306,#305,#169,.T.);
#378=EDGE_CURVE('',#307,#306,#22,.T.);
#379=EDGE_CURVE('',#307,#308,#170,.T.);
#380=EDGE_CURVE('',#308,#309,#171,.T.);
#381=EDGE_CURVE('',#309,#310,#172,.T.);
#382=EDGE_CURVE('',#310,#311,#173,.T.);
#383=EDGE_CURVE('',#311,#312,#174,.T.);
#384=EDGE_CURVE('',#313,#312,#23,.T.);
#385=EDGE_CURVE('',#313,#314,#175,.T.);
#386=EDGE_CURVE('',#302,#314,#24,.T.);
#387=EDGE_CURVE('',#315,#315,#25,.T.);
#388=EDGE_CURVE('',#316,#316,#26,.T.);
#389=EDGE_CURVE('',#317,#288,#176,.T.);
#390=EDGE_CURVE('',#317,#304,#27,.T.);
#391=EDGE_CURVE('',#318,#294,#177,.T.);
#392=EDGE_CURVE('',#317,#318,#178,.T.);
#393=EDGE_CURVE('',#284,#319,#179,.T.);
#394=EDGE_CURVE('',#319,#296,#28,.T.);
#395=EDGE_CURVE('',#320,#283,#180,.T.);
#396=EDGE_CURVE('',#319,#320,#181,.T.);
#397=EDGE_CURVE('',#321,#303,#29,.T.);
#398=EDGE_CURVE('',#314,#321,#182,.T.);
#399=EDGE_CURVE('',#300,#322,#183,.T.);
#400=EDGE_CURVE('',#323,#322,#184,.T.);
#401=EDGE_CURVE('',#301,#323,#185,.T.);
#402=EDGE_CURVE('',#312,#324,#186,.T.);
#403=EDGE_CURVE('',#324,#325,#30,.T.);
#404=EDGE_CURVE('',#325,#313,#187,.T.);
#405=EDGE_CURVE('',#326,#311,#188,.T.);
#406=EDGE_CURVE('',#324,#326,#189,.T.);
#407=EDGE_CURVE('',#306,#323,#57,.T.);
#408=EDGE_CURVE('',#322,#327,#31,.T.);
#409=EDGE_CURVE('',#327,#307,#190,.T.);
#410=EDGE_CURVE('',#305,#280,#32,.T.);
#411=EDGE_CURVE('',#282,#328,#191,.T.);
#412=EDGE_CURVE('',#328,#320,#33,.T.);
#413=EDGE_CURVE('',#329,#277,#192,.T.);
#414=EDGE_CURVE('',#328,#329,#193,.T.);
#415=EDGE_CURVE('',#281,#329,#194,.T.);
#416=EDGE_CURVE('',#330,#330,#34,.T.);
#417=EDGE_CURVE('',#297,#318,#195,.T.);
#418=EDGE_CURVE('',#331,#331,#35,.T.);
#419=EDGE_CURVE('',#330,#332,#196,.T.);
#420=EDGE_CURVE('',#332,#332,#36,.T.);
#421=EDGE_CURVE('',#331,#333,#197,.T.);
#422=EDGE_CURVE('',#333,#333,#37,.T.);
#423=EDGE_CURVE('',#316,#334,#198,.T.);
#424=EDGE_CURVE('',#334,#334,#38,.T.);
#425=EDGE_CURVE('',#315,#335,#199,.T.);
#426=EDGE_CURVE('',#335,#335,#39,.T.);
#427=EDGE_CURVE('',#326,#336,#200,.T.);
#428=EDGE_CURVE('',#336,#310,#201,.T.);
#429=EDGE_CURVE('',#336,#337,#202,.T.);
#430=EDGE_CURVE('',#337,#309,#203,.T.);
#431=EDGE_CURVE('',#337,#338,#204,.T.);
#432=EDGE_CURVE('',#338,#308,#205,.T.);
#433=EDGE_CURVE('',#338,#327,#206,.T.);
#434=EDGE_CURVE('',#325,#321,#207,.T.);
#435=ORIENTED_EDGE('',*,*,#339,.T.);
#436=ORIENTED_EDGE('',*,*,#340,.T.);
#437=ORIENTED_EDGE('',*,*,#341,.T.);
#438=ORIENTED_EDGE('',*,*,#342,.T.);
#439=ORIENTED_EDGE('',*,*,#339,.F.);
#440=ORIENTED_EDGE('',*,*,#343,.T.);
#441=ORIENTED_EDGE('',*,*,#344,.F.);
#442=ORIENTED_EDGE('',*,*,#345,.T.);
#443=ORIENTED_EDGE('',*,*,#346,.T.);
#444=ORIENTED_EDGE('',*,*,#342,.F.);
#445=ORIENTED_EDGE('',*,*,#347,.F.);
#446=ORIENTED_EDGE('',*,*,#348,.F.);
#447=ORIENTED_EDGE('',*,*,#349,.F.);
#448=ORIENTED_EDGE('',*,*,#350,.F.);
#449=ORIENTED_EDGE('',*,*,#351,.F.);
#450=ORIENTED_EDGE('',*,*,#352,.F.);
#451=ORIENTED_EDGE('',*,*,#353,.F.);
#452=ORIENTED_EDGE('',*,*,#354,.F.);
#453=ORIENTED_EDGE('',*,*,#355,.T.);
#454=ORIENTED_EDGE('',*,*,#356,.F.);
#455=ORIENTED_EDGE('',*,*,#357,.T.);
#456=ORIENTED_EDGE('',*,*,#358,.F.);
#457=ORIENTED_EDGE('',*,*,#359,.F.);
#458=ORIENTED_EDGE('',*,*,#343,.F.);
#459=ORIENTED_EDGE('',*,*,#360,.T.);
#460=ORIENTED_EDGE('',*,*,#352,.T.);
#461=ORIENTED_EDGE('',*,*,#361,.T.);
#462=ORIENTED_EDGE('',*,*,#362,.T.);
#463=ORIENTED_EDGE('',*,*,#361,.F.);
#464=ORIENTED_EDGE('',*,*,#351,.T.);
#465=ORIENTED_EDGE('',*,*,#363,.F.);
#466=ORIENTED_EDGE('',*,*,#364,.F.);
#467=ORIENTED_EDGE('',*,*,#365,.F.);
#468=ORIENTED_EDGE('',*,*,#366,.F.);
#469=ORIENTED_EDGE('',*,*,#358,.T.);
#470=ORIENTED_EDGE('',*,*,#357,.F.);
#471=ORIENTED_EDGE('',*,*,#367,.T.);
#472=ORIENTED_EDGE('',*,*,#367,.F.);
#473=ORIENTED_EDGE('',*,*,#356,.T.);
#474=ORIENTED_EDGE('',*,*,#368,.T.);
#475=ORIENTED_EDGE('',*,*,#369,.T.);
#476=ORIENTED_EDGE('',*,*,#370,.T.);
#477=ORIENTED_EDGE('',*,*,#371,.T.);
#478=ORIENTED_EDGE('',*,*,#368,.F.);
#479=ORIENTED_EDGE('',*,*,#355,.F.);
#480=ORIENTED_EDGE('',*,*,#372,.F.);
#481=ORIENTED_EDGE('',*,*,#373,.F.);
#482=ORIENTED_EDGE('',*,*,#374,.F.);
#483=ORIENTED_EDGE('',*,*,#372,.T.);
#484=ORIENTED_EDGE('',*,*,#375,.F.);
#485=ORIENTED_EDGE('',*,*,#376,.T.);
#486=ORIENTED_EDGE('',*,*,#377,.F.);
#487=ORIENTED_EDGE('',*,*,#378,.F.);
#488=ORIENTED_EDGE('',*,*,#379,.T.);
#489=ORIENTED_EDGE('',*,*,#380,.T.);
#490=ORIENTED_EDGE('',*,*,#381,.T.);
#491=ORIENTED_EDGE('',*,*,#382,.T.);
#492=ORIENTED_EDGE('',*,*,#383,.T.);
#493=ORIENTED_EDGE('',*,*,#384,.F.);
#494=ORIENTED_EDGE('',*,*,#385,.T.);
#495=ORIENTED_EDGE('',*,*,#386,.F.);
#496=ORIENTED_EDGE('',*,*,#387,.T.);
#497=ORIENTED_EDGE('',*,*,#388,.T.);
#498=ORIENTED_EDGE('',*,*,#354,.T.);
#499=ORIENTED_EDGE('',*,*,#389,.F.);
#500=ORIENTED_EDGE('',*,*,#390,.T.);
#501=ORIENTED_EDGE('',*,*,#375,.T.);
#502=ORIENTED_EDGE('',*,*,#360,.F.);
#503=ORIENTED_EDGE('',*,*,#391,.F.);
#504=ORIENTED_EDGE('',*,*,#392,.F.);
#505=ORIENTED_EDGE('',*,*,#389,.T.);
#506=ORIENTED_EDGE('',*,*,#353,.T.);
#507=ORIENTED_EDGE('',*,*,#350,.T.);
#508=ORIENTED_EDGE('',*,*,#393,.T.);
#509=ORIENTED_EDGE('',*,*,#394,.T.);
#510=ORIENTED_EDGE('',*,*,#363,.T.);
#511=ORIENTED_EDGE('',*,*,#349,.T.);
#512=ORIENTED_EDGE('',*,*,#395,.F.);
#513=ORIENTED_EDGE('',*,*,#396,.F.);
#514=ORIENTED_EDGE('',*,*,#393,.F.);
#515=ORIENTED_EDGE('',*,*,#397,.T.);
#516=ORIENTED_EDGE('',*,*,#373,.T.);
#517=ORIENTED_EDGE('',*,*,#386,.T.);
#518=ORIENTED_EDGE('',*,*,#398,.T.);
#519=ORIENTED_EDGE('',*,*,#370,.F.);
#520=ORIENTED_EDGE('',*,*,#399,.T.);
#521=ORIENTED_EDGE('',*,*,#400,.F.);
#522=ORIENTED_EDGE('',*,*,#401,.F.);
#523=ORIENTED_EDGE('',*,*,#384,.T.);
#524=ORIENTED_EDGE('',*,*,#402,.T.);
#525=ORIENTED_EDGE('',*,*,#403,.T.);
#526=ORIENTED_EDGE('',*,*,#404,.T.);
#527=ORIENTED_EDGE('',*,*,#402,.F.);
#528=ORIENTED_EDGE('',*,*,#383,.F.);
#529=ORIENTED_EDGE('',*,*,#405,.F.);
#530=ORIENTED_EDGE('',*,*,#406,.F.);
#531=ORIENTED_EDGE('',*,*,#407,.T.);
#532=ORIENTED_EDGE('',*,*,#400,.T.);
#533=ORIENTED_EDGE('',*,*,#408,.T.);
#534=ORIENTED_EDGE('',*,*,#409,.T.);
#535=ORIENTED_EDGE('',*,*,#378,.T.);
#536=ORIENTED_EDGE('',*,*,#359,.T.);
#537=ORIENTED_EDGE('',*,*,#366,.T.);
#538=ORIENTED_EDGE('',*,*,#371,.F.);
#539=ORIENTED_EDGE('',*,*,#401,.T.);
#540=ORIENTED_EDGE('',*,*,#407,.F.);
#541=ORIENTED_EDGE('',*,*,#377,.T.);
#542=ORIENTED_EDGE('',*,*,#410,.T.);
#543=ORIENTED_EDGE('',*,*,#344,.T.);
#544=ORIENTED_EDGE('',*,*,#348,.T.);
#545=ORIENTED_EDGE('',*,*,#411,.T.);
#546=ORIENTED_EDGE('',*,*,#412,.T.);
#547=ORIENTED_EDGE('',*,*,#395,.T.);
#548=ORIENTED_EDGE('',*,*,#341,.F.);
#549=ORIENTED_EDGE('',*,*,#413,.F.);
#550=ORIENTED_EDGE('',*,*,#414,.F.);
#551=ORIENTED_EDGE('',*,*,#411,.F.);
#552=ORIENTED_EDGE('',*,*,#347,.T.);
#553=ORIENTED_EDGE('',*,*,#340,.F.);
#554=ORIENTED_EDGE('',*,*,#346,.F.);
#555=ORIENTED_EDGE('',*,*,#415,.T.);
#556=ORIENTED_EDGE('',*,*,#413,.T.);
#557=ORIENTED_EDGE('',*,*,#416,.T.);
#558=ORIENTED_EDGE('',*,*,#362,.F.);
#559=ORIENTED_EDGE('',*,*,#365,.T.);
#560=ORIENTED_EDGE('',*,*,#417,.T.);
#561=ORIENTED_EDGE('',*,*,#391,.T.);
#562=ORIENTED_EDGE('',*,*,#418,.T.);
#563=ORIENTED_EDGE('',*,*,#364,.T.);
#564=ORIENTED_EDGE('',*,*,#394,.F.);
#565=ORIENTED_EDGE('',*,*,#396,.T.);
#566=ORIENTED_EDGE('',*,*,#412,.F.);
#567=ORIENTED_EDGE('',*,*,#414,.T.);
#568=ORIENTED_EDGE('',*,*,#415,.F.);
#569=ORIENTED_EDGE('',*,*,#345,.F.);
#570=ORIENTED_EDGE('',*,*,#410,.F.);
#571=ORIENTED_EDGE('',*,*,#376,.F.);
#572=ORIENTED_EDGE('',*,*,#390,.F.);
#573=ORIENTED_EDGE('',*,*,#392,.T.);
#574=ORIENTED_EDGE('',*,*,#417,.F.);
#575=ORIENTED_EDGE('',*,*,#416,.F.);
#576=ORIENTED_EDGE('',*,*,#419,.T.);
#577=ORIENTED_EDGE('',*,*,#420,.F.);
#578=ORIENTED_EDGE('',*,*,#419,.F.);
#579=ORIENTED_EDGE('',*,*,#418,.F.);
#580=ORIENTED_EDGE('',*,*,#421,.T.);
#581=ORIENTED_EDGE('',*,*,#422,.F.);
#582=ORIENTED_EDGE('',*,*,#421,.F.);
#583=ORIENTED_EDGE('',*,*,#422,.T.);
#584=ORIENTED_EDGE('',*,*,#420,.T.);
#585=ORIENTED_EDGE('',*,*,#388,.F.);
#586=ORIENTED_EDGE('',*,*,#423,.T.);
#587=ORIENTED_EDGE('',*,*,#424,.T.);
#588=ORIENTED_EDGE('',*,*,#423,.F.);
#589=ORIENTED_EDGE('',*,*,#387,.F.);
#590=ORIENTED_EDGE('',*,*,#425,.T.);
#591=ORIENTED_EDGE('',*,*,#426,.T.);
#592=ORIENTED_EDGE('',*,*,#425,.F.);
#593=ORIENTED_EDGE('',*,*,#427,.F.);
#594=ORIENTED_EDGE('',*,*,#405,.T.);
#595=ORIENTED_EDGE('',*,*,#382,.F.);
#596=ORIENTED_EDGE('',*,*,#428,.F.);
#597=ORIENTED_EDGE('',*,*,#429,.F.);
#598=ORIENTED_EDGE('',*,*,#428,.T.);
#599=ORIENTED_EDGE('',*,*,#381,.F.);
#600=ORIENTED_EDGE('',*,*,#430,.F.);
#601=ORIENTED_EDGE('',*,*,#431,.F.);
#602=ORIENTED_EDGE('',*,*,#430,.T.);
#603=ORIENTED_EDGE('',*,*,#380,.F.);
#604=ORIENTED_EDGE('',*,*,#432,.F.);
#605=ORIENTED_EDGE('',*,*,#409,.F.);
#606=ORIENTED_EDGE('',*,*,#433,.F.);
#607=ORIENTED_EDGE('',*,*,#432,.T.);
#608=ORIENTED_EDGE('',*,*,#379,.F.);
#609=ORIENTED_EDGE('',*,*,#398,.F.);
#610=ORIENTED_EDGE('',*,*,#385,.F.);
#611=ORIENTED_EDGE('',*,*,#404,.F.);
#612=ORIENTED_EDGE('',*,*,#434,.T.);
#613=ORIENTED_EDGE('',*,*,#374,.T.);
#614=ORIENTED_EDGE('',*,*,#397,.F.);
#615=ORIENTED_EDGE('',*,*,#434,.F.);
#616=ORIENTED_EDGE('',*,*,#403,.F.);
#617=ORIENTED_EDGE('',*,*,#406,.T.);
#618=ORIENTED_EDGE('',*,*,#427,.T.);
#619=ORIENTED_EDGE('',*,*,#429,.T.);
#620=ORIENTED_EDGE('',*,*,#431,.T.);
#621=ORIENTED_EDGE('',*,*,#433,.T.);
#622=ORIENTED_EDGE('',*,*,#408,.F.);
#623=ORIENTED_EDGE('',*,*,#399,.F.);
#624=ORIENTED_EDGE('',*,*,#369,.F.);
#625=ORIENTED_EDGE('',*,*,#426,.F.);
#626=ORIENTED_EDGE('',*,*,#424,.F.);
#627=PLANE('',#700);
#628=PLANE('',#701);
#629=PLANE('',#702);
#630=PLANE('',#708);
#631=PLANE('',#709);
#632=PLANE('',#712);
#633=PLANE('',#713);
#634=PLANE('',#721);
#635=PLANE('',#724);
#636=PLANE('',#727);
#637=PLANE('',#730);
#638=PLANE('',#737);
#639=PLANE('',#738);
#640=PLANE('',#740);
#641=PLANE('',#742);
#642=PLANE('',#747);
#643=PLANE('',#748);
#644=PLANE('',#753);
#645=PLANE('',#754);
#646=PLANE('',#755);
#647=PLANE('',#756);
#648=PLANE('',#757);
#649=PLANE('',#758);
#650=ADVANCED_FACE('',(#63),#627,.T.);
#651=ADVANCED_FACE('',(#64),#628,.T.);
#652=ADVANCED_FACE('',(#65),#629,.F.);
#653=ADVANCED_FACE('',(#66),#630,.T.);
#654=ADVANCED_FACE('',(#67),#631,.F.);
#655=ADVANCED_FACE('',(#68),#52,.T.);
#656=ADVANCED_FACE('',(#69),#40,.F.);
#657=ADVANCED_FACE('',(#70),#632,.F.);
#658=ADVANCED_FACE('',(#71,#15,#16),#633,.T.);
#659=ADVANCED_FACE('',(#72),#41,.F.);
#660=ADVANCED_FACE('',(#73),#634,.T.);
#661=ADVANCED_FACE('',(#74),#42,.F.);
#662=ADVANCED_FACE('',(#75),#635,.F.);
#663=ADVANCED_FACE('',(#76),#43,.F.);
#664=ADVANCED_FACE('',(#77),#636,.T.);
#665=ADVANCED_FACE('',(#78),#44,.T.);
#666=ADVANCED_FACE('',(#79),#637,.T.);
#667=ADVANCED_FACE('',(#80),#45,.T.);
#668=ADVANCED_FACE('',(#81),#46,.F.);
#669=ADVANCED_FACE('',(#82),#47,.F.);
#670=ADVANCED_FACE('',(#83),#638,.F.);
#671=ADVANCED_FACE('',(#84,#17),#639,.T.);
#672=ADVANCED_FACE('',(#85,#18),#640,.T.);
#673=ADVANCED_FACE('',(#86),#641,.T.);
#674=ADVANCED_FACE('',(#87),#48,.F.);
#675=ADVANCED_FACE('',(#88),#49,.F.);
#676=ADVANCED_FACE('',(#89),#642,.T.);
#677=ADVANCED_FACE('',(#90),#643,.T.);
#678=ADVANCED_FACE('',(#91),#50,.F.);
#679=ADVANCED_FACE('',(#92),#51,.F.);
#680=ADVANCED_FACE('',(#93),#644,.T.);
#681=ADVANCED_FACE('',(#94),#645,.T.);
#682=ADVANCED_FACE('',(#95),#646,.T.);
#683=ADVANCED_FACE('',(#96),#647,.T.);
#684=ADVANCED_FACE('',(#97),#648,.T.);
#685=ADVANCED_FACE('',(#98,#19,#20),#649,.F.);
#686=CLOSED_SHELL('',(#650,#651,#652,#653,#654,#655,#656,#657,#658,#659,
#660,#661,#662,#663,#664,#665,#666,#667,#668,#669,#670,#671,#672,#673,#674,
#675,#676,#677,#678,#679,#680,#681,#682,#683,#684,#685));
#687=DERIVED_UNIT_ELEMENT(#689,1.);
#688=DERIVED_UNIT_ELEMENT(#1266,-3.);
#689=(
MASS_UNIT()
NAMED_UNIT(*)
SI_UNIT(.KILO.,.GRAM.)
);
#690=DERIVED_UNIT((#687,#688));
#691=MEASURE_REPRESENTATION_ITEM('density measure',
POSITIVE_RATIO_MEASURE(7850.),#690);
#692=PROPERTY_DEFINITION_REPRESENTATION(#697,#694);
#693=PROPERTY_DEFINITION_REPRESENTATION(#698,#695);
#694=REPRESENTATION('material name',(#696),#1263);
#695=REPRESENTATION('density',(#691),#1263);
#696=DESCRIPTIVE_REPRESENTATION_ITEM('Stahl','Stahl');
#697=PROPERTY_DEFINITION('material property','material name',#1273);
#698=PROPERTY_DEFINITION('material property','density of part',#1273);
#699=AXIS2_PLACEMENT_3D('',#946,#759,#760);
#700=AXIS2_PLACEMENT_3D('',#947,#761,#762);
#701=AXIS2_PLACEMENT_3D('',#956,#767,#768);
#702=AXIS2_PLACEMENT_3D('',#964,#773,#774);
#703=AXIS2_PLACEMENT_3D('',#968,#776,#777);
#704=AXIS2_PLACEMENT_3D('',#972,#779,#780);
#705=AXIS2_PLACEMENT_3D('',#980,#784,#785);
#706=AXIS2_PLACEMENT_3D('',#984,#787,#788);
#707=AXIS2_PLACEMENT_3D('',#1040,#790,#791);
#708=AXIS2_PLACEMENT_3D('',#1041,#792,#793);
#709=AXIS2_PLACEMENT_3D('',#1047,#797,#798);
#710=AXIS2_PLACEMENT_3D('',#1110,#802,#803);
#711=AXIS2_PLACEMENT_3D('',#1114,#805,#806);
#712=AXIS2_PLACEMENT_3D('',#1129,#808,#809);
#713=AXIS2_PLACEMENT_3D('',#1135,#813,#814);
#714=AXIS2_PLACEMENT_3D('',#1143,#818,#819);
#715=AXIS2_PLACEMENT_3D('',#1155,#825,#826);
#716=AXIS2_PLACEMENT_3D('',#1158,#828,#829);
#717=AXIS2_PLACEMENT_3D('',#1160,#830,#831);
#718=AXIS2_PLACEMENT_3D('',#1162,#832,#833);
#719=AXIS2_PLACEMENT_3D('',#1163,#834,#835);
#720=AXIS2_PLACEMENT_3D('',#1166,#837,#838);
#721=AXIS2_PLACEMENT_3D('',#1167,#839,#840);
#722=AXIS2_PLACEMENT_3D('',#1171,#843,#844);
#723=AXIS2_PLACEMENT_3D('',#1174,#846,#847);
#724=AXIS2_PLACEMENT_3D('',#1175,#848,#849);
#725=AXIS2_PLACEMENT_3D('',#1179,#852,#853);
#726=AXIS2_PLACEMENT_3D('',#1181,#854,#855);
#727=AXIS2_PLACEMENT_3D('',#1183,#857,#858);
#728=AXIS2_PLACEMENT_3D('',#1189,#862,#863);
#729=AXIS2_PLACEMENT_3D('',#1193,#865,#866);
#730=AXIS2_PLACEMENT_3D('',#1195,#868,#869);
#731=AXIS2_PLACEMENT_3D('',#1199,#872,#873);
#732=AXIS2_PLACEMENT_3D('',#1205,#874,#875);
#733=AXIS2_PLACEMENT_3D('',#1207,#877,#878);
#734=AXIS2_PLACEMENT_3D('',#1208,#879,#880);
#735=AXIS2_PLACEMENT_3D('',#1209,#881,#882);
#736=AXIS2_PLACEMENT_3D('',#1212,#884,#885);
#737=AXIS2_PLACEMENT_3D('',#1213,#886,#887);
#738=AXIS2_PLACEMENT_3D('',#1217,#890,#891);
#739=AXIS2_PLACEMENT_3D('',#1220,#893,#894);
#740=AXIS2_PLACEMENT_3D('',#1221,#895,#896);
#741=AXIS2_PLACEMENT_3D('',#1224,#898,#899);
#742=AXIS2_PLACEMENT_3D('',#1225,#900,#901);
#743=AXIS2_PLACEMENT_3D('',#1226,#902,#903);
#744=AXIS2_PLACEMENT_3D('',#1229,#905,#906);
#745=AXIS2_PLACEMENT_3D('',#1230,#907,#908);
#746=AXIS2_PLACEMENT_3D('',#1233,#910,#911);
#747=AXIS2_PLACEMENT_3D('',#1234,#912,#913);
#748=AXIS2_PLACEMENT_3D('',#1235,#914,#915);
#749=AXIS2_PLACEMENT_3D('',#1236,#916,#917);
#750=AXIS2_PLACEMENT_3D('',#1239,#919,#920);
#751=AXIS2_PLACEMENT_3D('',#1240,#921,#922);
#752=AXIS2_PLACEMENT_3D('',#1243,#924,#925);
#753=AXIS2_PLACEMENT_3D('',#1244,#926,#927);
#754=AXIS2_PLACEMENT_3D('',#1248,#930,#931);
#755=AXIS2_PLACEMENT_3D('',#1252,#934,#935);
#756=AXIS2_PLACEMENT_3D('',#1256,#938,#939);
#757=AXIS2_PLACEMENT_3D('',#1258,#941,#942);
#758=AXIS2_PLACEMENT_3D('',#1260,#944,#945);
#759=DIRECTION('axis',(0.,0.,1.));
#760=DIRECTION('refdir',(1.,0.,0.));
#761=DIRECTION('center_axis',(0.,-0.749678175815866,0.66180256323574));
#762=DIRECTION('ref_axis',(1.,0.,0.));
#763=DIRECTION('',(0.,0.66180256323574,0.749678175815866));
#764=DIRECTION('',(-1.,0.,0.));
#765=DIRECTION('',(5.74411773716807E-8,-0.661802563235739,-0.749678175815864));
#766=DIRECTION('',(1.,0.,0.));
#767=DIRECTION('center_axis',(1.,0.,0.));
#768=DIRECTION('ref_axis',(0.,1.,0.));
#769=DIRECTION('',(0.,0.124034734589208,-0.992277876713668));
#770=DIRECTION('',(0.,-1.,0.));
#771=DIRECTION('',(0.,0.,1.));
#772=DIRECTION('',(0.,-1.,0.));
#773=DIRECTION('center_axis',(0.,0.992277876713668,0.124034734589208));
#774=DIRECTION('ref_axis',(0.,-0.124034734589208,0.992277876713668));
#775=DIRECTION('',(-7.6029436839714E-8,-0.124034734589208,0.992277876713665));
#776=DIRECTION('center_axis',(0.,-0.992277876713668,-0.124034734589208));
#777=DIRECTION('ref_axis',(2.61641814568998E-15,0.124034734589208,-0.992277876713668));
#778=DIRECTION('',(1.,0.,0.));
#779=DIRECTION('center_axis',(0.,-0.992277876713668,-0.124034734589208));
#780=DIRECTION('ref_axis',(-6.19677981873943E-16,0.124034734589208,-0.992277876713668));
#781=DIRECTION('',(0.,0.124034734589208,-0.992277876713668));
#782=DIRECTION('',(1.,0.,0.));
#783=DIRECTION('',(1.10164974555368E-16,-0.124034734589208,0.992277876713668));
#784=DIRECTION('center_axis',(0.,-0.992277876713668,-0.124034734589208));
#785=DIRECTION('ref_axis',(-8.81319796442941E-15,0.124034734589208,-0.992277876713668));
#786=DIRECTION('',(1.,0.,0.));
#787=DIRECTION('center_axis',(0.,0.992277876713668,0.124034734589208));
#788=DIRECTION('ref_axis',(0.,0.124034734589208,-0.992277876713668));
#789=DIRECTION('',(0.,0.124034734589208,-0.992277876713668));
#790=DIRECTION('center_axis',(0.,-0.992277876713668,-0.124034734589208));
#791=DIRECTION('ref_axis',(3.67216581851225E-16,0.124034734589208,-0.992277876713668));
#792=DIRECTION('center_axis',(0.,-0.749678175815866,0.66180256323574));
#793=DIRECTION('ref_axis',(1.,0.,0.));
#794=DIRECTION('',(5.87798754768212E-16,-0.66180256323574,-0.749678175815866));
#795=DIRECTION('',(0.,0.66180256323574,0.749678175815866));
#796=DIRECTION('',(-1.,0.,0.));
#797=DIRECTION('center_axis',(-1.,0.,0.));
#798=DIRECTION('ref_axis',(0.,0.,-1.));
#799=DIRECTION('',(0.,-1.,0.));
#800=DIRECTION('',(0.,0.,-1.));
#801=DIRECTION('',(0.,1.,0.));
#802=DIRECTION('center_axis',(0.,0.,1.));
#803=DIRECTION('ref_axis',(0.707106781186547,0.707106781186547,0.));
#804=DIRECTION('',(0.,0.,-1.));
#805=DIRECTION('center_axis',(0.,0.,-1.));
#806=DIRECTION('ref_axis',(0.707106781186547,0.707106781186547,0.));
#807=DIRECTION('',(0.,0.,1.));
#808=DIRECTION('center_axis',(0.,1.,0.));
#809=DIRECTION('ref_axis',(0.,0.,1.));
#810=DIRECTION('',(1.,0.,0.));
#811=DIRECTION('',(0.,0.,1.));
#812=DIRECTION('',(-1.,0.,0.));
#813=DIRECTION('center_axis',(0.,0.,1.));
#814=DIRECTION('ref_axis',(1.,0.,0.));
#815=DIRECTION('',(8.88178419700125E-16,-1.,0.));
#816=DIRECTION('',(1.,-1.8897413185109E-16,0.));
#817=DIRECTION('',(0.,1.,0.));
#818=DIRECTION('center_axis',(0.,0.,-1.));
#819=DIRECTION('ref_axis',(-0.707106781186548,-0.707106781186548,0.));
#820=DIRECTION('',(1.,-4.93038065763132E-33,0.));
#821=DIRECTION('',(0.,1.,0.));
#822=DIRECTION('',(-1.,0.,0.));
#823=DIRECTION('',(0.,-1.,0.));
#824=DIRECTION('',(1.,-4.93038065763132E-33,0.));
#825=DIRECTION('center_axis',(0.,0.,-1.));
#826=DIRECTION('ref_axis',(0.707106781186548,-0.707106781186547,0.));
#827=DIRECTION('',(0.,1.,0.));
#828=DIRECTION('center_axis',(0.,0.,1.));
#829=DIRECTION('ref_axis',(-0.707106781186547,0.707106781186547,0.));
#830=DIRECTION('center_axis',(0.,0.,-1.));
#831=DIRECTION('ref_axis',(1.,0.,0.));
#832=DIRECTION('center_axis',(0.,0.,-1.));
#833=DIRECTION('ref_axis',(1.,0.,0.));
#834=DIRECTION('center_axis',(-8.88178419700125E-16,1.,0.));
#835=DIRECTION('ref_axis',(0.707106781186548,5.23364152894591E-16,-0.707106781186547));
#836=DIRECTION('',(0.,-1.,0.));
#837=DIRECTION('center_axis',(1.8897413185109E-16,1.,0.));
#838=DIRECTION('ref_axis',(0.707106781186548,5.23364152894591E-16,-0.707106781186547));
#839=DIRECTION('center_axis',(-1.,-8.88178419700125E-16,0.));
#840=DIRECTION('ref_axis',(8.88178419700125E-16,-1.,0.));
#841=DIRECTION('',(8.88178419700125E-16,-1.,0.));
#842=DIRECTION('',(0.,0.,1.));
#843=DIRECTION('center_axis',(0.,-1.,0.));
#844=DIRECTION('ref_axis',(-0.707106781186548,0.,-0.707106781186547));
#845=DIRECTION('',(0.,1.,0.));
#846=DIRECTION('center_axis',(1.8897413185109E-16,1.,0.));
#847=DIRECTION('ref_axis',(-0.707106781186548,0.,-0.707106781186547));
#848=DIRECTION('center_axis',(0.,0.,-1.));
#849=DIRECTION('ref_axis',(1.,0.,0.));
#850=DIRECTION('',(0.,-1.,0.));
#851=DIRECTION('',(1.,-1.8897413185109E-16,0.));
#852=DIRECTION('center_axis',(0.,0.,1.));
#853=DIRECTION('ref_axis',(-0.707106781186547,0.707106781186547,0.));
#854=DIRECTION('center_axis',(0.,0.,-1.));
#855=DIRECTION('ref_axis',(-0.707106781186547,0.707106781186547,0.));
#856=DIRECTION('',(0.,0.,-1.));
#857=DIRECTION('center_axis',(-1.,0.,0.));
#858=DIRECTION('ref_axis',(0.,-1.,0.));
#859=DIRECTION('',(0.,-1.,0.));
#860=DIRECTION('',(0.,0.,-1.));
#861=DIRECTION('',(0.,-1.,0.));
#862=DIRECTION('center_axis',(0.,0.,1.));
#863=DIRECTION('ref_axis',(0.707106781186548,-0.707106781186547,0.));
#864=DIRECTION('',(0.,0.,-1.));
#865=DIRECTION('center_axis',(0.,0.,1.));
#866=DIRECTION('ref_axis',(0.707106781186548,-0.707106781186547,0.));
#867=DIRECTION('',(0.,0.,1.));
#868=DIRECTION('center_axis',(-4.93038065763132E-33,-1.,0.));
#869=DIRECTION('ref_axis',(1.,-4.93038065763132E-33,0.));
#870=DIRECTION('',(0.,0.,1.));
#871=DIRECTION('',(-1.,4.93038065763132E-33,0.));
#872=DIRECTION('center_axis',(0.,0.,1.));
#873=DIRECTION('ref_axis',(-0.707106781186548,-0.707106781186548,0.));
#874=DIRECTION('center_axis',(0.,0.,1.));
#875=DIRECTION('ref_axis',(-0.707106781186548,-0.707106781186548,0.));
#876=DIRECTION('',(0.,0.,1.));
#877=DIRECTION('center_axis',(0.,-1.,0.));
#878=DIRECTION('ref_axis',(-0.707106781186547,0.,-0.707106781186548));
#879=DIRECTION('center_axis',(1.8897413185109E-16,1.,0.));
#880=DIRECTION('ref_axis',(-0.707106781186547,0.,-0.707106781186548));
#881=DIRECTION('center_axis',(0.,-1.,0.));
#882=DIRECTION('ref_axis',(0.707106808276202,0.,-0.707106754096892));
#883=DIRECTION('',(0.,1.,0.));
#884=DIRECTION('center_axis',(1.8897413185109E-16,1.,0.));
#885=DIRECTION('ref_axis',(0.707106808276202,0.,-0.707106754096892));
#886=DIRECTION('center_axis',(0.999999999999997,0.,7.66211145324699E-8));
#887=DIRECTION('ref_axis',(-7.66211145324699E-8,0.,0.999999999999997));
#888=DIRECTION('',(0.,-1.,0.));
#889=DIRECTION('',(-7.66211145324699E-8,1.44794086002365E-23,0.999999999999997));
#890=DIRECTION('center_axis',(0.,0.,1.));
#891=DIRECTION('ref_axis',(-1.,0.,0.));
#892=DIRECTION('',(-1.,1.8897413185109E-16,0.));
#893=DIRECTION('center_axis',(0.,0.,-1.));
#894=DIRECTION('ref_axis',(-1.,0.,0.));
#895=DIRECTION('center_axis',(0.,0.,1.));
#896=DIRECTION('ref_axis',(-1.,0.,0.));
#897=DIRECTION('',(-1.,1.8897413185109E-16,0.));
#898=DIRECTION('center_axis',(0.,0.,-1.));
#899=DIRECTION('ref_axis',(-1.,0.,0.));
#900=DIRECTION('center_axis',(1.8897413185109E-16,1.,0.));
#901=DIRECTION('ref_axis',(-1.,1.8897413185109E-16,0.));
#902=DIRECTION('center_axis',(0.,0.,1.));
#903=DIRECTION('ref_axis',(-1.,0.,0.));
#904=DIRECTION('',(0.,0.,-1.));
#905=DIRECTION('center_axis',(0.,0.,1.));
#906=DIRECTION('ref_axis',(-1.,0.,0.));
#907=DIRECTION('center_axis',(0.,0.,1.));
#908=DIRECTION('ref_axis',(-1.,0.,0.));
#909=DIRECTION('',(0.,0.,-1.));
#910=DIRECTION('center_axis',(0.,0.,1.));
#911=DIRECTION('ref_axis',(-1.,0.,0.));
#912=DIRECTION('center_axis',(0.,0.,1.));
#913=DIRECTION('ref_axis',(1.,0.,0.));
#914=DIRECTION('center_axis',(0.,0.,1.));
#915=DIRECTION('ref_axis',(1.,0.,0.));
#916=DIRECTION('center_axis',(0.,0.,1.));
#917=DIRECTION('ref_axis',(1.,0.,0.));
#918=DIRECTION('',(0.,0.,-1.));
#919=DIRECTION('center_axis',(0.,0.,-1.));
#920=DIRECTION('ref_axis',(1.,0.,0.));
#921=DIRECTION('center_axis',(0.,0.,1.));
#922=DIRECTION('ref_axis',(1.,0.,0.));
#923=DIRECTION('',(0.,0.,-1.));
#924=DIRECTION('center_axis',(0.,0.,-1.));
#925=DIRECTION('ref_axis',(1.,0.,0.));
#926=DIRECTION('center_axis',(-1.,0.,0.));
#927=DIRECTION('ref_axis',(0.,-1.,0.));
#928=DIRECTION('',(0.,1.,0.));
#929=DIRECTION('',(0.,0.,1.));
#930=DIRECTION('center_axis',(0.,1.,0.));
#931=DIRECTION('ref_axis',(-1.,0.,0.));
#932=DIRECTION('',(1.,0.,0.));
#933=DIRECTION('',(0.,0.,1.));
#934=DIRECTION('center_axis',(1.,0.,0.));
#935=DIRECTION('ref_axis',(0.,1.,0.));
#936=DIRECTION('',(0.,-1.,0.));
#937=DIRECTION('',(0.,0.,1.));
#938=DIRECTION('center_axis',(-4.93038065763132E-33,-1.,0.));
#939=DIRECTION('ref_axis',(1.,-4.93038065763132E-33,0.));
#940=DIRECTION('',(-1.,4.93038065763132E-33,0.));
#941=DIRECTION('center_axis',(1.,0.,0.));
#942=DIRECTION('ref_axis',(0.,1.,0.));
#943=DIRECTION('',(0.,1.,0.));
#944=DIRECTION('center_axis',(0.,0.,1.));
#945=DIRECTION('ref_axis',(1.,0.,0.));
#946=CARTESIAN_POINT('',(0.,0.,0.));
#947=CARTESIAN_POINT('Origin',(-31.115,7.5620173672946,10.5038610616432));
#948=CARTESIAN_POINT('',(-11.98,7.12403473458921,10.0077221232863));
#949=CARTESIAN_POINT('',(-11.98,8.,11.));
#950=CARTESIAN_POINT('',(-11.98,5.79645293021996,8.50386106164317));
#951=CARTESIAN_POINT('',(-18.73,8.,11.));
#952=CARTESIAN_POINT('',(-31.115,8.,11.));
#953=CARTESIAN_POINT('',(-18.7299999239706,7.12403473458921,10.0077221232863));
#954=CARTESIAN_POINT('',(-18.729999994778,7.93983505062314,10.9318462151667));
#955=CARTESIAN_POINT('',(-31.115,7.12403473458921,10.0077221232863));
#956=CARTESIAN_POINT('Origin',(-11.98,8.,3.));
#957=CARTESIAN_POINT('',(-11.98,7.625,6.));
#958=CARTESIAN_POINT('',(-11.98,8.,3.));
#959=CARTESIAN_POINT('',(-11.98,12.69,6.));
#960=CARTESIAN_POINT('',(-11.98,7.25,6.));
#961=CARTESIAN_POINT('',(-11.98,12.69,11.));
#962=CARTESIAN_POINT('',(-11.98,12.69,3.));
#963=CARTESIAN_POINT('',(-11.98,8.,11.));
#964=CARTESIAN_POINT('Origin',(-38.5,8.,3.));
#965=CARTESIAN_POINT('',(-18.7299998850684,7.18749998084472,9.50000015324223));
#966=CARTESIAN_POINT('',(-18.7299995346624,7.75915375293541,4.92676997651668));
#967=CARTESIAN_POINT('',(-20.7299998850684,7.4375,7.5));
#968=CARTESIAN_POINT('Origin',(-20.7299998850684,7.1875,9.5));
#969=CARTESIAN_POINT('',(-26.73,7.4375,7.5));
#970=CARTESIAN_POINT('',(-33.615,7.4375,7.5));
#971=CARTESIAN_POINT('',(-28.73,7.1875,9.5));
#972=CARTESIAN_POINT('Origin',(-26.73,7.1875,9.5));
#973=CARTESIAN_POINT('',(-28.73,7.12403473458921,10.0077221232863));
#974=CARTESIAN_POINT('',(-28.73,7.54376923076923,6.64984615384615));
#975=CARTESIAN_POINT('',(-35.48,7.12403473458921,10.0077221232863));
#976=CARTESIAN_POINT('',(-31.115,7.12403473458921,10.0077221232863));
#977=CARTESIAN_POINT('',(-35.48,7.625,6.));
#978=CARTESIAN_POINT('',(-35.48,8.03607692307692,2.71138461538462));
#979=CARTESIAN_POINT('',(-38.48,8.,3.));
#980=CARTESIAN_POINT('Origin',(-38.48,7.625,6.));
#981=CARTESIAN_POINT('',(-11.5,8.,3.));
#982=CARTESIAN_POINT('',(-38.5,8.,3.));
#983=CARTESIAN_POINT('',(-11.457322940193,7.99963570717138,3.00291434262901));
#984=CARTESIAN_POINT('Origin',(-11.5,5.5,23.));
#985=CARTESIAN_POINT('',(-11.5,7.9976833630141,3.01853309588719));
#986=CARTESIAN_POINT('Ctrl Pts',(-11.5000008716599,7.99768340842501,3.01852919228029));
#987=CARTESIAN_POINT('Ctrl Pts',(-11.5000008712537,7.99768381916561,3.01852590800547));
#988=CARTESIAN_POINT('Ctrl Pts',(-11.5000007021401,7.99768450367635,3.01852052747982));
#989=CARTESIAN_POINT('Ctrl Pts',(-11.5000005952635,7.99768492194599,3.01851719782151));
#990=CARTESIAN_POINT('Ctrl Pts',(-11.5000004501452,7.99768548987764,3.01851267677058));
#991=CARTESIAN_POINT('Ctrl Pts',(-11.5000002636185,7.99768607280803,3.01850803113703));
#992=CARTESIAN_POINT('Ctrl Pts',(-11.5000000549787,7.99768664361599,3.01850348055386));
#993=CARTESIAN_POINT('Ctrl Pts',(-11.4999996375101,7.99768778574935,3.0184943752624));
#994=CARTESIAN_POINT('Ctrl Pts',(-11.4999991044815,7.99768895537446,3.01848504371917));
#995=CARTESIAN_POINT('Ctrl Pts',(-11.4999985085382,7.99769010216159,3.01847589191553));
#996=CARTESIAN_POINT('Ctrl Pts',(-11.4999973186817,7.99769239182971,3.01845761948079));
#997=CARTESIAN_POINT('Ctrl Pts',(-11.4999958055997,7.99769473316954,3.01843892384154));
#998=CARTESIAN_POINT('Ctrl Pts',(-11.49999411511,7.99769702941179,3.01842058362972));
#999=CARTESIAN_POINT('Ctrl Pts',(-11.4999907385165,7.9977016159388,3.01838395078891));
#1000=CARTESIAN_POINT('Ctrl Pts',(-11.4999864551328,7.99770629893675,3.01834652736398));
#1001=CARTESIAN_POINT('Ctrl Pts',(-11.4999816737275,7.99771088851922,3.01830983877474));
#1002=CARTESIAN_POINT('Ctrl Pts',(-11.4999721039912,7.997720074332,3.01823640845423));
#1003=CARTESIAN_POINT('Ctrl Pts',(-11.4999599843417,7.9977294304804,3.01816156731208));
#1004=CARTESIAN_POINT('Ctrl Pts',(-11.4999464719951,7.99773858047753,3.01808833741401));
#1005=CARTESIAN_POINT('Ctrl Pts',(-11.4999193092872,7.99775697392962,3.01794112964958));
#1006=CARTESIAN_POINT('Ctrl Pts',(-11.4998849555354,7.99777561721483,3.01779176400332));
#1007=CARTESIAN_POINT('Ctrl Pts',(-11.4998467247138,7.99779376180648,3.01764625344896));
#1008=CARTESIAN_POINT('Ctrl Pts',(-11.4997691803659,7.99783056484829,3.01735111145187));
#1009=CARTESIAN_POINT('Ctrl Pts',(-11.4996712919953,7.99786750548987,3.01705425775637));
#1010=CARTESIAN_POINT('Ctrl Pts',(-11.4995628257276,7.99790311374629,3.01676752865452));
#1011=CARTESIAN_POINT('Ctrl Pts',(-11.4993386843043,7.99797669685594,3.01617501385416));
#1012=CARTESIAN_POINT('Ctrl Pts',(-11.4990564744998,7.99804893428234,3.01559074656625));
#1013=CARTESIAN_POINT('Ctrl Pts',(-11.4987456785816,7.99811701746514,3.01503790315447));
#1014=CARTESIAN_POINT('Ctrl Pts',(-11.4982379481528,7.9982282412669,3.01413475286818));
#1015=CARTESIAN_POINT('Ctrl Pts',(-11.4976291453336,7.99833328709699,3.01327688067635));
#1016=CARTESIAN_POINT('Ctrl Pts',(-11.4969680989769,7.99843093583408,3.01247367869964));
#1017=CARTESIAN_POINT('Ctrl Pts',(-11.4967585910639,7.99846188401633,3.01221911687024));
#1018=CARTESIAN_POINT('Ctrl Pts',(-11.4965435712799,7.99849206201806,3.01197035838755));
#1019=CARTESIAN_POINT('Ctrl Pts',(-11.4963238998148,7.99852138313584,3.01172845889938));
#1020=CARTESIAN_POINT('Ctrl Pts',(-11.4949711814565,7.99870194010658,3.01023886224972));
#1021=CARTESIAN_POINT('Ctrl Pts',(-11.4932626805149,7.99887725755914,3.00877650494163));
#1022=CARTESIAN_POINT('Ctrl Pts',(-11.4911853735174,7.99903607887714,3.00743793217278));
#1023=CARTESIAN_POINT('Ctrl Pts',(-11.4903976533434,7.99909630433076,3.00693034192463));
#1024=CARTESIAN_POINT('Ctrl Pts',(-11.4895566277193,7.9991541297701,3.0064410525473));
#1025=CARTESIAN_POINT('Ctrl Pts',(-11.4886607602771,7.9992088873457,3.00597700928792));
#1026=CARTESIAN_POINT('Ctrl Pts',(-11.4877391001046,7.99926522143508,3.00549960585707));
#1027=CARTESIAN_POINT('Ctrl Pts',(-11.4867675684761,7.99931782118947,3.00505306770205));
#1028=CARTESIAN_POINT('Ctrl Pts',(-11.4857458113818,7.99936632123609,3.00464129997171));
#1029=CARTESIAN_POINT('Ctrl Pts',(-11.483059331817,7.99949384115729,3.00355864970268));
#1030=CARTESIAN_POINT('Ctrl Pts',(-11.4800262313591,7.99959320575586,3.00271500356042));
#1031=CARTESIAN_POINT('Ctrl Pts',(-11.4766285075131,7.99965608643524,3.00219773958008));
#1032=CARTESIAN_POINT('Ctrl Pts',(-11.4731886073156,7.99971974765999,3.00167405474025));
#1033=CARTESIAN_POINT('Ctrl Pts',(-11.4696502991526,7.99974100582543,3.00152071479629));
#1034=CARTESIAN_POINT('Ctrl Pts',(-11.4661117826677,7.999727986056,3.00165579631855));
#1035=CARTESIAN_POINT('Ctrl Pts',(-11.4634615123774,7.99971823453774,3.00175696937984));
#1036=CARTESIAN_POINT('Ctrl Pts',(-11.4608098160702,7.99968926273003,3.0020200218819));
#1037=CARTESIAN_POINT('Ctrl Pts',(-11.4581790225269,7.99964428239283,3.00241124053272));
#1038=CARTESIAN_POINT('',(-11.5,7.82846989949376,4.37224080404993));
#1039=CARTESIAN_POINT('',(-11.5,8.18461538461538,1.52307692307692));
#1040=CARTESIAN_POINT('Origin',(-8.98000000000001,7.625,6.));
#1041=CARTESIAN_POINT('Origin',(-31.115,7.5620173672946,10.5038610616432));
#1042=CARTESIAN_POINT('',(-35.48,8.,11.));
#1043=CARTESIAN_POINT('',(-35.48,6.82352220391412,9.66730687208995));
#1044=CARTESIAN_POINT('',(-28.73,8.,11.));
#1045=CARTESIAN_POINT('',(-28.73,8.80807795734146,11.9153763412684));
#1046=CARTESIAN_POINT('',(-31.115,8.,11.));
#1047=CARTESIAN_POINT('Origin',(-28.73,12.69,11.));
#1048=CARTESIAN_POINT('',(-28.73,12.69,9.5));
#1049=CARTESIAN_POINT('',(-28.73,12.69,9.5));
#1050=CARTESIAN_POINT('',(-28.73,12.69,11.));
#1051=CARTESIAN_POINT('',(-28.73,12.69,7.));
#1052=CARTESIAN_POINT('',(-28.73,11.5175,11.));
#1053=CARTESIAN_POINT('Ctrl Pts',(-11.5000008716599,7.99768340842501,3.01852919228029));
#1054=CARTESIAN_POINT('Ctrl Pts',(-11.5,7.9976833630141,3.01853309588719));
#1055=CARTESIAN_POINT('Ctrl Pts',(-11.5,7.99461600741636,3.0430719406691));
#1056=CARTESIAN_POINT('Ctrl Pts',(-11.5,7.9873295082959,3.10136393363276));
#1057=CARTESIAN_POINT('Ctrl Pts',(-11.5,7.9653901680474,3.27687865562076));
#1058=CARTESIAN_POINT('Ctrl Pts',(-11.5,7.91180790157005,3.70553678743958));
#1059=CARTESIAN_POINT('Ctrl Pts',(-11.5,7.86182084245106,4.10543326039151));
#1060=CARTESIAN_POINT('Ctrl Pts',(-11.5,7.82846989949376,4.37224080404993));
#1061=CARTESIAN_POINT('Ctrl Pts',(-11.5,7.99856475379944,3.01148196960447));
#1062=CARTESIAN_POINT('Ctrl Pts',(-11.496348449572,7.99856475379944,3.01148196960447));
#1063=CARTESIAN_POINT('Ctrl Pts',(-11.4906664257097,7.99666149017352,3.03613976896811));
#1064=CARTESIAN_POINT('Ctrl Pts',(-11.4840309296216,7.99213185707629,3.09471197615002));
#1065=CARTESIAN_POINT('Ctrl Pts',(-11.4725022967436,7.97841012451271,3.27105692136147));
#1066=CARTESIAN_POINT('Ctrl Pts',(-11.4627012938579,7.94443598156401,3.70163642482744));
#1067=CARTESIAN_POINT('Ctrl Pts',(-11.4637094068632,7.91106695220329,4.10300771678114));
#1068=CARTESIAN_POINT('Ctrl Pts',(-11.4673894598145,7.88803765353045,4.37060123277579));
#1069=CARTESIAN_POINT('Ctrl Pts',(-11.5,7.99966856789831,2.9990876762982));
#1070=CARTESIAN_POINT('Ctrl Pts',(-11.4899332710853,7.99966856789831,2.9990876762982));
#1071=CARTESIAN_POINT('Ctrl Pts',(-11.4742092781704,7.99915019196804,3.02387183166954));
#1072=CARTESIAN_POINT('Ctrl Pts',(-11.4554589047883,7.99791996740456,3.08274412118753));
#1073=CARTESIAN_POINT('Ctrl Pts',(-11.421607090702,7.994240551994,3.25999695369745));
#1074=CARTESIAN_POINT('Ctrl Pts',(-11.385157283315,7.98533095878385,3.69279833086392));
#1075=CARTESIAN_POINT('Ctrl Pts',(-11.3745493044461,7.97727739278934,4.09627489242676));
#1076=CARTESIAN_POINT('Ctrl Pts',(-11.3737780114652,7.97173912905134,4.36521903472056));
#1077=CARTESIAN_POINT('Ctrl Pts',(-11.5,8.,2.98665217527672));
#1078=CARTESIAN_POINT('Ctrl Pts',(-11.4835027424054,8.,2.98665217527672));
#1079=CARTESIAN_POINT('Ctrl Pts',(-11.4576707996069,7.99969907068884,3.01150059110805));
#1080=CARTESIAN_POINT('Ctrl Pts',(-11.4264949048504,7.99899847470379,3.07052832223216));
#1081=CARTESIAN_POINT('Ctrl Pts',(-11.3688920376668,7.99694150908064,3.24826059278914));
#1082=CARTESIAN_POINT('Ctrl Pts',(-11.2996330293194,7.99246424905505,3.68234816219133));
#1083=CARTESIAN_POINT('Ctrl Pts',(-11.2666665717284,7.98950533012438,4.08733369594552));
#1084=CARTESIAN_POINT('Ctrl Pts',(-11.2522241819682,7.98821058065898,4.35751653214441));
#1085=CARTESIAN_POINT('Ctrl Pts',(-11.5,8.,2.98132267551043));
#1086=CARTESIAN_POINT('Ctrl Pts',(-11.4807478960131,8.,2.98132267551043));
#1087=CARTESIAN_POINT('Ctrl Pts',(-11.4505882568893,7.99957895382475,3.00619862466278));
#1088=CARTESIAN_POINT('Ctrl Pts',(-11.4141092068331,7.99859325916139,3.06529300360352));
#1089=CARTESIAN_POINT('Ctrl Pts',(-11.3464212449097,7.9956899039363,3.24323077404783));
#1090=CARTESIAN_POINT('Ctrl Pts',(-11.2635202160916,7.98918144665769,3.67787075887567));
#1091=CARTESIAN_POINT('Ctrl Pts',(-11.2215631029955,7.98452636293828,4.08350355500833));
#1092=CARTESIAN_POINT('Ctrl Pts',(-11.2017468454483,7.98214525276019,4.35421804441683));
#1093=CARTESIAN_POINT('',(-11.2309589646195,7.98548122529247,4.01677441031051));
#1094=CARTESIAN_POINT('Ctrl Pts',(-11.2309589646195,7.98548122529247,4.01677441031051));
#1095=CARTESIAN_POINT('Ctrl Pts',(-11.28032154454,7.99082448014217,4.07280088675703));
#1096=CARTESIAN_POINT('Ctrl Pts',(-11.3289670014365,7.98119742546426,4.1325214984638));
#1097=CARTESIAN_POINT('Ctrl Pts',(-11.3976849026161,7.946620801363,4.22332070950293));
#1098=CARTESIAN_POINT('Ctrl Pts',(-11.4220011261302,7.92920374810112,4.25698767354005));
#1099=CARTESIAN_POINT('Ctrl Pts',(-11.464908712596,7.88605097829116,4.31875167473351));
#1100=CARTESIAN_POINT('Ctrl Pts',(-11.4844605580338,7.8597643781357,4.34818356397891));
#1101=CARTESIAN_POINT('Ctrl Pts',(-11.5,7.82846989949376,4.37224080404992));
#1102=CARTESIAN_POINT('Ctrl Pts',(-11.4575131578586,7.99963274102898,3.00309749554108));
#1103=CARTESIAN_POINT('Ctrl Pts',(-11.4561638515677,7.99960918211985,3.00449846706057));
#1104=CARTESIAN_POINT('Ctrl Pts',(-11.4424340605164,7.99935862056946,3.0194080467742));
#1105=CARTESIAN_POINT('Ctrl Pts',(-11.4141092068331,7.99859325916139,3.06529300360352));
#1106=CARTESIAN_POINT('Ctrl Pts',(-11.3464212449097,7.9956899039363,3.24323077404783));
#1107=CARTESIAN_POINT('Ctrl Pts',(-11.2847326952382,7.99084681216964,3.56665631744031));
#1108=CARTESIAN_POINT('Ctrl Pts',(-11.2474802681552,7.98721108686536,3.8589606758642));
#1109=CARTESIAN_POINT('Ctrl Pts',(-11.2312136591795,7.98548137322108,4.01680066013517));
#1110=CARTESIAN_POINT('Origin',(-11.5,5.5,0.));
#1111=CARTESIAN_POINT('',(-11.5,8.,0.));
#1112=CARTESIAN_POINT('',(-11.5,8.,0.));
#1113=CARTESIAN_POINT('',(-9.,5.5,0.));
#1114=CARTESIAN_POINT('Origin',(-11.5,5.5,0.));
#1115=CARTESIAN_POINT('',(-9.,5.5,3.00006666740742));
#1116=CARTESIAN_POINT('',(-9.,5.5,0.));
#1117=CARTESIAN_POINT('Ctrl Pts',(-9.,5.5,3.00006666740742));
#1118=CARTESIAN_POINT('Ctrl Pts',(-9.,5.85802098913369,3.00006666740742));
#1119=CARTESIAN_POINT('Ctrl Pts',(-9.0816085563723,6.23578797386647,2.99738495024514));
#1120=CARTESIAN_POINT('Ctrl Pts',(-9.40299956464245,6.91159093522181,3.02559352399668));
#1121=CARTESIAN_POINT('Ctrl Pts',(-9.64295933900283,7.20936370115943,3.06061704866546));
#1122=CARTESIAN_POINT('Ctrl Pts',(-10.0503036963832,7.54473759822844,3.19359106510219));
#1123=CARTESIAN_POINT('Ctrl Pts',(-10.2117103555042,7.65022523960405,3.25835654563128));
#1124=CARTESIAN_POINT('Ctrl Pts',(-10.5368915075234,7.8142127349721,3.42904525296863));
#1125=CARTESIAN_POINT('Ctrl Pts',(-10.700173380518,7.87321374520003,3.53542446725278));
#1126=CARTESIAN_POINT('Ctrl Pts',(-10.9797593597406,7.94938493597627,3.75690579496443));
#1127=CARTESIAN_POINT('Ctrl Pts',(-11.1107708478627,7.97247145678421,3.88036102382488));
#1128=CARTESIAN_POINT('Ctrl Pts',(-11.2309589646195,7.98548122529247,4.01677441031051));
#1129=CARTESIAN_POINT('Origin',(-38.5,8.,0.));
#1130=CARTESIAN_POINT('',(-38.5,8.,3.));
#1131=CARTESIAN_POINT('',(-31.75,8.,3.));
#1132=CARTESIAN_POINT('',(-38.5,8.,0.));
#1133=CARTESIAN_POINT('',(-38.5,8.,0.));
#1134=CARTESIAN_POINT('',(-31.75,8.,0.));
#1135=CARTESIAN_POINT('Origin',(-25.,6.5,3.));
#1136=CARTESIAN_POINT('',(-38.48,12.69,3.));
#1137=CARTESIAN_POINT('',(-38.48,9.595,3.));
#1138=CARTESIAN_POINT('',(-8.98000000000001,12.69,3.));
#1139=CARTESIAN_POINT('',(-18.49,12.69,3.));
#1140=CARTESIAN_POINT('',(-8.98000000000001,3.60050031289129,3.));
#1141=CARTESIAN_POINT('',(-8.98000000000001,7.25,3.));
#1142=CARTESIAN_POINT('',(-5.,2.46519032881566E-32,3.));
#1143=CARTESIAN_POINT('Origin',(-5.,4.,3.));
#1144=CARTESIAN_POINT('',(0.,0.,3.));
#1145=CARTESIAN_POINT('',(0.,0.,3.));
#1146=CARTESIAN_POINT('',(0.,13.,3.));
#1147=CARTESIAN_POINT('',(0.,13.,3.));
#1148=CARTESIAN_POINT('',(-50.,13.,3.));
#1149=CARTESIAN_POINT('',(-50.,13.,3.));
#1150=CARTESIAN_POINT('',(-50.,0.,3.));
#1151=CARTESIAN_POINT('',(-50.,2.46519032881566E-31,3.));
#1152=CARTESIAN_POINT('',(-45.,2.2186712959341E-31,3.));
#1153=CARTESIAN_POINT('',(0.,0.,3.));
#1154=CARTESIAN_POINT('',(-41.,4.,3.));
#1155=CARTESIAN_POINT('Origin',(-45.,4.,3.));
#1156=CARTESIAN_POINT('',(-41.,5.5,3.));
#1157=CARTESIAN_POINT('',(-41.,2.02145606962884E-31,3.));
#1158=CARTESIAN_POINT('Origin',(-38.5,5.5,3.));
#1159=CARTESIAN_POINT('',(-6.48,3.99999999999999,3.));
#1160=CARTESIAN_POINT('Origin',(-4.68,3.99999999999999,3.));
#1161=CARTESIAN_POINT('',(-47.12,4.,3.));
#1162=CARTESIAN_POINT('Origin',(-45.32,4.,3.));
#1163=CARTESIAN_POINT('Origin',(-38.48,9.595,6.));
#1164=CARTESIAN_POINT('',(-35.48,12.69,6.));
#1165=CARTESIAN_POINT('',(-35.48,8.,6.));
#1166=CARTESIAN_POINT('Origin',(-38.48,12.69,6.));
#1167=CARTESIAN_POINT('Origin',(-35.48,12.69,3.));
#1168=CARTESIAN_POINT('',(-35.48,12.69,11.));
#1169=CARTESIAN_POINT('',(-35.48,8.,11.));
#1170=CARTESIAN_POINT('',(-35.48,12.69,3.));
#1171=CARTESIAN_POINT('Origin',(-26.73,12.69,9.5));
#1172=CARTESIAN_POINT('',(-26.73,12.69,7.5));
#1173=CARTESIAN_POINT('',(-26.73,12.69,7.5));
#1174=CARTESIAN_POINT('Origin',(-26.73,12.69,9.5));
#1175=CARTESIAN_POINT('Origin',(-28.73,12.69,7.5));
#1176=CARTESIAN_POINT('',(-20.7299998850684,12.69,7.5));
#1177=CARTESIAN_POINT('',(-20.7299998850684,12.69,7.5));
#1178=CARTESIAN_POINT('',(-20.355,12.69,7.5));
#1179=CARTESIAN_POINT('Origin',(-38.5,5.5,0.));
#1180=CARTESIAN_POINT('',(-41.,5.5,0.));
#1181=CARTESIAN_POINT('Origin',(-38.5,5.5,0.));
#1182=CARTESIAN_POINT('',(-41.,5.5,0.));
#1183=CARTESIAN_POINT('Origin',(-9.,8.,0.));
#1184=CARTESIAN_POINT('',(-9.,4.,0.));
#1185=CARTESIAN_POINT('',(-9.,8.,0.));
#1186=CARTESIAN_POINT('',(-9.,4.,3.00006666740742));
#1187=CARTESIAN_POINT('',(-9.,4.,0.));
#1188=CARTESIAN_POINT('',(-9.,7.25,3.00006666740742));
#1189=CARTESIAN_POINT('Origin',(-45.,4.,0.));
#1190=CARTESIAN_POINT('',(-45.,2.2186712959341E-31,0.));
#1191=CARTESIAN_POINT('',(-45.,0.,0.));
#1192=CARTESIAN_POINT('',(-41.,4.,0.));
#1193=CARTESIAN_POINT('Origin',(-45.,4.,0.));
#1194=CARTESIAN_POINT('',(-41.,4.,0.));
#1195=CARTESIAN_POINT('Origin',(-50.,2.46519032881566E-31,0.));
#1196=CARTESIAN_POINT('',(-50.,2.46519032881566E-31,0.));
#1197=CARTESIAN_POINT('',(-50.,2.46519032881566E-31,0.));
#1198=CARTESIAN_POINT('',(0.,0.,0.));
#1199=CARTESIAN_POINT('Origin',(-5.,4.,0.));
#1200=CARTESIAN_POINT('Ctrl Pts',(-8.98000000000001,3.60050031289129,3.));
#1201=CARTESIAN_POINT('Ctrl Pts',(-8.99353846121138,3.73537670293617,3.));
#1202=CARTESIAN_POINT('Ctrl Pts',(-9.,3.86910751408542,3.00006666740742));
#1203=CARTESIAN_POINT('Ctrl Pts',(-9.,4.,3.00006666740742));
#1204=CARTESIAN_POINT('',(-5.,2.46519032881566E-32,0.));
#1205=CARTESIAN_POINT('Origin',(-5.,4.,0.));
#1206=CARTESIAN_POINT('',(-5.,0.,0.));
#1207=CARTESIAN_POINT('Origin',(-8.98000000000001,7.25,6.));
#1208=CARTESIAN_POINT('Origin',(-8.98000000000001,12.69,6.));
#1209=CARTESIAN_POINT('Origin',(-20.7299998850684,12.69,9.5));
#1210=CARTESIAN_POINT('',(-18.7299998850684,12.69,9.50000015324223));
#1211=CARTESIAN_POINT('',(-18.7299998850684,12.69,9.50000015324223));
#1212=CARTESIAN_POINT('Origin',(-20.7299998850684,12.69,9.5));
#1213=CARTESIAN_POINT('Origin',(-18.7299997318261,12.69,7.50000000000002));
#1214=CARTESIAN_POINT('',(-18.73,12.69,11.));
#1215=CARTESIAN_POINT('',(-18.73,8.,11.));
#1216=CARTESIAN_POINT('',(-18.7299995594286,12.69,5.24999974140377));
#1217=CARTESIAN_POINT('Origin',(-23.73,10.345,11.));
#1218=CARTESIAN_POINT('',(-11.98,12.69,11.));
#1219=CARTESIAN_POINT('',(-14.93,10.19,11.));
#1220=CARTESIAN_POINT('Origin',(-15.68,10.19,11.));
#1221=CARTESIAN_POINT('Origin',(-23.73,10.345,11.));
#1222=CARTESIAN_POINT('',(-11.98,12.69,11.));
#1223=CARTESIAN_POINT('',(-31.03,10.19,11.));
#1224=CARTESIAN_POINT('Origin',(-31.78,10.19,11.));
#1225=CARTESIAN_POINT('Origin',(-11.98,12.69,3.));
#1226=CARTESIAN_POINT('Origin',(-15.68,10.19,3.));
#1227=CARTESIAN_POINT('',(-14.93,10.19,3.));
#1228=CARTESIAN_POINT('',(-14.93,10.19,3.));
#1229=CARTESIAN_POINT('Origin',(-15.68,10.19,3.));
#1230=CARTESIAN_POINT('Origin',(-31.78,10.19,3.));
#1231=CARTESIAN_POINT('',(-31.03,10.19,3.));
#1232=CARTESIAN_POINT('',(-31.03,10.19,3.));
#1233=CARTESIAN_POINT('Origin',(-31.78,10.19,3.));
#1234=CARTESIAN_POINT('Origin',(-25.,6.5,3.));
#1235=CARTESIAN_POINT('Origin',(-25.,6.5,3.));
#1236=CARTESIAN_POINT('Origin',(-45.32,4.,0.));
#1237=CARTESIAN_POINT('',(-47.12,4.,0.));
#1238=CARTESIAN_POINT('',(-47.12,4.,0.));
#1239=CARTESIAN_POINT('Origin',(-45.32,4.,0.));
#1240=CARTESIAN_POINT('Origin',(-4.68,3.99999999999999,0.));
#1241=CARTESIAN_POINT('',(-6.48,3.99999999999999,0.));
#1242=CARTESIAN_POINT('',(-6.48,3.99999999999999,0.));
#1243=CARTESIAN_POINT('Origin',(-4.68,3.99999999999999,0.));
#1244=CARTESIAN_POINT('Origin',(-50.,13.,0.));
#1245=CARTESIAN_POINT('',(-50.,13.,0.));
#1246=CARTESIAN_POINT('',(-50.,2.46519032881566E-31,0.));
#1247=CARTESIAN_POINT('',(-50.,13.,0.));
#1248=CARTESIAN_POINT('Origin',(0.,13.,0.));
#1249=CARTESIAN_POINT('',(0.,13.,0.));
#1250=CARTESIAN_POINT('',(-50.,13.,0.));
#1251=CARTESIAN_POINT('',(0.,13.,0.));
#1252=CARTESIAN_POINT('Origin',(0.,0.,0.));
#1253=CARTESIAN_POINT('',(0.,0.,0.));
#1254=CARTESIAN_POINT('',(0.,13.,0.));
#1255=CARTESIAN_POINT('',(0.,0.,0.));
#1256=CARTESIAN_POINT('Origin',(-9.,4.43734259186819E-32,0.));
#1257=CARTESIAN_POINT('',(0.,0.,0.));
#1258=CARTESIAN_POINT('Origin',(-41.,2.02145606962884E-31,0.));
#1259=CARTESIAN_POINT('',(-41.,2.02145606962884E-31,0.));
#1260=CARTESIAN_POINT('Origin',(-25.,6.5,0.));
#1261=UNCERTAINTY_MEASURE_WITH_UNIT(LENGTH_MEASURE(0.01),#1265,
'DISTANCE_ACCURACY_VALUE',
'Maximum model space distance between geometric entities at asserted c
onnectivities');
#1262=UNCERTAINTY_MEASURE_WITH_UNIT(LENGTH_MEASURE(0.01),#1265,
'DISTANCE_ACCURACY_VALUE',
'Maximum model space distance between geometric entities at asserted c
onnectivities');
#1263=(
GEOMETRIC_REPRESENTATION_CONTEXT(3)
GLOBAL_UNCERTAINTY_ASSIGNED_CONTEXT((#1261))
GLOBAL_UNIT_ASSIGNED_CONTEXT((#1265,#1267,#1268))
REPRESENTATION_CONTEXT('','3D')
);
#1264=(
GEOMETRIC_REPRESENTATION_CONTEXT(3)
GLOBAL_UNCERTAINTY_ASSIGNED_CONTEXT((#1262))
GLOBAL_UNIT_ASSIGNED_CONTEXT((#1265,#1267,#1268))
REPRESENTATION_CONTEXT('','3D')
);
#1265=(
LENGTH_UNIT()
NAMED_UNIT(*)
SI_UNIT(.MILLI.,.METRE.)
);
#1266=(
LENGTH_UNIT()
NAMED_UNIT(*)
SI_UNIT($,.METRE.)
);
#1267=(
NAMED_UNIT(*)
PLANE_ANGLE_UNIT()
SI_UNIT($,.RADIAN.)
);
#1268=(
NAMED_UNIT(*)
SI_UNIT($,.STERADIAN.)
SOLID_ANGLE_UNIT()
);
#1269=SHAPE_DEFINITION_REPRESENTATION(#1270,#1271);
#1270=PRODUCT_DEFINITION_SHAPE('',$,#1273);
#1271=SHAPE_REPRESENTATION('',(#699),#1263);
#1272=PRODUCT_DEFINITION_CONTEXT('part definition',#1277,'design');
#1273=PRODUCT_DEFINITION('Traeger','Traeger v12',#1274,#1272);
#1274=PRODUCT_DEFINITION_FORMATION('',$,#1279);
#1275=PRODUCT_RELATED_PRODUCT_CATEGORY('Traeger v12','Traeger v12',(#1279));
#1276=APPLICATION_PROTOCOL_DEFINITION('international standard',
'automotive_design',2009,#1277);
#1277=APPLICATION_CONTEXT(
'Core Data for Automotive Mechanical Design Process');
#1278=PRODUCT_CONTEXT('part definition',#1277,'mechanical');
#1279=PRODUCT('Traeger','Traeger v12',$,(#1278));
#1280=PRESENTATION_STYLE_ASSIGNMENT((#1281));
#1281=SURFACE_STYLE_USAGE(.BOTH.,#1282);
#1282=SURFACE_SIDE_STYLE('',(#1283));
#1283=SURFACE_STYLE_FILL_AREA(#1284);
#1284=FILL_AREA_STYLE('Stahl - satiniert',(#1285));
#1285=FILL_AREA_STYLE_COLOUR('Stahl - satiniert',#1286);
#1286=COLOUR_RGB('Stahl - satiniert',0.627450980392157,0.627450980392157,
0.627450980392157);
ENDSEC;
END-ISO-10303-21;
