ISO-10303-21;
HEADER;
/* Generated by software containing ST-Developer
 * from STEP Tools, Inc. (www.steptools.com) 
 */

FILE_DESCRIPTION(
/* description */ (''),
/* implementation_level */ '2;1');

FILE_NAME(
/* name */ 'Traeger2.step',
/* time_stamp */ '2026-10-02T07:36:10+02:00',
/* author */ (''),
/* organization */ (''),
/* preprocessor_version */ 'ST-DEVELOPER v20.2',
/* originating_system */ 'Autodesk Translation Framework v15.15.0.0',
/* authorisation */ '');

FILE_SCHEMA (('AUTOMOTIVE_DESIGN { 1 0 10303 214 3 1 1 }'));
ENDSEC;

DATA;
#10=MECHANICAL_DESIGN_GEOMETRIC_PRESENTATION_REPRESENTATION('',(#13),#1204);
#11=SHAPE_REPRESENTATION_RELATIONSHIP('SRR','None',#1211,#12);
#12=ADVANCED_BREP_SHAPE_REPRESENTATION('',(#14),#1203);
#13=STYLED_ITEM('',(#1220),#14);
#14=MANIFOLD_SOLID_BREP('K\X\F6rper1',#644);
#15=FACE_BOUND('',#106,.T.);
#16=FACE_BOUND('',#107,.T.);
#17=FACE_BOUND('',#120,.T.);
#18=FACE_BOUND('',#122,.T.);
#19=FACE_BOUND('',#135,.T.);
#20=FACE_BOUND('',#136,.T.);
#21=CIRCLE('',#669,2.5);
#22=CIRCLE('',#672,4.);
#23=CIRCLE('',#673,4.);
#24=CIRCLE('',#674,2.5);
#25=CIRCLE('',#675,1.8);
#26=CIRCLE('',#676,1.8);
#27=CIRCLE('',#678,3.);
#28=CIRCLE('',#681,2.);
#29=CIRCLE('',#684,2.5);
#30=CIRCLE('',#686,4.);
#31=CIRCLE('',#689,4.);
#32=CIRCLE('',#691,3.);
#33=CIRCLE('',#693,2.);
#34=CIRCLE('',#696,0.75);
#35=CIRCLE('',#698,0.750000000000002);
#36=CIRCLE('',#701,0.750000000000002);
#37=CIRCLE('',#703,0.75);
#38=CIRCLE('',#707,1.8);
#39=CIRCLE('',#709,1.8);
#40=CYLINDRICAL_SURFACE('',#668,2.5);
#41=CYLINDRICAL_SURFACE('',#677,3.);
#42=CYLINDRICAL_SURFACE('',#680,2.);
#43=CYLINDRICAL_SURFACE('',#683,2.5);
#44=CYLINDRICAL_SURFACE('',#685,4.);
#45=CYLINDRICAL_SURFACE('',#688,4.);
#46=CYLINDRICAL_SURFACE('',#690,3.);
#47=CYLINDRICAL_SURFACE('',#692,2.);
#48=CYLINDRICAL_SURFACE('',#700,0.750000000000002);
#49=CYLINDRICAL_SURFACE('',#702,0.75);
#50=CYLINDRICAL_SURFACE('',#706,1.8);
#51=CYLINDRICAL_SURFACE('',#708,1.8);
#52=B_SPLINE_SURFACE_WITH_KNOTS('',3,3,((#999,#1000,#1001,#1002,#1003,#1004,
#1005,#1006,#1007),(#1008,#1009,#1010,#1011,#1012,#1013,#1014,#1015,#1016),
(#1017,#1018,#1019,#1020,#1021,#1022,#1023,#1024,#1025),(#1026,#1027,#1028,
#1029,#1030,#1031,#1032,#1033,#1034),(#1035,#1036,#1037,#1038,#1039,#1040,
#1041,#1042,#1043)),.UNSPECIFIED.,.F.,.F.,.F.,(4,1,4),(4,1,1,1,1,1,4),(0.,
0.571428571428571,1.),(0.,0.00497002201975596,0.00994004403951193,0.0198800880790239,
0.0397601761580477,0.0596402642370716,0.139160616553167),.UNSPECIFIED.);
#53=B_SPLINE_CURVE_WITH_KNOTS('',3,(#920,#921,#922,#923,#924,#925,#926,
#927,#928,#929,#930,#931,#932,#933,#934,#935,#936,#937,#938,#939,#940,#941,
#942,#943,#944,#945,#946,#947,#948,#949,#950,#951,#952,#953,#954,#955,#956,
#957,#958,#959,#960,#961,#962,#963,#964,#965,#966,#967,#968,#969,#970,#971),
 .UNSPECIFIED.,.F.,.F.,(4,3,3,3,3,3,3,3,3,3,3,3,3,3,3,3,3,4),(-9.89055546997467E-7,
0.,1.34860578459425E-6,4.04767017102514E-6,9.43688660755005E-6,2.02014208763771E-5,
4.17460351383134E-5,8.50551754155814E-5,0.000172899772362614,0.000354427405329687,
0.000651939012975822,0.000744969018766267,0.00133131478270849,0.00154314048460562,
0.00176886191856745,0.00236252842623748,0.0029750342509153,0.00341359139017002),
 .UNSPECIFIED.);
#54=B_SPLINE_CURVE_WITH_KNOTS('',3,(#1045,#1046,#1047,#1048,#1049,#1050,
#1051,#1052),.UNSPECIFIED.,.F.,.F.,(4,2,2,4),(0.,0.0219985513507806,0.0349676457662819,
0.0475696508342913),.UNSPECIFIED.);
#55=B_SPLINE_CURVE_WITH_KNOTS('',3,(#1053,#1054,#1055,#1056,#1057,#1058,
#1059,#1060,#1061),.UNSPECIFIED.,.F.,.F.,(4,1,1,1,1,1,4),(0.00454110363872348,
0.00497002201975596,0.00994004403951193,0.0198800880790239,0.0397601761580477,
0.0596402642370716,0.106394671887562),.UNSPECIFIED.);
#56=B_SPLINE_CURVE_WITH_KNOTS('',3,(#1069,#1070,#1071,#1072,#1073,#1074,
#1075,#1076,#1077,#1078,#1079,#1080),.UNSPECIFIED.,.F.,.F.,(4,2,2,2,2,4),
(1.79634431357201,1.8851643889634,1.99306146225889,2.04909258652512,2.10512371079135,
2.15679882623194),.UNSPECIFIED.);
#57=B_SPLINE_CURVE_WITH_KNOTS('',3,(#1145,#1146,#1147,#1148),
 .UNSPECIFIED.,.F.,.F.,(4,4),(0.628141728962739,0.637070491790151),
 .UNSPECIFIED.);
#58=ELLIPSE('',#661,3.02334665561196,3.);
#59=ELLIPSE('',#662,20.1556443707464,2.5);
#60=ELLIPSE('',#663,3.02334665561196,3.);
#61=ELLIPSE('',#664,2.01556443707464,2.);
#62=ELLIPSE('',#665,2.01556443707464,2.);
#63=FACE_OUTER_BOUND('',#97,.T.);
#64=FACE_OUTER_BOUND('',#98,.T.);
#65=FACE_OUTER_BOUND('',#99,.T.);
#66=FACE_OUTER_BOUND('',#100,.T.);
#67=FACE_OUTER_BOUND('',#101,.T.);
#68=FACE_OUTER_BOUND('',#102,.T.);
#69=FACE_OUTER_BOUND('',#103,.T.);
#70=FACE_OUTER_BOUND('',#104,.T.);
#71=FACE_OUTER_BOUND('',#105,.T.);
#72=FACE_OUTER_BOUND('',#108,.T.);
#73=FACE_OUTER_BOUND('',#109,.T.);
#74=FACE_OUTER_BOUND('',#110,.T.);
#75=FACE_OUTER_BOUND('',#111,.T.);
#76=FACE_OUTER_BOUND('',#112,.T.);
#77=FACE_OUTER_BOUND('',#113,.T.);
#78=FACE_OUTER_BOUND('',#114,.T.);
#79=FACE_OUTER_BOUND('',#115,.T.);
#80=FACE_OUTER_BOUND('',#116,.T.);
#81=FACE_OUTER_BOUND('',#117,.T.);
#82=FACE_OUTER_BOUND('',#118,.T.);
#83=FACE_OUTER_BOUND('',#119,.T.);
#84=FACE_OUTER_BOUND('',#121,.T.);
#85=FACE_OUTER_BOUND('',#123,.T.);
#86=FACE_OUTER_BOUND('',#124,.T.);
#87=FACE_OUTER_BOUND('',#125,.T.);
#88=FACE_OUTER_BOUND('',#126,.T.);
#89=FACE_OUTER_BOUND('',#127,.T.);
#90=FACE_OUTER_BOUND('',#128,.T.);
#91=FACE_OUTER_BOUND('',#129,.T.);
#92=FACE_OUTER_BOUND('',#130,.T.);
#93=FACE_OUTER_BOUND('',#131,.T.);
#94=FACE_OUTER_BOUND('',#132,.T.);
#95=FACE_OUTER_BOUND('',#133,.T.);
#96=FACE_OUTER_BOUND('',#134,.T.);
#97=EDGE_LOOP('',(#409,#410,#411,#412));
#98=EDGE_LOOP('',(#413,#414,#415,#416,#417));
#99=EDGE_LOOP('',(#418,#419,#420,#421,#422,#423,#424,#425,#426,#427,#428,
#429,#430,#431,#432));
#100=EDGE_LOOP('',(#433,#434,#435,#436));
#101=EDGE_LOOP('',(#437,#438,#439,#440,#441));
#102=EDGE_LOOP('',(#442,#443,#444,#445));
#103=EDGE_LOOP('',(#446,#447,#448,#449,#450,#451));
#104=EDGE_LOOP('',(#452,#453,#454,#455,#456));
#105=EDGE_LOOP('',(#457,#458,#459,#460,#461,#462,#463,#464,#465,#466,#467,
#468));
#106=EDGE_LOOP('',(#469));
#107=EDGE_LOOP('',(#470));
#108=EDGE_LOOP('',(#471,#472,#473,#474));
#109=EDGE_LOOP('',(#475,#476,#477,#478,#479));
#110=EDGE_LOOP('',(#480,#481,#482,#483));
#111=EDGE_LOOP('',(#484,#485,#486,#487));
#112=EDGE_LOOP('',(#488,#489,#490,#491));
#113=EDGE_LOOP('',(#492,#493,#494,#495));
#114=EDGE_LOOP('',(#496,#497,#498,#499));
#115=EDGE_LOOP('',(#500,#501,#502,#503,#504));
#116=EDGE_LOOP('',(#505,#506,#507,#508,#509,#510,#511));
#117=EDGE_LOOP('',(#512,#513,#514,#515));
#118=EDGE_LOOP('',(#516,#517,#518,#519,#520));
#119=EDGE_LOOP('',(#521,#522,#523,#524));
#120=EDGE_LOOP('',(#525));
#121=EDGE_LOOP('',(#526,#527,#528,#529));
#122=EDGE_LOOP('',(#530));
#123=EDGE_LOOP('',(#531,#532,#533,#534,#535,#536,#537,#538,#539,#540,#541,
#542));
#124=EDGE_LOOP('',(#543,#544,#545,#546));
#125=EDGE_LOOP('',(#547,#548,#549,#550));
#126=EDGE_LOOP('',(#551));
#127=EDGE_LOOP('',(#552));
#128=EDGE_LOOP('',(#553,#554,#555,#556));
#129=EDGE_LOOP('',(#557,#558,#559,#560));
#130=EDGE_LOOP('',(#561,#562,#563,#564));
#131=EDGE_LOOP('',(#565,#566,#567,#568));
#132=EDGE_LOOP('',(#569,#570,#571,#572));
#133=EDGE_LOOP('',(#573,#574,#575,#576));
#134=EDGE_LOOP('',(#577,#578,#579,#580,#581,#582,#583,#584,#585,#586));
#135=EDGE_LOOP('',(#587));
#136=EDGE_LOOP('',(#588));
#137=LINE('',#896,#198);
#138=LINE('',#898,#199);
#139=LINE('',#900,#200);
#140=LINE('',#901,#201);
#141=LINE('',#904,#202);
#142=LINE('',#906,#203);
#143=LINE('',#908,#204);
#144=LINE('',#909,#205);
#145=LINE('',#912,#206);
#146=LINE('',#916,#207);
#147=LINE('',#973,#208);
#148=LINE('',#977,#209);
#149=LINE('',#979,#210);
#150=LINE('',#981,#211);
#151=LINE('',#985,#212);
#152=LINE('',#989,#213);
#153=LINE('',#991,#214);
#154=LINE('',#992,#215);
#155=LINE('',#995,#216);
#156=LINE('',#997,#217);
#157=LINE('',#998,#218);
#158=LINE('',#1064,#219);
#159=LINE('',#1068,#220);
#160=LINE('',#1083,#221);
#161=LINE('',#1085,#222);
#162=LINE('',#1086,#223);
#163=LINE('',#1089,#224);
#164=LINE('',#1091,#225);
#165=LINE('',#1093,#226);
#166=LINE('',#1097,#227);
#167=LINE('',#1099,#228);
#168=LINE('',#1101,#229);
#169=LINE('',#1103,#230);
#170=LINE('',#1105,#231);
#171=LINE('',#1115,#232);
#172=LINE('',#1119,#233);
#173=LINE('',#1120,#234);
#174=LINE('',#1123,#235);
#175=LINE('',#1127,#236);
#176=LINE('',#1128,#237);
#177=LINE('',#1131,#238);
#178=LINE('',#1135,#239);
#179=LINE('',#1139,#240);
#180=LINE('',#1140,#241);
#181=LINE('',#1144,#242);
#182=LINE('',#1153,#243);
#183=LINE('',#1157,#244);
#184=LINE('',#1158,#245);
#185=LINE('',#1160,#246);
#186=LINE('',#1164,#247);
#187=LINE('',#1170,#248);
#188=LINE('',#1174,#249);
#189=LINE('',#1180,#250);
#190=LINE('',#1184,#251);
#191=LINE('',#1188,#252);
#192=LINE('',#1189,#253);
#193=LINE('',#1192,#254);
#194=LINE('',#1193,#255);
#195=LINE('',#1196,#256);
#196=LINE('',#1197,#257);
#197=LINE('',#1199,#258);
#198=VECTOR('',#719,10.);
#199=VECTOR('',#720,10.);
#200=VECTOR('',#721,10.);
#201=VECTOR('',#722,10.);
#202=VECTOR('',#725,10.);
#203=VECTOR('',#726,10.);
#204=VECTOR('',#727,10.);
#205=VECTOR('',#728,10.);
#206=VECTOR('',#731,10.);
#207=VECTOR('',#734,10.);
#208=VECTOR('',#737,10.);
#209=VECTOR('',#740,10.);
#210=VECTOR('',#741,10.);
#211=VECTOR('',#742,10.);
#212=VECTOR('',#745,10.);
#213=VECTOR('',#750,10.);
#214=VECTOR('',#751,10.);
#215=VECTOR('',#752,10.);
#216=VECTOR('',#755,10.);
#217=VECTOR('',#756,10.);
#218=VECTOR('',#757,10.);
#219=VECTOR('',#760,2.5);
#220=VECTOR('',#763,2.5);
#221=VECTOR('',#766,10.);
#222=VECTOR('',#767,2.5);
#223=VECTOR('',#768,10.);
#224=VECTOR('',#771,10.);
#225=VECTOR('',#772,10.);
#226=VECTOR('',#773,10.);
#227=VECTOR('',#776,10.);
#228=VECTOR('',#777,10.);
#229=VECTOR('',#778,10.);
#230=VECTOR('',#779,10.);
#231=VECTOR('',#780,10.);
#232=VECTOR('',#791,10.);
#233=VECTOR('',#796,10.);
#234=VECTOR('',#797,10.);
#235=VECTOR('',#800,10.);
#236=VECTOR('',#805,10.);
#237=VECTOR('',#806,10.);
#238=VECTOR('',#809,2.5);
#239=VECTOR('',#814,10.);
#240=VECTOR('',#819,10.);
#241=VECTOR('',#820,10.);
#242=VECTOR('',#825,10.);
#243=VECTOR('',#832,10.);
#244=VECTOR('',#837,10.);
#245=VECTOR('',#838,10.);
#246=VECTOR('',#841,10.);
#247=VECTOR('',#846,10.);
#248=VECTOR('',#853,0.750000000000002);
#249=VECTOR('',#858,0.75);
#250=VECTOR('',#867,1.8);
#251=VECTOR('',#872,1.8);
#252=VECTOR('',#877,10.);
#253=VECTOR('',#878,10.);
#254=VECTOR('',#881,10.);
#255=VECTOR('',#882,10.);
#256=VECTOR('',#885,10.);
#257=VECTOR('',#886,10.);
#258=VECTOR('',#889,10.);
#259=VERTEX_POINT('',#894);
#260=VERTEX_POINT('',#895);
#261=VERTEX_POINT('',#897);
#262=VERTEX_POINT('',#899);
#263=VERTEX_POINT('',#903);
#264=VERTEX_POINT('',#905);
#265=VERTEX_POINT('',#907);
#266=VERTEX_POINT('',#911);
#267=VERTEX_POINT('',#913);
#268=VERTEX_POINT('',#915);
#269=VERTEX_POINT('',#917);
#270=VERTEX_POINT('',#919);
#271=VERTEX_POINT('',#972);
#272=VERTEX_POINT('',#974);
#273=VERTEX_POINT('',#976);
#274=VERTEX_POINT('',#978);
#275=VERTEX_POINT('',#980);
#276=VERTEX_POINT('',#982);
#277=VERTEX_POINT('',#984);
#278=VERTEX_POINT('',#988);
#279=VERTEX_POINT('',#990);
#280=VERTEX_POINT('',#994);
#281=VERTEX_POINT('',#996);
#282=VERTEX_POINT('',#1044);
#283=VERTEX_POINT('',#1063);
#284=VERTEX_POINT('',#1065);
#285=VERTEX_POINT('',#1067);
#286=VERTEX_POINT('',#1082);
#287=VERTEX_POINT('',#1084);
#288=VERTEX_POINT('',#1088);
#289=VERTEX_POINT('',#1090);
#290=VERTEX_POINT('',#1092);
#291=VERTEX_POINT('',#1094);
#292=VERTEX_POINT('',#1096);
#293=VERTEX_POINT('',#1098);
#294=VERTEX_POINT('',#1100);
#295=VERTEX_POINT('',#1102);
#296=VERTEX_POINT('',#1104);
#297=VERTEX_POINT('',#1106);
#298=VERTEX_POINT('',#1109);
#299=VERTEX_POINT('',#1111);
#300=VERTEX_POINT('',#1114);
#301=VERTEX_POINT('',#1118);
#302=VERTEX_POINT('',#1122);
#303=VERTEX_POINT('',#1126);
#304=VERTEX_POINT('',#1130);
#305=VERTEX_POINT('',#1134);
#306=VERTEX_POINT('',#1138);
#307=VERTEX_POINT('',#1142);
#308=VERTEX_POINT('',#1152);
#309=VERTEX_POINT('',#1156);
#310=VERTEX_POINT('',#1161);
#311=VERTEX_POINT('',#1165);
#312=VERTEX_POINT('',#1169);
#313=VERTEX_POINT('',#1173);
#314=VERTEX_POINT('',#1179);
#315=VERTEX_POINT('',#1183);
#316=VERTEX_POINT('',#1187);
#317=VERTEX_POINT('',#1191);
#318=VERTEX_POINT('',#1195);
#319=EDGE_CURVE('',#259,#260,#137,.T.);
#320=EDGE_CURVE('',#260,#261,#138,.T.);
#321=EDGE_CURVE('',#261,#262,#139,.T.);
#322=EDGE_CURVE('',#262,#259,#140,.T.);
#323=EDGE_CURVE('',#261,#263,#141,.T.);
#324=EDGE_CURVE('',#264,#263,#142,.T.);
#325=EDGE_CURVE('',#265,#264,#143,.T.);
#326=EDGE_CURVE('',#262,#265,#144,.T.);
#327=EDGE_CURVE('',#266,#260,#145,.T.);
#328=EDGE_CURVE('',#267,#266,#58,.T.);
#329=EDGE_CURVE('',#267,#268,#146,.T.);
#330=EDGE_CURVE('',#269,#268,#59,.T.);
#331=EDGE_CURVE('',#269,#270,#53,.F.);
#332=EDGE_CURVE('',#271,#270,#147,.T.);
#333=EDGE_CURVE('',#272,#271,#60,.T.);
#334=EDGE_CURVE('',#273,#272,#148,.T.);
#335=EDGE_CURVE('',#274,#273,#149,.T.);
#336=EDGE_CURVE('',#275,#274,#150,.T.);
#337=EDGE_CURVE('',#276,#275,#61,.T.);
#338=EDGE_CURVE('',#277,#276,#151,.T.);
#339=EDGE_CURVE('',#263,#277,#62,.T.);
#340=EDGE_CURVE('',#273,#278,#152,.T.);
#341=EDGE_CURVE('',#278,#279,#153,.T.);
#342=EDGE_CURVE('',#279,#274,#154,.T.);
#343=EDGE_CURVE('',#280,#272,#155,.T.);
#344=EDGE_CURVE('',#280,#281,#156,.T.);
#345=EDGE_CURVE('',#281,#278,#157,.T.);
#346=EDGE_CURVE('',#271,#282,#54,.F.);
#347=EDGE_CURVE('',#269,#282,#55,.T.);
#348=EDGE_CURVE('',#268,#283,#158,.T.);
#349=EDGE_CURVE('',#284,#283,#21,.F.);
#350=EDGE_CURVE('',#284,#285,#159,.T.);
#351=EDGE_CURVE('',#282,#285,#56,.F.);
#352=EDGE_CURVE('',#286,#267,#160,.T.);
#353=EDGE_CURVE('',#287,#286,#161,.T.);
#354=EDGE_CURVE('',#283,#287,#162,.T.);
#355=EDGE_CURVE('',#288,#267,#163,.T.);
#356=EDGE_CURVE('',#288,#289,#164,.T.);
#357=EDGE_CURVE('',#290,#289,#165,.T.);
#358=EDGE_CURVE('',#291,#290,#22,.T.);
#359=EDGE_CURVE('',#291,#292,#166,.T.);
#360=EDGE_CURVE('',#292,#293,#167,.T.);
#361=EDGE_CURVE('',#293,#294,#168,.T.);
#362=EDGE_CURVE('',#294,#295,#169,.T.);
#363=EDGE_CURVE('',#295,#296,#170,.T.);
#364=EDGE_CURVE('',#297,#296,#23,.T.);
#365=EDGE_CURVE('',#286,#297,#24,.T.);
#366=EDGE_CURVE('',#298,#298,#25,.T.);
#367=EDGE_CURVE('',#299,#299,#26,.T.);
#368=EDGE_CURVE('',#300,#266,#171,.T.);
#369=EDGE_CURVE('',#300,#288,#27,.T.);
#370=EDGE_CURVE('',#301,#259,#172,.T.);
#371=EDGE_CURVE('',#300,#301,#173,.T.);
#372=EDGE_CURVE('',#277,#302,#174,.T.);
#373=EDGE_CURVE('',#302,#264,#28,.T.);
#374=EDGE_CURVE('',#303,#276,#175,.T.);
#375=EDGE_CURVE('',#302,#303,#176,.T.);
#376=EDGE_CURVE('',#297,#304,#177,.T.);
#377=EDGE_CURVE('',#287,#304,#29,.F.);
#378=EDGE_CURVE('',#296,#305,#178,.T.);
#379=EDGE_CURVE('',#305,#304,#30,.T.);
#380=EDGE_CURVE('',#306,#295,#179,.T.);
#381=EDGE_CURVE('',#305,#306,#180,.T.);
#382=EDGE_CURVE('',#284,#307,#31,.T.);
#383=EDGE_CURVE('',#307,#291,#181,.T.);
#384=EDGE_CURVE('',#290,#285,#57,.T.);
#385=EDGE_CURVE('',#289,#280,#32,.T.);
#386=EDGE_CURVE('',#275,#308,#182,.T.);
#387=EDGE_CURVE('',#308,#303,#33,.T.);
#388=EDGE_CURVE('',#309,#279,#183,.T.);
#389=EDGE_CURVE('',#308,#309,#184,.T.);
#390=EDGE_CURVE('',#281,#309,#185,.T.);
#391=EDGE_CURVE('',#310,#310,#34,.T.);
#392=EDGE_CURVE('',#265,#301,#186,.T.);
#393=EDGE_CURVE('',#311,#311,#35,.T.);
#394=EDGE_CURVE('',#311,#312,#187,.T.);
#395=EDGE_CURVE('',#312,#312,#36,.T.);
#396=EDGE_CURVE('',#310,#313,#188,.T.);
#397=EDGE_CURVE('',#313,#313,#37,.T.);
#398=EDGE_CURVE('',#299,#314,#189,.T.);
#399=EDGE_CURVE('',#314,#314,#38,.T.);
#400=EDGE_CURVE('',#298,#315,#190,.T.);
#401=EDGE_CURVE('',#315,#315,#39,.T.);
#402=EDGE_CURVE('',#306,#316,#191,.T.);
#403=EDGE_CURVE('',#316,#294,#192,.T.);
#404=EDGE_CURVE('',#316,#317,#193,.T.);
#405=EDGE_CURVE('',#317,#293,#194,.T.);
#406=EDGE_CURVE('',#317,#318,#195,.T.);
#407=EDGE_CURVE('',#318,#292,#196,.T.);
#408=EDGE_CURVE('',#318,#307,#197,.T.);
#409=ORIENTED_EDGE('',*,*,#319,.T.);
#410=ORIENTED_EDGE('',*,*,#320,.T.);
#411=ORIENTED_EDGE('',*,*,#321,.T.);
#412=ORIENTED_EDGE('',*,*,#322,.T.);
#413=ORIENTED_EDGE('',*,*,#321,.F.);
#414=ORIENTED_EDGE('',*,*,#323,.T.);
#415=ORIENTED_EDGE('',*,*,#324,.F.);
#416=ORIENTED_EDGE('',*,*,#325,.F.);
#417=ORIENTED_EDGE('',*,*,#326,.F.);
#418=ORIENTED_EDGE('',*,*,#320,.F.);
#419=ORIENTED_EDGE('',*,*,#327,.F.);
#420=ORIENTED_EDGE('',*,*,#328,.F.);
#421=ORIENTED_EDGE('',*,*,#329,.T.);
#422=ORIENTED_EDGE('',*,*,#330,.F.);
#423=ORIENTED_EDGE('',*,*,#331,.T.);
#424=ORIENTED_EDGE('',*,*,#332,.F.);
#425=ORIENTED_EDGE('',*,*,#333,.F.);
#426=ORIENTED_EDGE('',*,*,#334,.F.);
#427=ORIENTED_EDGE('',*,*,#335,.F.);
#428=ORIENTED_EDGE('',*,*,#336,.F.);
#429=ORIENTED_EDGE('',*,*,#337,.F.);
#430=ORIENTED_EDGE('',*,*,#338,.F.);
#431=ORIENTED_EDGE('',*,*,#339,.F.);
#432=ORIENTED_EDGE('',*,*,#323,.F.);
#433=ORIENTED_EDGE('',*,*,#340,.T.);
#434=ORIENTED_EDGE('',*,*,#341,.T.);
#435=ORIENTED_EDGE('',*,*,#342,.T.);
#436=ORIENTED_EDGE('',*,*,#335,.T.);
#437=ORIENTED_EDGE('',*,*,#340,.F.);
#438=ORIENTED_EDGE('',*,*,#334,.T.);
#439=ORIENTED_EDGE('',*,*,#343,.F.);
#440=ORIENTED_EDGE('',*,*,#344,.T.);
#441=ORIENTED_EDGE('',*,*,#345,.T.);
#442=ORIENTED_EDGE('',*,*,#346,.F.);
#443=ORIENTED_EDGE('',*,*,#332,.T.);
#444=ORIENTED_EDGE('',*,*,#331,.F.);
#445=ORIENTED_EDGE('',*,*,#347,.T.);
#446=ORIENTED_EDGE('',*,*,#347,.F.);
#447=ORIENTED_EDGE('',*,*,#330,.T.);
#448=ORIENTED_EDGE('',*,*,#348,.T.);
#449=ORIENTED_EDGE('',*,*,#349,.F.);
#450=ORIENTED_EDGE('',*,*,#350,.T.);
#451=ORIENTED_EDGE('',*,*,#351,.F.);
#452=ORIENTED_EDGE('',*,*,#348,.F.);
#453=ORIENTED_EDGE('',*,*,#329,.F.);
#454=ORIENTED_EDGE('',*,*,#352,.F.);
#455=ORIENTED_EDGE('',*,*,#353,.F.);
#456=ORIENTED_EDGE('',*,*,#354,.F.);
#457=ORIENTED_EDGE('',*,*,#352,.T.);
#458=ORIENTED_EDGE('',*,*,#355,.F.);
#459=ORIENTED_EDGE('',*,*,#356,.T.);
#460=ORIENTED_EDGE('',*,*,#357,.F.);
#461=ORIENTED_EDGE('',*,*,#358,.F.);
#462=ORIENTED_EDGE('',*,*,#359,.T.);
#463=ORIENTED_EDGE('',*,*,#360,.T.);
#464=ORIENTED_EDGE('',*,*,#361,.T.);
#465=ORIENTED_EDGE('',*,*,#362,.T.);
#466=ORIENTED_EDGE('',*,*,#363,.T.);
#467=ORIENTED_EDGE('',*,*,#364,.F.);
#468=ORIENTED_EDGE('',*,*,#365,.F.);
#469=ORIENTED_EDGE('',*,*,#366,.T.);
#470=ORIENTED_EDGE('',*,*,#367,.T.);
#471=ORIENTED_EDGE('',*,*,#328,.T.);
#472=ORIENTED_EDGE('',*,*,#368,.F.);
#473=ORIENTED_EDGE('',*,*,#369,.T.);
#474=ORIENTED_EDGE('',*,*,#355,.T.);
#475=ORIENTED_EDGE('',*,*,#319,.F.);
#476=ORIENTED_EDGE('',*,*,#370,.F.);
#477=ORIENTED_EDGE('',*,*,#371,.F.);
#478=ORIENTED_EDGE('',*,*,#368,.T.);
#479=ORIENTED_EDGE('',*,*,#327,.T.);
#480=ORIENTED_EDGE('',*,*,#339,.T.);
#481=ORIENTED_EDGE('',*,*,#372,.T.);
#482=ORIENTED_EDGE('',*,*,#373,.T.);
#483=ORIENTED_EDGE('',*,*,#324,.T.);
#484=ORIENTED_EDGE('',*,*,#338,.T.);
#485=ORIENTED_EDGE('',*,*,#374,.F.);
#486=ORIENTED_EDGE('',*,*,#375,.F.);
#487=ORIENTED_EDGE('',*,*,#372,.F.);
#488=ORIENTED_EDGE('',*,*,#365,.T.);
#489=ORIENTED_EDGE('',*,*,#376,.T.);
#490=ORIENTED_EDGE('',*,*,#377,.F.);
#491=ORIENTED_EDGE('',*,*,#353,.T.);
#492=ORIENTED_EDGE('',*,*,#376,.F.);
#493=ORIENTED_EDGE('',*,*,#364,.T.);
#494=ORIENTED_EDGE('',*,*,#378,.T.);
#495=ORIENTED_EDGE('',*,*,#379,.T.);
#496=ORIENTED_EDGE('',*,*,#378,.F.);
#497=ORIENTED_EDGE('',*,*,#363,.F.);
#498=ORIENTED_EDGE('',*,*,#380,.F.);
#499=ORIENTED_EDGE('',*,*,#381,.F.);
#500=ORIENTED_EDGE('',*,*,#350,.F.);
#501=ORIENTED_EDGE('',*,*,#382,.T.);
#502=ORIENTED_EDGE('',*,*,#383,.T.);
#503=ORIENTED_EDGE('',*,*,#358,.T.);
#504=ORIENTED_EDGE('',*,*,#384,.T.);
#505=ORIENTED_EDGE('',*,*,#333,.T.);
#506=ORIENTED_EDGE('',*,*,#346,.T.);
#507=ORIENTED_EDGE('',*,*,#351,.T.);
#508=ORIENTED_EDGE('',*,*,#384,.F.);
#509=ORIENTED_EDGE('',*,*,#357,.T.);
#510=ORIENTED_EDGE('',*,*,#385,.T.);
#511=ORIENTED_EDGE('',*,*,#343,.T.);
#512=ORIENTED_EDGE('',*,*,#337,.T.);
#513=ORIENTED_EDGE('',*,*,#386,.T.);
#514=ORIENTED_EDGE('',*,*,#387,.T.);
#515=ORIENTED_EDGE('',*,*,#374,.T.);
#516=ORIENTED_EDGE('',*,*,#342,.F.);
#517=ORIENTED_EDGE('',*,*,#388,.F.);
#518=ORIENTED_EDGE('',*,*,#389,.F.);
#519=ORIENTED_EDGE('',*,*,#386,.F.);
#520=ORIENTED_EDGE('',*,*,#336,.T.);
#521=ORIENTED_EDGE('',*,*,#341,.F.);
#522=ORIENTED_EDGE('',*,*,#345,.F.);
#523=ORIENTED_EDGE('',*,*,#390,.T.);
#524=ORIENTED_EDGE('',*,*,#388,.T.);
#525=ORIENTED_EDGE('',*,*,#391,.T.);
#526=ORIENTED_EDGE('',*,*,#322,.F.);
#527=ORIENTED_EDGE('',*,*,#326,.T.);
#528=ORIENTED_EDGE('',*,*,#392,.T.);
#529=ORIENTED_EDGE('',*,*,#370,.T.);
#530=ORIENTED_EDGE('',*,*,#393,.T.);
#531=ORIENTED_EDGE('',*,*,#325,.T.);
#532=ORIENTED_EDGE('',*,*,#373,.F.);
#533=ORIENTED_EDGE('',*,*,#375,.T.);
#534=ORIENTED_EDGE('',*,*,#387,.F.);
#535=ORIENTED_EDGE('',*,*,#389,.T.);
#536=ORIENTED_EDGE('',*,*,#390,.F.);
#537=ORIENTED_EDGE('',*,*,#344,.F.);
#538=ORIENTED_EDGE('',*,*,#385,.F.);
#539=ORIENTED_EDGE('',*,*,#356,.F.);
#540=ORIENTED_EDGE('',*,*,#369,.F.);
#541=ORIENTED_EDGE('',*,*,#371,.T.);
#542=ORIENTED_EDGE('',*,*,#392,.F.);
#543=ORIENTED_EDGE('',*,*,#393,.F.);
#544=ORIENTED_EDGE('',*,*,#394,.T.);
#545=ORIENTED_EDGE('',*,*,#395,.F.);
#546=ORIENTED_EDGE('',*,*,#394,.F.);
#547=ORIENTED_EDGE('',*,*,#391,.F.);
#548=ORIENTED_EDGE('',*,*,#396,.T.);
#549=ORIENTED_EDGE('',*,*,#397,.F.);
#550=ORIENTED_EDGE('',*,*,#396,.F.);
#551=ORIENTED_EDGE('',*,*,#397,.T.);
#552=ORIENTED_EDGE('',*,*,#395,.T.);
#553=ORIENTED_EDGE('',*,*,#367,.F.);
#554=ORIENTED_EDGE('',*,*,#398,.T.);
#555=ORIENTED_EDGE('',*,*,#399,.T.);
#556=ORIENTED_EDGE('',*,*,#398,.F.);
#557=ORIENTED_EDGE('',*,*,#366,.F.);
#558=ORIENTED_EDGE('',*,*,#400,.T.);
#559=ORIENTED_EDGE('',*,*,#401,.T.);
#560=ORIENTED_EDGE('',*,*,#400,.F.);
#561=ORIENTED_EDGE('',*,*,#402,.F.);
#562=ORIENTED_EDGE('',*,*,#380,.T.);
#563=ORIENTED_EDGE('',*,*,#362,.F.);
#564=ORIENTED_EDGE('',*,*,#403,.F.);
#565=ORIENTED_EDGE('',*,*,#404,.F.);
#566=ORIENTED_EDGE('',*,*,#403,.T.);
#567=ORIENTED_EDGE('',*,*,#361,.F.);
#568=ORIENTED_EDGE('',*,*,#405,.F.);
#569=ORIENTED_EDGE('',*,*,#406,.F.);
#570=ORIENTED_EDGE('',*,*,#405,.T.);
#571=ORIENTED_EDGE('',*,*,#360,.F.);
#572=ORIENTED_EDGE('',*,*,#407,.F.);
#573=ORIENTED_EDGE('',*,*,#383,.F.);
#574=ORIENTED_EDGE('',*,*,#408,.F.);
#575=ORIENTED_EDGE('',*,*,#407,.T.);
#576=ORIENTED_EDGE('',*,*,#359,.F.);
#577=ORIENTED_EDGE('',*,*,#354,.T.);
#578=ORIENTED_EDGE('',*,*,#377,.T.);
#579=ORIENTED_EDGE('',*,*,#379,.F.);
#580=ORIENTED_EDGE('',*,*,#381,.T.);
#581=ORIENTED_EDGE('',*,*,#402,.T.);
#582=ORIENTED_EDGE('',*,*,#404,.T.);
#583=ORIENTED_EDGE('',*,*,#406,.T.);
#584=ORIENTED_EDGE('',*,*,#408,.T.);
#585=ORIENTED_EDGE('',*,*,#382,.F.);
#586=ORIENTED_EDGE('',*,*,#349,.T.);
#587=ORIENTED_EDGE('',*,*,#401,.F.);
#588=ORIENTED_EDGE('',*,*,#399,.F.);
#589=PLANE('',#658);
#590=PLANE('',#659);
#591=PLANE('',#660);
#592=PLANE('',#666);
#593=PLANE('',#667);
#594=PLANE('',#670);
#595=PLANE('',#671);
#596=PLANE('',#679);
#597=PLANE('',#682);
#598=PLANE('',#687);
#599=PLANE('',#694);
#600=PLANE('',#695);
#601=PLANE('',#697);
#602=PLANE('',#699);
#603=PLANE('',#704);
#604=PLANE('',#705);
#605=PLANE('',#710);
#606=PLANE('',#711);
#607=PLANE('',#712);
#608=PLANE('',#713);
#609=PLANE('',#714);
#610=ADVANCED_FACE('',(#63),#589,.T.);
#611=ADVANCED_FACE('',(#64),#590,.F.);
#612=ADVANCED_FACE('',(#65),#591,.F.);
#613=ADVANCED_FACE('',(#66),#592,.T.);
#614=ADVANCED_FACE('',(#67),#593,.T.);
#615=ADVANCED_FACE('',(#68),#52,.T.);
#616=ADVANCED_FACE('',(#69),#40,.F.);
#617=ADVANCED_FACE('',(#70),#594,.F.);
#618=ADVANCED_FACE('',(#71,#15,#16),#595,.T.);
#619=ADVANCED_FACE('',(#72),#41,.F.);
#620=ADVANCED_FACE('',(#73),#596,.T.);
#621=ADVANCED_FACE('',(#74),#42,.F.);
#622=ADVANCED_FACE('',(#75),#597,.F.);
#623=ADVANCED_FACE('',(#76),#43,.F.);
#624=ADVANCED_FACE('',(#77),#44,.T.);
#625=ADVANCED_FACE('',(#78),#598,.T.);
#626=ADVANCED_FACE('',(#79),#45,.T.);
#627=ADVANCED_FACE('',(#80),#46,.F.);
#628=ADVANCED_FACE('',(#81),#47,.F.);
#629=ADVANCED_FACE('',(#82),#599,.F.);
#630=ADVANCED_FACE('',(#83,#17),#600,.T.);
#631=ADVANCED_FACE('',(#84,#18),#601,.T.);
#632=ADVANCED_FACE('',(#85),#602,.T.);
#633=ADVANCED_FACE('',(#86),#48,.F.);
#634=ADVANCED_FACE('',(#87),#49,.F.);
#635=ADVANCED_FACE('',(#88),#603,.T.);
#636=ADVANCED_FACE('',(#89),#604,.T.);
#637=ADVANCED_FACE('',(#90),#50,.F.);
#638=ADVANCED_FACE('',(#91),#51,.F.);
#639=ADVANCED_FACE('',(#92),#605,.T.);
#640=ADVANCED_FACE('',(#93),#606,.T.);
#641=ADVANCED_FACE('',(#94),#607,.T.);
#642=ADVANCED_FACE('',(#95),#608,.T.);
#643=ADVANCED_FACE('',(#96,#19,#20),#609,.F.);
#644=CLOSED_SHELL('',(#610,#611,#612,#613,#614,#615,#616,#617,#618,#619,
#620,#621,#622,#623,#624,#625,#626,#627,#628,#629,#630,#631,#632,#633,#634,
#635,#636,#637,#638,#639,#640,#641,#642,#643));
#645=DERIVED_UNIT_ELEMENT(#647,1.);
#646=DERIVED_UNIT_ELEMENT(#1206,-3.);
#647=(
MASS_UNIT()
NAMED_UNIT(*)
SI_UNIT(.KILO.,.GRAM.)
);
#648=DERIVED_UNIT((#645,#646));
#649=MEASURE_REPRESENTATION_ITEM('density measure',
POSITIVE_RATIO_MEASURE(7850.),#648);
#650=PROPERTY_DEFINITION_REPRESENTATION(#655,#652);
#651=PROPERTY_DEFINITION_REPRESENTATION(#656,#653);
#652=REPRESENTATION('material name',(#654),#1203);
#653=REPRESENTATION('density',(#649),#1203);
#654=DESCRIPTIVE_REPRESENTATION_ITEM('Stahl','Stahl');
#655=PROPERTY_DEFINITION('material property','material name',#1213);
#656=PROPERTY_DEFINITION('material property','density of part',#1213);
#657=AXIS2_PLACEMENT_3D('',#892,#715,#716);
#658=AXIS2_PLACEMENT_3D('',#893,#717,#718);
#659=AXIS2_PLACEMENT_3D('',#902,#723,#724);
#660=AXIS2_PLACEMENT_3D('',#910,#729,#730);
#661=AXIS2_PLACEMENT_3D('',#914,#732,#733);
#662=AXIS2_PLACEMENT_3D('',#918,#735,#736);
#663=AXIS2_PLACEMENT_3D('',#975,#738,#739);
#664=AXIS2_PLACEMENT_3D('',#983,#743,#744);
#665=AXIS2_PLACEMENT_3D('',#986,#746,#747);
#666=AXIS2_PLACEMENT_3D('',#987,#748,#749);
#667=AXIS2_PLACEMENT_3D('',#993,#753,#754);
#668=AXIS2_PLACEMENT_3D('',#1062,#758,#759);
#669=AXIS2_PLACEMENT_3D('',#1066,#761,#762);
#670=AXIS2_PLACEMENT_3D('',#1081,#764,#765);
#671=AXIS2_PLACEMENT_3D('',#1087,#769,#770);
#672=AXIS2_PLACEMENT_3D('',#1095,#774,#775);
#673=AXIS2_PLACEMENT_3D('',#1107,#781,#782);
#674=AXIS2_PLACEMENT_3D('',#1108,#783,#784);
#675=AXIS2_PLACEMENT_3D('',#1110,#785,#786);
#676=AXIS2_PLACEMENT_3D('',#1112,#787,#788);
#677=AXIS2_PLACEMENT_3D('',#1113,#789,#790);
#678=AXIS2_PLACEMENT_3D('',#1116,#792,#793);
#679=AXIS2_PLACEMENT_3D('',#1117,#794,#795);
#680=AXIS2_PLACEMENT_3D('',#1121,#798,#799);
#681=AXIS2_PLACEMENT_3D('',#1124,#801,#802);
#682=AXIS2_PLACEMENT_3D('',#1125,#803,#804);
#683=AXIS2_PLACEMENT_3D('',#1129,#807,#808);
#684=AXIS2_PLACEMENT_3D('',#1132,#810,#811);
#685=AXIS2_PLACEMENT_3D('',#1133,#812,#813);
#686=AXIS2_PLACEMENT_3D('',#1136,#815,#816);
#687=AXIS2_PLACEMENT_3D('',#1137,#817,#818);
#688=AXIS2_PLACEMENT_3D('',#1141,#821,#822);
#689=AXIS2_PLACEMENT_3D('',#1143,#823,#824);
#690=AXIS2_PLACEMENT_3D('',#1149,#826,#827);
#691=AXIS2_PLACEMENT_3D('',#1150,#828,#829);
#692=AXIS2_PLACEMENT_3D('',#1151,#830,#831);
#693=AXIS2_PLACEMENT_3D('',#1154,#833,#834);
#694=AXIS2_PLACEMENT_3D('',#1155,#835,#836);
#695=AXIS2_PLACEMENT_3D('',#1159,#839,#840);
#696=AXIS2_PLACEMENT_3D('',#1162,#842,#843);
#697=AXIS2_PLACEMENT_3D('',#1163,#844,#845);
#698=AXIS2_PLACEMENT_3D('',#1166,#847,#848);
#699=AXIS2_PLACEMENT_3D('',#1167,#849,#850);
#700=AXIS2_PLACEMENT_3D('',#1168,#851,#852);
#701=AXIS2_PLACEMENT_3D('',#1171,#854,#855);
#702=AXIS2_PLACEMENT_3D('',#1172,#856,#857);
#703=AXIS2_PLACEMENT_3D('',#1175,#859,#860);
#704=AXIS2_PLACEMENT_3D('',#1176,#861,#862);
#705=AXIS2_PLACEMENT_3D('',#1177,#863,#864);
#706=AXIS2_PLACEMENT_3D('',#1178,#865,#866);
#707=AXIS2_PLACEMENT_3D('',#1181,#868,#869);
#708=AXIS2_PLACEMENT_3D('',#1182,#870,#871);
#709=AXIS2_PLACEMENT_3D('',#1185,#873,#874);
#710=AXIS2_PLACEMENT_3D('',#1186,#875,#876);
#711=AXIS2_PLACEMENT_3D('',#1190,#879,#880);
#712=AXIS2_PLACEMENT_3D('',#1194,#883,#884);
#713=AXIS2_PLACEMENT_3D('',#1198,#887,#888);
#714=AXIS2_PLACEMENT_3D('',#1200,#890,#891);
#715=DIRECTION('axis',(0.,0.,1.));
#716=DIRECTION('refdir',(1.,0.,0.));
#717=DIRECTION('center_axis',(0.,-0.749678175815866,0.66180256323574));
#718=DIRECTION('ref_axis',(1.,0.,0.));
#719=DIRECTION('',(5.87798754768212E-16,-0.66180256323574,-0.749678175815866));
#720=DIRECTION('',(1.,0.,0.));
#721=DIRECTION('',(0.,0.66180256323574,0.749678175815866));
#722=DIRECTION('',(-1.,0.,0.));
#723=DIRECTION('center_axis',(-1.,0.,0.));
#724=DIRECTION('ref_axis',(0.,0.,-1.));
#725=DIRECTION('',(0.,0.124034734589208,-0.992277876713668));
#726=DIRECTION('',(0.,-1.,0.));
#727=DIRECTION('',(0.,0.,-1.));
#728=DIRECTION('',(0.,1.,0.));
#729=DIRECTION('center_axis',(0.,0.992277876713668,0.124034734589208));
#730=DIRECTION('ref_axis',(0.,-0.124034734589208,0.992277876713668));
#731=DIRECTION('',(1.10164974555368E-16,-0.124034734589208,0.992277876713668));
#732=DIRECTION('center_axis',(0.,-0.992277876713668,-0.124034734589208));
#733=DIRECTION('ref_axis',(-8.81319796442941E-15,0.124034734589208,-0.992277876713668));
#734=DIRECTION('',(1.,0.,0.));
#735=DIRECTION('center_axis',(0.,0.992277876713668,0.124034734589208));
#736=DIRECTION('ref_axis',(0.,-0.124034734589208,0.992277876713668));
#737=DIRECTION('',(0.,0.124034734589208,-0.992277876713668));
#738=DIRECTION('center_axis',(0.,-0.992277876713668,-0.124034734589208));
#739=DIRECTION('ref_axis',(3.67216581851225E-16,0.124034734589208,-0.992277876713668));
#740=DIRECTION('',(0.,0.124034734589208,-0.992277876713668));
#741=DIRECTION('',(1.,0.,0.));
#742=DIRECTION('',(-7.6029436839714E-8,-0.124034734589208,0.992277876713665));
#743=DIRECTION('center_axis',(0.,-0.992277876713668,-0.124034734589208));
#744=DIRECTION('ref_axis',(2.61641814568998E-15,0.124034734589208,-0.992277876713668));
#745=DIRECTION('',(1.,0.,0.));
#746=DIRECTION('center_axis',(0.,-0.992277876713668,-0.124034734589208));
#747=DIRECTION('ref_axis',(-6.19677981873943E-16,0.124034734589208,-0.992277876713668));
#748=DIRECTION('center_axis',(0.,-0.749678175815866,0.66180256323574));
#749=DIRECTION('ref_axis',(1.,0.,0.));
#750=DIRECTION('',(0.,0.66180256323574,0.749678175815866));
#751=DIRECTION('',(-1.,0.,0.));
#752=DIRECTION('',(5.74411773716807E-8,-0.661802563235739,-0.749678175815864));
#753=DIRECTION('center_axis',(1.,0.,0.));
#754=DIRECTION('ref_axis',(0.,1.,0.));
#755=DIRECTION('',(0.,-1.,0.));
#756=DIRECTION('',(0.,0.,1.));
#757=DIRECTION('',(0.,-1.,0.));
#758=DIRECTION('center_axis',(0.,0.,-1.));
#759=DIRECTION('ref_axis',(0.,-1.,0.));
#760=DIRECTION('',(0.,0.,-1.));
#761=DIRECTION('center_axis',(0.,0.,-1.));
#762=DIRECTION('ref_axis',(0.,-1.,0.));
#763=DIRECTION('',(0.,0.,1.));
#764=DIRECTION('center_axis',(0.,1.,0.));
#765=DIRECTION('ref_axis',(0.,0.,1.));
#766=DIRECTION('',(1.,0.,0.));
#767=DIRECTION('',(0.,0.,1.));
#768=DIRECTION('',(-1.,0.,0.));
#769=DIRECTION('center_axis',(0.,0.,1.));
#770=DIRECTION('ref_axis',(1.,0.,0.));
#771=DIRECTION('',(8.88178419700125E-16,-1.,0.));
#772=DIRECTION('',(1.,-1.32281892295763E-15,0.));
#773=DIRECTION('',(0.,1.,0.));
#774=DIRECTION('center_axis',(0.,0.,-1.));
#775=DIRECTION('ref_axis',(-0.707106781186548,-0.707106781186548,0.));
#776=DIRECTION('',(1.,-4.93038065763132E-33,0.));
#777=DIRECTION('',(0.,1.,0.));
#778=DIRECTION('',(-1.,0.,0.));
#779=DIRECTION('',(0.,-1.,0.));
#780=DIRECTION('',(1.,-4.93038065763132E-33,0.));
#781=DIRECTION('center_axis',(0.,0.,-1.));
#782=DIRECTION('ref_axis',(0.707106781186548,-0.707106781186547,0.));
#783=DIRECTION('center_axis',(0.,0.,1.));
#784=DIRECTION('ref_axis',(0.,-1.,0.));
#785=DIRECTION('center_axis',(0.,0.,-1.));
#786=DIRECTION('ref_axis',(1.,0.,0.));
#787=DIRECTION('center_axis',(0.,0.,-1.));
#788=DIRECTION('ref_axis',(1.,0.,0.));
#789=DIRECTION('center_axis',(-8.88178419700125E-16,1.,0.));
#790=DIRECTION('ref_axis',(0.707106781186548,5.23364152894591E-16,-0.707106781186547));
#791=DIRECTION('',(0.,-1.,0.));
#792=DIRECTION('center_axis',(1.32281892295763E-15,1.,0.));
#793=DIRECTION('ref_axis',(0.707106781186548,5.23364152894591E-16,-0.707106781186547));
#794=DIRECTION('center_axis',(-1.,-8.88178419700125E-16,0.));
#795=DIRECTION('ref_axis',(8.88178419700125E-16,-1.,0.));
#796=DIRECTION('',(8.88178419700125E-16,-1.,0.));
#797=DIRECTION('',(0.,0.,1.));
#798=DIRECTION('center_axis',(0.,-1.,0.));
#799=DIRECTION('ref_axis',(-0.707106781186548,0.,-0.707106781186547));
#800=DIRECTION('',(0.,1.,0.));
#801=DIRECTION('center_axis',(1.32281892295763E-15,1.,0.));
#802=DIRECTION('ref_axis',(-0.707106781186548,0.,-0.707106781186547));
#803=DIRECTION('center_axis',(0.,0.,-1.));
#804=DIRECTION('ref_axis',(1.,-1.8897413185109E-16,0.));
#805=DIRECTION('',(0.,-1.,0.));
#806=DIRECTION('',(1.,-1.32281892295763E-15,0.));
#807=DIRECTION('center_axis',(0.,0.,1.));
#808=DIRECTION('ref_axis',(0.,-1.,0.));
#809=DIRECTION('',(0.,0.,-1.));
#810=DIRECTION('center_axis',(0.,0.,-1.));
#811=DIRECTION('ref_axis',(0.,-1.,0.));
#812=DIRECTION('center_axis',(0.,0.,1.));
#813=DIRECTION('ref_axis',(0.707106781186548,-0.707106781186547,0.));
#814=DIRECTION('',(0.,0.,-1.));
#815=DIRECTION('center_axis',(0.,0.,1.));
#816=DIRECTION('ref_axis',(0.707106781186548,-0.707106781186547,0.));
#817=DIRECTION('center_axis',(-4.93038065763132E-33,-1.,0.));
#818=DIRECTION('ref_axis',(1.,-4.93038065763132E-33,0.));
#819=DIRECTION('',(0.,0.,1.));
#820=DIRECTION('',(-1.,4.93038065763132E-33,0.));
#821=DIRECTION('center_axis',(0.,0.,1.));
#822=DIRECTION('ref_axis',(-0.707106781186548,-0.707106781186548,0.));
#823=DIRECTION('center_axis',(0.,0.,1.));
#824=DIRECTION('ref_axis',(-0.707106781186548,-0.707106781186548,0.));
#825=DIRECTION('',(0.,0.,1.));
#826=DIRECTION('center_axis',(0.,-1.,0.));
#827=DIRECTION('ref_axis',(-0.707106781186547,0.,-0.707106781186548));
#828=DIRECTION('center_axis',(1.32281892295763E-15,1.,0.));
#829=DIRECTION('ref_axis',(-0.707106781186547,0.,-0.707106781186548));
#830=DIRECTION('center_axis',(0.,-1.,0.));
#831=DIRECTION('ref_axis',(0.707106808276202,0.,-0.707106754096892));
#832=DIRECTION('',(0.,1.,0.));
#833=DIRECTION('center_axis',(1.32281892295763E-15,1.,0.));
#834=DIRECTION('ref_axis',(0.707106808276202,0.,-0.707106754096892));
#835=DIRECTION('center_axis',(0.999999999999997,0.,7.66211145324699E-8));
#836=DIRECTION('ref_axis',(-7.66211145324699E-8,1.44794086002365E-23,0.999999999999997));
#837=DIRECTION('',(0.,-1.,0.));
#838=DIRECTION('',(-7.66211145324699E-8,1.01355860201655E-22,0.999999999999997));
#839=DIRECTION('center_axis',(0.,0.,1.));
#840=DIRECTION('ref_axis',(-1.,0.,0.));
#841=DIRECTION('',(-1.,1.32281892295763E-15,0.));
#842=DIRECTION('center_axis',(0.,0.,-1.));
#843=DIRECTION('ref_axis',(-1.,0.,0.));
#844=DIRECTION('center_axis',(0.,0.,1.));
#845=DIRECTION('ref_axis',(-1.,0.,0.));
#846=DIRECTION('',(-1.,1.32281892295763E-15,0.));
#847=DIRECTION('center_axis',(0.,0.,-1.));
#848=DIRECTION('ref_axis',(-1.,0.,0.));
#849=DIRECTION('center_axis',(1.32281892295763E-15,1.,0.));
#850=DIRECTION('ref_axis',(-1.,1.32281892295763E-15,0.));
#851=DIRECTION('center_axis',(0.,0.,1.));
#852=DIRECTION('ref_axis',(-1.,0.,0.));
#853=DIRECTION('',(0.,0.,-1.));
#854=DIRECTION('center_axis',(0.,0.,1.));
#855=DIRECTION('ref_axis',(-1.,0.,0.));
#856=DIRECTION('center_axis',(0.,0.,1.));
#857=DIRECTION('ref_axis',(-1.,0.,0.));
#858=DIRECTION('',(0.,0.,-1.));
#859=DIRECTION('center_axis',(0.,0.,1.));
#860=DIRECTION('ref_axis',(-1.,0.,0.));
#861=DIRECTION('center_axis',(0.,0.,1.));
#862=DIRECTION('ref_axis',(1.,0.,0.));
#863=DIRECTION('center_axis',(0.,0.,1.));
#864=DIRECTION('ref_axis',(1.,0.,0.));
#865=DIRECTION('center_axis',(0.,0.,1.));
#866=DIRECTION('ref_axis',(1.,0.,0.));
#867=DIRECTION('',(0.,0.,-1.));
#868=DIRECTION('center_axis',(0.,0.,-1.));
#869=DIRECTION('ref_axis',(1.,0.,0.));
#870=DIRECTION('center_axis',(0.,0.,1.));
#871=DIRECTION('ref_axis',(1.,0.,0.));
#872=DIRECTION('',(0.,0.,-1.));
#873=DIRECTION('center_axis',(0.,0.,-1.));
#874=DIRECTION('ref_axis',(1.,0.,0.));
#875=DIRECTION('center_axis',(-1.,0.,0.));
#876=DIRECTION('ref_axis',(0.,-1.,0.));
#877=DIRECTION('',(0.,1.,0.));
#878=DIRECTION('',(0.,0.,1.));
#879=DIRECTION('center_axis',(0.,1.,0.));
#880=DIRECTION('ref_axis',(-1.,0.,0.));
#881=DIRECTION('',(1.,0.,0.));
#882=DIRECTION('',(0.,0.,1.));
#883=DIRECTION('center_axis',(1.,0.,0.));
#884=DIRECTION('ref_axis',(0.,1.,0.));
#885=DIRECTION('',(0.,-1.,0.));
#886=DIRECTION('',(0.,0.,1.));
#887=DIRECTION('center_axis',(-4.93038065763132E-33,-1.,0.));
#888=DIRECTION('ref_axis',(1.,-4.93038065763132E-33,0.));
#889=DIRECTION('',(-1.,4.93038065763132E-33,0.));
#890=DIRECTION('center_axis',(0.,0.,1.));
#891=DIRECTION('ref_axis',(1.,0.,0.));
#892=CARTESIAN_POINT('',(0.,0.,0.));
#893=CARTESIAN_POINT('Origin',(-31.1246296507961,5.5620173672946,10.5038610616432));
#894=CARTESIAN_POINT('',(-35.48,6.,11.));
#895=CARTESIAN_POINT('',(-35.48,5.12403473458921,10.0077221232863));
#896=CARTESIAN_POINT('',(-35.48,4.70526689308367,9.5333493587336));
#897=CARTESIAN_POINT('',(-28.73,5.12403473458921,10.0077221232863));
#898=CARTESIAN_POINT('',(-31.1246296507961,5.12403473458921,10.0077221232863));
#899=CARTESIAN_POINT('',(-28.73,6.,11.));
#900=CARTESIAN_POINT('',(-28.73,6.689822646511,11.781418827912));
#901=CARTESIAN_POINT('',(-31.1246296507961,6.,11.));
#902=CARTESIAN_POINT('Origin',(-28.73,10.15,11.));
#903=CARTESIAN_POINT('',(-28.73,5.1875,9.5));
#904=CARTESIAN_POINT('',(-28.73,5.53961538461539,6.68307692307692));
#905=CARTESIAN_POINT('',(-28.73,10.15,9.5));
#906=CARTESIAN_POINT('',(-28.73,10.15,9.5));
#907=CARTESIAN_POINT('',(-28.73,10.15,11.));
#908=CARTESIAN_POINT('',(-28.73,10.15,7.));
#909=CARTESIAN_POINT('',(-28.73,9.1125,11.));
#910=CARTESIAN_POINT('Origin',(-38.5192593015921,6.,3.));
#911=CARTESIAN_POINT('',(-35.48,5.625,6.));
#912=CARTESIAN_POINT('',(-35.48,6.03192307692308,2.74461538461538));
#913=CARTESIAN_POINT('',(-38.48,6.,3.));
#914=CARTESIAN_POINT('Origin',(-38.48,5.625,6.));
#915=CARTESIAN_POINT('',(-11.4807406984079,6.,3.));
#916=CARTESIAN_POINT('',(-38.5192593015921,6.,3.));
#917=CARTESIAN_POINT('',(-11.4380636386009,5.99963570717139,3.00291434262896));
#918=CARTESIAN_POINT('Origin',(-11.4807406984079,3.5,23.));
#919=CARTESIAN_POINT('',(-11.4807406984079,5.9976833630141,3.01853309588719));
#920=CARTESIAN_POINT('Ctrl Pts',(-11.4807415827248,5.99768340863626,3.01852919513058));
#921=CARTESIAN_POINT('Ctrl Pts',(-11.4807415823146,5.99768381753923,3.01852592554722));
#922=CARTESIAN_POINT('Ctrl Pts',(-11.4807414134098,5.99768449844004,3.01852057558786));
#923=CARTESIAN_POINT('Ctrl Pts',(-11.4807413071304,5.9976849146905,3.01851726233531));
#924=CARTESIAN_POINT('Ctrl Pts',(-11.4807411622153,5.99768548226002,3.01851274461983));
#925=CARTESIAN_POINT('Ctrl Pts',(-11.4807409758955,5.99768606495383,3.01850810119728));
#926=CARTESIAN_POINT('Ctrl Pts',(-11.4807407675059,5.99768663550835,3.01850355292028));
#927=CARTESIAN_POINT('Ctrl Pts',(-11.4807403504406,5.99768777740127,3.01849445011752));
#928=CARTESIAN_POINT('Ctrl Pts',(-11.4807398178683,5.99768894700448,3.01848511917319));
#929=CARTESIAN_POINT('Ctrl Pts',(-11.4807392225091,5.99769009381329,3.01847596756555));
#930=CARTESIAN_POINT('Ctrl Pts',(-11.4807380337566,5.99769238364416,3.01845769456896));
#931=CARTESIAN_POINT('Ctrl Pts',(-11.4807365221761,5.99769472564365,3.01843899420326));
#932=CARTESIAN_POINT('Ctrl Pts',(-11.4807348337051,5.99769702277479,3.01842064732944));
#933=CARTESIAN_POINT('Ctrl Pts',(-11.4807314611176,5.99770161111286,3.01838400089777));
#934=CARTESIAN_POINT('Ctrl Pts',(-11.4807271838098,5.9977062972709,3.01834655271229));
#935=CARTESIAN_POINT('Ctrl Pts',(-11.4807224107273,5.99771089080609,3.01830983263232));
#936=CARTESIAN_POINT('Ctrl Pts',(-11.480712857669,5.99772008451028,3.01823633944268));
#937=CARTESIAN_POINT('Ctrl Pts',(-11.4807007644023,5.9977294525071,3.01816140217772));
#938=CARTESIAN_POINT('Ctrl Pts',(-11.4806872883931,5.99773861678683,3.01808805429583));
#939=CARTESIAN_POINT('Ctrl Pts',(-11.4806601988213,5.99775703888861,3.01794060985023));
#940=CARTESIAN_POINT('Ctrl Pts',(-11.4806259625083,5.99777572258796,3.01779090310693));
#941=CARTESIAN_POINT('Ctrl Pts',(-11.4805878935731,5.99779391438788,3.01764498108539));
#942=CARTESIAN_POINT('Ctrl Pts',(-11.4805106777649,5.99783081309612,3.01734900519933));
#943=CARTESIAN_POINT('Ctrl Pts',(-11.4804132627864,5.99786785934611,3.01705117831657));
#944=CARTESIAN_POINT('Ctrl Pts',(-11.4803053161573,5.99790356123348,3.01676352684282));
#945=CARTESIAN_POINT('Ctrl Pts',(-11.4800822484133,5.99797733787238,3.01616910563807));
#946=CARTESIAN_POINT('Ctrl Pts',(-11.4798013925113,5.9980497425616,3.015582924405));
#947=CARTESIAN_POINT('Ctrl Pts',(-11.4794919512977,5.9981179542313,3.01502836578961));
#948=CARTESIAN_POINT('Ctrl Pts',(-11.478984797916,5.99822974858007,3.01411948143684));
#949=CARTESIAN_POINT('Ctrl Pts',(-11.4783759893947,5.9983352250461,3.01325662648469));
#950=CARTESIAN_POINT('Ctrl Pts',(-11.4777138949925,5.9984331484203,3.01245000129392));
#951=CARTESIAN_POINT('Ctrl Pts',(-11.4775068622432,5.99846376844263,3.01219777467741));
#952=CARTESIAN_POINT('Ctrl Pts',(-11.4772943609282,5.9984936238424,3.01195134923259));
#953=CARTESIAN_POINT('Ctrl Pts',(-11.4770772039038,5.99852263164363,3.01171175996546));
#954=CARTESIAN_POINT('Ctrl Pts',(-11.475708515379,5.99870546084189,3.01020168640725));
#955=CARTESIAN_POINT('Ctrl Pts',(-11.47397320986,5.99888281650665,3.00872091301711));
#956=CARTESIAN_POINT('Ctrl Pts',(-11.4718588328879,5.99904313311703,3.00736826765895));
#957=CARTESIAN_POINT('Ctrl Pts',(-11.4710949842959,5.99910104976043,3.00687960538827));
#958=CARTESIAN_POINT('Ctrl Pts',(-11.4702814260298,5.9991567150759,3.0064081321826));
#959=CARTESIAN_POINT('Ctrl Pts',(-11.4694169141724,5.99920953170361,3.00595995990136));
#960=CARTESIAN_POINT('Ctrl Pts',(-11.4684956904759,5.99926581309363,3.00548238759036));
#961=CARTESIAN_POINT('Ctrl Pts',(-11.4675253698772,5.99931839407601,3.00503477875488));
#962=CARTESIAN_POINT('Ctrl Pts',(-11.4665054568947,5.99936689045762,3.00462124488054));
#963=CARTESIAN_POINT('Ctrl Pts',(-11.463822999284,5.99949444005272,3.00353361573218));
#964=CARTESIAN_POINT('Ctrl Pts',(-11.4607985506312,5.99959390189166,3.00267994095075));
#965=CARTESIAN_POINT('Ctrl Pts',(-11.4574061125156,5.99965681925104,3.0021555126127));
#966=CARTESIAN_POINT('Ctrl Pts',(-11.4539060193172,5.99972173321973,3.00161444215053));
#967=CARTESIAN_POINT('Ctrl Pts',(-11.4502940596884,5.9997425043626,3.00146737280062));
#968=CARTESIAN_POINT('Ctrl Pts',(-11.4466784144085,5.99972779459573,3.00162334078301));
#969=CARTESIAN_POINT('Ctrl Pts',(-11.4440895948633,5.99971726233135,3.00173501461437));
#970=CARTESIAN_POINT('Ctrl Pts',(-11.4414976733523,5.99968853584446,3.00200199035803));
#971=CARTESIAN_POINT('Ctrl Pts',(-11.4389260619247,5.9996445942428,3.00239034218684));
#972=CARTESIAN_POINT('',(-11.4807406984079,5.83214940107197,4.34280479142421));
#973=CARTESIAN_POINT('',(-11.4807406984079,6.18461538461538,1.52307692307692));
#974=CARTESIAN_POINT('',(-11.98,5.625,6.));
#975=CARTESIAN_POINT('Origin',(-8.98,5.625,6.));
#976=CARTESIAN_POINT('',(-11.98,5.12403473458921,10.0077221232863));
#977=CARTESIAN_POINT('',(-11.98,6.,3.));
#978=CARTESIAN_POINT('',(-18.7299999239706,5.12403473458921,10.0077221232863));
#979=CARTESIAN_POINT('',(-31.1246296507961,5.12403473458921,10.0077221232863));
#980=CARTESIAN_POINT('',(-18.7299998850684,5.18749998084472,9.50000015324223));
#981=CARTESIAN_POINT('',(-18.7299995372085,5.75499990669076,4.96000074647393));
#982=CARTESIAN_POINT('',(-20.7299998850684,5.4375,7.5));
#983=CARTESIAN_POINT('Origin',(-20.7299998850684,5.1875,9.5));
#984=CARTESIAN_POINT('',(-26.73,5.4375,7.5));
#985=CARTESIAN_POINT('',(-33.6246296507961,5.4375,7.5));
#986=CARTESIAN_POINT('Origin',(-26.73,5.1875,9.5));
#987=CARTESIAN_POINT('Origin',(-31.1246296507961,5.5620173672946,10.5038610616432));
#988=CARTESIAN_POINT('',(-11.98,6.,11.));
#989=CARTESIAN_POINT('',(-11.98,3.79645293021997,8.50386106164317));
#990=CARTESIAN_POINT('',(-18.73,6.,11.));
#991=CARTESIAN_POINT('',(-31.1246296507961,6.,11.));
#992=CARTESIAN_POINT('',(-18.729999984514,5.82157973997572,10.7978887020177));
#993=CARTESIAN_POINT('Origin',(-11.98,6.,3.));
#994=CARTESIAN_POINT('',(-11.98,10.15,6.));
#995=CARTESIAN_POINT('',(-11.98,5.75,6.));
#996=CARTESIAN_POINT('',(-11.98,10.15,11.));
#997=CARTESIAN_POINT('',(-11.98,10.15,3.));
#998=CARTESIAN_POINT('',(-11.98,6.,11.));
#999=CARTESIAN_POINT('Ctrl Pts',(-11.4807415827248,5.99768340863626,3.01852919513058));
#1000=CARTESIAN_POINT('Ctrl Pts',(-11.4807406984079,5.9976833630141,3.01853309588719));
#1001=CARTESIAN_POINT('Ctrl Pts',(-11.4807406984079,5.99474451368629,3.04204389050968));
#1002=CARTESIAN_POINT('Ctrl Pts',(-11.4807406984079,5.98755891555301,3.09952867557589));
#1003=CARTESIAN_POINT('Ctrl Pts',(-11.4807406984079,5.9741011325526,3.20719093957919));
#1004=CARTESIAN_POINT('Ctrl Pts',(-11.4807406984079,5.9539519051558,3.36838475875357));
#1005=CARTESIAN_POINT('Ctrl Pts',(-11.4807406984079,5.90551189472078,3.75590484223378));
#1006=CARTESIAN_POINT('Ctrl Pts',(-11.4807406984079,5.86477031254462,4.08183749964301));
#1007=CARTESIAN_POINT('Ctrl Pts',(-11.4807406984079,5.83214940107197,4.34280479142421));
#1008=CARTESIAN_POINT('Ctrl Pts',(-11.4807406984079,5.99856475379944,3.01148196960447));
#1009=CARTESIAN_POINT('Ctrl Pts',(-11.4771699973692,5.99856475379944,3.01148196960447));
#1010=CARTESIAN_POINT('Ctrl Pts',(-11.4715631689481,5.99674207267355,3.03510679758609));
#1011=CARTESIAN_POINT('Ctrl Pts',(-11.4649788702732,5.99227319119109,3.09286784086264));
#1012=CARTESIAN_POINT('Ctrl Pts',(-11.4575614837409,5.98386780952015,3.20104027739005));
#1013=CARTESIAN_POINT('Ctrl Pts',(-11.4514303935175,5.97115391111173,3.36297290625196));
#1014=CARTESIAN_POINT('Ctrl Pts',(-11.4433824730955,5.94021395351728,3.75218391846199));
#1015=CARTESIAN_POINT('Ctrl Pts',(-11.4443555640632,5.91304229649195,4.07932684862922));
#1016=CARTESIAN_POINT('Ctrl Pts',(-11.4477490420088,5.89058365532459,4.34107810033422));
#1017=CARTESIAN_POINT('Ctrl Pts',(-11.4807406984079,5.99966856828073,2.99908767631941));
#1018=CARTESIAN_POINT('Ctrl Pts',(-11.470896858072,5.99966856828073,2.99908767631941));
#1019=CARTESIAN_POINT('Ctrl Pts',(-11.4553843291906,5.9991715422544,3.02283348011995));
#1020=CARTESIAN_POINT('Ctrl Pts',(-11.4367908360017,5.99795935407633,3.08089069761226));
#1021=CARTESIAN_POINT('Ctrl Pts',(-11.4150724716182,5.99569734816444,3.1896188697878));
#1022=CARTESIAN_POINT('Ctrl Pts',(-11.3953203712744,5.99234088086041,3.35238775688059));
#1023=CARTESIAN_POINT('Ctrl Pts',(-11.3639075907879,5.98431349324717,3.74360955290554));
#1024=CARTESIAN_POINT('Ctrl Pts',(-11.3558371985904,5.97775758411382,4.07247087274647));
#1025=CARTESIAN_POINT('Ctrl Pts',(-11.3546265741998,5.97234850767198,4.33554621935106));
#1026=CARTESIAN_POINT('Ctrl Pts',(-11.4807406984079,6.,2.98665217527672));
#1027=CARTESIAN_POINT('Ctrl Pts',(-11.4646087084519,6.,2.98665217527672));
#1028=CARTESIAN_POINT('Ctrl Pts',(-11.4391301213074,5.99971176370478,3.01045955251601));
#1029=CARTESIAN_POINT('Ctrl Pts',(-11.4082195152048,5.99902003133897,3.06866992383645));
#1030=CARTESIAN_POINT('Ctrl Pts',(-11.3713563920129,5.9977591828366,3.17769219696594));
#1031=CARTESIAN_POINT('Ctrl Pts',(-11.3360575111928,5.99598597607802,3.34092588012242));
#1032=CARTESIAN_POINT('Ctrl Pts',(-11.2750281055619,5.99212596716684,3.73335740710511));
#1033=CARTESIAN_POINT('Ctrl Pts',(-11.2492532854071,5.98967147501512,4.0634378352313));
#1034=CARTESIAN_POINT('Ctrl Pts',(-11.2345861071988,5.98835915233084,4.32770798664504));
#1035=CARTESIAN_POINT('Ctrl Pts',(-11.4807406984079,6.,2.98132267551043));
#1036=CARTESIAN_POINT('Ctrl Pts',(-11.4619148574239,6.,2.98132267551043));
#1037=CARTESIAN_POINT('Ctrl Pts',(-11.4321691965577,5.99959648012311,3.00515643911244));
#1038=CARTESIAN_POINT('Ctrl Pts',(-11.3960011525567,5.99862411391702,3.06343246366263));
#1039=CARTESIAN_POINT('Ctrl Pts',(-11.3527053525329,5.99684141881828,3.17258085408012));
#1040=CARTESIAN_POINT('Ctrl Pts',(-11.3108706596778,5.99430151616696,3.33601393738746));
#1041=CARTESIAN_POINT('Ctrl Pts',(-11.2375585532755,5.98862906880191,3.72896505296189));
#1042=CARTESIAN_POINT('Ctrl Pts',(-11.2046711589418,5.98479171440965,4.05956829915999));
#1043=CARTESIAN_POINT('Ctrl Pts',(-11.1847065341285,5.98241087928236,4.32435131301128));
#1044=CARTESIAN_POINT('',(-11.2136852960212,5.98569535785384,3.997339270286));
#1045=CARTESIAN_POINT('Ctrl Pts',(-11.2136852960212,5.98569535785384,3.99733927028601));
#1046=CARTESIAN_POINT('Ctrl Pts',(-11.2625105901694,5.99094099607503,4.05179699245265));
#1047=CARTESIAN_POINT('Ctrl Pts',(-11.3106620573467,5.9815476506105,4.10978092889408));
#1048=CARTESIAN_POINT('Ctrl Pts',(-11.3788075499576,5.94766882099868,4.19793724559591));
#1049=CARTESIAN_POINT('Ctrl Pts',(-11.4028894935833,5.9306471667104,4.23053592971409));
#1050=CARTESIAN_POINT('Ctrl Pts',(-11.4456021169891,5.88842057073218,4.29057762599503));
#1051=CARTESIAN_POINT('Ctrl Pts',(-11.465096603126,5.86270651404375,4.31919753890581));
#1052=CARTESIAN_POINT('Ctrl Pts',(-11.4807406984079,5.83214940107197,4.34280479142421));
#1053=CARTESIAN_POINT('Ctrl Pts',(-11.4382462298528,5.99963282292831,3.00309029569111));
#1054=CARTESIAN_POINT('Ctrl Pts',(-11.4371701970848,5.99961405157426,3.00420661629646));
#1055=CARTESIAN_POINT('Ctrl Pts',(-11.4239075210779,5.99937436764055,3.01846812395424));
#1056=CARTESIAN_POINT('Ctrl Pts',(-11.3960011525567,5.99862411391702,3.06343246366263));
#1057=CARTESIAN_POINT('Ctrl Pts',(-11.3527053525329,5.99684141881828,3.17258085408012));
#1058=CARTESIAN_POINT('Ctrl Pts',(-11.3108706596778,5.99430151616696,3.33601393738746));
#1059=CARTESIAN_POINT('Ctrl Pts',(-11.2576971329115,5.99018727028592,3.62102275362852));
#1060=CARTESIAN_POINT('Ctrl Pts',(-11.2294177450672,5.98741824622837,3.84195258606852));
#1061=CARTESIAN_POINT('Ctrl Pts',(-11.2134363787072,5.98569650256189,3.99731671438199));
#1062=CARTESIAN_POINT('Origin',(-11.4807406984079,3.5,0.));
#1063=CARTESIAN_POINT('',(-11.4807406984079,6.,0.));
#1064=CARTESIAN_POINT('',(-11.4807406984079,6.,0.));
#1065=CARTESIAN_POINT('',(-8.98814812209714,3.69230769230769,0.));
#1066=CARTESIAN_POINT('Origin',(-11.4807406984079,3.5,0.));
#1067=CARTESIAN_POINT('',(-8.98814812207872,3.69230769206895,3.00001106533593));
#1068=CARTESIAN_POINT('',(-8.98814812209715,3.69230769230769,0.));
#1069=CARTESIAN_POINT('Ctrl Pts',(-8.98814812207885,3.69230769207053,3.00001106533598));
#1070=CARTESIAN_POINT('Ctrl Pts',(-9.01131738094664,3.99261561023603,3.000073994218));
#1071=CARTESIAN_POINT('Ctrl Pts',(-9.0917264343158,4.29892981302371,2.99909573181019));
#1072=CARTESIAN_POINT('Ctrl Pts',(-9.38713305250566,4.91703822328006,3.0233118420378));
#1073=CARTESIAN_POINT('Ctrl Pts',(-9.62902886538533,5.21550159000563,3.05731693559088));
#1074=CARTESIAN_POINT('Ctrl Pts',(-10.0396660751401,5.55088895412046,3.18951080719006));
#1075=CARTESIAN_POINT('Ctrl Pts',(-10.2022181454308,5.65611355135839,3.25404894205282));
#1076=CARTESIAN_POINT('Ctrl Pts',(-10.529599398003,5.81921873808365,3.42457646993771));
#1077=CARTESIAN_POINT('Ctrl Pts',(-10.6939369548337,5.87760597560429,3.53102405849032));
#1078=CARTESIAN_POINT('Ctrl Pts',(-10.969894409123,5.95108305801789,3.74861205428296));
#1079=CARTESIAN_POINT('Ctrl Pts',(-11.0967513455298,5.973132336765,3.86691595796812));
#1080=CARTESIAN_POINT('Ctrl Pts',(-11.2136852960212,5.98569535785384,3.997339270286));
#1081=CARTESIAN_POINT('Origin',(-38.5192593015921,6.,0.));
#1082=CARTESIAN_POINT('',(-38.5192593015921,6.,3.));
#1083=CARTESIAN_POINT('',(-31.7596296507961,6.,3.));
#1084=CARTESIAN_POINT('',(-38.5192593015921,6.,0.));
#1085=CARTESIAN_POINT('',(-38.5192593015921,6.,0.));
#1086=CARTESIAN_POINT('',(-31.7596296507961,6.,0.));
#1087=CARTESIAN_POINT('Origin',(-25.,5.5,3.));
#1088=CARTESIAN_POINT('',(-38.48,10.15,3.));
#1089=CARTESIAN_POINT('',(-38.48,7.82500000000001,3.));
#1090=CARTESIAN_POINT('',(-8.98,10.15,3.));
#1091=CARTESIAN_POINT('',(-18.49,10.15,3.));
#1092=CARTESIAN_POINT('',(-8.98,3.60050031289121,3.));
#1093=CARTESIAN_POINT('',(-8.98,5.75,3.));
#1094=CARTESIAN_POINT('',(-5.,2.46519032881566E-32,3.));
#1095=CARTESIAN_POINT('Origin',(-5.,4.,3.));
#1096=CARTESIAN_POINT('',(0.,0.,3.));
#1097=CARTESIAN_POINT('',(0.,0.,3.));
#1098=CARTESIAN_POINT('',(0.,11.,3.));
#1099=CARTESIAN_POINT('',(0.,11.,3.));
#1100=CARTESIAN_POINT('',(-50.,11.,3.));
#1101=CARTESIAN_POINT('',(-50.,11.,3.));
#1102=CARTESIAN_POINT('',(-50.,0.,3.));
#1103=CARTESIAN_POINT('',(-50.,2.46519032881566E-31,3.));
#1104=CARTESIAN_POINT('',(-45.,2.2186712959341E-31,3.));
#1105=CARTESIAN_POINT('',(0.,0.,3.));
#1106=CARTESIAN_POINT('',(-41.0118518779029,3.69230769230769,3.));
#1107=CARTESIAN_POINT('Origin',(-45.,4.,3.));
#1108=CARTESIAN_POINT('Origin',(-38.5192593015921,3.5,3.));
#1109=CARTESIAN_POINT('',(-6.48,3.99999999999999,3.));
#1110=CARTESIAN_POINT('Origin',(-4.68,3.99999999999999,3.));
#1111=CARTESIAN_POINT('',(-47.12,4.,3.));
#1112=CARTESIAN_POINT('Origin',(-45.32,4.,3.));
#1113=CARTESIAN_POINT('Origin',(-38.48,7.82500000000001,6.));
#1114=CARTESIAN_POINT('',(-35.48,10.15,6.));
#1115=CARTESIAN_POINT('',(-35.48,6.,6.));
#1116=CARTESIAN_POINT('Origin',(-38.48,10.15,6.));
#1117=CARTESIAN_POINT('Origin',(-35.48,10.15,3.));
#1118=CARTESIAN_POINT('',(-35.48,10.15,11.));
#1119=CARTESIAN_POINT('',(-35.48,6.,11.));
#1120=CARTESIAN_POINT('',(-35.48,10.15,3.));
#1121=CARTESIAN_POINT('Origin',(-26.73,10.15,9.5));
#1122=CARTESIAN_POINT('',(-26.73,10.15,7.5));
#1123=CARTESIAN_POINT('',(-26.73,10.15,7.5));
#1124=CARTESIAN_POINT('Origin',(-26.73,10.15,9.5));
#1125=CARTESIAN_POINT('Origin',(-28.73,10.15,7.5));
#1126=CARTESIAN_POINT('',(-20.7299998850684,10.15,7.5));
#1127=CARTESIAN_POINT('',(-20.7299998850684,10.15,7.5));
#1128=CARTESIAN_POINT('',(-20.355,10.15,7.5));
#1129=CARTESIAN_POINT('Origin',(-38.5192593015921,3.5,0.));
#1130=CARTESIAN_POINT('',(-41.0118518779029,3.69230769230769,0.));
#1131=CARTESIAN_POINT('',(-41.0118518779029,3.69230769230769,0.));
#1132=CARTESIAN_POINT('Origin',(-38.5192593015921,3.5,0.));
#1133=CARTESIAN_POINT('Origin',(-45.,4.,0.));
#1134=CARTESIAN_POINT('',(-45.,2.2186712959341E-31,0.));
#1135=CARTESIAN_POINT('',(-45.,0.,0.));
#1136=CARTESIAN_POINT('Origin',(-45.,4.,0.));
#1137=CARTESIAN_POINT('Origin',(-50.,2.46519032881566E-31,0.));
#1138=CARTESIAN_POINT('',(-50.,2.46519032881566E-31,0.));
#1139=CARTESIAN_POINT('',(-50.,2.46519032881566E-31,0.));
#1140=CARTESIAN_POINT('',(0.,0.,0.));
#1141=CARTESIAN_POINT('Origin',(-5.,4.,0.));
#1142=CARTESIAN_POINT('',(-5.,2.46519032881566E-32,0.));
#1143=CARTESIAN_POINT('Origin',(-5.,4.,0.));
#1144=CARTESIAN_POINT('',(-5.,0.,0.));
#1145=CARTESIAN_POINT('Ctrl Pts',(-8.98,3.60050031289121,3.));
#1146=CARTESIAN_POINT('Ctrl Pts',(-8.98307839695966,3.63116872214107,3.));
#1147=CARTESIAN_POINT('Ctrl Pts',(-8.9857926870125,3.66177776430051,3.00000466785489));
#1148=CARTESIAN_POINT('Ctrl Pts',(-8.98814812207872,3.69230769206895,3.00001106533598));
#1149=CARTESIAN_POINT('Origin',(-8.98,5.75,6.));
#1150=CARTESIAN_POINT('Origin',(-8.98,10.15,6.));
#1151=CARTESIAN_POINT('Origin',(-20.7299998850684,10.15,9.5));
#1152=CARTESIAN_POINT('',(-18.7299998850684,10.15,9.50000015324223));
#1153=CARTESIAN_POINT('',(-18.7299998850684,10.15,9.50000015324223));
#1154=CARTESIAN_POINT('Origin',(-20.7299998850684,10.15,9.5));
#1155=CARTESIAN_POINT('Origin',(-18.7299997318261,10.15,7.50000000000002));
#1156=CARTESIAN_POINT('',(-18.73,10.15,11.));
#1157=CARTESIAN_POINT('',(-18.73,6.,11.));
#1158=CARTESIAN_POINT('',(-18.7299995594286,10.15,5.24999974140377));
#1159=CARTESIAN_POINT('Origin',(-23.73,8.07500000000001,11.));
#1160=CARTESIAN_POINT('',(-11.98,10.15,11.));
#1161=CARTESIAN_POINT('',(-14.93,7.65,11.));
#1162=CARTESIAN_POINT('Origin',(-15.68,7.65,11.));
#1163=CARTESIAN_POINT('Origin',(-23.73,8.07500000000001,11.));
#1164=CARTESIAN_POINT('',(-11.98,10.15,11.));
#1165=CARTESIAN_POINT('',(-31.03,7.65,11.));
#1166=CARTESIAN_POINT('Origin',(-31.78,7.65,11.));
#1167=CARTESIAN_POINT('Origin',(-11.98,10.15,3.));
#1168=CARTESIAN_POINT('Origin',(-31.78,7.65,3.));
#1169=CARTESIAN_POINT('',(-31.03,7.65,3.));
#1170=CARTESIAN_POINT('',(-31.03,7.65,3.));
#1171=CARTESIAN_POINT('Origin',(-31.78,7.65,3.));
#1172=CARTESIAN_POINT('Origin',(-15.68,7.65,3.));
#1173=CARTESIAN_POINT('',(-14.93,7.65,3.));
#1174=CARTESIAN_POINT('',(-14.93,7.65,3.));
#1175=CARTESIAN_POINT('Origin',(-15.68,7.65,3.));
#1176=CARTESIAN_POINT('Origin',(-25.,5.5,3.));
#1177=CARTESIAN_POINT('Origin',(-25.,5.5,3.));
#1178=CARTESIAN_POINT('Origin',(-45.32,4.,0.));
#1179=CARTESIAN_POINT('',(-47.12,4.,0.));
#1180=CARTESIAN_POINT('',(-47.12,4.,0.));
#1181=CARTESIAN_POINT('Origin',(-45.32,4.,0.));
#1182=CARTESIAN_POINT('Origin',(-4.68,3.99999999999999,0.));
#1183=CARTESIAN_POINT('',(-6.48,3.99999999999999,0.));
#1184=CARTESIAN_POINT('',(-6.48,3.99999999999999,0.));
#1185=CARTESIAN_POINT('Origin',(-4.68,3.99999999999999,0.));
#1186=CARTESIAN_POINT('Origin',(-50.,11.,0.));
#1187=CARTESIAN_POINT('',(-50.,11.,0.));
#1188=CARTESIAN_POINT('',(-50.,2.46519032881566E-31,0.));
#1189=CARTESIAN_POINT('',(-50.,11.,0.));
#1190=CARTESIAN_POINT('Origin',(0.,11.,0.));
#1191=CARTESIAN_POINT('',(0.,11.,0.));
#1192=CARTESIAN_POINT('',(-50.,11.,0.));
#1193=CARTESIAN_POINT('',(0.,11.,0.));
#1194=CARTESIAN_POINT('Origin',(0.,0.,0.));
#1195=CARTESIAN_POINT('',(0.,0.,0.));
#1196=CARTESIAN_POINT('',(0.,11.,0.));
#1197=CARTESIAN_POINT('',(0.,0.,0.));
#1198=CARTESIAN_POINT('Origin',(-9.,4.43734259186819E-32,0.));
#1199=CARTESIAN_POINT('',(0.,0.,0.));
#1200=CARTESIAN_POINT('Origin',(-25.,5.5,0.));
#1201=UNCERTAINTY_MEASURE_WITH_UNIT(LENGTH_MEASURE(0.01),#1205,
'DISTANCE_ACCURACY_VALUE',
'Maximum model space distance between geometric entities at asserted c
onnectivities');
#1202=UNCERTAINTY_MEASURE_WITH_UNIT(LENGTH_MEASURE(0.01),#1205,
'DISTANCE_ACCURACY_VALUE',
'Maximum model space distance between geometric entities at asserted c
onnectivities');
#1203=(
GEOMETRIC_REPRESENTATION_CONTEXT(3)
GLOBAL_UNCERTAINTY_ASSIGNED_CONTEXT((#1201))
GLOBAL_UNIT_ASSIGNED_CONTEXT((#1205,#1207,#1208))
REPRESENTATION_CONTEXT('','3D')
);
#1204=(
GEOMETRIC_REPRESENTATION_CONTEXT(3)
GLOBAL_UNCERTAINTY_ASSIGNED_CONTEXT((#1202))
GLOBAL_UNIT_ASSIGNED_CONTEXT((#1205,#1207,#1208))
REPRESENTATION_CONTEXT('','3D')
);
#1205=(
LENGTH_UNIT()
NAMED_UNIT(*)
SI_UNIT(.MILLI.,.METRE.)
);
#1206=(
LENGTH_UNIT()
NAMED_UNIT(*)
SI_UNIT($,.METRE.)
);
#1207=(
NAMED_UNIT(*)
PLANE_ANGLE_UNIT()
SI_UNIT($,.RADIAN.)
);
#1208=(
NAMED_UNIT(*)
SI_UNIT($,.STERADIAN.)
SOLID_ANGLE_UNIT()
);
#1209=SHAPE_DEFINITION_REPRESENTATION(#1210,#1211);
#1210=PRODUCT_DEFINITION_SHAPE('',$,#1213);
#1211=SHAPE_REPRESENTATION('',(#657),#1203);
#1212=PRODUCT_DEFINITION_CONTEXT('part definition',#1217,'design');
#1213=PRODUCT_DEFINITION('Traeger2','Traeger2 v7',#1214,#1212);
#1214=PRODUCT_DEFINITION_FORMATION('',$,#1219);
#1215=PRODUCT_RELATED_PRODUCT_CATEGORY('Traeger2 v7','Traeger2 v7',(#1219));
#1216=APPLICATION_PROTOCOL_DEFINITION('international standard',
'automotive_design',2009,#1217);
#1217=APPLICATION_CONTEXT(
'Core Data for Automotive Mechanical Design Process');
#1218=PRODUCT_CONTEXT('part definition',#1217,'mechanical');
#1219=PRODUCT('Traeger2','Traeger2 v7',$,(#1218));
#1220=PRESENTATION_STYLE_ASSIGNMENT((#1221));
#1221=SURFACE_STYLE_USAGE(.BOTH.,#1222);
#1222=SURFACE_SIDE_STYLE('',(#1223));
#1223=SURFACE_STYLE_FILL_AREA(#1224);
#1224=FILL_AREA_STYLE('Stahl - satiniert',(#1225));
#1225=FILL_AREA_STYLE_COLOUR('Stahl - satiniert',#1226);
#1226=COLOUR_RGB('Stahl - satiniert',0.627450980392157,0.627450980392157,
0.627450980392157);
ENDSEC;
END-ISO-10303-21;
