ISO-10303-21;
HEADER;
/* Generated by software containing ST-Developer
 * from STEP Tools, Inc. (www.steptools.com) 
 */

FILE_DESCRIPTION(
/* description */ (''),
/* implementation_level */ '2;1');

FILE_NAME(
/* name */ 'Traeger3.step',
/* time_stamp */ '2026-10-02T07:36:02+02:00',
/* author */ (''),
/* organization */ (''),
/* preprocessor_version */ 'ST-DEVELOPER v20.2',
/* originating_system */ 'Autodesk Translation Framework v15.15.0.0',
/* authorisation */ '');

FILE_SCHEMA (('AUTOMOTIVE_DESIGN { 1 0 10303 214 3 1 1 }'));
ENDSEC;

DATA;
#10=MECHANICAL_DESIGN_GEOMETRIC_PRESENTATION_REPRESENTATION('',(#13),#1142);
#11=SHAPE_REPRESENTATION_RELATIONSHIP('SRR','None',#1149,#12);
#12=ADVANCED_BREP_SHAPE_REPRESENTATION('',(#14),#1141);
#13=STYLED_ITEM('',(#1158),#14);
#14=MANIFOLD_SOLID_BREP('K\X\F6rper1',#634);
#15=TOROIDAL_SURFACE('',#667,8.,4.);
#16=FACE_BOUND('',#84,.T.);
#17=FACE_BOUND('',#90,.T.);
#18=FACE_BOUND('',#98,.T.);
#19=FACE_BOUND('',#113,.T.);
#20=FACE_BOUND('',#114,.T.);
#21=PLANE('',#651);
#22=PLANE('',#655);
#23=PLANE('',#656);
#24=PLANE('',#658);
#25=PLANE('',#662);
#26=PLANE('',#673);
#27=PLANE('',#674);
#28=PLANE('',#681);
#29=PLANE('',#682);
#30=PLANE('',#683);
#31=PLANE('',#686);
#32=PLANE('',#687);
#33=PLANE('',#688);
#34=PLANE('',#689);
#35=PLANE('',#692);
#36=PLANE('',#699);
#37=PLANE('',#700);
#38=PLANE('',#701);
#39=PLANE('',#702);
#40=PLANE('',#703);
#41=PLANE('',#704);
#42=FACE_OUTER_BOUND('',#76,.T.);
#43=FACE_OUTER_BOUND('',#77,.T.);
#44=FACE_OUTER_BOUND('',#78,.T.);
#45=FACE_OUTER_BOUND('',#79,.T.);
#46=FACE_OUTER_BOUND('',#80,.T.);
#47=FACE_OUTER_BOUND('',#81,.T.);
#48=FACE_OUTER_BOUND('',#82,.T.);
#49=FACE_OUTER_BOUND('',#83,.T.);
#50=FACE_OUTER_BOUND('',#85,.T.);
#51=FACE_OUTER_BOUND('',#86,.T.);
#52=FACE_OUTER_BOUND('',#87,.T.);
#53=FACE_OUTER_BOUND('',#88,.T.);
#54=FACE_OUTER_BOUND('',#89,.T.);
#55=FACE_OUTER_BOUND('',#91,.T.);
#56=FACE_OUTER_BOUND('',#92,.T.);
#57=FACE_OUTER_BOUND('',#93,.T.);
#58=FACE_OUTER_BOUND('',#94,.T.);
#59=FACE_OUTER_BOUND('',#95,.T.);
#60=FACE_OUTER_BOUND('',#96,.T.);
#61=FACE_OUTER_BOUND('',#97,.T.);
#62=FACE_OUTER_BOUND('',#99,.T.);
#63=FACE_OUTER_BOUND('',#100,.T.);
#64=FACE_OUTER_BOUND('',#101,.T.);
#65=FACE_OUTER_BOUND('',#102,.T.);
#66=FACE_OUTER_BOUND('',#103,.T.);
#67=FACE_OUTER_BOUND('',#104,.T.);
#68=FACE_OUTER_BOUND('',#105,.T.);
#69=FACE_OUTER_BOUND('',#106,.T.);
#70=FACE_OUTER_BOUND('',#107,.T.);
#71=FACE_OUTER_BOUND('',#108,.T.);
#72=FACE_OUTER_BOUND('',#109,.T.);
#73=FACE_OUTER_BOUND('',#110,.T.);
#74=FACE_OUTER_BOUND('',#111,.T.);
#75=FACE_OUTER_BOUND('',#112,.T.);
#76=EDGE_LOOP('',(#410,#411,#412,#413,#414));
#77=EDGE_LOOP('',(#415,#416,#417,#418,#419,#420));
#78=EDGE_LOOP('',(#421,#422,#423,#424,#425));
#79=EDGE_LOOP('',(#426,#427,#428,#429,#430));
#80=EDGE_LOOP('',(#431,#432,#433,#434,#435,#436));
#81=EDGE_LOOP('',(#437,#438,#439,#440));
#82=EDGE_LOOP('',(#441,#442,#443,#444,#445,#446));
#83=EDGE_LOOP('',(#447,#448,#449,#450,#451,#452,#453));
#84=EDGE_LOOP('',(#454));
#85=EDGE_LOOP('',(#455,#456,#457,#458));
#86=EDGE_LOOP('',(#459,#460,#461,#462,#463,#464,#465));
#87=EDGE_LOOP('',(#466,#467,#468,#469,#470));
#88=EDGE_LOOP('',(#471,#472,#473,#474));
#89=EDGE_LOOP('',(#475,#476,#477,#478,#479,#480,#481));
#90=EDGE_LOOP('',(#482));
#91=EDGE_LOOP('',(#483,#484,#485,#486));
#92=EDGE_LOOP('',(#487,#488,#489,#490));
#93=EDGE_LOOP('',(#491,#492,#493,#494));
#94=EDGE_LOOP('',(#495,#496,#497,#498));
#95=EDGE_LOOP('',(#499,#500,#501,#502,#503,#504));
#96=EDGE_LOOP('',(#505,#506,#507,#508,#509,#510));
#97=EDGE_LOOP('',(#511,#512,#513,#514,#515,#516));
#98=EDGE_LOOP('',(#517));
#99=EDGE_LOOP('',(#518));
#100=EDGE_LOOP('',(#519,#520,#521,#522,#523,#524,#525,#526));
#101=EDGE_LOOP('',(#527,#528,#529,#530));
#102=EDGE_LOOP('',(#531,#532,#533,#534));
#103=EDGE_LOOP('',(#535,#536,#537,#538));
#104=EDGE_LOOP('',(#539,#540,#541,#542));
#105=EDGE_LOOP('',(#543,#544,#545,#546));
#106=EDGE_LOOP('',(#547,#548,#549,#550));
#107=EDGE_LOOP('',(#551,#552,#553,#554));
#108=EDGE_LOOP('',(#555,#556,#557,#558));
#109=EDGE_LOOP('',(#559,#560,#561,#562,#563));
#110=EDGE_LOOP('',(#564,#565,#566,#567));
#111=EDGE_LOOP('',(#568,#569,#570,#571));
#112=EDGE_LOOP('',(#572,#573,#574,#575,#576,#577,#578,#579,#580,#581,#582,
#583,#584,#585));
#113=EDGE_LOOP('',(#586));
#114=EDGE_LOOP('',(#587));
#115=ELLIPSE('',#650,3.54930237472875,1.5);
#116=ELLIPSE('',#653,14.197209498915,6.);
#117=ELLIPSE('',#657,9.46480633261,4.);
#118=ELLIPSE('',#666,5.65685424949238,4.);
#119=B_SPLINE_CURVE_WITH_KNOTS('',3,(#888,#889,#890,#891,#892,#893,#894,
#895),.UNSPECIFIED.,.F.,.F.,(4,2,2,4),(0.872830703276003,0.969652200447968,
1.06647369761993,1.26011669196386),.UNSPECIFIED.);
#120=B_SPLINE_CURVE_WITH_KNOTS('',3,(#916,#917,#918,#919,#920,#921,#922,
#923,#924,#925),.UNSPECIFIED.,.F.,.F.,(4,2,2,2,4),(-0.59890684190931,-0.597897590115352,
-0.390974564079349,-0.134214219619015,0.),.UNSPECIFIED.);
#121=B_SPLINE_CURVE_WITH_KNOTS('',3,(#931,#932,#933,#934,#935,#936),
 .UNSPECIFIED.,.F.,.F.,(4,2,4),(0.595272343264274,0.670975295455892,0.697362357866443),
 .UNSPECIFIED.);
#122=B_SPLINE_CURVE_WITH_KNOTS('',3,(#958,#959,#960,#961,#962,#963,#964,
#965),.UNSPECIFIED.,.F.,.F.,(4,2,2,4),(2.94577816141405,3.14081657820259,
3.23833578659686,3.30972802348929),.UNSPECIFIED.);
#123=B_SPLINE_CURVE_WITH_KNOTS('',3,(#985,#986,#987,#988,#989,#990,#991,
#992,#993,#994,#995,#996,#997,#998),.UNSPECIFIED.,.F.,.F.,(4,2,2,2,2,2,
4),(-0.00102048021635829,0.,0.205957753432776,0.394655529881017,0.539601209209058,
0.658226001206401,0.694631424050874),.UNSPECIFIED.);
#124=B_SPLINE_CURVE_WITH_KNOTS('',3,(#1005,#1006,#1007,#1008,#1009,#1010,
#1011,#1012,#1013,#1014,#1015,#1016,#1017,#1018,#1019,#1020,#1021,#1022,
#1023,#1024,#1025,#1026,#1027,#1028,#1029,#1030,#1031,#1032,#1033,#1034),
 .UNSPECIFIED.,.F.,.F.,(4,2,2,2,2,2,2,2,2,2,2,2,2,2,4),(1.91194441232465,
2.03438083807297,2.15681726382128,2.25871057287075,2.31466518728716,2.37716080426173,
2.46324069078131,2.5493205773009,2.63540046382049,2.72148035034007,2.78397596731464,
2.83993058173105,2.94182389078052,3.06426031652883,3.18669674227715),
 .UNSPECIFIED.);
#125=B_SPLINE_CURVE_WITH_KNOTS('',3,(#1044,#1045,#1046,#1047,#1048,#1049,
#1050,#1051),.UNSPECIFIED.,.F.,.F.,(4,2,2,4),(0.617976191729453,0.689368428621884,
0.786887637016151,0.981926053804685),.UNSPECIFIED.);
#126=LINE('',#886,#185);
#127=LINE('',#897,#186);
#128=LINE('',#901,#187);
#129=LINE('',#903,#188);
#130=LINE('',#905,#189);
#131=LINE('',#907,#190);
#132=LINE('',#908,#191);
#133=LINE('',#914,#192);
#134=LINE('',#927,#193);
#135=LINE('',#938,#194);
#136=LINE('',#940,#195);
#137=LINE('',#941,#196);
#138=LINE('',#945,#197);
#139=LINE('',#946,#198);
#140=LINE('',#949,#199);
#141=LINE('',#950,#200);
#142=LINE('',#957,#201);
#143=LINE('',#968,#202);
#144=LINE('',#970,#203);
#145=LINE('',#972,#204);
#146=LINE('',#976,#205);
#147=LINE('',#977,#206);
#148=LINE('',#983,#207);
#149=LINE('',#1000,#208);
#150=LINE('',#1040,#209);
#151=LINE('',#1052,#210);
#152=LINE('',#1054,#211);
#153=LINE('',#1057,#212);
#154=LINE('',#1059,#213);
#155=LINE('',#1063,#214);
#156=LINE('',#1064,#215);
#157=LINE('',#1068,#216);
#158=LINE('',#1069,#217);
#159=LINE('',#1074,#218);
#160=LINE('',#1078,#219);
#161=LINE('',#1080,#220);
#162=LINE('',#1081,#221);
#163=LINE('',#1084,#222);
#164=LINE('',#1085,#223);
#165=LINE('',#1087,#224);
#166=LINE('',#1094,#225);
#167=LINE('',#1096,#226);
#168=LINE('',#1097,#227);
#169=LINE('',#1100,#228);
#170=LINE('',#1101,#229);
#171=LINE('',#1106,#230);
#172=LINE('',#1107,#231);
#173=LINE('',#1109,#232);
#174=LINE('',#1113,#233);
#175=LINE('',#1117,#234);
#176=LINE('',#1121,#235);
#177=LINE('',#1124,#236);
#178=LINE('',#1125,#237);
#179=LINE('',#1127,#238);
#180=LINE('',#1130,#239);
#181=LINE('',#1131,#240);
#182=LINE('',#1134,#241);
#183=LINE('',#1135,#242);
#184=LINE('',#1137,#243);
#185=VECTOR('',#711,10.);
#186=VECTOR('',#712,10.);
#187=VECTOR('',#717,10.);
#188=VECTOR('',#718,10.);
#189=VECTOR('',#719,10.);
#190=VECTOR('',#720,10.);
#191=VECTOR('',#721,10.);
#192=VECTOR('',#726,10.);
#193=VECTOR('',#727,10.);
#194=VECTOR('',#732,10.);
#195=VECTOR('',#733,10.);
#196=VECTOR('',#734,10.);
#197=VECTOR('',#739,10.);
#198=VECTOR('',#740,10.);
#199=VECTOR('',#743,10.);
#200=VECTOR('',#744,10.);
#201=VECTOR('',#751,10.);
#202=VECTOR('',#754,10.);
#203=VECTOR('',#755,10.);
#204=VECTOR('',#756,10.);
#205=VECTOR('',#759,10.);
#206=VECTOR('',#760,10.);
#207=VECTOR('',#765,10.);
#208=VECTOR('',#766,10.);
#209=VECTOR('',#779,10.);
#210=VECTOR('',#782,10.);
#211=VECTOR('',#785,10.);
#212=VECTOR('',#788,10.);
#213=VECTOR('',#789,10.);
#214=VECTOR('',#792,10.);
#215=VECTOR('',#793,10.);
#216=VECTOR('',#798,10.);
#217=VECTOR('',#799,10.);
#218=VECTOR('',#804,0.750000000000002);
#219=VECTOR('',#809,10.);
#220=VECTOR('',#810,10.);
#221=VECTOR('',#811,10.);
#222=VECTOR('',#814,10.);
#223=VECTOR('',#815,10.);
#224=VECTOR('',#818,10.);
#225=VECTOR('',#829,10.);
#226=VECTOR('',#830,10.);
#227=VECTOR('',#831,10.);
#228=VECTOR('',#834,10.);
#229=VECTOR('',#835,10.);
#230=VECTOR('',#840,10.);
#231=VECTOR('',#841,10.);
#232=VECTOR('',#844,10.);
#233=VECTOR('',#849,10.);
#234=VECTOR('',#854,1.8);
#235=VECTOR('',#859,1.8);
#236=VECTOR('',#862,10.);
#237=VECTOR('',#863,10.);
#238=VECTOR('',#866,10.);
#239=VECTOR('',#869,10.);
#240=VECTOR('',#870,10.);
#241=VECTOR('',#873,10.);
#242=VECTOR('',#874,10.);
#243=VECTOR('',#877,10.);
#244=CIRCLE('',#649,1.5);
#245=CIRCLE('',#654,6.);
#246=CIRCLE('',#660,4.);
#247=CIRCLE('',#661,4.);
#248=CIRCLE('',#663,4.);
#249=CIRCLE('',#664,1.8);
#250=CIRCLE('',#668,8.);
#251=CIRCLE('',#669,4.);
#252=CIRCLE('',#670,8.);
#253=CIRCLE('',#672,4.);
#254=CIRCLE('',#675,4.);
#255=CIRCLE('',#676,1.8);
#256=CIRCLE('',#679,0.750000000000002);
#257=CIRCLE('',#680,0.750000000000002);
#258=CIRCLE('',#685,4.);
#259=CIRCLE('',#691,4.);
#260=CIRCLE('',#694,4.);
#261=CIRCLE('',#696,1.8);
#262=CIRCLE('',#698,1.8);
#263=VERTEX_POINT('',#882);
#264=VERTEX_POINT('',#883);
#265=VERTEX_POINT('',#885);
#266=VERTEX_POINT('',#887);
#267=VERTEX_POINT('',#896);
#268=VERTEX_POINT('',#900);
#269=VERTEX_POINT('',#902);
#270=VERTEX_POINT('',#904);
#271=VERTEX_POINT('',#906);
#272=VERTEX_POINT('',#910);
#273=VERTEX_POINT('',#911);
#274=VERTEX_POINT('',#913);
#275=VERTEX_POINT('',#915);
#276=VERTEX_POINT('',#926);
#277=VERTEX_POINT('',#930);
#278=VERTEX_POINT('',#937);
#279=VERTEX_POINT('',#939);
#280=VERTEX_POINT('',#943);
#281=VERTEX_POINT('',#948);
#282=VERTEX_POINT('',#952);
#283=VERTEX_POINT('',#954);
#284=VERTEX_POINT('',#956);
#285=VERTEX_POINT('',#967);
#286=VERTEX_POINT('',#969);
#287=VERTEX_POINT('',#971);
#288=VERTEX_POINT('',#973);
#289=VERTEX_POINT('',#975);
#290=VERTEX_POINT('',#978);
#291=VERTEX_POINT('',#981);
#292=VERTEX_POINT('',#982);
#293=VERTEX_POINT('',#984);
#294=VERTEX_POINT('',#999);
#295=VERTEX_POINT('',#1003);
#296=VERTEX_POINT('',#1004);
#297=VERTEX_POINT('',#1039);
#298=VERTEX_POINT('',#1041);
#299=VERTEX_POINT('',#1043);
#300=VERTEX_POINT('',#1056);
#301=VERTEX_POINT('',#1058);
#302=VERTEX_POINT('',#1060);
#303=VERTEX_POINT('',#1062);
#304=VERTEX_POINT('',#1065);
#305=VERTEX_POINT('',#1071);
#306=VERTEX_POINT('',#1073);
#307=VERTEX_POINT('',#1077);
#308=VERTEX_POINT('',#1079);
#309=VERTEX_POINT('',#1083);
#310=VERTEX_POINT('',#1093);
#311=VERTEX_POINT('',#1095);
#312=VERTEX_POINT('',#1099);
#313=VERTEX_POINT('',#1103);
#314=VERTEX_POINT('',#1104);
#315=VERTEX_POINT('',#1111);
#316=VERTEX_POINT('',#1115);
#317=VERTEX_POINT('',#1119);
#318=VERTEX_POINT('',#1123);
#319=VERTEX_POINT('',#1129);
#320=VERTEX_POINT('',#1133);
#321=EDGE_CURVE('',#263,#264,#244,.F.);
#322=EDGE_CURVE('',#263,#265,#126,.T.);
#323=EDGE_CURVE('',#265,#266,#119,.T.);
#324=EDGE_CURVE('',#266,#267,#127,.T.);
#325=EDGE_CURVE('',#267,#264,#115,.T.);
#326=EDGE_CURVE('',#268,#266,#128,.T.);
#327=EDGE_CURVE('',#268,#269,#129,.T.);
#328=EDGE_CURVE('',#270,#269,#130,.T.);
#329=EDGE_CURVE('',#271,#270,#131,.T.);
#330=EDGE_CURVE('',#267,#271,#132,.T.);
#331=EDGE_CURVE('',#272,#273,#116,.F.);
#332=EDGE_CURVE('',#272,#274,#133,.T.);
#333=EDGE_CURVE('',#274,#275,#120,.T.);
#334=EDGE_CURVE('',#275,#276,#134,.T.);
#335=EDGE_CURVE('',#276,#273,#245,.T.);
#336=EDGE_CURVE('',#275,#277,#121,.F.);
#337=EDGE_CURVE('',#278,#277,#135,.T.);
#338=EDGE_CURVE('',#278,#279,#136,.T.);
#339=EDGE_CURVE('',#276,#279,#137,.T.);
#340=EDGE_CURVE('',#280,#272,#117,.T.);
#341=EDGE_CURVE('',#264,#273,#138,.T.);
#342=EDGE_CURVE('',#271,#280,#139,.T.);
#343=EDGE_CURVE('',#281,#270,#140,.T.);
#344=EDGE_CURVE('',#280,#281,#141,.T.);
#345=EDGE_CURVE('',#282,#268,#246,.T.);
#346=EDGE_CURVE('',#265,#283,#247,.T.);
#347=EDGE_CURVE('',#283,#284,#142,.T.);
#348=EDGE_CURVE('',#284,#282,#122,.T.);
#349=EDGE_CURVE('',#283,#285,#143,.T.);
#350=EDGE_CURVE('',#285,#286,#144,.T.);
#351=EDGE_CURVE('',#286,#287,#145,.T.);
#352=EDGE_CURVE('',#288,#287,#248,.T.);
#353=EDGE_CURVE('',#289,#288,#146,.T.);
#354=EDGE_CURVE('',#284,#289,#147,.T.);
#355=EDGE_CURVE('',#290,#290,#249,.T.);
#356=EDGE_CURVE('',#291,#292,#148,.T.);
#357=EDGE_CURVE('',#292,#293,#123,.T.);
#358=EDGE_CURVE('',#293,#294,#149,.T.);
#359=EDGE_CURVE('',#294,#291,#118,.T.);
#360=EDGE_CURVE('',#295,#296,#124,.F.);
#361=EDGE_CURVE('',#295,#277,#250,.T.);
#362=EDGE_CURVE('',#274,#293,#251,.T.);
#363=EDGE_CURVE('',#292,#296,#252,.T.);
#364=EDGE_CURVE('',#294,#297,#150,.T.);
#365=EDGE_CURVE('',#297,#298,#253,.T.);
#366=EDGE_CURVE('',#299,#298,#125,.F.);
#367=EDGE_CURVE('',#299,#291,#151,.T.);
#368=EDGE_CURVE('',#296,#299,#152,.T.);
#369=EDGE_CURVE('',#300,#295,#153,.T.);
#370=EDGE_CURVE('',#301,#300,#154,.T.);
#371=EDGE_CURVE('',#302,#301,#254,.T.);
#372=EDGE_CURVE('',#302,#303,#155,.T.);
#373=EDGE_CURVE('',#303,#278,#156,.T.);
#374=EDGE_CURVE('',#304,#304,#255,.T.);
#375=EDGE_CURVE('',#298,#282,#157,.T.);
#376=EDGE_CURVE('',#299,#284,#158,.T.);
#377=EDGE_CURVE('',#305,#305,#256,.T.);
#378=EDGE_CURVE('',#305,#306,#159,.T.);
#379=EDGE_CURVE('',#306,#306,#257,.T.);
#380=EDGE_CURVE('',#293,#307,#160,.T.);
#381=EDGE_CURVE('',#308,#307,#161,.T.);
#382=EDGE_CURVE('',#294,#308,#162,.T.);
#383=EDGE_CURVE('',#309,#308,#163,.T.);
#384=EDGE_CURVE('',#297,#309,#164,.T.);
#385=EDGE_CURVE('',#269,#309,#165,.T.);
#386=EDGE_CURVE('',#307,#281,#258,.T.);
#387=EDGE_CURVE('',#310,#289,#166,.T.);
#388=EDGE_CURVE('',#310,#311,#167,.T.);
#389=EDGE_CURVE('',#300,#311,#168,.T.);
#390=EDGE_CURVE('',#312,#288,#169,.T.);
#391=EDGE_CURVE('',#310,#312,#170,.T.);
#392=EDGE_CURVE('',#313,#314,#259,.T.);
#393=EDGE_CURVE('',#314,#302,#171,.T.);
#394=EDGE_CURVE('',#301,#313,#172,.T.);
#395=EDGE_CURVE('',#313,#311,#173,.T.);
#396=EDGE_CURVE('',#315,#312,#260,.T.);
#397=EDGE_CURVE('',#287,#315,#174,.T.);
#398=EDGE_CURVE('',#316,#316,#261,.T.);
#399=EDGE_CURVE('',#316,#290,#175,.T.);
#400=EDGE_CURVE('',#317,#317,#262,.T.);
#401=EDGE_CURVE('',#317,#304,#176,.T.);
#402=EDGE_CURVE('',#318,#314,#177,.T.);
#403=EDGE_CURVE('',#303,#318,#178,.T.);
#404=EDGE_CURVE('',#279,#318,#179,.T.);
#405=EDGE_CURVE('',#319,#263,#180,.T.);
#406=EDGE_CURVE('',#285,#319,#181,.T.);
#407=EDGE_CURVE('',#320,#319,#182,.T.);
#408=EDGE_CURVE('',#286,#320,#183,.T.);
#409=EDGE_CURVE('',#315,#320,#184,.T.);
#410=ORIENTED_EDGE('',*,*,#321,.F.);
#411=ORIENTED_EDGE('',*,*,#322,.T.);
#412=ORIENTED_EDGE('',*,*,#323,.T.);
#413=ORIENTED_EDGE('',*,*,#324,.T.);
#414=ORIENTED_EDGE('',*,*,#325,.T.);
#415=ORIENTED_EDGE('',*,*,#324,.F.);
#416=ORIENTED_EDGE('',*,*,#326,.F.);
#417=ORIENTED_EDGE('',*,*,#327,.T.);
#418=ORIENTED_EDGE('',*,*,#328,.F.);
#419=ORIENTED_EDGE('',*,*,#329,.F.);
#420=ORIENTED_EDGE('',*,*,#330,.F.);
#421=ORIENTED_EDGE('',*,*,#331,.F.);
#422=ORIENTED_EDGE('',*,*,#332,.T.);
#423=ORIENTED_EDGE('',*,*,#333,.T.);
#424=ORIENTED_EDGE('',*,*,#334,.T.);
#425=ORIENTED_EDGE('',*,*,#335,.T.);
#426=ORIENTED_EDGE('',*,*,#334,.F.);
#427=ORIENTED_EDGE('',*,*,#336,.T.);
#428=ORIENTED_EDGE('',*,*,#337,.F.);
#429=ORIENTED_EDGE('',*,*,#338,.T.);
#430=ORIENTED_EDGE('',*,*,#339,.F.);
#431=ORIENTED_EDGE('',*,*,#340,.T.);
#432=ORIENTED_EDGE('',*,*,#331,.T.);
#433=ORIENTED_EDGE('',*,*,#341,.F.);
#434=ORIENTED_EDGE('',*,*,#325,.F.);
#435=ORIENTED_EDGE('',*,*,#330,.T.);
#436=ORIENTED_EDGE('',*,*,#342,.T.);
#437=ORIENTED_EDGE('',*,*,#342,.F.);
#438=ORIENTED_EDGE('',*,*,#329,.T.);
#439=ORIENTED_EDGE('',*,*,#343,.F.);
#440=ORIENTED_EDGE('',*,*,#344,.F.);
#441=ORIENTED_EDGE('',*,*,#345,.T.);
#442=ORIENTED_EDGE('',*,*,#326,.T.);
#443=ORIENTED_EDGE('',*,*,#323,.F.);
#444=ORIENTED_EDGE('',*,*,#346,.T.);
#445=ORIENTED_EDGE('',*,*,#347,.T.);
#446=ORIENTED_EDGE('',*,*,#348,.T.);
#447=ORIENTED_EDGE('',*,*,#347,.F.);
#448=ORIENTED_EDGE('',*,*,#349,.T.);
#449=ORIENTED_EDGE('',*,*,#350,.T.);
#450=ORIENTED_EDGE('',*,*,#351,.T.);
#451=ORIENTED_EDGE('',*,*,#352,.F.);
#452=ORIENTED_EDGE('',*,*,#353,.F.);
#453=ORIENTED_EDGE('',*,*,#354,.F.);
#454=ORIENTED_EDGE('',*,*,#355,.F.);
#455=ORIENTED_EDGE('',*,*,#356,.T.);
#456=ORIENTED_EDGE('',*,*,#357,.T.);
#457=ORIENTED_EDGE('',*,*,#358,.T.);
#458=ORIENTED_EDGE('',*,*,#359,.T.);
#459=ORIENTED_EDGE('',*,*,#360,.F.);
#460=ORIENTED_EDGE('',*,*,#361,.T.);
#461=ORIENTED_EDGE('',*,*,#336,.F.);
#462=ORIENTED_EDGE('',*,*,#333,.F.);
#463=ORIENTED_EDGE('',*,*,#362,.T.);
#464=ORIENTED_EDGE('',*,*,#357,.F.);
#465=ORIENTED_EDGE('',*,*,#363,.T.);
#466=ORIENTED_EDGE('',*,*,#364,.T.);
#467=ORIENTED_EDGE('',*,*,#365,.T.);
#468=ORIENTED_EDGE('',*,*,#366,.F.);
#469=ORIENTED_EDGE('',*,*,#367,.T.);
#470=ORIENTED_EDGE('',*,*,#359,.F.);
#471=ORIENTED_EDGE('',*,*,#363,.F.);
#472=ORIENTED_EDGE('',*,*,#356,.F.);
#473=ORIENTED_EDGE('',*,*,#367,.F.);
#474=ORIENTED_EDGE('',*,*,#368,.F.);
#475=ORIENTED_EDGE('',*,*,#361,.F.);
#476=ORIENTED_EDGE('',*,*,#369,.F.);
#477=ORIENTED_EDGE('',*,*,#370,.F.);
#478=ORIENTED_EDGE('',*,*,#371,.F.);
#479=ORIENTED_EDGE('',*,*,#372,.T.);
#480=ORIENTED_EDGE('',*,*,#373,.T.);
#481=ORIENTED_EDGE('',*,*,#337,.T.);
#482=ORIENTED_EDGE('',*,*,#374,.F.);
#483=ORIENTED_EDGE('',*,*,#375,.T.);
#484=ORIENTED_EDGE('',*,*,#348,.F.);
#485=ORIENTED_EDGE('',*,*,#376,.F.);
#486=ORIENTED_EDGE('',*,*,#366,.T.);
#487=ORIENTED_EDGE('',*,*,#377,.F.);
#488=ORIENTED_EDGE('',*,*,#378,.T.);
#489=ORIENTED_EDGE('',*,*,#379,.F.);
#490=ORIENTED_EDGE('',*,*,#378,.F.);
#491=ORIENTED_EDGE('',*,*,#358,.F.);
#492=ORIENTED_EDGE('',*,*,#380,.T.);
#493=ORIENTED_EDGE('',*,*,#381,.F.);
#494=ORIENTED_EDGE('',*,*,#382,.F.);
#495=ORIENTED_EDGE('',*,*,#364,.F.);
#496=ORIENTED_EDGE('',*,*,#382,.T.);
#497=ORIENTED_EDGE('',*,*,#383,.F.);
#498=ORIENTED_EDGE('',*,*,#384,.F.);
#499=ORIENTED_EDGE('',*,*,#375,.F.);
#500=ORIENTED_EDGE('',*,*,#365,.F.);
#501=ORIENTED_EDGE('',*,*,#384,.T.);
#502=ORIENTED_EDGE('',*,*,#385,.F.);
#503=ORIENTED_EDGE('',*,*,#327,.F.);
#504=ORIENTED_EDGE('',*,*,#345,.F.);
#505=ORIENTED_EDGE('',*,*,#332,.F.);
#506=ORIENTED_EDGE('',*,*,#340,.F.);
#507=ORIENTED_EDGE('',*,*,#344,.T.);
#508=ORIENTED_EDGE('',*,*,#386,.F.);
#509=ORIENTED_EDGE('',*,*,#380,.F.);
#510=ORIENTED_EDGE('',*,*,#362,.F.);
#511=ORIENTED_EDGE('',*,*,#386,.T.);
#512=ORIENTED_EDGE('',*,*,#343,.T.);
#513=ORIENTED_EDGE('',*,*,#328,.T.);
#514=ORIENTED_EDGE('',*,*,#385,.T.);
#515=ORIENTED_EDGE('',*,*,#383,.T.);
#516=ORIENTED_EDGE('',*,*,#381,.T.);
#517=ORIENTED_EDGE('',*,*,#377,.T.);
#518=ORIENTED_EDGE('',*,*,#379,.T.);
#519=ORIENTED_EDGE('',*,*,#369,.T.);
#520=ORIENTED_EDGE('',*,*,#360,.T.);
#521=ORIENTED_EDGE('',*,*,#368,.T.);
#522=ORIENTED_EDGE('',*,*,#376,.T.);
#523=ORIENTED_EDGE('',*,*,#354,.T.);
#524=ORIENTED_EDGE('',*,*,#387,.F.);
#525=ORIENTED_EDGE('',*,*,#388,.T.);
#526=ORIENTED_EDGE('',*,*,#389,.F.);
#527=ORIENTED_EDGE('',*,*,#387,.T.);
#528=ORIENTED_EDGE('',*,*,#353,.T.);
#529=ORIENTED_EDGE('',*,*,#390,.F.);
#530=ORIENTED_EDGE('',*,*,#391,.F.);
#531=ORIENTED_EDGE('',*,*,#392,.T.);
#532=ORIENTED_EDGE('',*,*,#393,.T.);
#533=ORIENTED_EDGE('',*,*,#371,.T.);
#534=ORIENTED_EDGE('',*,*,#394,.T.);
#535=ORIENTED_EDGE('',*,*,#389,.T.);
#536=ORIENTED_EDGE('',*,*,#395,.F.);
#537=ORIENTED_EDGE('',*,*,#394,.F.);
#538=ORIENTED_EDGE('',*,*,#370,.T.);
#539=ORIENTED_EDGE('',*,*,#396,.T.);
#540=ORIENTED_EDGE('',*,*,#390,.T.);
#541=ORIENTED_EDGE('',*,*,#352,.T.);
#542=ORIENTED_EDGE('',*,*,#397,.T.);
#543=ORIENTED_EDGE('',*,*,#398,.F.);
#544=ORIENTED_EDGE('',*,*,#399,.T.);
#545=ORIENTED_EDGE('',*,*,#355,.T.);
#546=ORIENTED_EDGE('',*,*,#399,.F.);
#547=ORIENTED_EDGE('',*,*,#400,.F.);
#548=ORIENTED_EDGE('',*,*,#401,.T.);
#549=ORIENTED_EDGE('',*,*,#374,.T.);
#550=ORIENTED_EDGE('',*,*,#401,.F.);
#551=ORIENTED_EDGE('',*,*,#393,.F.);
#552=ORIENTED_EDGE('',*,*,#402,.F.);
#553=ORIENTED_EDGE('',*,*,#403,.F.);
#554=ORIENTED_EDGE('',*,*,#372,.F.);
#555=ORIENTED_EDGE('',*,*,#373,.F.);
#556=ORIENTED_EDGE('',*,*,#403,.T.);
#557=ORIENTED_EDGE('',*,*,#404,.F.);
#558=ORIENTED_EDGE('',*,*,#338,.F.);
#559=ORIENTED_EDGE('',*,*,#322,.F.);
#560=ORIENTED_EDGE('',*,*,#405,.F.);
#561=ORIENTED_EDGE('',*,*,#406,.F.);
#562=ORIENTED_EDGE('',*,*,#349,.F.);
#563=ORIENTED_EDGE('',*,*,#346,.F.);
#564=ORIENTED_EDGE('',*,*,#350,.F.);
#565=ORIENTED_EDGE('',*,*,#406,.T.);
#566=ORIENTED_EDGE('',*,*,#407,.F.);
#567=ORIENTED_EDGE('',*,*,#408,.F.);
#568=ORIENTED_EDGE('',*,*,#397,.F.);
#569=ORIENTED_EDGE('',*,*,#351,.F.);
#570=ORIENTED_EDGE('',*,*,#408,.T.);
#571=ORIENTED_EDGE('',*,*,#409,.F.);
#572=ORIENTED_EDGE('',*,*,#341,.T.);
#573=ORIENTED_EDGE('',*,*,#335,.F.);
#574=ORIENTED_EDGE('',*,*,#339,.T.);
#575=ORIENTED_EDGE('',*,*,#404,.T.);
#576=ORIENTED_EDGE('',*,*,#402,.T.);
#577=ORIENTED_EDGE('',*,*,#392,.F.);
#578=ORIENTED_EDGE('',*,*,#395,.T.);
#579=ORIENTED_EDGE('',*,*,#388,.F.);
#580=ORIENTED_EDGE('',*,*,#391,.T.);
#581=ORIENTED_EDGE('',*,*,#396,.F.);
#582=ORIENTED_EDGE('',*,*,#409,.T.);
#583=ORIENTED_EDGE('',*,*,#407,.T.);
#584=ORIENTED_EDGE('',*,*,#405,.T.);
#585=ORIENTED_EDGE('',*,*,#321,.T.);
#586=ORIENTED_EDGE('',*,*,#400,.T.);
#587=ORIENTED_EDGE('',*,*,#398,.T.);
#588=CYLINDRICAL_SURFACE('',#648,1.5);
#589=CYLINDRICAL_SURFACE('',#652,6.);
#590=CYLINDRICAL_SURFACE('',#659,4.);
#591=CYLINDRICAL_SURFACE('',#665,4.);
#592=CYLINDRICAL_SURFACE('',#671,4.);
#593=CYLINDRICAL_SURFACE('',#677,4.);
#594=CYLINDRICAL_SURFACE('',#678,0.750000000000002);
#595=CYLINDRICAL_SURFACE('',#684,4.);
#596=CYLINDRICAL_SURFACE('',#690,4.);
#597=CYLINDRICAL_SURFACE('',#693,4.);
#598=CYLINDRICAL_SURFACE('',#695,1.8);
#599=CYLINDRICAL_SURFACE('',#697,1.8);
#600=ADVANCED_FACE('',(#42),#588,.F.);
#601=ADVANCED_FACE('',(#43),#21,.T.);
#602=ADVANCED_FACE('',(#44),#589,.F.);
#603=ADVANCED_FACE('',(#45),#22,.T.);
#604=ADVANCED_FACE('',(#46),#23,.T.);
#605=ADVANCED_FACE('',(#47),#24,.T.);
#606=ADVANCED_FACE('',(#48),#590,.F.);
#607=ADVANCED_FACE('',(#49,#16),#25,.F.);
#608=ADVANCED_FACE('',(#50),#591,.F.);
#609=ADVANCED_FACE('',(#51),#15,.F.);
#610=ADVANCED_FACE('',(#52),#592,.F.);
#611=ADVANCED_FACE('',(#53),#26,.F.);
#612=ADVANCED_FACE('',(#54,#17),#27,.F.);
#613=ADVANCED_FACE('',(#55),#593,.F.);
#614=ADVANCED_FACE('',(#56),#594,.F.);
#615=ADVANCED_FACE('',(#57),#28,.T.);
#616=ADVANCED_FACE('',(#58),#29,.T.);
#617=ADVANCED_FACE('',(#59),#30,.T.);
#618=ADVANCED_FACE('',(#60),#595,.T.);
#619=ADVANCED_FACE('',(#61,#18),#31,.T.);
#620=ADVANCED_FACE('',(#62),#32,.F.);
#621=ADVANCED_FACE('',(#63),#33,.T.);
#622=ADVANCED_FACE('',(#64),#34,.T.);
#623=ADVANCED_FACE('',(#65),#596,.T.);
#624=ADVANCED_FACE('',(#66),#35,.T.);
#625=ADVANCED_FACE('',(#67),#597,.T.);
#626=ADVANCED_FACE('',(#68),#598,.F.);
#627=ADVANCED_FACE('',(#69),#599,.F.);
#628=ADVANCED_FACE('',(#70),#36,.T.);
#629=ADVANCED_FACE('',(#71),#37,.T.);
#630=ADVANCED_FACE('',(#72),#38,.T.);
#631=ADVANCED_FACE('',(#73),#39,.T.);
#632=ADVANCED_FACE('',(#74),#40,.T.);
#633=ADVANCED_FACE('',(#75,#19,#20),#41,.T.);
#634=CLOSED_SHELL('',(#600,#601,#602,#603,#604,#605,#606,#607,#608,#609,
#610,#611,#612,#613,#614,#615,#616,#617,#618,#619,#620,#621,#622,#623,#624,
#625,#626,#627,#628,#629,#630,#631,#632,#633));
#635=DERIVED_UNIT_ELEMENT(#637,1.);
#636=DERIVED_UNIT_ELEMENT(#1144,-3.);
#637=(
MASS_UNIT()
NAMED_UNIT(*)
SI_UNIT(.KILO.,.GRAM.)
);
#638=DERIVED_UNIT((#635,#636));
#639=MEASURE_REPRESENTATION_ITEM('density measure',
POSITIVE_RATIO_MEASURE(7850.),#638);
#640=PROPERTY_DEFINITION_REPRESENTATION(#645,#642);
#641=PROPERTY_DEFINITION_REPRESENTATION(#646,#643);
#642=REPRESENTATION('material name',(#644),#1141);
#643=REPRESENTATION('density',(#639),#1141);
#644=DESCRIPTIVE_REPRESENTATION_ITEM('Stahl','Stahl');
#645=PROPERTY_DEFINITION('material property','material name',#1151);
#646=PROPERTY_DEFINITION('material property','density of part',#1151);
#647=AXIS2_PLACEMENT_3D('',#880,#705,#706);
#648=AXIS2_PLACEMENT_3D('',#881,#707,#708);
#649=AXIS2_PLACEMENT_3D('',#884,#709,#710);
#650=AXIS2_PLACEMENT_3D('',#898,#713,#714);
#651=AXIS2_PLACEMENT_3D('',#899,#715,#716);
#652=AXIS2_PLACEMENT_3D('',#909,#722,#723);
#653=AXIS2_PLACEMENT_3D('',#912,#724,#725);
#654=AXIS2_PLACEMENT_3D('',#928,#728,#729);
#655=AXIS2_PLACEMENT_3D('',#929,#730,#731);
#656=AXIS2_PLACEMENT_3D('',#942,#735,#736);
#657=AXIS2_PLACEMENT_3D('',#944,#737,#738);
#658=AXIS2_PLACEMENT_3D('',#947,#741,#742);
#659=AXIS2_PLACEMENT_3D('',#951,#745,#746);
#660=AXIS2_PLACEMENT_3D('',#953,#747,#748);
#661=AXIS2_PLACEMENT_3D('',#955,#749,#750);
#662=AXIS2_PLACEMENT_3D('',#966,#752,#753);
#663=AXIS2_PLACEMENT_3D('',#974,#757,#758);
#664=AXIS2_PLACEMENT_3D('',#979,#761,#762);
#665=AXIS2_PLACEMENT_3D('',#980,#763,#764);
#666=AXIS2_PLACEMENT_3D('',#1001,#767,#768);
#667=AXIS2_PLACEMENT_3D('',#1002,#769,#770);
#668=AXIS2_PLACEMENT_3D('',#1035,#771,#772);
#669=AXIS2_PLACEMENT_3D('',#1036,#773,#774);
#670=AXIS2_PLACEMENT_3D('',#1037,#775,#776);
#671=AXIS2_PLACEMENT_3D('',#1038,#777,#778);
#672=AXIS2_PLACEMENT_3D('',#1042,#780,#781);
#673=AXIS2_PLACEMENT_3D('',#1053,#783,#784);
#674=AXIS2_PLACEMENT_3D('',#1055,#786,#787);
#675=AXIS2_PLACEMENT_3D('',#1061,#790,#791);
#676=AXIS2_PLACEMENT_3D('',#1066,#794,#795);
#677=AXIS2_PLACEMENT_3D('',#1067,#796,#797);
#678=AXIS2_PLACEMENT_3D('',#1070,#800,#801);
#679=AXIS2_PLACEMENT_3D('',#1072,#802,#803);
#680=AXIS2_PLACEMENT_3D('',#1075,#805,#806);
#681=AXIS2_PLACEMENT_3D('',#1076,#807,#808);
#682=AXIS2_PLACEMENT_3D('',#1082,#812,#813);
#683=AXIS2_PLACEMENT_3D('',#1086,#816,#817);
#684=AXIS2_PLACEMENT_3D('',#1088,#819,#820);
#685=AXIS2_PLACEMENT_3D('',#1089,#821,#822);
#686=AXIS2_PLACEMENT_3D('',#1090,#823,#824);
#687=AXIS2_PLACEMENT_3D('',#1091,#825,#826);
#688=AXIS2_PLACEMENT_3D('',#1092,#827,#828);
#689=AXIS2_PLACEMENT_3D('',#1098,#832,#833);
#690=AXIS2_PLACEMENT_3D('',#1102,#836,#837);
#691=AXIS2_PLACEMENT_3D('',#1105,#838,#839);
#692=AXIS2_PLACEMENT_3D('',#1108,#842,#843);
#693=AXIS2_PLACEMENT_3D('',#1110,#845,#846);
#694=AXIS2_PLACEMENT_3D('',#1112,#847,#848);
#695=AXIS2_PLACEMENT_3D('',#1114,#850,#851);
#696=AXIS2_PLACEMENT_3D('',#1116,#852,#853);
#697=AXIS2_PLACEMENT_3D('',#1118,#855,#856);
#698=AXIS2_PLACEMENT_3D('',#1120,#857,#858);
#699=AXIS2_PLACEMENT_3D('',#1122,#860,#861);
#700=AXIS2_PLACEMENT_3D('',#1126,#864,#865);
#701=AXIS2_PLACEMENT_3D('',#1128,#867,#868);
#702=AXIS2_PLACEMENT_3D('',#1132,#871,#872);
#703=AXIS2_PLACEMENT_3D('',#1136,#875,#876);
#704=AXIS2_PLACEMENT_3D('',#1138,#878,#879);
#705=DIRECTION('axis',(0.,0.,1.));
#706=DIRECTION('refdir',(1.,0.,0.));
#707=DIRECTION('center_axis',(0.,0.,1.));
#708=DIRECTION('ref_axis',(-0.707106781186548,-0.707106781186547,0.));
#709=DIRECTION('center_axis',(0.,0.,1.));
#710=DIRECTION('ref_axis',(-0.707106781186548,-0.707106781186547,0.));
#711=DIRECTION('',(0.,0.,-1.));
#712=DIRECTION('',(0.,0.,1.));
#713=DIRECTION('center_axis',(0.,0.90630778703665,0.422618261740699));
#714=DIRECTION('ref_axis',(-3.91000437342988E-17,-0.4226182617407,0.90630778703665));
#715=DIRECTION('center_axis',(1.,-1.81260901979617E-15,0.));
#716=DIRECTION('ref_axis',(-1.81260901979617E-15,-1.,0.));
#717=DIRECTION('',(1.81260901979617E-15,1.,0.));
#718=DIRECTION('',(0.,0.,-1.));
#719=DIRECTION('',(-1.81260901979617E-15,-1.,0.));
#720=DIRECTION('',(0.,0.,-1.));
#721=DIRECTION('',(7.66041673161772E-16,0.422618261740699,-0.90630778703665));
#722=DIRECTION('center_axis',(0.,0.,-1.));
#723=DIRECTION('ref_axis',(0.366060104354462,-0.930591209930547,0.));
#724=DIRECTION('center_axis',(0.,0.90630778703665,0.422618261740699));
#725=DIRECTION('ref_axis',(0.,-0.422618261740699,0.90630778703665));
#726=DIRECTION('',(0.,0.,-1.));
#727=DIRECTION('',(0.,0.,1.));
#728=DIRECTION('center_axis',(0.,0.,1.));
#729=DIRECTION('ref_axis',(0.366060104354462,-0.930591209930547,0.));
#730=DIRECTION('center_axis',(0.,1.,0.));
#731=DIRECTION('ref_axis',(-1.,0.,0.));
#732=DIRECTION('',(1.,0.,0.));
#733=DIRECTION('',(0.,0.,1.));
#734=DIRECTION('',(-1.,0.,0.));
#735=DIRECTION('center_axis',(0.,0.90630778703665,0.422618261740699));
#736=DIRECTION('ref_axis',(0.,-0.422618261740699,0.90630778703665));
#737=DIRECTION('center_axis',(0.,0.90630778703665,0.422618261740699));
#738=DIRECTION('ref_axis',(2.93250328007241E-17,-0.422618261740699,0.90630778703665));
#739=DIRECTION('',(-1.,0.,0.));
#740=DIRECTION('',(-1.,0.,0.));
#741=DIRECTION('center_axis',(0.,1.,0.));
#742=DIRECTION('ref_axis',(1.,0.,0.));
#743=DIRECTION('',(1.,0.,0.));
#744=DIRECTION('',(0.,0.,-1.));
#745=DIRECTION('center_axis',(1.81260901979617E-15,1.,0.));
#746=DIRECTION('ref_axis',(-0.707106781186547,1.57009245868378E-15,0.707106781186548));
#747=DIRECTION('center_axis',(4.44089209850064E-16,-1.,0.));
#748=DIRECTION('ref_axis',(-0.707106781186547,1.57009245868378E-15,0.707106781186548));
#749=DIRECTION('center_axis',(0.,1.,0.));
#750=DIRECTION('ref_axis',(-0.707106781186547,1.57009245868378E-15,0.707106781186548));
#751=DIRECTION('',(-1.81260901979617E-15,-1.,0.));
#752=DIRECTION('center_axis',(0.,0.,1.));
#753=DIRECTION('ref_axis',(1.,0.,0.));
#754=DIRECTION('',(1.,0.,0.));
#755=DIRECTION('',(0.,-1.,0.));
#756=DIRECTION('',(-1.,4.93038065763132E-33,0.));
#757=DIRECTION('center_axis',(0.,0.,1.));
#758=DIRECTION('ref_axis',(-0.707106781186548,-0.707106781186548,0.));
#759=DIRECTION('',(0.,-1.,0.));
#760=DIRECTION('',(1.,0.,0.));
#761=DIRECTION('center_axis',(0.,0.,-1.));
#762=DIRECTION('ref_axis',(1.,0.,0.));
#763=DIRECTION('center_axis',(1.,0.,0.));
#764=DIRECTION('ref_axis',(0.,0.707106781186548,0.707106781186547));
#765=DIRECTION('',(-1.,0.,0.));
#766=DIRECTION('',(1.,0.,0.));
#767=DIRECTION('center_axis',(0.707106781186548,-0.707106781186547,0.));
#768=DIRECTION('ref_axis',(-0.707106781186547,-0.707106781186548,0.));
#769=DIRECTION('center_axis',(0.,0.,1.));
#770=DIRECTION('ref_axis',(-0.438952446034044,-0.898510294944209,0.));
#771=DIRECTION('center_axis',(0.,0.,-1.));
#772=DIRECTION('ref_axis',(-0.210374295487782,-0.977620916203218,0.));
#773=DIRECTION('center_axis',(0.,0.,1.));
#774=DIRECTION('ref_axis',(-0.210374295487782,-0.977620916203218,0.));
#775=DIRECTION('center_axis',(0.,0.,-1.));
#776=DIRECTION('ref_axis',(-0.210374295487782,-0.977620916203218,0.));
#777=DIRECTION('center_axis',(0.,-1.,0.));
#778=DIRECTION('ref_axis',(0.707106781186548,0.,0.707106781186547));
#779=DIRECTION('',(0.,-1.,0.));
#780=DIRECTION('center_axis',(4.44089209850064E-16,-1.,0.));
#781=DIRECTION('ref_axis',(0.707106781186548,0.,0.707106781186547));
#782=DIRECTION('',(0.,1.,0.));
#783=DIRECTION('center_axis',(0.,0.,1.));
#784=DIRECTION('ref_axis',(1.,0.,0.));
#785=DIRECTION('',(1.,0.,0.));
#786=DIRECTION('center_axis',(0.,0.,1.));
#787=DIRECTION('ref_axis',(1.,0.,0.));
#788=DIRECTION('',(1.,0.,0.));
#789=DIRECTION('',(0.,1.,0.));
#790=DIRECTION('center_axis',(0.,0.,1.));
#791=DIRECTION('ref_axis',(0.707106781186548,-0.707106781186547,0.));
#792=DIRECTION('',(-1.,4.93038065763132E-33,0.));
#793=DIRECTION('',(0.,1.,0.));
#794=DIRECTION('center_axis',(0.,0.,-1.));
#795=DIRECTION('ref_axis',(1.,0.,0.));
#796=DIRECTION('center_axis',(-1.,-4.44089209850064E-16,0.));
#797=DIRECTION('ref_axis',(0.,0.917500000000002,0.397735779129809));
#798=DIRECTION('',(1.,4.44089209850064E-16,0.));
#799=DIRECTION('',(1.,0.,0.));
#800=DIRECTION('center_axis',(0.,0.,-1.));
#801=DIRECTION('ref_axis',(1.,0.,0.));
#802=DIRECTION('center_axis',(0.,0.,1.));
#803=DIRECTION('ref_axis',(1.,0.,0.));
#804=DIRECTION('',(0.,0.,1.));
#805=DIRECTION('center_axis',(0.,0.,-1.));
#806=DIRECTION('ref_axis',(1.,0.,0.));
#807=DIRECTION('center_axis',(0.,-1.,0.));
#808=DIRECTION('ref_axis',(-1.,0.,0.));
#809=DIRECTION('',(0.,0.,-1.));
#810=DIRECTION('',(-1.,0.,0.));
#811=DIRECTION('',(0.,0.,-1.));
#812=DIRECTION('center_axis',(-1.,0.,0.));
#813=DIRECTION('ref_axis',(0.,1.,0.));
#814=DIRECTION('',(0.,1.,0.));
#815=DIRECTION('',(0.,0.,-1.));
#816=DIRECTION('center_axis',(4.44089209850064E-16,-1.,0.));
#817=DIRECTION('ref_axis',(-1.,-4.44089209850064E-16,0.));
#818=DIRECTION('',(-1.,-4.44089209850064E-16,0.));
#819=DIRECTION('center_axis',(0.,0.,-1.));
#820=DIRECTION('ref_axis',(-0.450956818384284,-0.892545767987684,0.));
#821=DIRECTION('center_axis',(0.,0.,-1.));
#822=DIRECTION('ref_axis',(0.996164519544839,-0.0874999999999992,0.));
#823=DIRECTION('center_axis',(0.,0.,-1.));
#824=DIRECTION('ref_axis',(1.,0.,0.));
#825=DIRECTION('center_axis',(0.,0.,1.));
#826=DIRECTION('ref_axis',(1.,0.,0.));
#827=DIRECTION('center_axis',(0.,-1.,0.));
#828=DIRECTION('ref_axis',(0.,0.,-1.));
#829=DIRECTION('',(0.,0.,-1.));
#830=DIRECTION('',(-1.,0.,0.));
#831=DIRECTION('',(0.,0.,1.));
#832=DIRECTION('center_axis',(-1.,0.,0.));
#833=DIRECTION('ref_axis',(0.,-1.,0.));
#834=DIRECTION('',(0.,0.,-1.));
#835=DIRECTION('',(0.,-1.,0.));
#836=DIRECTION('center_axis',(0.,0.,1.));
#837=DIRECTION('ref_axis',(0.707106781186548,-0.707106781186547,0.));
#838=DIRECTION('center_axis',(0.,0.,-1.));
#839=DIRECTION('ref_axis',(0.707106781186548,-0.707106781186547,0.));
#840=DIRECTION('',(0.,0.,-1.));
#841=DIRECTION('',(0.,0.,1.));
#842=DIRECTION('center_axis',(1.,0.,0.));
#843=DIRECTION('ref_axis',(0.,1.,0.));
#844=DIRECTION('',(0.,1.,0.));
#845=DIRECTION('center_axis',(0.,0.,1.));
#846=DIRECTION('ref_axis',(-0.707106781186548,-0.707106781186548,0.));
#847=DIRECTION('center_axis',(0.,0.,-1.));
#848=DIRECTION('ref_axis',(-0.707106781186548,-0.707106781186548,0.));
#849=DIRECTION('',(0.,0.,1.));
#850=DIRECTION('center_axis',(0.,0.,1.));
#851=DIRECTION('ref_axis',(1.,0.,0.));
#852=DIRECTION('center_axis',(0.,0.,-1.));
#853=DIRECTION('ref_axis',(1.,0.,0.));
#854=DIRECTION('',(0.,0.,-1.));
#855=DIRECTION('center_axis',(0.,0.,1.));
#856=DIRECTION('ref_axis',(1.,0.,0.));
#857=DIRECTION('center_axis',(0.,0.,-1.));
#858=DIRECTION('ref_axis',(1.,0.,0.));
#859=DIRECTION('',(0.,0.,-1.));
#860=DIRECTION('center_axis',(-4.93038065763132E-33,-1.,0.));
#861=DIRECTION('ref_axis',(1.,-4.93038065763132E-33,0.));
#862=DIRECTION('',(1.,-4.93038065763132E-33,0.));
#863=DIRECTION('',(0.,0.,1.));
#864=DIRECTION('center_axis',(-1.,0.,0.));
#865=DIRECTION('ref_axis',(0.,-1.,0.));
#866=DIRECTION('',(0.,-1.,0.));
#867=DIRECTION('center_axis',(0.,1.,0.));
#868=DIRECTION('ref_axis',(-1.,0.,0.));
#869=DIRECTION('',(-1.,0.,0.));
#870=DIRECTION('',(0.,0.,1.));
#871=DIRECTION('center_axis',(1.,0.,0.));
#872=DIRECTION('ref_axis',(0.,1.,0.));
#873=DIRECTION('',(0.,1.,0.));
#874=DIRECTION('',(0.,0.,1.));
#875=DIRECTION('center_axis',(-4.93038065763132E-33,-1.,0.));
#876=DIRECTION('ref_axis',(1.,-4.93038065763132E-33,0.));
#877=DIRECTION('',(1.,-4.93038065763132E-33,0.));
#878=DIRECTION('center_axis',(0.,0.,1.));
#879=DIRECTION('ref_axis',(1.,0.,0.));
#880=CARTESIAN_POINT('',(0.,0.,0.));
#881=CARTESIAN_POINT('Origin',(-12.5,14.5,0.));
#882=CARTESIAN_POINT('',(-12.5,13.,3.));
#883=CARTESIAN_POINT('',(-12.9833218389438,13.08,3.));
#884=CARTESIAN_POINT('Origin',(-12.5,14.5,3.));
#885=CARTESIAN_POINT('',(-12.5,13.,-0.877501000800797));
#886=CARTESIAN_POINT('',(-12.5,13.,0.));
#887=CARTESIAN_POINT('',(-14.,14.5,-4.));
#888=CARTESIAN_POINT('Ctrl Pts',(-12.5,13.,-0.877501000800799));
#889=CARTESIAN_POINT('Ctrl Pts',(-12.7519375233504,13.,-1.07921245324239));
#890=CARTESIAN_POINT('Ctrl Pts',(-12.9703081740216,13.0603168115772,-1.30345550658963));
#891=CARTESIAN_POINT('Ctrl Pts',(-13.3467174940519,13.2442345449432,-1.787859668643));
#892=CARTESIAN_POINT('Ctrl Pts',(-13.5041144679402,13.3694154922942,-2.04791800311182));
#893=CARTESIAN_POINT('Ctrl Pts',(-13.8810571455088,13.800976475968,-2.86199693518828));
#894=CARTESIAN_POINT('Ctrl Pts',(-14.,14.1629108145237,-3.44953566518172));
#895=CARTESIAN_POINT('Ctrl Pts',(-14.,14.5,-4.));
#896=CARTESIAN_POINT('',(-14.,14.5,-0.0451998271235758));
#897=CARTESIAN_POINT('',(-14.,14.5,0.));
#898=CARTESIAN_POINT('Origin',(-12.5,14.5,-0.0451998271235705));
#899=CARTESIAN_POINT('Origin',(-14.,14.68,0.));
#900=CARTESIAN_POINT('',(-14.,7.33,-4.));
#901=CARTESIAN_POINT('',(-14.,10.59,-4.));
#902=CARTESIAN_POINT('',(-14.,7.33,-8.));
#903=CARTESIAN_POINT('',(-14.,7.33,0.));
#904=CARTESIAN_POINT('',(-14.,14.68,-8.));
#905=CARTESIAN_POINT('',(-14.,7.33,-8.));
#906=CARTESIAN_POINT('',(-14.,14.68,-0.431211072815296));
#907=CARTESIAN_POINT('',(-14.,14.68,0.));
#908=CARTESIAN_POINT('',(-14.,14.1974182884646,0.603688747283686));
#909=CARTESIAN_POINT('Origin',(-39.8127409550116,19.,0.));
#910=CARTESIAN_POINT('',(-35.7249131699893,14.608,-0.276806574538604));
#911=CARTESIAN_POINT('',(-38.8362165057529,13.08,3.));
#912=CARTESIAN_POINT('Origin',(-39.8127409550116,19.,-9.69548096941659));
#913=CARTESIAN_POINT('',(-35.7249131699893,14.608,-4.));
#914=CARTESIAN_POINT('',(-35.7249131699893,14.608,0.));
#915=CARTESIAN_POINT('',(-39.8127409551452,13.,-0.143077643107096));
#916=CARTESIAN_POINT('Ctrl Pts',(-35.7249131699893,14.608,-4.));
#917=CARTESIAN_POINT('Ctrl Pts',(-35.7264144178639,14.6066027225014,-3.99735231875373));
#918=CARTESIAN_POINT('Ctrl Pts',(-35.7279163834971,14.6052062134729,-3.99470463513198));
#919=CARTESIAN_POINT('Ctrl Pts',(-36.0375083629767,14.3176472493422,-3.44921365060578));
#920=CARTESIAN_POINT('Ctrl Pts',(-36.3899480987669,14.0506159718716,-2.88201909018449));
#921=CARTESIAN_POINT('Ctrl Pts',(-37.2807789364151,13.5304979480968,-1.72161510094394));
#922=CARTESIAN_POINT('Ctrl Pts',(-37.8766602806559,13.2734436975457,-1.11233945749548));
#923=CARTESIAN_POINT('Ctrl Pts',(-38.9743173425159,13.0464211292084,-0.441566426797414));
#924=CARTESIAN_POINT('Ctrl Pts',(-39.3808134516244,12.9999999999904,-0.259645868332528));
#925=CARTESIAN_POINT('Ctrl Pts',(-39.8127409551452,13.,-0.143077643143168));
#926=CARTESIAN_POINT('',(-39.8127409550116,13.,3.));
#927=CARTESIAN_POINT('',(-39.8127409550116,13.,0.));
#928=CARTESIAN_POINT('Origin',(-39.8127409550116,19.,3.));
#929=CARTESIAN_POINT('Origin',(0.,13.,0.));
#930=CARTESIAN_POINT('',(-40.8900431814018,13.,0.));
#931=CARTESIAN_POINT('Ctrl Pts',(-40.8900431814018,13.,1.95156391047391E-16));
#932=CARTESIAN_POINT('Ctrl Pts',(-40.6377000074298,13.,8.30935103070827E-17));
#933=CARTESIAN_POINT('Ctrl Pts',(-40.3620907374188,13.,-0.0247621736579473));
#934=CARTESIAN_POINT('Ctrl Pts',(-39.9979427146697,13.,-0.0964928870931789));
#935=CARTESIAN_POINT('Ctrl Pts',(-39.9044565528028,13.,-0.118325516099086));
#936=CARTESIAN_POINT('Ctrl Pts',(-39.8127409551543,13.,-0.143077643140719));
#937=CARTESIAN_POINT('',(-50.,13.,0.));
#938=CARTESIAN_POINT('',(-50.,13.,0.));
#939=CARTESIAN_POINT('',(-50.,13.,3.));
#940=CARTESIAN_POINT('',(-50.,13.,0.));
#941=CARTESIAN_POINT('',(-50.,13.,3.));
#942=CARTESIAN_POINT('Origin',(-30.3227229788529,13.88,1.28439446359235));
#943=CARTESIAN_POINT('',(-35.6454459577057,14.68,-0.431211072815296));
#944=CARTESIAN_POINT('Origin',(-32.9996946466411,11.68,6.00230968871339));
#945=CARTESIAN_POINT('',(-27.6613614894264,13.08,3.));
#946=CARTESIAN_POINT('',(-30.3227229788529,14.68,-0.431211072815296));
#947=CARTESIAN_POINT('Origin',(-35.6454459577057,14.68,0.));
#948=CARTESIAN_POINT('',(-35.6454459577057,14.68,-8.));
#949=CARTESIAN_POINT('',(-14.,14.68,-8.));
#950=CARTESIAN_POINT('',(-35.6454459577057,14.68,0.));
#951=CARTESIAN_POINT('Origin',(-10.,10.59,-4.));
#952=CARTESIAN_POINT('',(-13.1931872685695,7.33,-1.59094311651924));
#953=CARTESIAN_POINT('Origin',(-10.,7.32999999999999,-4.));
#954=CARTESIAN_POINT('',(-10.,13.,0.));
#955=CARTESIAN_POINT('Origin',(-10.,13.,-4.));
#956=CARTESIAN_POINT('',(-10.,7.,0.));
#957=CARTESIAN_POINT('',(-10.,10.59,0.));
#958=CARTESIAN_POINT('Ctrl Pts',(-10.,7.00000000000001,9.24446373305873E-32));
#959=CARTESIAN_POINT('Ctrl Pts',(-10.6501280559618,7.00000000000001,4.6013929963577E-16));
#960=CARTESIAN_POINT('Ctrl Pts',(-11.3177792339456,7.08176983222203,-0.165425829351142));
#961=CARTESIAN_POINT('Ctrl Pts',(-12.1936335361438,7.21847852071919,-0.638735043240517));
#962=CARTESIAN_POINT('Ctrl Pts',(-12.4658119280092,7.26404471266796,-0.833161287541435));
#963=CARTESIAN_POINT('Ctrl Pts',(-12.8867583037158,7.31624428037601,-1.2205942914904));
#964=CARTESIAN_POINT('Ctrl Pts',(-13.0491250529514,7.33,-1.39998970402489));
#965=CARTESIAN_POINT('Ctrl Pts',(-13.1931872685695,7.33,-1.59094311651924));
#966=CARTESIAN_POINT('Origin',(-25.,6.5,0.));
#967=CARTESIAN_POINT('',(0.,13.,0.));
#968=CARTESIAN_POINT('',(-50.,13.,0.));
#969=CARTESIAN_POINT('',(0.,0.,0.));
#970=CARTESIAN_POINT('',(0.,13.,0.));
#971=CARTESIAN_POINT('',(-5.,2.46519032881566E-32,0.));
#972=CARTESIAN_POINT('',(0.,0.,0.));
#973=CARTESIAN_POINT('',(-9.,4.,0.));
#974=CARTESIAN_POINT('Origin',(-5.,4.,0.));
#975=CARTESIAN_POINT('',(-9.,7.,0.));
#976=CARTESIAN_POINT('',(-9.,8.,0.));
#977=CARTESIAN_POINT('',(-41.,7.,0.));
#978=CARTESIAN_POINT('',(-6.48,3.99999999999999,0.));
#979=CARTESIAN_POINT('Origin',(-4.68,3.99999999999999,0.));
#980=CARTESIAN_POINT('Origin',(-22.,7.33,-4.));
#981=CARTESIAN_POINT('',(-23.,7.33,0.));
#982=CARTESIAN_POINT('',(-26.285716690168,7.33000000000087,0.));
#983=CARTESIAN_POINT('',(-22.,7.33,0.));
#984=CARTESIAN_POINT('',(-29.0150365684618,11.33,-4.));
#985=CARTESIAN_POINT('Ctrl Pts',(-26.2857166901685,7.33000000000123,0.));
#986=CARTESIAN_POINT('Ctrl Pts',(-26.2873413774318,7.33298852451395,-5.00824242927091E-16));
#987=CARTESIAN_POINT('Ctrl Pts',(-26.2889665197138,7.3359768012365,-3.34922956306152E-6));
#988=CARTESIAN_POINT('Ctrl Pts',(-26.6186768035412,7.94202066423995,-0.00136162185518324));
#989=CARTESIAN_POINT('Ctrl Pts',(-26.9649397784964,8.53234278949569,-0.138960646582821));
#990=CARTESIAN_POINT('Ctrl Pts',(-27.6228085329753,9.55815569658675,-0.63371889271559));
#991=CARTESIAN_POINT('Ctrl Pts',(-27.935736143995,10.0027742555155,-0.971679610270869));
#992=CARTESIAN_POINT('Ctrl Pts',(-28.4277351631115,10.6478591094457,-1.72462198883183));
#993=CARTESIAN_POINT('Ctrl Pts',(-28.6220839299542,10.8827359736356,-2.10605677957543));
#994=CARTESIAN_POINT('Ctrl Pts',(-28.8852711378999,11.18795207362,-2.8792138778586));
#995=CARTESIAN_POINT('Ctrl Pts',(-28.9683916468707,11.2789202560435,-3.25224336075104));
#996=CARTESIAN_POINT('Ctrl Pts',(-29.0101662335472,11.3246930512415,-3.76157142388216));
#997=CARTESIAN_POINT('Ctrl Pts',(-29.0150365684618,11.33,-3.88098946687203));
#998=CARTESIAN_POINT('Ctrl Pts',(-29.0150365684618,11.33,-4.));
#999=CARTESIAN_POINT('',(-19.,11.33,-4.));
#1000=CARTESIAN_POINT('',(-22.,11.33,-4.));
#1001=CARTESIAN_POINT('Origin',(-23.,7.33,-4.));
#1002=CARTESIAN_POINT('Origin',(-32.9996946466411,11.68,-4.));
#1003=CARTESIAN_POINT('',(-39.4879609790292,7.,0.));
#1004=CARTESIAN_POINT('',(-26.5114283142531,7.,0.));
#1005=CARTESIAN_POINT('Ctrl Pts',(-26.5114283142531,7.,3.08148791101958E-32));
#1006=CARTESIAN_POINT('Ctrl Pts',(-26.9195497334142,7.,-1.64250851193293E-16));
#1007=CARTESIAN_POINT('Ctrl Pts',(-27.3644576199736,7.,-0.0440246755328717));
#1008=CARTESIAN_POINT('Ctrl Pts',(-28.2403475032853,7.,-0.21318348415897));
#1009=CARTESIAN_POINT('Ctrl Pts',(-28.6715208017484,7.,-0.337325564720328));
#1010=CARTESIAN_POINT('Ctrl Pts',(-29.3787789682345,7.,-0.580100257913049));
#1011=CARTESIAN_POINT('Ctrl Pts',(-29.757885823994,7.,-0.729746289537539));
#1012=CARTESIAN_POINT('Ctrl Pts',(-30.2431745145077,7.,-0.933066145917304));
#1013=CARTESIAN_POINT('Ctrl Pts',(-30.4487635998179,7.,-1.02154117060309));
#1014=CARTESIAN_POINT('Ctrl Pts',(-30.8116137970023,7.,-1.1772129554178));
#1015=CARTESIAN_POINT('Ctrl Pts',(-31.0416289773382,7.,-1.27511214372679));
#1016=CARTESIAN_POINT('Ctrl Pts',(-31.5015296432269,7.,-1.45886633384976));
#1017=CARTESIAN_POINT('Ctrl Pts',(-31.7979018118126,7.,-1.56809353723949));
#1018=CARTESIAN_POINT('Ctrl Pts',(-32.4030325304082,7.,-1.72501708478776));
#1019=CARTESIAN_POINT('Ctrl Pts',(-32.7127616915759,7.,-1.76894643721851));
#1020=CARTESIAN_POINT('Ctrl Pts',(-33.2866276017064,7.,-1.76894643721851));
#1021=CARTESIAN_POINT('Ctrl Pts',(-33.5963567628741,7.,-1.72501708478776));
#1022=CARTESIAN_POINT('Ctrl Pts',(-34.2014874814697,7.,-1.56809353723949));
#1023=CARTESIAN_POINT('Ctrl Pts',(-34.4978596500554,7.,-1.45886633384976));
#1024=CARTESIAN_POINT('Ctrl Pts',(-34.9577603159441,7.,-1.27511214372679));
#1025=CARTESIAN_POINT('Ctrl Pts',(-35.18777549628,7.,-1.1772129554178));
#1026=CARTESIAN_POINT('Ctrl Pts',(-35.5506256934644,7.,-1.02154117060309));
#1027=CARTESIAN_POINT('Ctrl Pts',(-35.7562147787746,7.,-0.933066145917304));
#1028=CARTESIAN_POINT('Ctrl Pts',(-36.2415034692883,7.,-0.729746289537539));
#1029=CARTESIAN_POINT('Ctrl Pts',(-36.6206103250478,7.,-0.580100257913049));
#1030=CARTESIAN_POINT('Ctrl Pts',(-37.3278684915338,7.,-0.337325564720328));
#1031=CARTESIAN_POINT('Ctrl Pts',(-37.759041789997,7.,-0.213183484158971));
#1032=CARTESIAN_POINT('Ctrl Pts',(-38.6349316733087,7.,-0.0440246755328701));
#1033=CARTESIAN_POINT('Ctrl Pts',(-39.0798395598681,7.,-1.13276449098823E-16));
#1034=CARTESIAN_POINT('Ctrl Pts',(-39.4879609790292,7.,3.08148791101958E-32));
#1035=CARTESIAN_POINT('Origin',(-32.9996946466411,11.68,0.));
#1036=CARTESIAN_POINT('Origin',(-32.9996946466411,11.68,-4.));
#1037=CARTESIAN_POINT('Origin',(-32.9996946466411,11.68,0.));
#1038=CARTESIAN_POINT('Origin',(-23.,6.915,-4.));
#1039=CARTESIAN_POINT('',(-19.,7.33,-4.));
#1040=CARTESIAN_POINT('',(-19.,6.915,-4.));
#1041=CARTESIAN_POINT('',(-19.8068127314306,7.33,-1.59094311651924));
#1042=CARTESIAN_POINT('Origin',(-23.,7.33,-4.));
#1043=CARTESIAN_POINT('',(-23.,7.,0.));
#1044=CARTESIAN_POINT('Ctrl Pts',(-19.8068127314306,7.33,-1.59094311651923));
#1045=CARTESIAN_POINT('Ctrl Pts',(-19.9508749470487,7.33,-1.39998970402488));
#1046=CARTESIAN_POINT('Ctrl Pts',(-20.1132416962843,7.316244280376,-1.2205942914904));
#1047=CARTESIAN_POINT('Ctrl Pts',(-20.5341880719908,7.26404471266796,-0.833161287541437));
#1048=CARTESIAN_POINT('Ctrl Pts',(-20.8063664638562,7.21847852071918,-0.638735043240516));
#1049=CARTESIAN_POINT('Ctrl Pts',(-21.6822207660544,7.08176983222203,-0.165425829351142));
#1050=CARTESIAN_POINT('Ctrl Pts',(-22.3498719440382,7.00000000000001,0.));
#1051=CARTESIAN_POINT('Ctrl Pts',(-23.,7.00000000000001,0.));
#1052=CARTESIAN_POINT('',(-23.,6.915,0.));
#1053=CARTESIAN_POINT('Origin',(-25.,6.5,0.));
#1054=CARTESIAN_POINT('',(-41.,7.,0.));
#1055=CARTESIAN_POINT('Origin',(-25.,6.5,0.));
#1056=CARTESIAN_POINT('',(-41.,7.,0.));
#1057=CARTESIAN_POINT('',(-41.,7.,0.));
#1058=CARTESIAN_POINT('',(-41.,4.,0.));
#1059=CARTESIAN_POINT('',(-41.,2.02145606962884E-31,0.));
#1060=CARTESIAN_POINT('',(-45.,2.2186712959341E-31,0.));
#1061=CARTESIAN_POINT('Origin',(-45.,4.,0.));
#1062=CARTESIAN_POINT('',(-50.,2.46519032881566E-31,0.));
#1063=CARTESIAN_POINT('',(0.,0.,0.));
#1064=CARTESIAN_POINT('',(-50.,2.46519032881566E-31,0.));
#1065=CARTESIAN_POINT('',(-47.12,4.,0.));
#1066=CARTESIAN_POINT('Origin',(-45.32,4.,0.));
#1067=CARTESIAN_POINT('Origin',(-41.,3.32999999999999,-1.59094311651924));
#1068=CARTESIAN_POINT('',(-41.,7.32999999999999,-1.59094311651924));
#1069=CARTESIAN_POINT('',(-41.,7.,0.));
#1070=CARTESIAN_POINT('Origin',(-32.9996946466411,11.68,0.));
#1071=CARTESIAN_POINT('',(-33.7496946466411,11.68,-8.));
#1072=CARTESIAN_POINT('Origin',(-32.9996946466411,11.68,-8.));
#1073=CARTESIAN_POINT('',(-33.7496946466411,11.68,0.));
#1074=CARTESIAN_POINT('',(-33.7496946466411,11.68,0.));
#1075=CARTESIAN_POINT('Origin',(-32.9996946466411,11.68,0.));
#1076=CARTESIAN_POINT('Origin',(-19.,11.33,0.));
#1077=CARTESIAN_POINT('',(-29.0150365684618,11.33,-8.));
#1078=CARTESIAN_POINT('',(-29.0150365684618,11.33,0.));
#1079=CARTESIAN_POINT('',(-19.,11.33,-8.));
#1080=CARTESIAN_POINT('',(-29.0150365684618,11.33,-8.));
#1081=CARTESIAN_POINT('',(-19.,11.33,0.));
#1082=CARTESIAN_POINT('Origin',(-19.,7.33,0.));
#1083=CARTESIAN_POINT('',(-19.,7.33,-8.));
#1084=CARTESIAN_POINT('',(-19.,11.33,-8.));
#1085=CARTESIAN_POINT('',(-19.,7.33,0.));
#1086=CARTESIAN_POINT('Origin',(-14.,7.33,0.));
#1087=CARTESIAN_POINT('',(-19.,7.33,-8.));
#1088=CARTESIAN_POINT('Origin',(-32.9996946466411,11.68,0.));
#1089=CARTESIAN_POINT('Origin',(-32.9996946466411,11.68,-8.));
#1090=CARTESIAN_POINT('Origin',(-25.4998473233206,11.005,-8.));
#1091=CARTESIAN_POINT('Origin',(-25.,6.5,0.));
#1092=CARTESIAN_POINT('Origin',(-41.,7.,0.));
#1093=CARTESIAN_POINT('',(-9.,7.,3.));
#1094=CARTESIAN_POINT('',(-9.,7.,0.));
#1095=CARTESIAN_POINT('',(-41.,7.,3.));
#1096=CARTESIAN_POINT('',(-41.,7.,3.));
#1097=CARTESIAN_POINT('',(-41.,7.,0.));
#1098=CARTESIAN_POINT('Origin',(-9.,8.,0.));
#1099=CARTESIAN_POINT('',(-9.,4.,3.));
#1100=CARTESIAN_POINT('',(-9.,4.,0.));
#1101=CARTESIAN_POINT('',(-9.,8.,3.));
#1102=CARTESIAN_POINT('Origin',(-45.,4.,0.));
#1103=CARTESIAN_POINT('',(-41.,4.,3.));
#1104=CARTESIAN_POINT('',(-45.,2.2186712959341E-31,3.));
#1105=CARTESIAN_POINT('Origin',(-45.,4.,3.));
#1106=CARTESIAN_POINT('',(-45.,0.,0.));
#1107=CARTESIAN_POINT('',(-41.,4.,0.));
#1108=CARTESIAN_POINT('Origin',(-41.,2.02145606962884E-31,0.));
#1109=CARTESIAN_POINT('',(-41.,2.02145606962884E-31,3.));
#1110=CARTESIAN_POINT('Origin',(-5.,4.,0.));
#1111=CARTESIAN_POINT('',(-5.,2.46519032881566E-32,3.));
#1112=CARTESIAN_POINT('Origin',(-5.,4.,3.));
#1113=CARTESIAN_POINT('',(-5.,0.,0.));
#1114=CARTESIAN_POINT('Origin',(-4.68,3.99999999999999,0.));
#1115=CARTESIAN_POINT('',(-6.48,3.99999999999999,3.));
#1116=CARTESIAN_POINT('Origin',(-4.68,3.99999999999999,3.));
#1117=CARTESIAN_POINT('',(-6.48,3.99999999999999,0.));
#1118=CARTESIAN_POINT('Origin',(-45.32,4.,0.));
#1119=CARTESIAN_POINT('',(-47.12,4.,3.));
#1120=CARTESIAN_POINT('Origin',(-45.32,4.,3.));
#1121=CARTESIAN_POINT('',(-47.12,4.,0.));
#1122=CARTESIAN_POINT('Origin',(-50.,2.46519032881566E-31,0.));
#1123=CARTESIAN_POINT('',(-50.,0.,3.));
#1124=CARTESIAN_POINT('',(0.,0.,3.));
#1125=CARTESIAN_POINT('',(-50.,2.46519032881566E-31,0.));
#1126=CARTESIAN_POINT('Origin',(-50.,13.,0.));
#1127=CARTESIAN_POINT('',(-50.,2.46519032881566E-31,3.));
#1128=CARTESIAN_POINT('Origin',(0.,13.,0.));
#1129=CARTESIAN_POINT('',(0.,13.,3.));
#1130=CARTESIAN_POINT('',(-50.,13.,3.));
#1131=CARTESIAN_POINT('',(0.,13.,0.));
#1132=CARTESIAN_POINT('Origin',(0.,0.,0.));
#1133=CARTESIAN_POINT('',(0.,0.,3.));
#1134=CARTESIAN_POINT('',(0.,13.,3.));
#1135=CARTESIAN_POINT('',(0.,0.,0.));
#1136=CARTESIAN_POINT('Origin',(-9.,4.43734259186819E-32,0.));
#1137=CARTESIAN_POINT('',(0.,0.,3.));
#1138=CARTESIAN_POINT('Origin',(-25.,6.5,3.));
#1139=UNCERTAINTY_MEASURE_WITH_UNIT(LENGTH_MEASURE(0.01),#1143,
'DISTANCE_ACCURACY_VALUE',
'Maximum model space distance between geometric entities at asserted c
onnectivities');
#1140=UNCERTAINTY_MEASURE_WITH_UNIT(LENGTH_MEASURE(0.01),#1143,
'DISTANCE_ACCURACY_VALUE',
'Maximum model space distance between geometric entities at asserted c
onnectivities');
#1141=(
GEOMETRIC_REPRESENTATION_CONTEXT(3)
GLOBAL_UNCERTAINTY_ASSIGNED_CONTEXT((#1139))
GLOBAL_UNIT_ASSIGNED_CONTEXT((#1143,#1145,#1146))
REPRESENTATION_CONTEXT('','3D')
);
#1142=(
GEOMETRIC_REPRESENTATION_CONTEXT(3)
GLOBAL_UNCERTAINTY_ASSIGNED_CONTEXT((#1140))
GLOBAL_UNIT_ASSIGNED_CONTEXT((#1143,#1145,#1146))
REPRESENTATION_CONTEXT('','3D')
);
#1143=(
LENGTH_UNIT()
NAMED_UNIT(*)
SI_UNIT(.MILLI.,.METRE.)
);
#1144=(
LENGTH_UNIT()
NAMED_UNIT(*)
SI_UNIT($,.METRE.)
);
#1145=(
NAMED_UNIT(*)
PLANE_ANGLE_UNIT()
SI_UNIT($,.RADIAN.)
);
#1146=(
NAMED_UNIT(*)
SI_UNIT($,.STERADIAN.)
SOLID_ANGLE_UNIT()
);
#1147=SHAPE_DEFINITION_REPRESENTATION(#1148,#1149);
#1148=PRODUCT_DEFINITION_SHAPE('',$,#1151);
#1149=SHAPE_REPRESENTATION('',(#647),#1141);
#1150=PRODUCT_DEFINITION_CONTEXT('part definition',#1155,'design');
#1151=PRODUCT_DEFINITION('Traeger3','Traeger3 v5',#1152,#1150);
#1152=PRODUCT_DEFINITION_FORMATION('',$,#1157);
#1153=PRODUCT_RELATED_PRODUCT_CATEGORY('Traeger3 v5','Traeger3 v5',(#1157));
#1154=APPLICATION_PROTOCOL_DEFINITION('international standard',
'automotive_design',2009,#1155);
#1155=APPLICATION_CONTEXT(
'Core Data for Automotive Mechanical Design Process');
#1156=PRODUCT_CONTEXT('part definition',#1155,'mechanical');
#1157=PRODUCT('Traeger3','Traeger3 v5',$,(#1156));
#1158=PRESENTATION_STYLE_ASSIGNMENT((#1159));
#1159=SURFACE_STYLE_USAGE(.BOTH.,#1160);
#1160=SURFACE_SIDE_STYLE('',(#1161));
#1161=SURFACE_STYLE_FILL_AREA(#1162);
#1162=FILL_AREA_STYLE('Stahl - satiniert',(#1163));
#1163=FILL_AREA_STYLE_COLOUR('Stahl - satiniert',#1164);
#1164=COLOUR_RGB('Stahl - satiniert',0.627450980392157,0.627450980392157,
0.627450980392157);
ENDSEC;
END-ISO-10303-21;
