ISO-10303-21;
HEADER;
/* Generated by software containing ST-Developer
 * from STEP Tools, Inc. (www.steptools.com) 
 */

FILE_DESCRIPTION(
/* description */ (''),
/* implementation_level */ '2;1');

FILE_NAME(
/* name */ 'Frontplatte.step',
/* time_stamp */ '2026-10-02T07:23:25+02:00',
/* author */ (''),
/* organization */ (''),
/* preprocessor_version */ 'ST-DEVELOPER v20.2',
/* originating_system */ 'Autodesk Translation Framework v15.15.0.0',
/* authorisation */ '');

FILE_SCHEMA (('AUTOMOTIVE_DESIGN { 1 0 10303 214 3 1 1 }'));
ENDSEC;

DATA;
#10=MECHANICAL_DESIGN_GEOMETRIC_PRESENTATION_REPRESENTATION('',(#13),#1378);
#11=SHAPE_REPRESENTATION_RELATIONSHIP('SRR','None',#1385,#12);
#12=ADVANCED_BREP_SHAPE_REPRESENTATION('',(#14),#1377);
#13=STYLED_ITEM('',(#1394),#14);
#14=MANIFOLD_SOLID_BREP('K\X\F6rper1',#819);
#15=CONICAL_SURFACE('',#887,17.5,1.10714871779409);
#16=FACE_BOUND('',#115,.T.);
#17=FACE_BOUND('',#118,.T.);
#18=FACE_BOUND('',#121,.T.);
#19=FACE_BOUND('',#124,.T.);
#20=FACE_BOUND('',#127,.T.);
#21=FACE_BOUND('',#130,.T.);
#22=FACE_BOUND('',#133,.T.);
#23=FACE_BOUND('',#141,.T.);
#24=FACE_BOUND('',#142,.T.);
#25=FACE_BOUND('',#143,.T.);
#26=FACE_BOUND('',#144,.T.);
#27=FACE_BOUND('',#150,.T.);
#28=FACE_BOUND('',#153,.T.);
#29=FACE_BOUND('',#154,.T.);
#30=FACE_BOUND('',#155,.T.);
#31=FACE_BOUND('',#156,.T.);
#32=FACE_BOUND('',#157,.T.);
#33=PLANE('',#836);
#34=PLANE('',#841);
#35=PLANE('',#846);
#36=PLANE('',#851);
#37=PLANE('',#856);
#38=PLANE('',#861);
#39=PLANE('',#866);
#40=PLANE('',#868);
#41=PLANE('',#869);
#42=PLANE('',#873);
#43=PLANE('',#877);
#44=PLANE('',#878);
#45=PLANE('',#882);
#46=PLANE('',#883);
#47=PLANE('',#884);
#48=PLANE('',#885);
#49=PLANE('',#890);
#50=PLANE('',#893);
#51=PLANE('',#894);
#52=PLANE('',#895);
#53=PLANE('',#896);
#54=PLANE('',#897);
#55=PLANE('',#898);
#56=PLANE('',#899);
#57=PLANE('',#900);
#58=PLANE('',#901);
#59=PLANE('',#902);
#60=PLANE('',#903);
#61=PLANE('',#904);
#62=PLANE('',#909);
#63=PLANE('',#910);
#64=PLANE('',#911);
#65=FACE_OUTER_BOUND('',#113,.T.);
#66=FACE_OUTER_BOUND('',#114,.T.);
#67=FACE_OUTER_BOUND('',#116,.T.);
#68=FACE_OUTER_BOUND('',#117,.T.);
#69=FACE_OUTER_BOUND('',#119,.T.);
#70=FACE_OUTER_BOUND('',#120,.T.);
#71=FACE_OUTER_BOUND('',#122,.T.);
#72=FACE_OUTER_BOUND('',#123,.T.);
#73=FACE_OUTER_BOUND('',#125,.T.);
#74=FACE_OUTER_BOUND('',#126,.T.);
#75=FACE_OUTER_BOUND('',#128,.T.);
#76=FACE_OUTER_BOUND('',#129,.T.);
#77=FACE_OUTER_BOUND('',#131,.T.);
#78=FACE_OUTER_BOUND('',#132,.T.);
#79=FACE_OUTER_BOUND('',#134,.T.);
#80=FACE_OUTER_BOUND('',#135,.T.);
#81=FACE_OUTER_BOUND('',#136,.T.);
#82=FACE_OUTER_BOUND('',#137,.T.);
#83=FACE_OUTER_BOUND('',#138,.T.);
#84=FACE_OUTER_BOUND('',#139,.T.);
#85=FACE_OUTER_BOUND('',#140,.T.);
#86=FACE_OUTER_BOUND('',#145,.T.);
#87=FACE_OUTER_BOUND('',#146,.T.);
#88=FACE_OUTER_BOUND('',#147,.T.);
#89=FACE_OUTER_BOUND('',#148,.T.);
#90=FACE_OUTER_BOUND('',#149,.T.);
#91=FACE_OUTER_BOUND('',#151,.T.);
#92=FACE_OUTER_BOUND('',#152,.T.);
#93=FACE_OUTER_BOUND('',#158,.T.);
#94=FACE_OUTER_BOUND('',#159,.T.);
#95=FACE_OUTER_BOUND('',#160,.T.);
#96=FACE_OUTER_BOUND('',#161,.T.);
#97=FACE_OUTER_BOUND('',#162,.T.);
#98=FACE_OUTER_BOUND('',#163,.T.);
#99=FACE_OUTER_BOUND('',#164,.T.);
#100=FACE_OUTER_BOUND('',#165,.T.);
#101=FACE_OUTER_BOUND('',#166,.T.);
#102=FACE_OUTER_BOUND('',#167,.T.);
#103=FACE_OUTER_BOUND('',#168,.T.);
#104=FACE_OUTER_BOUND('',#169,.T.);
#105=FACE_OUTER_BOUND('',#170,.T.);
#106=FACE_OUTER_BOUND('',#171,.T.);
#107=FACE_OUTER_BOUND('',#172,.T.);
#108=FACE_OUTER_BOUND('',#173,.T.);
#109=FACE_OUTER_BOUND('',#174,.T.);
#110=FACE_OUTER_BOUND('',#175,.T.);
#111=FACE_OUTER_BOUND('',#176,.T.);
#112=FACE_OUTER_BOUND('',#177,.T.);
#113=EDGE_LOOP('',(#540,#541,#542,#543));
#114=EDGE_LOOP('',(#544));
#115=EDGE_LOOP('',(#545));
#116=EDGE_LOOP('',(#546,#547,#548,#549));
#117=EDGE_LOOP('',(#550));
#118=EDGE_LOOP('',(#551));
#119=EDGE_LOOP('',(#552,#553,#554,#555));
#120=EDGE_LOOP('',(#556));
#121=EDGE_LOOP('',(#557));
#122=EDGE_LOOP('',(#558,#559,#560,#561));
#123=EDGE_LOOP('',(#562));
#124=EDGE_LOOP('',(#563));
#125=EDGE_LOOP('',(#564,#565,#566,#567));
#126=EDGE_LOOP('',(#568));
#127=EDGE_LOOP('',(#569));
#128=EDGE_LOOP('',(#570,#571,#572,#573));
#129=EDGE_LOOP('',(#574));
#130=EDGE_LOOP('',(#575));
#131=EDGE_LOOP('',(#576,#577,#578,#579));
#132=EDGE_LOOP('',(#580));
#133=EDGE_LOOP('',(#581));
#134=EDGE_LOOP('',(#582,#583,#584,#585));
#135=EDGE_LOOP('',(#586,#587,#588,#589));
#136=EDGE_LOOP('',(#590,#591,#592,#593));
#137=EDGE_LOOP('',(#594,#595,#596,#597));
#138=EDGE_LOOP('',(#598,#599,#600,#601));
#139=EDGE_LOOP('',(#602,#603,#604,#605,#606,#607,#608,#609,#610,#611));
#140=EDGE_LOOP('',(#612,#613,#614,#615,#616,#617,#618,#619,#620,#621,#622,
#623,#624,#625,#626,#627));
#141=EDGE_LOOP('',(#628));
#142=EDGE_LOOP('',(#629));
#143=EDGE_LOOP('',(#630));
#144=EDGE_LOOP('',(#631));
#145=EDGE_LOOP('',(#632,#633,#634,#635));
#146=EDGE_LOOP('',(#636,#637,#638,#639));
#147=EDGE_LOOP('',(#640,#641,#642,#643,#644,#645,#646,#647,#648,#649));
#148=EDGE_LOOP('',(#650,#651,#652,#653));
#149=EDGE_LOOP('',(#654,#655,#656,#657));
#150=EDGE_LOOP('',(#658));
#151=EDGE_LOOP('',(#659,#660,#661,#662));
#152=EDGE_LOOP('',(#663,#664,#665,#666,#667,#668,#669,#670));
#153=EDGE_LOOP('',(#671));
#154=EDGE_LOOP('',(#672));
#155=EDGE_LOOP('',(#673));
#156=EDGE_LOOP('',(#674));
#157=EDGE_LOOP('',(#675));
#158=EDGE_LOOP('',(#676,#677,#678,#679));
#159=EDGE_LOOP('',(#680,#681,#682,#683));
#160=EDGE_LOOP('',(#684,#685,#686,#687));
#161=EDGE_LOOP('',(#688,#689,#690,#691));
#162=EDGE_LOOP('',(#692,#693,#694,#695));
#163=EDGE_LOOP('',(#696,#697,#698,#699));
#164=EDGE_LOOP('',(#700,#701,#702,#703));
#165=EDGE_LOOP('',(#704,#705,#706,#707));
#166=EDGE_LOOP('',(#708,#709,#710,#711));
#167=EDGE_LOOP('',(#712,#713,#714,#715));
#168=EDGE_LOOP('',(#716,#717,#718,#719));
#169=EDGE_LOOP('',(#720,#721,#722,#723));
#170=EDGE_LOOP('',(#724,#725,#726,#727));
#171=EDGE_LOOP('',(#728,#729,#730,#731));
#172=EDGE_LOOP('',(#732,#733,#734,#735));
#173=EDGE_LOOP('',(#736,#737,#738,#739));
#174=EDGE_LOOP('',(#740,#741,#742,#743));
#175=EDGE_LOOP('',(#744,#745,#746,#747));
#176=EDGE_LOOP('',(#748,#749,#750,#751));
#177=EDGE_LOOP('',(#752,#753,#754,#755));
#178=LINE('',#1154,#255);
#179=LINE('',#1163,#256);
#180=LINE('',#1172,#257);
#181=LINE('',#1181,#258);
#182=LINE('',#1190,#259);
#183=LINE('',#1199,#260);
#184=LINE('',#1208,#261);
#185=LINE('',#1216,#262);
#186=LINE('',#1218,#263);
#187=LINE('',#1220,#264);
#188=LINE('',#1221,#265);
#189=LINE('',#1225,#266);
#190=LINE('',#1227,#267);
#191=LINE('',#1229,#268);
#192=LINE('',#1230,#269);
#193=LINE('',#1236,#270);
#194=LINE('',#1239,#271);
#195=LINE('',#1241,#272);
#196=LINE('',#1242,#273);
#197=LINE('',#1248,#274);
#198=LINE('',#1250,#275);
#199=LINE('',#1252,#276);
#200=LINE('',#1254,#277);
#201=LINE('',#1255,#278);
#202=LINE('',#1258,#279);
#203=LINE('',#1260,#280);
#204=LINE('',#1262,#281);
#205=LINE('',#1264,#282);
#206=LINE('',#1266,#283);
#207=LINE('',#1268,#284);
#208=LINE('',#1269,#285);
#209=LINE('',#1271,#286);
#210=LINE('',#1273,#287);
#211=LINE('',#1277,#288);
#212=LINE('',#1278,#289);
#213=LINE('',#1281,#290);
#214=LINE('',#1284,#291);
#215=LINE('',#1287,#292);
#216=LINE('',#1288,#293);
#217=LINE('',#1291,#294);
#218=LINE('',#1292,#295);
#219=LINE('',#1294,#296);
#220=LINE('',#1302,#297);
#221=LINE('',#1307,#298);
#222=LINE('',#1309,#299);
#223=LINE('',#1311,#300);
#224=LINE('',#1313,#301);
#225=LINE('',#1315,#302);
#226=LINE('',#1317,#303);
#227=LINE('',#1319,#304);
#228=LINE('',#1320,#305);
#229=LINE('',#1324,#306);
#230=LINE('',#1327,#307);
#231=LINE('',#1329,#308);
#232=LINE('',#1330,#309);
#233=LINE('',#1333,#310);
#234=LINE('',#1334,#311);
#235=LINE('',#1337,#312);
#236=LINE('',#1338,#313);
#237=LINE('',#1340,#314);
#238=LINE('',#1341,#315);
#239=LINE('',#1343,#316);
#240=LINE('',#1346,#317);
#241=LINE('',#1347,#318);
#242=LINE('',#1350,#319);
#243=LINE('',#1351,#320);
#244=LINE('',#1353,#321);
#245=LINE('',#1355,#322);
#246=LINE('',#1357,#323);
#247=LINE('',#1359,#324);
#248=LINE('',#1361,#325);
#249=LINE('',#1363,#326);
#250=LINE('',#1365,#327);
#251=LINE('',#1367,#328);
#252=LINE('',#1369,#329);
#253=LINE('',#1371,#330);
#254=LINE('',#1373,#331);
#255=VECTOR('',#918,3.5);
#256=VECTOR('',#929,3.5);
#257=VECTOR('',#940,3.5);
#258=VECTOR('',#951,5.);
#259=VECTOR('',#962,3.);
#260=VECTOR('',#973,3.);
#261=VECTOR('',#984,3.);
#262=VECTOR('',#993,10.);
#263=VECTOR('',#994,10.);
#264=VECTOR('',#995,10.);
#265=VECTOR('',#996,10.);
#266=VECTOR('',#999,10.);
#267=VECTOR('',#1000,10.);
#268=VECTOR('',#1001,10.);
#269=VECTOR('',#1002,10.);
#270=VECTOR('',#1009,10.);
#271=VECTOR('',#1012,10.);
#272=VECTOR('',#1013,10.);
#273=VECTOR('',#1014,10.);
#274=VECTOR('',#1023,10.);
#275=VECTOR('',#1024,10.);
#276=VECTOR('',#1025,10.);
#277=VECTOR('',#1026,10.);
#278=VECTOR('',#1027,10.);
#279=VECTOR('',#1030,10.);
#280=VECTOR('',#1031,10.);
#281=VECTOR('',#1032,10.);
#282=VECTOR('',#1033,10.);
#283=VECTOR('',#1034,10.);
#284=VECTOR('',#1035,10.);
#285=VECTOR('',#1036,10.);
#286=VECTOR('',#1037,10.);
#287=VECTOR('',#1038,10.);
#288=VECTOR('',#1041,10.);
#289=VECTOR('',#1042,10.);
#290=VECTOR('',#1045,10.);
#291=VECTOR('',#1048,10.);
#292=VECTOR('',#1051,10.);
#293=VECTOR('',#1052,10.);
#294=VECTOR('',#1055,10.);
#295=VECTOR('',#1056,10.);
#296=VECTOR('',#1059,10.);
#297=VECTOR('',#1068,17.5);
#298=VECTOR('',#1073,10.);
#299=VECTOR('',#1074,10.);
#300=VECTOR('',#1075,10.);
#301=VECTOR('',#1076,10.);
#302=VECTOR('',#1077,10.);
#303=VECTOR('',#1078,10.);
#304=VECTOR('',#1079,10.);
#305=VECTOR('',#1080,10.);
#306=VECTOR('',#1085,16.5);
#307=VECTOR('',#1088,10.);
#308=VECTOR('',#1089,10.);
#309=VECTOR('',#1090,10.);
#310=VECTOR('',#1093,10.);
#311=VECTOR('',#1094,10.);
#312=VECTOR('',#1097,10.);
#313=VECTOR('',#1098,10.);
#314=VECTOR('',#1101,10.);
#315=VECTOR('',#1102,10.);
#316=VECTOR('',#1105,10.);
#317=VECTOR('',#1108,10.);
#318=VECTOR('',#1109,10.);
#319=VECTOR('',#1112,10.);
#320=VECTOR('',#1113,10.);
#321=VECTOR('',#1116,10.);
#322=VECTOR('',#1119,10.);
#323=VECTOR('',#1122,10.);
#324=VECTOR('',#1125,10.);
#325=VECTOR('',#1128,10.);
#326=VECTOR('',#1131,3.55);
#327=VECTOR('',#1134,1.9);
#328=VECTOR('',#1137,1.9);
#329=VECTOR('',#1140,1.9);
#330=VECTOR('',#1143,10.);
#331=VECTOR('',#1146,10.);
#332=CIRCLE('',#834,3.5);
#333=CIRCLE('',#835,3.5);
#334=CIRCLE('',#837,1.9);
#335=CIRCLE('',#839,3.5);
#336=CIRCLE('',#840,3.5);
#337=CIRCLE('',#842,1.9);
#338=CIRCLE('',#844,3.5);
#339=CIRCLE('',#845,3.5);
#340=CIRCLE('',#847,1.9);
#341=CIRCLE('',#849,5.);
#342=CIRCLE('',#850,5.);
#343=CIRCLE('',#852,3.55);
#344=CIRCLE('',#854,3.);
#345=CIRCLE('',#855,3.);
#346=CIRCLE('',#857,1.9);
#347=CIRCLE('',#859,3.);
#348=CIRCLE('',#860,3.);
#349=CIRCLE('',#862,1.9);
#350=CIRCLE('',#864,3.);
#351=CIRCLE('',#865,3.);
#352=CIRCLE('',#867,1.9);
#353=CIRCLE('',#871,3.);
#354=CIRCLE('',#872,3.);
#355=CIRCLE('',#875,3.);
#356=CIRCLE('',#876,3.);
#357=CIRCLE('',#879,18.35);
#358=CIRCLE('',#881,18.35);
#359=CIRCLE('',#886,16.5);
#360=CIRCLE('',#888,18.5);
#361=CIRCLE('',#889,16.5);
#362=CIRCLE('',#891,3.55);
#363=VERTEX_POINT('',#1151);
#364=VERTEX_POINT('',#1153);
#365=VERTEX_POINT('',#1157);
#366=VERTEX_POINT('',#1160);
#367=VERTEX_POINT('',#1162);
#368=VERTEX_POINT('',#1166);
#369=VERTEX_POINT('',#1169);
#370=VERTEX_POINT('',#1171);
#371=VERTEX_POINT('',#1175);
#372=VERTEX_POINT('',#1178);
#373=VERTEX_POINT('',#1180);
#374=VERTEX_POINT('',#1184);
#375=VERTEX_POINT('',#1187);
#376=VERTEX_POINT('',#1189);
#377=VERTEX_POINT('',#1193);
#378=VERTEX_POINT('',#1196);
#379=VERTEX_POINT('',#1198);
#380=VERTEX_POINT('',#1202);
#381=VERTEX_POINT('',#1205);
#382=VERTEX_POINT('',#1207);
#383=VERTEX_POINT('',#1211);
#384=VERTEX_POINT('',#1214);
#385=VERTEX_POINT('',#1215);
#386=VERTEX_POINT('',#1217);
#387=VERTEX_POINT('',#1219);
#388=VERTEX_POINT('',#1223);
#389=VERTEX_POINT('',#1224);
#390=VERTEX_POINT('',#1226);
#391=VERTEX_POINT('',#1228);
#392=VERTEX_POINT('',#1232);
#393=VERTEX_POINT('',#1234);
#394=VERTEX_POINT('',#1238);
#395=VERTEX_POINT('',#1240);
#396=VERTEX_POINT('',#1247);
#397=VERTEX_POINT('',#1249);
#398=VERTEX_POINT('',#1251);
#399=VERTEX_POINT('',#1253);
#400=VERTEX_POINT('',#1257);
#401=VERTEX_POINT('',#1259);
#402=VERTEX_POINT('',#1261);
#403=VERTEX_POINT('',#1263);
#404=VERTEX_POINT('',#1265);
#405=VERTEX_POINT('',#1267);
#406=VERTEX_POINT('',#1270);
#407=VERTEX_POINT('',#1272);
#408=VERTEX_POINT('',#1274);
#409=VERTEX_POINT('',#1276);
#410=VERTEX_POINT('',#1280);
#411=VERTEX_POINT('',#1282);
#412=VERTEX_POINT('',#1286);
#413=VERTEX_POINT('',#1290);
#414=VERTEX_POINT('',#1296);
#415=VERTEX_POINT('',#1299);
#416=VERTEX_POINT('',#1301);
#417=VERTEX_POINT('',#1305);
#418=VERTEX_POINT('',#1306);
#419=VERTEX_POINT('',#1308);
#420=VERTEX_POINT('',#1310);
#421=VERTEX_POINT('',#1312);
#422=VERTEX_POINT('',#1314);
#423=VERTEX_POINT('',#1316);
#424=VERTEX_POINT('',#1318);
#425=VERTEX_POINT('',#1321);
#426=VERTEX_POINT('',#1326);
#427=VERTEX_POINT('',#1328);
#428=VERTEX_POINT('',#1332);
#429=VERTEX_POINT('',#1336);
#430=VERTEX_POINT('',#1345);
#431=VERTEX_POINT('',#1349);
#432=EDGE_CURVE('',#363,#363,#332,.T.);
#433=EDGE_CURVE('',#363,#364,#178,.T.);
#434=EDGE_CURVE('',#364,#364,#333,.T.);
#435=EDGE_CURVE('',#365,#365,#334,.T.);
#436=EDGE_CURVE('',#366,#366,#335,.T.);
#437=EDGE_CURVE('',#366,#367,#179,.T.);
#438=EDGE_CURVE('',#367,#367,#336,.T.);
#439=EDGE_CURVE('',#368,#368,#337,.T.);
#440=EDGE_CURVE('',#369,#369,#338,.T.);
#441=EDGE_CURVE('',#369,#370,#180,.T.);
#442=EDGE_CURVE('',#370,#370,#339,.T.);
#443=EDGE_CURVE('',#371,#371,#340,.T.);
#444=EDGE_CURVE('',#372,#372,#341,.T.);
#445=EDGE_CURVE('',#372,#373,#181,.T.);
#446=EDGE_CURVE('',#373,#373,#342,.T.);
#447=EDGE_CURVE('',#374,#374,#343,.T.);
#448=EDGE_CURVE('',#375,#375,#344,.T.);
#449=EDGE_CURVE('',#375,#376,#182,.T.);
#450=EDGE_CURVE('',#376,#376,#345,.T.);
#451=EDGE_CURVE('',#377,#377,#346,.T.);
#452=EDGE_CURVE('',#378,#378,#347,.T.);
#453=EDGE_CURVE('',#378,#379,#183,.T.);
#454=EDGE_CURVE('',#379,#379,#348,.T.);
#455=EDGE_CURVE('',#380,#380,#349,.T.);
#456=EDGE_CURVE('',#381,#381,#350,.T.);
#457=EDGE_CURVE('',#381,#382,#184,.T.);
#458=EDGE_CURVE('',#382,#382,#351,.T.);
#459=EDGE_CURVE('',#383,#383,#352,.T.);
#460=EDGE_CURVE('',#384,#385,#185,.T.);
#461=EDGE_CURVE('',#386,#384,#186,.T.);
#462=EDGE_CURVE('',#387,#386,#187,.T.);
#463=EDGE_CURVE('',#385,#387,#188,.T.);
#464=EDGE_CURVE('',#388,#389,#189,.T.);
#465=EDGE_CURVE('',#390,#388,#190,.T.);
#466=EDGE_CURVE('',#390,#391,#191,.T.);
#467=EDGE_CURVE('',#389,#391,#192,.T.);
#468=EDGE_CURVE('',#391,#392,#353,.T.);
#469=EDGE_CURVE('',#393,#390,#354,.T.);
#470=EDGE_CURVE('',#393,#392,#193,.T.);
#471=EDGE_CURVE('',#392,#394,#194,.T.);
#472=EDGE_CURVE('',#395,#393,#195,.T.);
#473=EDGE_CURVE('',#395,#394,#196,.T.);
#474=EDGE_CURVE('',#394,#386,#355,.T.);
#475=EDGE_CURVE('',#387,#395,#356,.T.);
#476=EDGE_CURVE('',#396,#388,#197,.T.);
#477=EDGE_CURVE('',#396,#397,#198,.T.);
#478=EDGE_CURVE('',#398,#397,#199,.T.);
#479=EDGE_CURVE('',#399,#398,#200,.T.);
#480=EDGE_CURVE('',#385,#399,#201,.T.);
#481=EDGE_CURVE('',#399,#400,#202,.T.);
#482=EDGE_CURVE('',#400,#401,#203,.T.);
#483=EDGE_CURVE('',#401,#402,#204,.T.);
#484=EDGE_CURVE('',#402,#403,#205,.T.);
#485=EDGE_CURVE('',#403,#404,#206,.T.);
#486=EDGE_CURVE('',#404,#405,#207,.T.);
#487=EDGE_CURVE('',#405,#396,#208,.T.);
#488=EDGE_CURVE('',#389,#406,#209,.T.);
#489=EDGE_CURVE('',#406,#407,#210,.T.);
#490=EDGE_CURVE('',#407,#408,#357,.T.);
#491=EDGE_CURVE('',#408,#409,#211,.T.);
#492=EDGE_CURVE('',#409,#384,#212,.T.);
#493=EDGE_CURVE('',#407,#410,#213,.T.);
#494=EDGE_CURVE('',#410,#411,#358,.T.);
#495=EDGE_CURVE('',#411,#408,#214,.T.);
#496=EDGE_CURVE('',#406,#412,#215,.T.);
#497=EDGE_CURVE('',#412,#410,#216,.T.);
#498=EDGE_CURVE('',#409,#413,#217,.T.);
#499=EDGE_CURVE('',#413,#412,#218,.T.);
#500=EDGE_CURVE('',#411,#413,#219,.T.);
#501=EDGE_CURVE('',#414,#414,#359,.T.);
#502=EDGE_CURVE('',#415,#415,#360,.T.);
#503=EDGE_CURVE('',#415,#416,#220,.T.);
#504=EDGE_CURVE('',#416,#416,#361,.T.);
#505=EDGE_CURVE('',#417,#418,#221,.T.);
#506=EDGE_CURVE('',#419,#417,#222,.T.);
#507=EDGE_CURVE('',#420,#419,#223,.T.);
#508=EDGE_CURVE('',#421,#420,#224,.T.);
#509=EDGE_CURVE('',#422,#421,#225,.T.);
#510=EDGE_CURVE('',#423,#422,#226,.T.);
#511=EDGE_CURVE('',#424,#423,#227,.T.);
#512=EDGE_CURVE('',#418,#424,#228,.T.);
#513=EDGE_CURVE('',#425,#425,#362,.T.);
#514=EDGE_CURVE('',#416,#414,#229,.T.);
#515=EDGE_CURVE('',#418,#426,#230,.T.);
#516=EDGE_CURVE('',#426,#427,#231,.T.);
#517=EDGE_CURVE('',#417,#427,#232,.T.);
#518=EDGE_CURVE('',#424,#428,#233,.T.);
#519=EDGE_CURVE('',#428,#426,#234,.T.);
#520=EDGE_CURVE('',#423,#429,#235,.T.);
#521=EDGE_CURVE('',#429,#428,#236,.T.);
#522=EDGE_CURVE('',#422,#397,#237,.T.);
#523=EDGE_CURVE('',#397,#429,#238,.T.);
#524=EDGE_CURVE('',#421,#398,#239,.T.);
#525=EDGE_CURVE('',#430,#398,#240,.T.);
#526=EDGE_CURVE('',#420,#430,#241,.T.);
#527=EDGE_CURVE('',#431,#430,#242,.T.);
#528=EDGE_CURVE('',#419,#431,#243,.T.);
#529=EDGE_CURVE('',#427,#431,#244,.T.);
#530=EDGE_CURVE('',#400,#430,#245,.T.);
#531=EDGE_CURVE('',#401,#431,#246,.T.);
#532=EDGE_CURVE('',#427,#402,#247,.T.);
#533=EDGE_CURVE('',#403,#426,#248,.T.);
#534=EDGE_CURVE('',#425,#374,#249,.T.);
#535=EDGE_CURVE('',#365,#383,#250,.T.);
#536=EDGE_CURVE('',#368,#380,#251,.T.);
#537=EDGE_CURVE('',#371,#377,#252,.T.);
#538=EDGE_CURVE('',#404,#428,#253,.T.);
#539=EDGE_CURVE('',#405,#429,#254,.T.);
#540=ORIENTED_EDGE('',*,*,#432,.F.);
#541=ORIENTED_EDGE('',*,*,#433,.T.);
#542=ORIENTED_EDGE('',*,*,#434,.T.);
#543=ORIENTED_EDGE('',*,*,#433,.F.);
#544=ORIENTED_EDGE('',*,*,#434,.F.);
#545=ORIENTED_EDGE('',*,*,#435,.F.);
#546=ORIENTED_EDGE('',*,*,#436,.F.);
#547=ORIENTED_EDGE('',*,*,#437,.T.);
#548=ORIENTED_EDGE('',*,*,#438,.T.);
#549=ORIENTED_EDGE('',*,*,#437,.F.);
#550=ORIENTED_EDGE('',*,*,#438,.F.);
#551=ORIENTED_EDGE('',*,*,#439,.F.);
#552=ORIENTED_EDGE('',*,*,#440,.F.);
#553=ORIENTED_EDGE('',*,*,#441,.T.);
#554=ORIENTED_EDGE('',*,*,#442,.T.);
#555=ORIENTED_EDGE('',*,*,#441,.F.);
#556=ORIENTED_EDGE('',*,*,#442,.F.);
#557=ORIENTED_EDGE('',*,*,#443,.F.);
#558=ORIENTED_EDGE('',*,*,#444,.F.);
#559=ORIENTED_EDGE('',*,*,#445,.T.);
#560=ORIENTED_EDGE('',*,*,#446,.T.);
#561=ORIENTED_EDGE('',*,*,#445,.F.);
#562=ORIENTED_EDGE('',*,*,#446,.F.);
#563=ORIENTED_EDGE('',*,*,#447,.F.);
#564=ORIENTED_EDGE('',*,*,#448,.F.);
#565=ORIENTED_EDGE('',*,*,#449,.T.);
#566=ORIENTED_EDGE('',*,*,#450,.T.);
#567=ORIENTED_EDGE('',*,*,#449,.F.);
#568=ORIENTED_EDGE('',*,*,#450,.F.);
#569=ORIENTED_EDGE('',*,*,#451,.F.);
#570=ORIENTED_EDGE('',*,*,#452,.F.);
#571=ORIENTED_EDGE('',*,*,#453,.T.);
#572=ORIENTED_EDGE('',*,*,#454,.T.);
#573=ORIENTED_EDGE('',*,*,#453,.F.);
#574=ORIENTED_EDGE('',*,*,#454,.F.);
#575=ORIENTED_EDGE('',*,*,#455,.F.);
#576=ORIENTED_EDGE('',*,*,#456,.F.);
#577=ORIENTED_EDGE('',*,*,#457,.T.);
#578=ORIENTED_EDGE('',*,*,#458,.T.);
#579=ORIENTED_EDGE('',*,*,#457,.F.);
#580=ORIENTED_EDGE('',*,*,#458,.F.);
#581=ORIENTED_EDGE('',*,*,#459,.F.);
#582=ORIENTED_EDGE('',*,*,#460,.F.);
#583=ORIENTED_EDGE('',*,*,#461,.F.);
#584=ORIENTED_EDGE('',*,*,#462,.F.);
#585=ORIENTED_EDGE('',*,*,#463,.F.);
#586=ORIENTED_EDGE('',*,*,#464,.F.);
#587=ORIENTED_EDGE('',*,*,#465,.F.);
#588=ORIENTED_EDGE('',*,*,#466,.T.);
#589=ORIENTED_EDGE('',*,*,#467,.F.);
#590=ORIENTED_EDGE('',*,*,#468,.F.);
#591=ORIENTED_EDGE('',*,*,#466,.F.);
#592=ORIENTED_EDGE('',*,*,#469,.F.);
#593=ORIENTED_EDGE('',*,*,#470,.T.);
#594=ORIENTED_EDGE('',*,*,#471,.F.);
#595=ORIENTED_EDGE('',*,*,#470,.F.);
#596=ORIENTED_EDGE('',*,*,#472,.F.);
#597=ORIENTED_EDGE('',*,*,#473,.T.);
#598=ORIENTED_EDGE('',*,*,#474,.F.);
#599=ORIENTED_EDGE('',*,*,#473,.F.);
#600=ORIENTED_EDGE('',*,*,#475,.F.);
#601=ORIENTED_EDGE('',*,*,#462,.T.);
#602=ORIENTED_EDGE('',*,*,#463,.T.);
#603=ORIENTED_EDGE('',*,*,#475,.T.);
#604=ORIENTED_EDGE('',*,*,#472,.T.);
#605=ORIENTED_EDGE('',*,*,#469,.T.);
#606=ORIENTED_EDGE('',*,*,#465,.T.);
#607=ORIENTED_EDGE('',*,*,#476,.F.);
#608=ORIENTED_EDGE('',*,*,#477,.T.);
#609=ORIENTED_EDGE('',*,*,#478,.F.);
#610=ORIENTED_EDGE('',*,*,#479,.F.);
#611=ORIENTED_EDGE('',*,*,#480,.F.);
#612=ORIENTED_EDGE('',*,*,#460,.T.);
#613=ORIENTED_EDGE('',*,*,#480,.T.);
#614=ORIENTED_EDGE('',*,*,#481,.T.);
#615=ORIENTED_EDGE('',*,*,#482,.T.);
#616=ORIENTED_EDGE('',*,*,#483,.T.);
#617=ORIENTED_EDGE('',*,*,#484,.T.);
#618=ORIENTED_EDGE('',*,*,#485,.T.);
#619=ORIENTED_EDGE('',*,*,#486,.T.);
#620=ORIENTED_EDGE('',*,*,#487,.T.);
#621=ORIENTED_EDGE('',*,*,#476,.T.);
#622=ORIENTED_EDGE('',*,*,#464,.T.);
#623=ORIENTED_EDGE('',*,*,#488,.T.);
#624=ORIENTED_EDGE('',*,*,#489,.T.);
#625=ORIENTED_EDGE('',*,*,#490,.T.);
#626=ORIENTED_EDGE('',*,*,#491,.T.);
#627=ORIENTED_EDGE('',*,*,#492,.T.);
#628=ORIENTED_EDGE('',*,*,#444,.T.);
#629=ORIENTED_EDGE('',*,*,#456,.T.);
#630=ORIENTED_EDGE('',*,*,#452,.T.);
#631=ORIENTED_EDGE('',*,*,#448,.T.);
#632=ORIENTED_EDGE('',*,*,#493,.T.);
#633=ORIENTED_EDGE('',*,*,#494,.T.);
#634=ORIENTED_EDGE('',*,*,#495,.T.);
#635=ORIENTED_EDGE('',*,*,#490,.F.);
#636=ORIENTED_EDGE('',*,*,#496,.T.);
#637=ORIENTED_EDGE('',*,*,#497,.T.);
#638=ORIENTED_EDGE('',*,*,#493,.F.);
#639=ORIENTED_EDGE('',*,*,#489,.F.);
#640=ORIENTED_EDGE('',*,*,#461,.T.);
#641=ORIENTED_EDGE('',*,*,#492,.F.);
#642=ORIENTED_EDGE('',*,*,#498,.T.);
#643=ORIENTED_EDGE('',*,*,#499,.T.);
#644=ORIENTED_EDGE('',*,*,#496,.F.);
#645=ORIENTED_EDGE('',*,*,#488,.F.);
#646=ORIENTED_EDGE('',*,*,#467,.T.);
#647=ORIENTED_EDGE('',*,*,#468,.T.);
#648=ORIENTED_EDGE('',*,*,#471,.T.);
#649=ORIENTED_EDGE('',*,*,#474,.T.);
#650=ORIENTED_EDGE('',*,*,#495,.F.);
#651=ORIENTED_EDGE('',*,*,#500,.T.);
#652=ORIENTED_EDGE('',*,*,#498,.F.);
#653=ORIENTED_EDGE('',*,*,#491,.F.);
#654=ORIENTED_EDGE('',*,*,#500,.F.);
#655=ORIENTED_EDGE('',*,*,#494,.F.);
#656=ORIENTED_EDGE('',*,*,#497,.F.);
#657=ORIENTED_EDGE('',*,*,#499,.F.);
#658=ORIENTED_EDGE('',*,*,#501,.F.);
#659=ORIENTED_EDGE('',*,*,#502,.T.);
#660=ORIENTED_EDGE('',*,*,#503,.T.);
#661=ORIENTED_EDGE('',*,*,#504,.T.);
#662=ORIENTED_EDGE('',*,*,#503,.F.);
#663=ORIENTED_EDGE('',*,*,#505,.F.);
#664=ORIENTED_EDGE('',*,*,#506,.F.);
#665=ORIENTED_EDGE('',*,*,#507,.F.);
#666=ORIENTED_EDGE('',*,*,#508,.F.);
#667=ORIENTED_EDGE('',*,*,#509,.F.);
#668=ORIENTED_EDGE('',*,*,#510,.F.);
#669=ORIENTED_EDGE('',*,*,#511,.F.);
#670=ORIENTED_EDGE('',*,*,#512,.F.);
#671=ORIENTED_EDGE('',*,*,#502,.F.);
#672=ORIENTED_EDGE('',*,*,#513,.T.);
#673=ORIENTED_EDGE('',*,*,#440,.T.);
#674=ORIENTED_EDGE('',*,*,#436,.T.);
#675=ORIENTED_EDGE('',*,*,#432,.T.);
#676=ORIENTED_EDGE('',*,*,#504,.F.);
#677=ORIENTED_EDGE('',*,*,#514,.T.);
#678=ORIENTED_EDGE('',*,*,#501,.T.);
#679=ORIENTED_EDGE('',*,*,#514,.F.);
#680=ORIENTED_EDGE('',*,*,#505,.T.);
#681=ORIENTED_EDGE('',*,*,#515,.T.);
#682=ORIENTED_EDGE('',*,*,#516,.T.);
#683=ORIENTED_EDGE('',*,*,#517,.F.);
#684=ORIENTED_EDGE('',*,*,#512,.T.);
#685=ORIENTED_EDGE('',*,*,#518,.T.);
#686=ORIENTED_EDGE('',*,*,#519,.T.);
#687=ORIENTED_EDGE('',*,*,#515,.F.);
#688=ORIENTED_EDGE('',*,*,#511,.T.);
#689=ORIENTED_EDGE('',*,*,#520,.T.);
#690=ORIENTED_EDGE('',*,*,#521,.T.);
#691=ORIENTED_EDGE('',*,*,#518,.F.);
#692=ORIENTED_EDGE('',*,*,#510,.T.);
#693=ORIENTED_EDGE('',*,*,#522,.T.);
#694=ORIENTED_EDGE('',*,*,#523,.T.);
#695=ORIENTED_EDGE('',*,*,#520,.F.);
#696=ORIENTED_EDGE('',*,*,#509,.T.);
#697=ORIENTED_EDGE('',*,*,#524,.T.);
#698=ORIENTED_EDGE('',*,*,#478,.T.);
#699=ORIENTED_EDGE('',*,*,#522,.F.);
#700=ORIENTED_EDGE('',*,*,#525,.T.);
#701=ORIENTED_EDGE('',*,*,#524,.F.);
#702=ORIENTED_EDGE('',*,*,#508,.T.);
#703=ORIENTED_EDGE('',*,*,#526,.T.);
#704=ORIENTED_EDGE('',*,*,#527,.T.);
#705=ORIENTED_EDGE('',*,*,#526,.F.);
#706=ORIENTED_EDGE('',*,*,#507,.T.);
#707=ORIENTED_EDGE('',*,*,#528,.T.);
#708=ORIENTED_EDGE('',*,*,#529,.T.);
#709=ORIENTED_EDGE('',*,*,#528,.F.);
#710=ORIENTED_EDGE('',*,*,#506,.T.);
#711=ORIENTED_EDGE('',*,*,#517,.T.);
#712=ORIENTED_EDGE('',*,*,#525,.F.);
#713=ORIENTED_EDGE('',*,*,#530,.F.);
#714=ORIENTED_EDGE('',*,*,#481,.F.);
#715=ORIENTED_EDGE('',*,*,#479,.T.);
#716=ORIENTED_EDGE('',*,*,#527,.F.);
#717=ORIENTED_EDGE('',*,*,#531,.F.);
#718=ORIENTED_EDGE('',*,*,#482,.F.);
#719=ORIENTED_EDGE('',*,*,#530,.T.);
#720=ORIENTED_EDGE('',*,*,#529,.F.);
#721=ORIENTED_EDGE('',*,*,#532,.T.);
#722=ORIENTED_EDGE('',*,*,#483,.F.);
#723=ORIENTED_EDGE('',*,*,#531,.T.);
#724=ORIENTED_EDGE('',*,*,#516,.F.);
#725=ORIENTED_EDGE('',*,*,#533,.F.);
#726=ORIENTED_EDGE('',*,*,#484,.F.);
#727=ORIENTED_EDGE('',*,*,#532,.F.);
#728=ORIENTED_EDGE('',*,*,#513,.F.);
#729=ORIENTED_EDGE('',*,*,#534,.T.);
#730=ORIENTED_EDGE('',*,*,#447,.T.);
#731=ORIENTED_EDGE('',*,*,#534,.F.);
#732=ORIENTED_EDGE('',*,*,#435,.T.);
#733=ORIENTED_EDGE('',*,*,#535,.T.);
#734=ORIENTED_EDGE('',*,*,#459,.T.);
#735=ORIENTED_EDGE('',*,*,#535,.F.);
#736=ORIENTED_EDGE('',*,*,#439,.T.);
#737=ORIENTED_EDGE('',*,*,#536,.T.);
#738=ORIENTED_EDGE('',*,*,#455,.T.);
#739=ORIENTED_EDGE('',*,*,#536,.F.);
#740=ORIENTED_EDGE('',*,*,#443,.T.);
#741=ORIENTED_EDGE('',*,*,#537,.T.);
#742=ORIENTED_EDGE('',*,*,#451,.T.);
#743=ORIENTED_EDGE('',*,*,#537,.F.);
#744=ORIENTED_EDGE('',*,*,#519,.F.);
#745=ORIENTED_EDGE('',*,*,#538,.F.);
#746=ORIENTED_EDGE('',*,*,#485,.F.);
#747=ORIENTED_EDGE('',*,*,#533,.T.);
#748=ORIENTED_EDGE('',*,*,#521,.F.);
#749=ORIENTED_EDGE('',*,*,#539,.F.);
#750=ORIENTED_EDGE('',*,*,#486,.F.);
#751=ORIENTED_EDGE('',*,*,#538,.T.);
#752=ORIENTED_EDGE('',*,*,#523,.F.);
#753=ORIENTED_EDGE('',*,*,#477,.F.);
#754=ORIENTED_EDGE('',*,*,#487,.F.);
#755=ORIENTED_EDGE('',*,*,#539,.T.);
#756=CYLINDRICAL_SURFACE('',#833,3.5);
#757=CYLINDRICAL_SURFACE('',#838,3.5);
#758=CYLINDRICAL_SURFACE('',#843,3.5);
#759=CYLINDRICAL_SURFACE('',#848,5.);
#760=CYLINDRICAL_SURFACE('',#853,3.);
#761=CYLINDRICAL_SURFACE('',#858,3.);
#762=CYLINDRICAL_SURFACE('',#863,3.);
#763=CYLINDRICAL_SURFACE('',#870,3.);
#764=CYLINDRICAL_SURFACE('',#874,3.);
#765=CYLINDRICAL_SURFACE('',#880,18.35);
#766=CYLINDRICAL_SURFACE('',#892,16.5);
#767=CYLINDRICAL_SURFACE('',#905,3.55);
#768=CYLINDRICAL_SURFACE('',#906,1.9);
#769=CYLINDRICAL_SURFACE('',#907,1.9);
#770=CYLINDRICAL_SURFACE('',#908,1.9);
#771=ADVANCED_FACE('',(#65),#756,.F.);
#772=ADVANCED_FACE('',(#66,#16),#33,.T.);
#773=ADVANCED_FACE('',(#67),#757,.F.);
#774=ADVANCED_FACE('',(#68,#17),#34,.T.);
#775=ADVANCED_FACE('',(#69),#758,.F.);
#776=ADVANCED_FACE('',(#70,#18),#35,.T.);
#777=ADVANCED_FACE('',(#71),#759,.F.);
#778=ADVANCED_FACE('',(#72,#19),#36,.T.);
#779=ADVANCED_FACE('',(#73),#760,.F.);
#780=ADVANCED_FACE('',(#74,#20),#37,.T.);
#781=ADVANCED_FACE('',(#75),#761,.F.);
#782=ADVANCED_FACE('',(#76,#21),#38,.T.);
#783=ADVANCED_FACE('',(#77),#762,.F.);
#784=ADVANCED_FACE('',(#78,#22),#39,.T.);
#785=ADVANCED_FACE('',(#79),#40,.F.);
#786=ADVANCED_FACE('',(#80),#41,.F.);
#787=ADVANCED_FACE('',(#81),#763,.F.);
#788=ADVANCED_FACE('',(#82),#42,.F.);
#789=ADVANCED_FACE('',(#83),#764,.F.);
#790=ADVANCED_FACE('',(#84),#43,.T.);
#791=ADVANCED_FACE('',(#85,#23,#24,#25,#26),#44,.F.);
#792=ADVANCED_FACE('',(#86),#765,.F.);
#793=ADVANCED_FACE('',(#87),#45,.F.);
#794=ADVANCED_FACE('',(#88),#46,.F.);
#795=ADVANCED_FACE('',(#89),#47,.F.);
#796=ADVANCED_FACE('',(#90,#27),#48,.T.);
#797=ADVANCED_FACE('',(#91),#15,.F.);
#798=ADVANCED_FACE('',(#92,#28,#29,#30,#31,#32),#49,.T.);
#799=ADVANCED_FACE('',(#93),#766,.F.);
#800=ADVANCED_FACE('',(#94),#50,.T.);
#801=ADVANCED_FACE('',(#95),#51,.T.);
#802=ADVANCED_FACE('',(#96),#52,.T.);
#803=ADVANCED_FACE('',(#97),#53,.T.);
#804=ADVANCED_FACE('',(#98),#54,.T.);
#805=ADVANCED_FACE('',(#99),#55,.T.);
#806=ADVANCED_FACE('',(#100),#56,.T.);
#807=ADVANCED_FACE('',(#101),#57,.T.);
#808=ADVANCED_FACE('',(#102),#58,.T.);
#809=ADVANCED_FACE('',(#103),#59,.T.);
#810=ADVANCED_FACE('',(#104),#60,.T.);
#811=ADVANCED_FACE('',(#105),#61,.T.);
#812=ADVANCED_FACE('',(#106),#767,.F.);
#813=ADVANCED_FACE('',(#107),#768,.F.);
#814=ADVANCED_FACE('',(#108),#769,.F.);
#815=ADVANCED_FACE('',(#109),#770,.F.);
#816=ADVANCED_FACE('',(#110),#62,.T.);
#817=ADVANCED_FACE('',(#111),#63,.T.);
#818=ADVANCED_FACE('',(#112),#64,.T.);
#819=CLOSED_SHELL('',(#771,#772,#773,#774,#775,#776,#777,#778,#779,#780,
#781,#782,#783,#784,#785,#786,#787,#788,#789,#790,#791,#792,#793,#794,#795,
#796,#797,#798,#799,#800,#801,#802,#803,#804,#805,#806,#807,#808,#809,#810,
#811,#812,#813,#814,#815,#816,#817,#818));
#820=DERIVED_UNIT_ELEMENT(#822,1.);
#821=DERIVED_UNIT_ELEMENT(#1380,-3.);
#822=(
MASS_UNIT()
NAMED_UNIT(*)
SI_UNIT(.KILO.,.GRAM.)
);
#823=DERIVED_UNIT((#820,#821));
#824=MEASURE_REPRESENTATION_ITEM('density measure',
POSITIVE_RATIO_MEASURE(7850.),#823);
#825=PROPERTY_DEFINITION_REPRESENTATION(#830,#827);
#826=PROPERTY_DEFINITION_REPRESENTATION(#831,#828);
#827=REPRESENTATION('material name',(#829),#1377);
#828=REPRESENTATION('density',(#824),#1377);
#829=DESCRIPTIVE_REPRESENTATION_ITEM('Stahl','Stahl');
#830=PROPERTY_DEFINITION('material property','material name',#1387);
#831=PROPERTY_DEFINITION('material property','density of part',#1387);
#832=AXIS2_PLACEMENT_3D('',#1149,#912,#913);
#833=AXIS2_PLACEMENT_3D('',#1150,#914,#915);
#834=AXIS2_PLACEMENT_3D('',#1152,#916,#917);
#835=AXIS2_PLACEMENT_3D('',#1155,#919,#920);
#836=AXIS2_PLACEMENT_3D('',#1156,#921,#922);
#837=AXIS2_PLACEMENT_3D('',#1158,#923,#924);
#838=AXIS2_PLACEMENT_3D('',#1159,#925,#926);
#839=AXIS2_PLACEMENT_3D('',#1161,#927,#928);
#840=AXIS2_PLACEMENT_3D('',#1164,#930,#931);
#841=AXIS2_PLACEMENT_3D('',#1165,#932,#933);
#842=AXIS2_PLACEMENT_3D('',#1167,#934,#935);
#843=AXIS2_PLACEMENT_3D('',#1168,#936,#937);
#844=AXIS2_PLACEMENT_3D('',#1170,#938,#939);
#845=AXIS2_PLACEMENT_3D('',#1173,#941,#942);
#846=AXIS2_PLACEMENT_3D('',#1174,#943,#944);
#847=AXIS2_PLACEMENT_3D('',#1176,#945,#946);
#848=AXIS2_PLACEMENT_3D('',#1177,#947,#948);
#849=AXIS2_PLACEMENT_3D('',#1179,#949,#950);
#850=AXIS2_PLACEMENT_3D('',#1182,#952,#953);
#851=AXIS2_PLACEMENT_3D('',#1183,#954,#955);
#852=AXIS2_PLACEMENT_3D('',#1185,#956,#957);
#853=AXIS2_PLACEMENT_3D('',#1186,#958,#959);
#854=AXIS2_PLACEMENT_3D('',#1188,#960,#961);
#855=AXIS2_PLACEMENT_3D('',#1191,#963,#964);
#856=AXIS2_PLACEMENT_3D('',#1192,#965,#966);
#857=AXIS2_PLACEMENT_3D('',#1194,#967,#968);
#858=AXIS2_PLACEMENT_3D('',#1195,#969,#970);
#859=AXIS2_PLACEMENT_3D('',#1197,#971,#972);
#860=AXIS2_PLACEMENT_3D('',#1200,#974,#975);
#861=AXIS2_PLACEMENT_3D('',#1201,#976,#977);
#862=AXIS2_PLACEMENT_3D('',#1203,#978,#979);
#863=AXIS2_PLACEMENT_3D('',#1204,#980,#981);
#864=AXIS2_PLACEMENT_3D('',#1206,#982,#983);
#865=AXIS2_PLACEMENT_3D('',#1209,#985,#986);
#866=AXIS2_PLACEMENT_3D('',#1210,#987,#988);
#867=AXIS2_PLACEMENT_3D('',#1212,#989,#990);
#868=AXIS2_PLACEMENT_3D('',#1213,#991,#992);
#869=AXIS2_PLACEMENT_3D('',#1222,#997,#998);
#870=AXIS2_PLACEMENT_3D('',#1231,#1003,#1004);
#871=AXIS2_PLACEMENT_3D('',#1233,#1005,#1006);
#872=AXIS2_PLACEMENT_3D('',#1235,#1007,#1008);
#873=AXIS2_PLACEMENT_3D('',#1237,#1010,#1011);
#874=AXIS2_PLACEMENT_3D('',#1243,#1015,#1016);
#875=AXIS2_PLACEMENT_3D('',#1244,#1017,#1018);
#876=AXIS2_PLACEMENT_3D('',#1245,#1019,#1020);
#877=AXIS2_PLACEMENT_3D('',#1246,#1021,#1022);
#878=AXIS2_PLACEMENT_3D('',#1256,#1028,#1029);
#879=AXIS2_PLACEMENT_3D('',#1275,#1039,#1040);
#880=AXIS2_PLACEMENT_3D('',#1279,#1043,#1044);
#881=AXIS2_PLACEMENT_3D('',#1283,#1046,#1047);
#882=AXIS2_PLACEMENT_3D('',#1285,#1049,#1050);
#883=AXIS2_PLACEMENT_3D('',#1289,#1053,#1054);
#884=AXIS2_PLACEMENT_3D('',#1293,#1057,#1058);
#885=AXIS2_PLACEMENT_3D('',#1295,#1060,#1061);
#886=AXIS2_PLACEMENT_3D('',#1297,#1062,#1063);
#887=AXIS2_PLACEMENT_3D('',#1298,#1064,#1065);
#888=AXIS2_PLACEMENT_3D('',#1300,#1066,#1067);
#889=AXIS2_PLACEMENT_3D('',#1303,#1069,#1070);
#890=AXIS2_PLACEMENT_3D('',#1304,#1071,#1072);
#891=AXIS2_PLACEMENT_3D('',#1322,#1081,#1082);
#892=AXIS2_PLACEMENT_3D('',#1323,#1083,#1084);
#893=AXIS2_PLACEMENT_3D('',#1325,#1086,#1087);
#894=AXIS2_PLACEMENT_3D('',#1331,#1091,#1092);
#895=AXIS2_PLACEMENT_3D('',#1335,#1095,#1096);
#896=AXIS2_PLACEMENT_3D('',#1339,#1099,#1100);
#897=AXIS2_PLACEMENT_3D('',#1342,#1103,#1104);
#898=AXIS2_PLACEMENT_3D('',#1344,#1106,#1107);
#899=AXIS2_PLACEMENT_3D('',#1348,#1110,#1111);
#900=AXIS2_PLACEMENT_3D('',#1352,#1114,#1115);
#901=AXIS2_PLACEMENT_3D('',#1354,#1117,#1118);
#902=AXIS2_PLACEMENT_3D('',#1356,#1120,#1121);
#903=AXIS2_PLACEMENT_3D('',#1358,#1123,#1124);
#904=AXIS2_PLACEMENT_3D('',#1360,#1126,#1127);
#905=AXIS2_PLACEMENT_3D('',#1362,#1129,#1130);
#906=AXIS2_PLACEMENT_3D('',#1364,#1132,#1133);
#907=AXIS2_PLACEMENT_3D('',#1366,#1135,#1136);
#908=AXIS2_PLACEMENT_3D('',#1368,#1138,#1139);
#909=AXIS2_PLACEMENT_3D('',#1370,#1141,#1142);
#910=AXIS2_PLACEMENT_3D('',#1372,#1144,#1145);
#911=AXIS2_PLACEMENT_3D('',#1374,#1147,#1148);
#912=DIRECTION('axis',(0.,0.,1.));
#913=DIRECTION('refdir',(1.,0.,0.));
#914=DIRECTION('center_axis',(0.,0.,-1.));
#915=DIRECTION('ref_axis',(-1.,0.,0.));
#916=DIRECTION('center_axis',(0.,0.,-1.));
#917=DIRECTION('ref_axis',(-1.,0.,0.));
#918=DIRECTION('',(0.,0.,-1.));
#919=DIRECTION('center_axis',(0.,0.,-1.));
#920=DIRECTION('ref_axis',(-1.,0.,0.));
#921=DIRECTION('center_axis',(0.,0.,1.));
#922=DIRECTION('ref_axis',(-1.,0.,0.));
#923=DIRECTION('center_axis',(0.,0.,1.));
#924=DIRECTION('ref_axis',(1.,0.,0.));
#925=DIRECTION('center_axis',(0.,0.,-1.));
#926=DIRECTION('ref_axis',(-1.,0.,0.));
#927=DIRECTION('center_axis',(0.,0.,-1.));
#928=DIRECTION('ref_axis',(-1.,0.,0.));
#929=DIRECTION('',(0.,0.,-1.));
#930=DIRECTION('center_axis',(0.,0.,-1.));
#931=DIRECTION('ref_axis',(-1.,0.,0.));
#932=DIRECTION('center_axis',(0.,0.,1.));
#933=DIRECTION('ref_axis',(-1.,0.,0.));
#934=DIRECTION('center_axis',(0.,0.,1.));
#935=DIRECTION('ref_axis',(1.,0.,0.));
#936=DIRECTION('center_axis',(0.,0.,-1.));
#937=DIRECTION('ref_axis',(-1.,0.,0.));
#938=DIRECTION('center_axis',(0.,0.,-1.));
#939=DIRECTION('ref_axis',(-1.,0.,0.));
#940=DIRECTION('',(0.,0.,-1.));
#941=DIRECTION('center_axis',(0.,0.,-1.));
#942=DIRECTION('ref_axis',(-1.,0.,0.));
#943=DIRECTION('center_axis',(0.,0.,1.));
#944=DIRECTION('ref_axis',(-1.,0.,0.));
#945=DIRECTION('center_axis',(0.,0.,1.));
#946=DIRECTION('ref_axis',(1.,0.,0.));
#947=DIRECTION('center_axis',(0.,0.,1.));
#948=DIRECTION('ref_axis',(1.,0.,0.));
#949=DIRECTION('center_axis',(0.,0.,1.));
#950=DIRECTION('ref_axis',(1.,0.,0.));
#951=DIRECTION('',(0.,0.,1.));
#952=DIRECTION('center_axis',(0.,0.,1.));
#953=DIRECTION('ref_axis',(1.,0.,0.));
#954=DIRECTION('center_axis',(0.,0.,-1.));
#955=DIRECTION('ref_axis',(1.,0.,0.));
#956=DIRECTION('center_axis',(0.,0.,-1.));
#957=DIRECTION('ref_axis',(1.,0.,0.));
#958=DIRECTION('center_axis',(0.,0.,1.));
#959=DIRECTION('ref_axis',(1.,0.,0.));
#960=DIRECTION('center_axis',(0.,0.,1.));
#961=DIRECTION('ref_axis',(1.,0.,0.));
#962=DIRECTION('',(0.,0.,1.));
#963=DIRECTION('center_axis',(0.,0.,1.));
#964=DIRECTION('ref_axis',(1.,0.,0.));
#965=DIRECTION('center_axis',(0.,0.,-1.));
#966=DIRECTION('ref_axis',(1.,0.,0.));
#967=DIRECTION('center_axis',(0.,0.,-1.));
#968=DIRECTION('ref_axis',(1.,0.,0.));
#969=DIRECTION('center_axis',(0.,0.,1.));
#970=DIRECTION('ref_axis',(1.,0.,0.));
#971=DIRECTION('center_axis',(0.,0.,1.));
#972=DIRECTION('ref_axis',(1.,0.,0.));
#973=DIRECTION('',(0.,0.,1.));
#974=DIRECTION('center_axis',(0.,0.,1.));
#975=DIRECTION('ref_axis',(1.,0.,0.));
#976=DIRECTION('center_axis',(0.,0.,-1.));
#977=DIRECTION('ref_axis',(1.,0.,0.));
#978=DIRECTION('center_axis',(0.,0.,-1.));
#979=DIRECTION('ref_axis',(1.,0.,0.));
#980=DIRECTION('center_axis',(0.,0.,1.));
#981=DIRECTION('ref_axis',(1.,0.,0.));
#982=DIRECTION('center_axis',(0.,0.,1.));
#983=DIRECTION('ref_axis',(1.,0.,0.));
#984=DIRECTION('',(0.,0.,1.));
#985=DIRECTION('center_axis',(0.,0.,1.));
#986=DIRECTION('ref_axis',(1.,0.,0.));
#987=DIRECTION('center_axis',(0.,0.,-1.));
#988=DIRECTION('ref_axis',(1.,0.,0.));
#989=DIRECTION('center_axis',(0.,0.,-1.));
#990=DIRECTION('ref_axis',(1.,0.,0.));
#991=DIRECTION('center_axis',(-1.,0.,0.));
#992=DIRECTION('ref_axis',(0.,0.,1.));
#993=DIRECTION('',(0.,-1.,0.));
#994=DIRECTION('',(0.,0.,-1.));
#995=DIRECTION('',(0.,1.,0.));
#996=DIRECTION('',(0.,0.,1.));
#997=DIRECTION('center_axis',(1.,0.,0.));
#998=DIRECTION('ref_axis',(0.,0.,-1.));
#999=DIRECTION('',(0.,1.,0.));
#1000=DIRECTION('',(0.,0.,-1.));
#1001=DIRECTION('',(0.,1.,0.));
#1002=DIRECTION('',(0.,0.,1.));
#1003=DIRECTION('center_axis',(0.,1.,0.));
#1004=DIRECTION('ref_axis',(0.,0.,-1.));
#1005=DIRECTION('center_axis',(0.,-1.,0.));
#1006=DIRECTION('ref_axis',(0.,0.,-1.));
#1007=DIRECTION('center_axis',(0.,1.,0.));
#1008=DIRECTION('ref_axis',(0.,0.,-1.));
#1009=DIRECTION('',(0.,1.,0.));
#1010=DIRECTION('center_axis',(-1.32169407693471E-16,0.,1.));
#1011=DIRECTION('ref_axis',(1.,0.,1.32169407693471E-16));
#1012=DIRECTION('',(-1.,0.,-1.32169407693471E-16));
#1013=DIRECTION('',(1.,0.,1.32169407693471E-16));
#1014=DIRECTION('',(0.,1.,0.));
#1015=DIRECTION('center_axis',(0.,1.,0.));
#1016=DIRECTION('ref_axis',(0.,0.,1.));
#1017=DIRECTION('center_axis',(0.,-1.,0.));
#1018=DIRECTION('ref_axis',(0.,0.,1.));
#1019=DIRECTION('center_axis',(0.,1.,0.));
#1020=DIRECTION('ref_axis',(0.,0.,1.));
#1021=DIRECTION('center_axis',(0.,-1.,0.));
#1022=DIRECTION('ref_axis',(1.,0.,0.));
#1023=DIRECTION('',(-1.,0.,0.));
#1024=DIRECTION('',(0.,0.,1.));
#1025=DIRECTION('',(1.,0.,0.));
#1026=DIRECTION('',(0.,0.,1.));
#1027=DIRECTION('',(-1.,0.,0.));
#1028=DIRECTION('center_axis',(0.,0.,1.));
#1029=DIRECTION('ref_axis',(1.,0.,0.));
#1030=DIRECTION('',(-0.707106781186548,0.707106781186547,0.));
#1031=DIRECTION('',(0.,1.,0.));
#1032=DIRECTION('',(0.707106781186548,0.707106781186547,0.));
#1033=DIRECTION('',(1.,0.,0.));
#1034=DIRECTION('',(0.707106781186547,-0.707106781186548,0.));
#1035=DIRECTION('',(-9.86864910777917E-17,-1.,0.));
#1036=DIRECTION('',(-0.707106781186547,-0.707106781186548,0.));
#1037=DIRECTION('',(1.,0.,0.));
#1038=DIRECTION('',(0.451241924540495,0.892401661549882,0.));
#1039=DIRECTION('center_axis',(0.,0.,1.));
#1040=DIRECTION('ref_axis',(1.,0.,0.));
#1041=DIRECTION('',(0.451241924540495,-0.892401661549882,0.));
#1042=DIRECTION('',(1.,0.,0.));
#1043=DIRECTION('center_axis',(0.,0.,1.));
#1044=DIRECTION('ref_axis',(6.12323399573677E-17,1.,0.));
#1045=DIRECTION('',(0.,0.,1.));
#1046=DIRECTION('center_axis',(0.,0.,1.));
#1047=DIRECTION('ref_axis',(1.,0.,0.));
#1048=DIRECTION('',(0.,0.,-1.));
#1049=DIRECTION('center_axis',(0.892401661549882,-0.451241924540495,0.));
#1050=DIRECTION('ref_axis',(0.451241924540495,0.892401661549882,0.));
#1051=DIRECTION('',(0.,0.,1.));
#1052=DIRECTION('',(0.451241924540495,0.892401661549882,0.));
#1053=DIRECTION('center_axis',(0.,-1.,0.));
#1054=DIRECTION('ref_axis',(1.,0.,0.));
#1055=DIRECTION('',(0.,0.,1.));
#1056=DIRECTION('',(1.,0.,0.));
#1057=DIRECTION('center_axis',(-0.892401661549882,-0.451241924540495,0.));
#1058=DIRECTION('ref_axis',(0.451241924540495,-0.892401661549882,0.));
#1059=DIRECTION('',(0.451241924540495,-0.892401661549882,0.));
#1060=DIRECTION('center_axis',(0.,0.,-1.));
#1061=DIRECTION('ref_axis',(1.,0.,0.));
#1062=DIRECTION('center_axis',(0.,0.,-1.));
#1063=DIRECTION('ref_axis',(1.,0.,0.));
#1064=DIRECTION('center_axis',(0.,0.,1.));
#1065=DIRECTION('ref_axis',(1.,0.,0.));
#1066=DIRECTION('center_axis',(0.,0.,1.));
#1067=DIRECTION('ref_axis',(1.,0.,0.));
#1068=DIRECTION('',(0.894427190999916,1.09535739652841E-16,-0.447213595499958));
#1069=DIRECTION('center_axis',(0.,0.,-1.));
#1070=DIRECTION('ref_axis',(1.,0.,0.));
#1071=DIRECTION('center_axis',(0.,0.,1.));
#1072=DIRECTION('ref_axis',(1.,0.,0.));
#1073=DIRECTION('',(1.,0.,0.));
#1074=DIRECTION('',(0.707106781186548,0.707106781186547,0.));
#1075=DIRECTION('',(0.,1.,0.));
#1076=DIRECTION('',(-0.707106781186548,0.707106781186547,0.));
#1077=DIRECTION('',(-1.,0.,0.));
#1078=DIRECTION('',(-0.707106781186547,-0.707106781186548,0.));
#1079=DIRECTION('',(-9.86864910777917E-17,-1.,0.));
#1080=DIRECTION('',(0.707106781186547,-0.707106781186548,0.));
#1081=DIRECTION('center_axis',(0.,0.,-1.));
#1082=DIRECTION('ref_axis',(1.,0.,0.));
#1083=DIRECTION('center_axis',(0.,0.,1.));
#1084=DIRECTION('ref_axis',(1.,0.,0.));
#1085=DIRECTION('',(0.,0.,-1.));
#1086=DIRECTION('center_axis',(0.,0.707106781186547,0.707106781186548));
#1087=DIRECTION('ref_axis',(1.,0.,0.));
#1088=DIRECTION('',(0.28108463771482,0.678598344545847,-0.678598344545847));
#1089=DIRECTION('',(-1.,0.,0.));
#1090=DIRECTION('',(-0.281084637714823,0.678598344545847,-0.678598344545846));
#1091=DIRECTION('center_axis',(0.5,0.499999999999999,0.707106781186548));
#1092=DIRECTION('ref_axis',(0.816496580927726,0.,-0.577350269189625));
#1093=DIRECTION('',(0.678598344545848,0.281084637714817,-0.678598344545848));
#1094=DIRECTION('',(-0.707106781186547,0.707106781186548,0.));
#1095=DIRECTION('center_axis',(0.707106781186548,-6.97818870526122E-17,
0.707106781186547));
#1096=DIRECTION('ref_axis',(0.707106781186547,0.,-0.707106781186548));
#1097=DIRECTION('',(0.678598344545847,-0.281084637714821,-0.678598344545847));
#1098=DIRECTION('',(9.86864910777917E-17,1.,0.));
#1099=DIRECTION('center_axis',(0.5,-0.499999999999999,0.707106781186548));
#1100=DIRECTION('ref_axis',(0.816496580927726,0.,-0.577350269189625));
#1101=DIRECTION('',(0.28108463771482,-0.678598344545847,-0.678598344545847));
#1102=DIRECTION('',(0.707106781186547,0.707106781186548,0.));
#1103=DIRECTION('center_axis',(0.,-0.707106781186547,0.707106781186548));
#1104=DIRECTION('ref_axis',(1.,0.,0.));
#1105=DIRECTION('',(-0.281084637714824,-0.678598344545846,-0.678598344545847));
#1106=DIRECTION('center_axis',(-0.499999999999999,-0.5,0.707106781186548));
#1107=DIRECTION('ref_axis',(0.816496580927727,0.,0.577350269189625));
#1108=DIRECTION('',(0.707106781186548,-0.707106781186547,0.));
#1109=DIRECTION('',(-0.678598344545847,-0.281084637714819,-0.678598344545847));
#1110=DIRECTION('center_axis',(-0.707106781186547,0.,0.707106781186548));
#1111=DIRECTION('ref_axis',(0.707106781186548,0.,0.707106781186547));
#1112=DIRECTION('',(0.,-1.,0.));
#1113=DIRECTION('',(-0.678598344545845,0.28108463771483,-0.678598344545845));
#1114=DIRECTION('center_axis',(-0.499999999999998,0.5,0.707106781186549));
#1115=DIRECTION('ref_axis',(0.816496580927727,0.,0.577350269189624));
#1116=DIRECTION('',(-0.707106781186548,-0.707106781186547,0.));
#1117=DIRECTION('center_axis',(-0.707106781186547,-0.707106781186548,0.));
#1118=DIRECTION('ref_axis',(0.707106781186548,-0.707106781186547,0.));
#1119=DIRECTION('',(0.,0.,1.));
#1120=DIRECTION('center_axis',(-1.,0.,0.));
#1121=DIRECTION('ref_axis',(0.,-1.,0.));
#1122=DIRECTION('',(0.,0.,1.));
#1123=DIRECTION('center_axis',(-0.707106781186547,0.707106781186548,0.));
#1124=DIRECTION('ref_axis',(-0.707106781186548,-0.707106781186547,0.));
#1125=DIRECTION('',(0.,0.,-1.));
#1126=DIRECTION('center_axis',(0.,1.,0.));
#1127=DIRECTION('ref_axis',(-1.,0.,0.));
#1128=DIRECTION('',(0.,0.,1.));
#1129=DIRECTION('center_axis',(0.,0.,1.));
#1130=DIRECTION('ref_axis',(1.,0.,0.));
#1131=DIRECTION('',(0.,0.,-1.));
#1132=DIRECTION('center_axis',(0.,0.,1.));
#1133=DIRECTION('ref_axis',(1.,0.,0.));
#1134=DIRECTION('',(0.,0.,-1.));
#1135=DIRECTION('center_axis',(0.,0.,1.));
#1136=DIRECTION('ref_axis',(1.,0.,0.));
#1137=DIRECTION('',(0.,0.,-1.));
#1138=DIRECTION('center_axis',(0.,0.,1.));
#1139=DIRECTION('ref_axis',(1.,0.,0.));
#1140=DIRECTION('',(0.,0.,-1.));
#1141=DIRECTION('center_axis',(0.707106781186548,0.707106781186547,0.));
#1142=DIRECTION('ref_axis',(-0.707106781186547,0.707106781186548,0.));
#1143=DIRECTION('',(0.,0.,1.));
#1144=DIRECTION('center_axis',(1.,-9.86864910777917E-17,0.));
#1145=DIRECTION('ref_axis',(9.86864910777917E-17,1.,0.));
#1146=DIRECTION('',(0.,0.,1.));
#1147=DIRECTION('center_axis',(0.707106781186548,-0.707106781186547,0.));
#1148=DIRECTION('ref_axis',(0.707106781186547,0.707106781186548,0.));
#1149=CARTESIAN_POINT('',(0.,0.,0.));
#1150=CARTESIAN_POINT('Origin',(-6.61522368914977,43.3847763108502,3.));
#1151=CARTESIAN_POINT('',(-3.11522368914977,43.3847763108502,3.));
#1152=CARTESIAN_POINT('Origin',(-6.61522368914977,43.3847763108502,3.));
#1153=CARTESIAN_POINT('',(-3.11522368914977,43.3847763108502,0.600000000000001));
#1154=CARTESIAN_POINT('',(-3.11522368914977,43.3847763108502,3.));
#1155=CARTESIAN_POINT('Origin',(-6.61522368914977,43.3847763108502,0.600000000000001));
#1156=CARTESIAN_POINT('Origin',(-6.61522368914977,43.3847763108502,0.600000000000001));
#1157=CARTESIAN_POINT('',(-8.51522368914977,43.3847763108502,0.600000000000001));
#1158=CARTESIAN_POINT('Origin',(-6.61522368914977,43.3847763108502,0.600000000000001));
#1159=CARTESIAN_POINT('Origin',(-43.3847763108502,43.3847763108502,3.));
#1160=CARTESIAN_POINT('',(-39.8847763108502,43.3847763108502,3.));
#1161=CARTESIAN_POINT('Origin',(-43.3847763108502,43.3847763108502,3.));
#1162=CARTESIAN_POINT('',(-39.8847763108502,43.3847763108502,0.600000000000001));
#1163=CARTESIAN_POINT('',(-39.8847763108502,43.3847763108502,3.));
#1164=CARTESIAN_POINT('Origin',(-43.3847763108502,43.3847763108502,0.600000000000001));
#1165=CARTESIAN_POINT('Origin',(-43.3847763108502,43.3847763108502,0.600000000000001));
#1166=CARTESIAN_POINT('',(-45.2847763108502,43.3847763108502,0.600000000000001));
#1167=CARTESIAN_POINT('Origin',(-43.3847763108502,43.3847763108502,0.600000000000001));
#1168=CARTESIAN_POINT('Origin',(-43.3847763108502,6.61522368914977,3.));
#1169=CARTESIAN_POINT('',(-39.8847763108502,6.61522368914977,3.));
#1170=CARTESIAN_POINT('Origin',(-43.3847763108502,6.61522368914977,3.));
#1171=CARTESIAN_POINT('',(-39.8847763108502,6.61522368914977,0.600000000000001));
#1172=CARTESIAN_POINT('',(-39.8847763108502,6.61522368914977,3.));
#1173=CARTESIAN_POINT('Origin',(-43.3847763108502,6.61522368914977,0.600000000000001));
#1174=CARTESIAN_POINT('Origin',(-43.3847763108502,6.61522368914977,0.600000000000001));
#1175=CARTESIAN_POINT('',(-45.2847763108502,6.61522368914977,0.600000000000001));
#1176=CARTESIAN_POINT('Origin',(-43.3847763108502,6.61522368914977,0.600000000000001));
#1177=CARTESIAN_POINT('Origin',(-8.02943725152286,8.02943725152286,-7.));
#1178=CARTESIAN_POINT('',(-13.0294372515229,8.02943725152286,-7.));
#1179=CARTESIAN_POINT('Origin',(-8.02943725152286,8.02943725152286,-7.));
#1180=CARTESIAN_POINT('',(-13.0294372515229,8.02943725152286,-4.));
#1181=CARTESIAN_POINT('',(-13.0294372515229,8.02943725152286,-7.));
#1182=CARTESIAN_POINT('Origin',(-8.02943725152286,8.02943725152286,-4.));
#1183=CARTESIAN_POINT('Origin',(-8.02943725152286,8.02943725152286,-4.));
#1184=CARTESIAN_POINT('',(-11.5794372515229,8.02943725152286,-4.));
#1185=CARTESIAN_POINT('Origin',(-8.02943725152286,8.02943725152286,-4.));
#1186=CARTESIAN_POINT('Origin',(-43.3847763108502,6.61522368914977,-7.));
#1187=CARTESIAN_POINT('',(-46.3847763108502,6.61522368914977,-7.));
#1188=CARTESIAN_POINT('Origin',(-43.3847763108502,6.61522368914977,-7.));
#1189=CARTESIAN_POINT('',(-46.3847763108502,6.61522368914977,-3.));
#1190=CARTESIAN_POINT('',(-46.3847763108502,6.61522368914977,-7.));
#1191=CARTESIAN_POINT('Origin',(-43.3847763108502,6.61522368914977,-3.));
#1192=CARTESIAN_POINT('Origin',(-43.3847763108502,6.61522368914977,-3.));
#1193=CARTESIAN_POINT('',(-45.2847763108502,6.61522368914977,-3.));
#1194=CARTESIAN_POINT('Origin',(-43.3847763108502,6.61522368914977,-3.));
#1195=CARTESIAN_POINT('Origin',(-43.3847763108502,43.3847763108502,-7.));
#1196=CARTESIAN_POINT('',(-46.3847763108502,43.3847763108502,-7.));
#1197=CARTESIAN_POINT('Origin',(-43.3847763108502,43.3847763108502,-7.));
#1198=CARTESIAN_POINT('',(-46.3847763108502,43.3847763108502,-3.));
#1199=CARTESIAN_POINT('',(-46.3847763108502,43.3847763108502,-7.));
#1200=CARTESIAN_POINT('Origin',(-43.3847763108502,43.3847763108502,-3.));
#1201=CARTESIAN_POINT('Origin',(-43.3847763108502,43.3847763108502,-3.));
#1202=CARTESIAN_POINT('',(-45.2847763108502,43.3847763108502,-3.));
#1203=CARTESIAN_POINT('Origin',(-43.3847763108502,43.3847763108502,-3.));
#1204=CARTESIAN_POINT('Origin',(-6.61522368914977,43.3847763108502,-7.));
#1205=CARTESIAN_POINT('',(-9.61522368914977,43.3847763108502,-7.));
#1206=CARTESIAN_POINT('Origin',(-6.61522368914977,43.3847763108502,-7.));
#1207=CARTESIAN_POINT('',(-9.61522368914977,43.3847763108502,-3.));
#1208=CARTESIAN_POINT('',(-9.61522368914977,43.3847763108502,-7.));
#1209=CARTESIAN_POINT('Origin',(-6.61522368914977,43.3847763108502,-3.));
#1210=CARTESIAN_POINT('Origin',(-6.61522368914977,43.3847763108502,-3.));
#1211=CARTESIAN_POINT('',(-8.51522368914977,43.3847763108502,-3.));
#1212=CARTESIAN_POINT('Origin',(-6.61522368914977,43.3847763108502,-3.));
#1213=CARTESIAN_POINT('Origin',(-30.1,0.,-8.8));
#1214=CARTESIAN_POINT('',(-30.1,3.55,-7.));
#1215=CARTESIAN_POINT('',(-30.1,0.,-7.));
#1216=CARTESIAN_POINT('',(-30.1,12.5,-7.));
#1217=CARTESIAN_POINT('',(-30.1,3.55,-3.8));
#1218=CARTESIAN_POINT('',(-30.1,3.55,-4.4));
#1219=CARTESIAN_POINT('',(-30.1,0.,-3.8));
#1220=CARTESIAN_POINT('',(-30.1,0.,-3.8));
#1221=CARTESIAN_POINT('',(-30.1,0.,-4.4));
#1222=CARTESIAN_POINT('Origin',(-19.9,0.,-3.8));
#1223=CARTESIAN_POINT('',(-19.9,0.,-7.));
#1224=CARTESIAN_POINT('',(-19.9,3.55,-7.));
#1225=CARTESIAN_POINT('',(-19.9,12.5,-7.));
#1226=CARTESIAN_POINT('',(-19.9,0.,-3.8));
#1227=CARTESIAN_POINT('',(-19.9,0.,-1.9));
#1228=CARTESIAN_POINT('',(-19.9,3.55,-3.8));
#1229=CARTESIAN_POINT('',(-19.9,0.,-3.8));
#1230=CARTESIAN_POINT('',(-19.9,3.55,-1.9));
#1231=CARTESIAN_POINT('Origin',(-22.9,0.,-3.8));
#1232=CARTESIAN_POINT('',(-22.9,3.55,-0.799999999999997));
#1233=CARTESIAN_POINT('Origin',(-22.9,3.55,-3.8));
#1234=CARTESIAN_POINT('',(-22.9,0.,-0.799999999999997));
#1235=CARTESIAN_POINT('Origin',(-22.9,0.,-3.8));
#1236=CARTESIAN_POINT('',(-22.9,0.,-0.799999999999997));
#1237=CARTESIAN_POINT('Origin',(-27.1,0.,-0.799999999999998));
#1238=CARTESIAN_POINT('',(-27.1,3.55,-0.799999999999997));
#1239=CARTESIAN_POINT('',(-29.6,3.55,-0.799999999999998));
#1240=CARTESIAN_POINT('',(-27.1,0.,-0.799999999999997));
#1241=CARTESIAN_POINT('',(-35.1167568261897,0.,-0.799999999999999));
#1242=CARTESIAN_POINT('',(-27.1,0.,-0.799999999999997));
#1243=CARTESIAN_POINT('Origin',(-27.1,0.,-3.8));
#1244=CARTESIAN_POINT('Origin',(-27.1,3.55,-3.8));
#1245=CARTESIAN_POINT('Origin',(-27.1,0.,-3.8));
#1246=CARTESIAN_POINT('Origin',(-43.1335136523794,0.,0.));
#1247=CARTESIAN_POINT('',(-6.86648634762057,0.,-7.));
#1248=CARTESIAN_POINT('',(0.,0.,-7.));
#1249=CARTESIAN_POINT('',(-6.86648634762057,0.,2.2));
#1250=CARTESIAN_POINT('',(-6.86648634762057,0.,0.));
#1251=CARTESIAN_POINT('',(-43.1335136523794,0.,2.2));
#1252=CARTESIAN_POINT('',(-34.0667568261897,0.,2.2));
#1253=CARTESIAN_POINT('',(-43.1335136523794,0.,-7.));
#1254=CARTESIAN_POINT('',(-43.1335136523794,0.,0.));
#1255=CARTESIAN_POINT('',(0.,0.,-7.));
#1256=CARTESIAN_POINT('Origin',(-25.,25.,-7.));
#1257=CARTESIAN_POINT('',(-50.,6.86648634762058,-7.));
#1258=CARTESIAN_POINT('',(-50.,6.86648634762058,-7.));
#1259=CARTESIAN_POINT('',(-50.,43.1335136523794,-7.));
#1260=CARTESIAN_POINT('',(-50.,0.,-7.));
#1261=CARTESIAN_POINT('',(-43.1335136523794,50.,-7.));
#1262=CARTESIAN_POINT('',(-43.1335136523794,50.,-7.));
#1263=CARTESIAN_POINT('',(-6.8664863476206,50.,-7.));
#1264=CARTESIAN_POINT('',(-50.,50.,-7.));
#1265=CARTESIAN_POINT('',(4.44089209850063E-15,43.1335136523794,-7.));
#1266=CARTESIAN_POINT('',(-6.8664863476206,50.,-7.));
#1267=CARTESIAN_POINT('',(0.,6.86648634762059,-7.));
#1268=CARTESIAN_POINT('',(4.93432455388958E-15,50.,-7.));
#1269=CARTESIAN_POINT('',(6.77629443680237E-16,6.86648634762059,-7.));
#1270=CARTESIAN_POINT('',(-17.9,3.55,-7.));
#1271=CARTESIAN_POINT('',(-28.55,3.55,-7.));
#1272=CARTESIAN_POINT('',(-14.75,9.77961892724101,-7.));
#1273=CARTESIAN_POINT('',(-14.3040084357995,10.66163717795,-7.));
#1274=CARTESIAN_POINT('',(-35.25,9.77961892724101,-7.));
#1275=CARTESIAN_POINT('Origin',(-25.,25.,-7.));
#1276=CARTESIAN_POINT('',(-32.1,3.55,-7.));
#1277=CARTESIAN_POINT('',(-37.2709915642005,13.7764466415705,-7.));
#1278=CARTESIAN_POINT('',(-28.55,3.55,-7.));
#1279=CARTESIAN_POINT('Origin',(-25.,25.,0.));
#1280=CARTESIAN_POINT('',(-14.75,9.77961892724101,1.5));
#1281=CARTESIAN_POINT('',(-14.75,9.77961892724101,0.));
#1282=CARTESIAN_POINT('',(-35.25,9.77961892724101,1.5));
#1283=CARTESIAN_POINT('Origin',(-25.,25.,1.5));
#1284=CARTESIAN_POINT('',(-35.25,9.77961892724101,0.));
#1285=CARTESIAN_POINT('Origin',(-17.9,3.55,0.));
#1286=CARTESIAN_POINT('',(-17.9,3.55,1.5));
#1287=CARTESIAN_POINT('',(-17.9,3.55,0.));
#1288=CARTESIAN_POINT('',(-14.75,9.77961892724101,1.5));
#1289=CARTESIAN_POINT('Origin',(-32.1,3.55,0.));
#1290=CARTESIAN_POINT('',(-32.1,3.55,1.5));
#1291=CARTESIAN_POINT('',(-32.1,3.55,0.));
#1292=CARTESIAN_POINT('',(-17.9,3.55,1.5));
#1293=CARTESIAN_POINT('Origin',(-35.25,9.77961892724101,0.));
#1294=CARTESIAN_POINT('',(-32.1,3.55,1.5));
#1295=CARTESIAN_POINT('Origin',(-25.,23.45,1.5));
#1296=CARTESIAN_POINT('',(-41.5,25.,1.5));
#1297=CARTESIAN_POINT('Origin',(-25.,25.,1.5));
#1298=CARTESIAN_POINT('Origin',(-25.,25.,2.5));
#1299=CARTESIAN_POINT('',(-43.5,25.,3.));
#1300=CARTESIAN_POINT('Origin',(-25.,25.,3.));
#1301=CARTESIAN_POINT('',(-41.5,25.,2.));
#1302=CARTESIAN_POINT('',(-42.5,25.,2.5));
#1303=CARTESIAN_POINT('Origin',(-25.,25.,2.));
#1304=CARTESIAN_POINT('Origin',(-25.,25.,3.));
#1305=CARTESIAN_POINT('',(-42.8021428024809,49.2,3.));
#1306=CARTESIAN_POINT('',(-7.19785719751907,49.2,3.));
#1307=CARTESIAN_POINT('',(-15.9332431738103,49.2,3.));
#1308=CARTESIAN_POINT('',(-49.2,42.8021428024809,3.));
#1309=CARTESIAN_POINT('',(-44.2844498143353,47.7176929881456,3.));
#1310=CARTESIAN_POINT('',(-49.2,7.19785719751906,3.));
#1311=CARTESIAN_POINT('',(-49.2,34.0667568261897,3.));
#1312=CARTESIAN_POINT('',(-42.8021428024809,0.799999999999997,3.));
#1313=CARTESIAN_POINT('',(-47.7176929881456,5.71555018566468,3.));
#1314=CARTESIAN_POINT('',(-7.19785719751905,0.800000000000001,3.));
#1315=CARTESIAN_POINT('',(-34.0667568261897,0.800000000000001,3.));
#1316=CARTESIAN_POINT('',(-0.799999999999999,7.19785719751907,3.));
#1317=CARTESIAN_POINT('',(-5.71555018566466,2.2823070118544,3.));
#1318=CARTESIAN_POINT('',(-0.799999999999996,42.8021428024809,3.));
#1319=CARTESIAN_POINT('',(-0.799999999999998,15.9332431738103,3.));
#1320=CARTESIAN_POINT('',(-2.28230701185438,44.2844498143353,3.));
#1321=CARTESIAN_POINT('',(-11.5794372515229,8.02943725152286,3.));
#1322=CARTESIAN_POINT('Origin',(-8.02943725152286,8.02943725152286,3.));
#1323=CARTESIAN_POINT('Origin',(-25.,25.,0.));
#1324=CARTESIAN_POINT('',(-41.5,25.,0.));
#1325=CARTESIAN_POINT('Origin',(-15.9332431738103,49.6,2.6));
#1326=CARTESIAN_POINT('',(-6.8664863476206,50.,2.2));
#1327=CARTESIAN_POINT('',(-7.19785719751907,49.2,3.));
#1328=CARTESIAN_POINT('',(-43.1335136523794,50.,2.2));
#1329=CARTESIAN_POINT('',(-15.9332431738103,50.,2.2));
#1330=CARTESIAN_POINT('',(-42.8021428024809,49.2,3.));
#1331=CARTESIAN_POINT('Origin',(-1.99946429937976,44.5672925268099,2.6));
#1332=CARTESIAN_POINT('',(4.44089209850063E-15,43.1335136523794,2.2));
#1333=CARTESIAN_POINT('',(-0.799999999999996,42.8021428024809,3.));
#1334=CARTESIAN_POINT('',(-1.71662158690514,44.8501352392845,2.2));
#1335=CARTESIAN_POINT('Origin',(-0.399999999999998,15.9332431738103,2.6));
#1336=CARTESIAN_POINT('',(6.77629443680237E-16,6.86648634762059,2.2));
#1337=CARTESIAN_POINT('',(-0.799999999999999,7.19785719751907,3.));
#1338=CARTESIAN_POINT('',(1.52655665885959E-15,15.9332431738103,2.2));
#1339=CARTESIAN_POINT('Origin',(-5.43270747319004,1.99946429937978,2.6));
#1340=CARTESIAN_POINT('',(-7.19785719751905,0.800000000000001,3.));
#1341=CARTESIAN_POINT('',(-5.14986476071542,1.71662158690516,2.2));
#1342=CARTESIAN_POINT('Origin',(-34.0667568261897,0.4,2.6));
#1343=CARTESIAN_POINT('',(-42.8021428024809,0.799999999999999,3.));
#1344=CARTESIAN_POINT('Origin',(-48.0005357006202,5.43270747319006,2.6));
#1345=CARTESIAN_POINT('',(-50.,6.86648634762058,2.2));
#1346=CARTESIAN_POINT('',(-48.2833784130949,5.14986476071544,2.2));
#1347=CARTESIAN_POINT('',(-49.2,7.19785719751906,3.));
#1348=CARTESIAN_POINT('Origin',(-49.6,34.0667568261897,2.6));
#1349=CARTESIAN_POINT('',(-50.,43.1335136523794,2.2));
#1350=CARTESIAN_POINT('',(-50.,34.0667568261897,2.2));
#1351=CARTESIAN_POINT('',(-49.2,42.8021428024809,3.));
#1352=CARTESIAN_POINT('Origin',(-44.5672925268099,48.0005357006202,2.6));
#1353=CARTESIAN_POINT('',(-44.8501352392845,48.2833784130949,2.2));
#1354=CARTESIAN_POINT('Origin',(-50.,6.86648634762058,0.));
#1355=CARTESIAN_POINT('',(-50.,6.86648634762058,0.));
#1356=CARTESIAN_POINT('Origin',(-50.,43.1335136523794,0.));
#1357=CARTESIAN_POINT('',(-50.,43.1335136523794,0.));
#1358=CARTESIAN_POINT('Origin',(-43.1335136523794,50.,0.));
#1359=CARTESIAN_POINT('',(-43.1335136523794,50.,0.));
#1360=CARTESIAN_POINT('Origin',(-6.8664863476206,50.,0.));
#1361=CARTESIAN_POINT('',(-6.8664863476206,50.,0.));
#1362=CARTESIAN_POINT('Origin',(-8.02943725152286,8.02943725152286,0.));
#1363=CARTESIAN_POINT('',(-11.5794372515229,8.02943725152286,0.));
#1364=CARTESIAN_POINT('Origin',(-6.61522368914977,43.3847763108502,0.));
#1365=CARTESIAN_POINT('',(-8.51522368914977,43.3847763108502,0.));
#1366=CARTESIAN_POINT('Origin',(-43.3847763108502,43.3847763108502,0.));
#1367=CARTESIAN_POINT('',(-45.2847763108502,43.3847763108502,0.));
#1368=CARTESIAN_POINT('Origin',(-43.3847763108502,6.61522368914977,0.));
#1369=CARTESIAN_POINT('',(-45.2847763108502,6.61522368914977,0.));
#1370=CARTESIAN_POINT('Origin',(4.44089209850063E-15,43.1335136523794,0.));
#1371=CARTESIAN_POINT('',(4.44089209850063E-15,43.1335136523794,0.));
#1372=CARTESIAN_POINT('Origin',(6.77629443680238E-16,6.86648634762059,0.));
#1373=CARTESIAN_POINT('',(6.77629443680237E-16,6.86648634762059,0.));
#1374=CARTESIAN_POINT('Origin',(-6.86648634762057,0.,0.));
#1375=UNCERTAINTY_MEASURE_WITH_UNIT(LENGTH_MEASURE(0.01),#1379,
'DISTANCE_ACCURACY_VALUE',
'Maximum model space distance between geometric entities at asserted c
onnectivities');
#1376=UNCERTAINTY_MEASURE_WITH_UNIT(LENGTH_MEASURE(0.01),#1379,
'DISTANCE_ACCURACY_VALUE',
'Maximum model space distance between geometric entities at asserted c
onnectivities');
#1377=(
GEOMETRIC_REPRESENTATION_CONTEXT(3)
GLOBAL_UNCERTAINTY_ASSIGNED_CONTEXT((#1375))
GLOBAL_UNIT_ASSIGNED_CONTEXT((#1379,#1381,#1382))
REPRESENTATION_CONTEXT('','3D')
);
#1378=(
GEOMETRIC_REPRESENTATION_CONTEXT(3)
GLOBAL_UNCERTAINTY_ASSIGNED_CONTEXT((#1376))
GLOBAL_UNIT_ASSIGNED_CONTEXT((#1379,#1381,#1382))
REPRESENTATION_CONTEXT('','3D')
);
#1379=(
LENGTH_UNIT()
NAMED_UNIT(*)
SI_UNIT(.MILLI.,.METRE.)
);
#1380=(
LENGTH_UNIT()
NAMED_UNIT(*)
SI_UNIT($,.METRE.)
);
#1381=(
NAMED_UNIT(*)
PLANE_ANGLE_UNIT()
SI_UNIT($,.RADIAN.)
);
#1382=(
NAMED_UNIT(*)
SI_UNIT($,.STERADIAN.)
SOLID_ANGLE_UNIT()
);
#1383=SHAPE_DEFINITION_REPRESENTATION(#1384,#1385);
#1384=PRODUCT_DEFINITION_SHAPE('',$,#1387);
#1385=SHAPE_REPRESENTATION('',(#832),#1377);
#1386=PRODUCT_DEFINITION_CONTEXT('part definition',#1391,'design');
#1387=PRODUCT_DEFINITION('Frontplatte','Frontplatte v16',#1388,#1386);
#1388=PRODUCT_DEFINITION_FORMATION('',$,#1393);
#1389=PRODUCT_RELATED_PRODUCT_CATEGORY('Frontplatte v16',
'Frontplatte v16',(#1393));
#1390=APPLICATION_PROTOCOL_DEFINITION('international standard',
'automotive_design',2009,#1391);
#1391=APPLICATION_CONTEXT(
'Core Data for Automotive Mechanical Design Process');
#1392=PRODUCT_CONTEXT('part definition',#1391,'mechanical');
#1393=PRODUCT('Frontplatte','Frontplatte v16',$,(#1392));
#1394=PRESENTATION_STYLE_ASSIGNMENT((#1395));
#1395=SURFACE_STYLE_USAGE(.BOTH.,#1396);
#1396=SURFACE_SIDE_STYLE('',(#1397));
#1397=SURFACE_STYLE_FILL_AREA(#1398);
#1398=FILL_AREA_STYLE('Stahl - satiniert',(#1399));
#1399=FILL_AREA_STYLE_COLOUR('Stahl - satiniert',#1400);
#1400=COLOUR_RGB('Stahl - satiniert',0.627450980392157,0.627450980392157,
0.627450980392157);
ENDSEC;
END-ISO-10303-21;
