ISO-10303-21;
HEADER;
/* Generated by software containing ST-Developer
 * from STEP Tools, Inc. (www.steptools.com) 
 */

FILE_DESCRIPTION(
/* description */ (''),
/* implementation_level */ '2;1');

FILE_NAME(
/* name */ 'Haltebrcke.step',
/* time_stamp */ '2026-10-02T07:23:11+02:00',
/* author */ (''),
/* organization */ (''),
/* preprocessor_version */ 'ST-DEVELOPER v20.2',
/* originating_system */ 'Autodesk Translation Framework v15.15.0.0',
/* authorisation */ '');

FILE_SCHEMA (('AUTOMOTIVE_DESIGN { 1 0 10303 214 3 1 1 }'));
ENDSEC;

DATA;
#10=MECHANICAL_DESIGN_GEOMETRIC_PRESENTATION_REPRESENTATION('',(#13),#466);
#11=SHAPE_REPRESENTATION_RELATIONSHIP('SRR','None',#473,#12);
#12=ADVANCED_BREP_SHAPE_REPRESENTATION('',(#14),#465);
#13=STYLED_ITEM('',(#482),#14);
#14=MANIFOLD_SOLID_BREP('K\X\F6rper2',#242);
#15=FACE_BOUND('',#73,.T.);
#16=FACE_BOUND('',#76,.T.);
#17=FACE_BOUND('',#85,.T.);
#18=FACE_BOUND('',#86,.T.);
#19=PLANE('',#264);
#20=PLANE('',#268);
#21=PLANE('',#269);
#22=PLANE('',#283);
#23=PLANE('',#284);
#24=PLANE('',#285);
#25=LINE('',#412,#38);
#26=LINE('',#414,#39);
#27=LINE('',#417,#40);
#28=LINE('',#424,#41);
#29=LINE('',#430,#42);
#30=LINE('',#439,#43);
#31=LINE('',#443,#44);
#32=LINE('',#446,#45);
#33=LINE('',#449,#46);
#34=LINE('',#453,#47);
#35=LINE('',#457,#48);
#36=LINE('',#459,#49);
#37=LINE('',#461,#50);
#38=VECTOR('',#300,10.);
#39=VECTOR('',#301,3.);
#40=VECTOR('',#304,10.);
#41=VECTOR('',#313,10.);
#42=VECTOR('',#320,10.);
#43=VECTOR('',#331,1.);
#44=VECTOR('',#336,1.);
#45=VECTOR('',#339,10.);
#46=VECTOR('',#342,10.);
#47=VECTOR('',#347,10.);
#48=VECTOR('',#352,10.);
#49=VECTOR('',#355,10.);
#50=VECTOR('',#358,10.);
#51=CYLINDRICAL_SURFACE('',#261,3.);
#52=CYLINDRICAL_SURFACE('',#273,1.);
#53=CYLINDRICAL_SURFACE('',#275,1.);
#54=CYLINDRICAL_SURFACE('',#277,2.5);
#55=CYLINDRICAL_SURFACE('',#279,19.5);
#56=CYLINDRICAL_SURFACE('',#281,2.5);
#57=FACE_OUTER_BOUND('',#70,.T.);
#58=FACE_OUTER_BOUND('',#71,.T.);
#59=FACE_OUTER_BOUND('',#72,.T.);
#60=FACE_OUTER_BOUND('',#74,.T.);
#61=FACE_OUTER_BOUND('',#75,.T.);
#62=FACE_OUTER_BOUND('',#77,.T.);
#63=FACE_OUTER_BOUND('',#78,.T.);
#64=FACE_OUTER_BOUND('',#79,.T.);
#65=FACE_OUTER_BOUND('',#80,.T.);
#66=FACE_OUTER_BOUND('',#81,.T.);
#67=FACE_OUTER_BOUND('',#82,.T.);
#68=FACE_OUTER_BOUND('',#83,.T.);
#69=FACE_OUTER_BOUND('',#84,.T.);
#70=EDGE_LOOP('',(#162,#163,#164,#165,#166,#167,#168));
#71=EDGE_LOOP('',(#169,#170,#171,#172,#173,#174,#175,#176));
#72=EDGE_LOOP('',(#177,#178,#179,#180));
#73=EDGE_LOOP('',(#181));
#74=EDGE_LOOP('',(#182));
#75=EDGE_LOOP('',(#183,#184,#185,#186));
#76=EDGE_LOOP('',(#187));
#77=EDGE_LOOP('',(#188,#189,#190,#191));
#78=EDGE_LOOP('',(#192,#193,#194,#195));
#79=EDGE_LOOP('',(#196,#197,#198,#199));
#80=EDGE_LOOP('',(#200,#201,#202,#203,#204,#205));
#81=EDGE_LOOP('',(#206,#207,#208,#209));
#82=EDGE_LOOP('',(#210,#211,#212,#213,#214));
#83=EDGE_LOOP('',(#215,#216,#217,#218,#219));
#84=EDGE_LOOP('',(#220,#221,#222,#223,#224,#225));
#85=EDGE_LOOP('',(#226));
#86=EDGE_LOOP('',(#227));
#87=CIRCLE('',#257,7.5);
#88=CIRCLE('',#258,3.);
#89=CIRCLE('',#259,3.);
#90=CIRCLE('',#260,7.5);
#91=CIRCLE('',#262,3.);
#92=CIRCLE('',#263,3.);
#93=CIRCLE('',#265,19.5);
#94=CIRCLE('',#266,2.5);
#95=CIRCLE('',#267,1.);
#96=CIRCLE('',#270,2.5);
#97=CIRCLE('',#271,19.5);
#98=CIRCLE('',#272,1.);
#99=CIRCLE('',#274,1.);
#100=CIRCLE('',#276,1.);
#101=CIRCLE('',#278,2.5);
#102=CIRCLE('',#280,19.5);
#103=CIRCLE('',#282,2.5);
#104=B_SPLINE_CURVE_WITH_KNOTS('',3,(#365,#366,#367,#368,#369,#370,#371,
#372,#373,#374,#375,#376,#377,#378,#379,#380),.UNSPECIFIED.,.F.,.F.,(4,
2,2,2,2,2,2,4),(0.769553577767783,1.00576757677932,1.29381393370519,1.53011977865704,
1.75120814085975,2.00241645457871,2.31933799028334,2.55285078555657),
 .UNSPECIFIED.);
#105=B_SPLINE_CURVE_WITH_KNOTS('',3,(#384,#385,#386,#387,#388,#389,#390,
#391,#392,#393),.UNSPECIFIED.,.F.,.F.,(4,2,2,2,4),(2.17434179235417,2.32770620168225,
2.49802355078704,2.73741334449565,2.97680313820427),.UNSPECIFIED.);
#106=B_SPLINE_CURVE_WITH_KNOTS('',3,(#399,#400,#401,#402,#403,#404,#405,
#406,#407,#408),.UNSPECIFIED.,.F.,.F.,(4,2,2,2,4),(0.,0.239389793708614,
0.478779587417228,0.649096936522017,0.8024613458501),.UNSPECIFIED.);
#107=VERTEX_POINT('',#363);
#108=VERTEX_POINT('',#364);
#109=VERTEX_POINT('',#381);
#110=VERTEX_POINT('',#383);
#111=VERTEX_POINT('',#394);
#112=VERTEX_POINT('',#396);
#113=VERTEX_POINT('',#398);
#114=VERTEX_POINT('',#411);
#115=VERTEX_POINT('',#413);
#116=VERTEX_POINT('',#416);
#117=VERTEX_POINT('',#420);
#118=VERTEX_POINT('',#422);
#119=VERTEX_POINT('',#425);
#120=VERTEX_POINT('',#429);
#121=VERTEX_POINT('',#431);
#122=VERTEX_POINT('',#434);
#123=VERTEX_POINT('',#437);
#124=VERTEX_POINT('',#441);
#125=VERTEX_POINT('',#445);
#126=VERTEX_POINT('',#447);
#127=VERTEX_POINT('',#451);
#128=VERTEX_POINT('',#455);
#129=EDGE_CURVE('',#107,#108,#104,.F.);
#130=EDGE_CURVE('',#107,#109,#87,.T.);
#131=EDGE_CURVE('',#109,#110,#105,.T.);
#132=EDGE_CURVE('',#110,#111,#88,.T.);
#133=EDGE_CURVE('',#111,#112,#89,.T.);
#134=EDGE_CURVE('',#112,#113,#106,.T.);
#135=EDGE_CURVE('',#113,#108,#90,.T.);
#136=EDGE_CURVE('',#112,#114,#25,.T.);
#137=EDGE_CURVE('',#111,#115,#26,.T.);
#138=EDGE_CURVE('',#115,#115,#91,.T.);
#139=EDGE_CURVE('',#110,#116,#27,.T.);
#140=EDGE_CURVE('',#114,#116,#92,.T.);
#141=EDGE_CURVE('',#107,#117,#93,.T.);
#142=EDGE_CURVE('',#118,#117,#94,.T.);
#143=EDGE_CURVE('',#109,#118,#28,.T.);
#144=EDGE_CURVE('',#119,#119,#95,.T.);
#145=EDGE_CURVE('',#120,#113,#29,.T.);
#146=EDGE_CURVE('',#121,#120,#96,.T.);
#147=EDGE_CURVE('',#121,#108,#97,.T.);
#148=EDGE_CURVE('',#122,#122,#98,.T.);
#149=EDGE_CURVE('',#123,#123,#99,.T.);
#150=EDGE_CURVE('',#123,#122,#30,.T.);
#151=EDGE_CURVE('',#124,#124,#100,.T.);
#152=EDGE_CURVE('',#124,#119,#31,.T.);
#153=EDGE_CURVE('',#120,#125,#32,.T.);
#154=EDGE_CURVE('',#126,#125,#101,.T.);
#155=EDGE_CURVE('',#121,#126,#33,.T.);
#156=EDGE_CURVE('',#127,#126,#102,.T.);
#157=EDGE_CURVE('',#117,#127,#34,.T.);
#158=EDGE_CURVE('',#128,#127,#103,.T.);
#159=EDGE_CURVE('',#118,#128,#35,.T.);
#160=EDGE_CURVE('',#116,#128,#36,.T.);
#161=EDGE_CURVE('',#125,#114,#37,.T.);
#162=ORIENTED_EDGE('',*,*,#129,.F.);
#163=ORIENTED_EDGE('',*,*,#130,.T.);
#164=ORIENTED_EDGE('',*,*,#131,.T.);
#165=ORIENTED_EDGE('',*,*,#132,.T.);
#166=ORIENTED_EDGE('',*,*,#133,.T.);
#167=ORIENTED_EDGE('',*,*,#134,.T.);
#168=ORIENTED_EDGE('',*,*,#135,.T.);
#169=ORIENTED_EDGE('',*,*,#136,.F.);
#170=ORIENTED_EDGE('',*,*,#133,.F.);
#171=ORIENTED_EDGE('',*,*,#137,.T.);
#172=ORIENTED_EDGE('',*,*,#138,.F.);
#173=ORIENTED_EDGE('',*,*,#137,.F.);
#174=ORIENTED_EDGE('',*,*,#132,.F.);
#175=ORIENTED_EDGE('',*,*,#139,.T.);
#176=ORIENTED_EDGE('',*,*,#140,.F.);
#177=ORIENTED_EDGE('',*,*,#130,.F.);
#178=ORIENTED_EDGE('',*,*,#141,.T.);
#179=ORIENTED_EDGE('',*,*,#142,.F.);
#180=ORIENTED_EDGE('',*,*,#143,.F.);
#181=ORIENTED_EDGE('',*,*,#144,.F.);
#182=ORIENTED_EDGE('',*,*,#138,.T.);
#183=ORIENTED_EDGE('',*,*,#135,.F.);
#184=ORIENTED_EDGE('',*,*,#145,.F.);
#185=ORIENTED_EDGE('',*,*,#146,.F.);
#186=ORIENTED_EDGE('',*,*,#147,.T.);
#187=ORIENTED_EDGE('',*,*,#148,.F.);
#188=ORIENTED_EDGE('',*,*,#149,.F.);
#189=ORIENTED_EDGE('',*,*,#150,.T.);
#190=ORIENTED_EDGE('',*,*,#148,.T.);
#191=ORIENTED_EDGE('',*,*,#150,.F.);
#192=ORIENTED_EDGE('',*,*,#151,.F.);
#193=ORIENTED_EDGE('',*,*,#152,.T.);
#194=ORIENTED_EDGE('',*,*,#144,.T.);
#195=ORIENTED_EDGE('',*,*,#152,.F.);
#196=ORIENTED_EDGE('',*,*,#146,.T.);
#197=ORIENTED_EDGE('',*,*,#153,.T.);
#198=ORIENTED_EDGE('',*,*,#154,.F.);
#199=ORIENTED_EDGE('',*,*,#155,.F.);
#200=ORIENTED_EDGE('',*,*,#147,.F.);
#201=ORIENTED_EDGE('',*,*,#155,.T.);
#202=ORIENTED_EDGE('',*,*,#156,.F.);
#203=ORIENTED_EDGE('',*,*,#157,.F.);
#204=ORIENTED_EDGE('',*,*,#141,.F.);
#205=ORIENTED_EDGE('',*,*,#129,.T.);
#206=ORIENTED_EDGE('',*,*,#142,.T.);
#207=ORIENTED_EDGE('',*,*,#157,.T.);
#208=ORIENTED_EDGE('',*,*,#158,.F.);
#209=ORIENTED_EDGE('',*,*,#159,.F.);
#210=ORIENTED_EDGE('',*,*,#143,.T.);
#211=ORIENTED_EDGE('',*,*,#159,.T.);
#212=ORIENTED_EDGE('',*,*,#160,.F.);
#213=ORIENTED_EDGE('',*,*,#139,.F.);
#214=ORIENTED_EDGE('',*,*,#131,.F.);
#215=ORIENTED_EDGE('',*,*,#145,.T.);
#216=ORIENTED_EDGE('',*,*,#134,.F.);
#217=ORIENTED_EDGE('',*,*,#136,.T.);
#218=ORIENTED_EDGE('',*,*,#161,.F.);
#219=ORIENTED_EDGE('',*,*,#153,.F.);
#220=ORIENTED_EDGE('',*,*,#161,.T.);
#221=ORIENTED_EDGE('',*,*,#140,.T.);
#222=ORIENTED_EDGE('',*,*,#160,.T.);
#223=ORIENTED_EDGE('',*,*,#158,.T.);
#224=ORIENTED_EDGE('',*,*,#156,.T.);
#225=ORIENTED_EDGE('',*,*,#154,.T.);
#226=ORIENTED_EDGE('',*,*,#151,.T.);
#227=ORIENTED_EDGE('',*,*,#149,.T.);
#228=TOROIDAL_SURFACE('',#256,7.5,4.5);
#229=ADVANCED_FACE('',(#57),#228,.F.);
#230=ADVANCED_FACE('',(#58),#51,.T.);
#231=ADVANCED_FACE('',(#59,#15),#19,.F.);
#232=ADVANCED_FACE('',(#60),#20,.F.);
#233=ADVANCED_FACE('',(#61,#16),#21,.F.);
#234=ADVANCED_FACE('',(#62),#52,.F.);
#235=ADVANCED_FACE('',(#63),#53,.F.);
#236=ADVANCED_FACE('',(#64),#54,.T.);
#237=ADVANCED_FACE('',(#65),#55,.F.);
#238=ADVANCED_FACE('',(#66),#56,.T.);
#239=ADVANCED_FACE('',(#67),#22,.T.);
#240=ADVANCED_FACE('',(#68),#23,.T.);
#241=ADVANCED_FACE('',(#69,#17,#18),#24,.T.);
#242=CLOSED_SHELL('',(#229,#230,#231,#232,#233,#234,#235,#236,#237,#238,
#239,#240,#241));
#243=DERIVED_UNIT_ELEMENT(#245,1.);
#244=DERIVED_UNIT_ELEMENT(#468,-3.);
#245=(
MASS_UNIT()
NAMED_UNIT(*)
SI_UNIT(.KILO.,.GRAM.)
);
#246=DERIVED_UNIT((#243,#244));
#247=MEASURE_REPRESENTATION_ITEM('density measure',
POSITIVE_RATIO_MEASURE(7850.),#246);
#248=PROPERTY_DEFINITION_REPRESENTATION(#253,#250);
#249=PROPERTY_DEFINITION_REPRESENTATION(#254,#251);
#250=REPRESENTATION('material name',(#252),#465);
#251=REPRESENTATION('density',(#247),#465);
#252=DESCRIPTIVE_REPRESENTATION_ITEM('Stahl','Stahl');
#253=PROPERTY_DEFINITION('material property','material name',#475);
#254=PROPERTY_DEFINITION('material property','density of part',#475);
#255=AXIS2_PLACEMENT_3D('',#361,#286,#287);
#256=AXIS2_PLACEMENT_3D('',#362,#288,#289);
#257=AXIS2_PLACEMENT_3D('',#382,#290,#291);
#258=AXIS2_PLACEMENT_3D('',#395,#292,#293);
#259=AXIS2_PLACEMENT_3D('',#397,#294,#295);
#260=AXIS2_PLACEMENT_3D('',#409,#296,#297);
#261=AXIS2_PLACEMENT_3D('',#410,#298,#299);
#262=AXIS2_PLACEMENT_3D('',#415,#302,#303);
#263=AXIS2_PLACEMENT_3D('',#418,#305,#306);
#264=AXIS2_PLACEMENT_3D('',#419,#307,#308);
#265=AXIS2_PLACEMENT_3D('',#421,#309,#310);
#266=AXIS2_PLACEMENT_3D('',#423,#311,#312);
#267=AXIS2_PLACEMENT_3D('',#426,#314,#315);
#268=AXIS2_PLACEMENT_3D('',#427,#316,#317);
#269=AXIS2_PLACEMENT_3D('',#428,#318,#319);
#270=AXIS2_PLACEMENT_3D('',#432,#321,#322);
#271=AXIS2_PLACEMENT_3D('',#433,#323,#324);
#272=AXIS2_PLACEMENT_3D('',#435,#325,#326);
#273=AXIS2_PLACEMENT_3D('',#436,#327,#328);
#274=AXIS2_PLACEMENT_3D('',#438,#329,#330);
#275=AXIS2_PLACEMENT_3D('',#440,#332,#333);
#276=AXIS2_PLACEMENT_3D('',#442,#334,#335);
#277=AXIS2_PLACEMENT_3D('',#444,#337,#338);
#278=AXIS2_PLACEMENT_3D('',#448,#340,#341);
#279=AXIS2_PLACEMENT_3D('',#450,#343,#344);
#280=AXIS2_PLACEMENT_3D('',#452,#345,#346);
#281=AXIS2_PLACEMENT_3D('',#454,#348,#349);
#282=AXIS2_PLACEMENT_3D('',#456,#350,#351);
#283=AXIS2_PLACEMENT_3D('',#458,#353,#354);
#284=AXIS2_PLACEMENT_3D('',#460,#356,#357);
#285=AXIS2_PLACEMENT_3D('',#462,#359,#360);
#286=DIRECTION('axis',(0.,0.,1.));
#287=DIRECTION('refdir',(1.,0.,0.));
#288=DIRECTION('center_axis',(0.,0.,1.));
#289=DIRECTION('ref_axis',(6.12323399573677E-17,-1.,0.));
#290=DIRECTION('center_axis',(0.,0.,-1.));
#291=DIRECTION('ref_axis',(9.49410759657494E-16,-1.,0.));
#292=DIRECTION('center_axis',(0.,0.,1.));
#293=DIRECTION('ref_axis',(9.49410759657494E-16,-1.,0.));
#294=DIRECTION('center_axis',(0.,0.,1.));
#295=DIRECTION('ref_axis',(9.49410759657494E-16,-1.,0.));
#296=DIRECTION('center_axis',(0.,0.,-1.));
#297=DIRECTION('ref_axis',(9.49410759657494E-16,-1.,0.));
#298=DIRECTION('center_axis',(0.,0.,1.));
#299=DIRECTION('ref_axis',(1.,0.,0.));
#300=DIRECTION('',(0.,0.,1.));
#301=DIRECTION('',(0.,0.,-1.));
#302=DIRECTION('center_axis',(0.,0.,-1.));
#303=DIRECTION('ref_axis',(1.,0.,0.));
#304=DIRECTION('',(0.,0.,1.));
#305=DIRECTION('center_axis',(0.,0.,1.));
#306=DIRECTION('ref_axis',(1.,0.,0.));
#307=DIRECTION('center_axis',(0.,0.,1.));
#308=DIRECTION('ref_axis',(1.,0.,0.));
#309=DIRECTION('center_axis',(0.,0.,1.));
#310=DIRECTION('ref_axis',(0.559192903470747,0.829037572555042,0.));
#311=DIRECTION('center_axis',(0.,0.,1.));
#312=DIRECTION('ref_axis',(1.,0.,0.));
#313=DIRECTION('',(-0.889391058357503,-0.457147181237861,0.));
#314=DIRECTION('center_axis',(0.,0.,-1.));
#315=DIRECTION('ref_axis',(1.,0.,0.));
#316=DIRECTION('center_axis',(0.,0.,1.));
#317=DIRECTION('ref_axis',(1.,0.,0.));
#318=DIRECTION('center_axis',(0.,0.,1.));
#319=DIRECTION('ref_axis',(1.,0.,0.));
#320=DIRECTION('',(-0.889391058357502,0.457147181237861,0.));
#321=DIRECTION('center_axis',(0.,0.,1.));
#322=DIRECTION('ref_axis',(1.,0.,0.));
#323=DIRECTION('center_axis',(0.,0.,1.));
#324=DIRECTION('ref_axis',(0.559192903470747,0.829037572555042,0.));
#325=DIRECTION('center_axis',(0.,0.,-1.));
#326=DIRECTION('ref_axis',(1.,0.,0.));
#327=DIRECTION('center_axis',(0.,0.,1.));
#328=DIRECTION('ref_axis',(1.,0.,0.));
#329=DIRECTION('center_axis',(0.,0.,-1.));
#330=DIRECTION('ref_axis',(1.,0.,0.));
#331=DIRECTION('',(0.,0.,-1.));
#332=DIRECTION('center_axis',(0.,0.,1.));
#333=DIRECTION('ref_axis',(1.,0.,0.));
#334=DIRECTION('center_axis',(0.,0.,-1.));
#335=DIRECTION('ref_axis',(1.,0.,0.));
#336=DIRECTION('',(0.,0.,-1.));
#337=DIRECTION('center_axis',(0.,0.,1.));
#338=DIRECTION('ref_axis',(1.,0.,0.));
#339=DIRECTION('',(0.,0.,1.));
#340=DIRECTION('center_axis',(0.,0.,1.));
#341=DIRECTION('ref_axis',(1.,0.,0.));
#342=DIRECTION('',(0.,0.,1.));
#343=DIRECTION('center_axis',(0.,0.,1.));
#344=DIRECTION('ref_axis',(0.559192903470747,0.829037572555042,0.));
#345=DIRECTION('center_axis',(0.,0.,-1.));
#346=DIRECTION('ref_axis',(0.559192903470747,0.829037572555042,0.));
#347=DIRECTION('',(0.,0.,1.));
#348=DIRECTION('center_axis',(0.,0.,1.));
#349=DIRECTION('ref_axis',(-0.860727931602952,-0.509065249018732,0.));
#350=DIRECTION('center_axis',(0.,0.,1.));
#351=DIRECTION('ref_axis',(1.,0.,0.));
#352=DIRECTION('',(0.,0.,1.));
#353=DIRECTION('center_axis',(-0.457147181237861,0.889391058357503,0.));
#354=DIRECTION('ref_axis',(-0.889391058357503,-0.457147181237861,0.));
#355=DIRECTION('',(-0.889391058357503,-0.457147181237861,0.));
#356=DIRECTION('center_axis',(0.457147181237861,0.889391058357503,0.));
#357=DIRECTION('ref_axis',(-0.889391058357503,0.457147181237861,0.));
#358=DIRECTION('',(-0.889391058357502,0.457147181237861,0.));
#359=DIRECTION('center_axis',(0.,0.,1.));
#360=DIRECTION('ref_axis',(1.,0.,0.));
#361=CARTESIAN_POINT('',(0.,0.,0.));
#362=CARTESIAN_POINT('Origin',(0.,24.,-4.5));
#363=CARTESIAN_POINT('',(-5.35607132140714,18.75,0.));
#364=CARTESIAN_POINT('',(5.35607132140714,18.75,0.));
#365=CARTESIAN_POINT('Ctrl Pts',(5.35607132140713,18.75,-7.80625564189563E-17));
#366=CARTESIAN_POINT('Ctrl Pts',(4.68314793869465,18.9422253670214,-1.05380557630305E-16));
#367=CARTESIAN_POINT('Ctrl Pts',(4.06343813584068,19.079327514199,-0.124541230434738));
#368=CARTESIAN_POINT('Ctrl Pts',(2.90388387109732,19.2934494907814,-0.431741776724276));
#369=CARTESIAN_POINT('Ctrl Pts',(2.31910559212898,19.3695190810968,-0.647641817172005));
#370=CARTESIAN_POINT('Ctrl Pts',(1.31541848529612,19.4608829863311,-0.962059245109919));
#371=CARTESIAN_POINT('Ctrl Pts',(0.910141312180718,19.4829766501658,-1.06653328917268));
#372=CARTESIAN_POINT('Ctrl Pts',(0.124787078477735,19.5032979396445,-1.16075689689043));
#373=CARTESIAN_POINT('Ctrl Pts',(-0.231421248452182,19.5021183420855,-1.15474801811209));
#374=CARTESIAN_POINT('Ctrl Pts',(-1.01936066907065,19.477851796525,-1.04354086903954));
#375=CARTESIAN_POINT('Ctrl Pts',(-1.43213936264142,19.4528500564343,-0.928541231442861));
#376=CARTESIAN_POINT('Ctrl Pts',(-2.47438093171113,19.351193163074,-0.594016949438769));
#377=CARTESIAN_POINT('Ctrl Pts',(-3.08318352481816,19.2659388439267,-0.373137499544095));
#378=CARTESIAN_POINT('Ctrl Pts',(-4.20421706851523,19.0475541392944,-0.0986401510360352));
#379=CARTESIAN_POINT('Ctrl Pts',(-4.76264988110982,18.9195150697538,-3.5777830568289E-14));
#380=CARTESIAN_POINT('Ctrl Pts',(-5.35607132140681,18.7500000000001,-1.86482773667507E-16));
#381=CARTESIAN_POINT('',(-7.4849943147238,23.5258058324352,0.));
#382=CARTESIAN_POINT('Origin',(0.,24.,0.));
#383=CARTESIAN_POINT('',(-1.37144154371358,26.6681731750725,-4.5));
#384=CARTESIAN_POINT('Ctrl Pts',(-7.4849943147238,23.5258058324352,0.));
#385=CARTESIAN_POINT('Ctrl Pts',(-7.03032453363488,23.7595061905237,2.83781163990125E-17));
#386=CARTESIAN_POINT('Ctrl Pts',(-6.49097119078204,24.036733916235,-0.0925906713835733));
#387=CARTESIAN_POINT('Ctrl Pts',(-5.57018685297755,24.5100172493648,-0.396348594506363));
#388=CARTESIAN_POINT('Ctrl Pts',(-5.01972216129924,24.7929562105867,-0.681062763341552));
#389=CARTESIAN_POINT('Ctrl Pts',(-3.98366381585055,25.325490406618,-1.3938747380183));
#390=CARTESIAN_POINT('Ctrl Pts',(-3.39287642682256,25.6291552423133,-1.95372871460374));
#391=CARTESIAN_POINT('Ctrl Pts',(-2.31352243011815,26.1839434117182,-3.20029528539661));
#392=CARTESIAN_POINT('Ctrl Pts',(-1.82029764231679,26.4374610509403,-3.88189821047634));
#393=CARTESIAN_POINT('Ctrl Pts',(-1.37144154371358,26.6681731750725,-4.5));
#394=CARTESIAN_POINT('',(-3.,24.,-4.5));
#395=CARTESIAN_POINT('Origin',(0.,24.,-4.5));
#396=CARTESIAN_POINT('',(1.37144154371358,26.6681731750725,-4.5));
#397=CARTESIAN_POINT('Origin',(0.,24.,-4.5));
#398=CARTESIAN_POINT('',(7.48499431472379,23.5258058324352,0.));
#399=CARTESIAN_POINT('Ctrl Pts',(1.37144154371359,26.6681731750725,-4.5));
#400=CARTESIAN_POINT('Ctrl Pts',(1.82029764231679,26.4374610509403,-3.88189821047634));
#401=CARTESIAN_POINT('Ctrl Pts',(2.31352243011815,26.1839434117182,-3.20029528539661));
#402=CARTESIAN_POINT('Ctrl Pts',(3.39287642682256,25.6291552423133,-1.95372871460374));
#403=CARTESIAN_POINT('Ctrl Pts',(3.98366381585055,25.325490406618,-1.3938747380183));
#404=CARTESIAN_POINT('Ctrl Pts',(5.01972216129924,24.7929562105867,-0.68106276334155));
#405=CARTESIAN_POINT('Ctrl Pts',(5.57018685297755,24.5100172493648,-0.396348594506362));
#406=CARTESIAN_POINT('Ctrl Pts',(6.49097119078204,24.036733916235,-0.0925906713835729));
#407=CARTESIAN_POINT('Ctrl Pts',(7.03032453363488,23.7595061905237,0.));
#408=CARTESIAN_POINT('Ctrl Pts',(7.4849943147238,23.5258058324352,0.));
#409=CARTESIAN_POINT('Origin',(0.,24.,0.));
#410=CARTESIAN_POINT('Origin',(0.,24.,0.));
#411=CARTESIAN_POINT('',(1.37144154371358,26.6681731750725,2.));
#412=CARTESIAN_POINT('',(1.37144154371358,26.6681731750725,0.));
#413=CARTESIAN_POINT('',(-3.,24.,-5.5));
#414=CARTESIAN_POINT('',(-3.,24.,0.));
#415=CARTESIAN_POINT('Origin',(0.,24.,-5.5));
#416=CARTESIAN_POINT('',(-1.37144154371359,26.6681731750725,2.));
#417=CARTESIAN_POINT('',(-1.37144154371358,26.6681731750725,0.));
#418=CARTESIAN_POINT('Origin',(0.,24.,2.));
#419=CARTESIAN_POINT('Origin',(0.,21.3694132981055,0.));
#420=CARTESIAN_POINT('',(-10.9042616176796,16.1662326648233,0.));
#421=CARTESIAN_POINT('Origin',(0.,0.,0.));
#422=CARTESIAN_POINT('',(-13.4451118294511,20.4623042421047,0.));
#423=CARTESIAN_POINT('Origin',(-12.3022438763564,18.2388265962109,0.));
#424=CARTESIAN_POINT('',(-1.37144154371358,26.6681731750725,0.));
#425=CARTESIAN_POINT('',(-13.3022438763564,18.2388265962109,0.));
#426=CARTESIAN_POINT('Origin',(-12.3022438763564,18.2388265962109,0.));
#427=CARTESIAN_POINT('Origin',(0.,24.,-5.5));
#428=CARTESIAN_POINT('Origin',(0.,21.3694132981055,0.));
#429=CARTESIAN_POINT('',(13.4451118294511,20.4623042421047,0.));
#430=CARTESIAN_POINT('',(13.4451118294511,20.4623042421047,0.));
#431=CARTESIAN_POINT('',(10.9042616176796,16.1662326648233,0.));
#432=CARTESIAN_POINT('Origin',(12.3022438763564,18.2388265962109,0.));
#433=CARTESIAN_POINT('Origin',(0.,0.,0.));
#434=CARTESIAN_POINT('',(11.3022438763564,18.2388265962109,0.));
#435=CARTESIAN_POINT('Origin',(12.3022438763564,18.2388265962109,0.));
#436=CARTESIAN_POINT('Origin',(12.3022438763564,18.2388265962109,0.));
#437=CARTESIAN_POINT('',(11.3022438763564,18.2388265962109,2.));
#438=CARTESIAN_POINT('Origin',(12.3022438763564,18.2388265962109,2.));
#439=CARTESIAN_POINT('',(11.3022438763564,18.2388265962109,0.));
#440=CARTESIAN_POINT('Origin',(-12.3022438763564,18.2388265962109,0.));
#441=CARTESIAN_POINT('',(-13.3022438763564,18.2388265962109,2.));
#442=CARTESIAN_POINT('Origin',(-12.3022438763564,18.2388265962109,2.));
#443=CARTESIAN_POINT('',(-13.3022438763564,18.2388265962109,0.));
#444=CARTESIAN_POINT('Origin',(12.3022438763564,18.2388265962109,0.));
#445=CARTESIAN_POINT('',(13.4451118294511,20.4623042421047,2.));
#446=CARTESIAN_POINT('',(13.4451118294511,20.4623042421047,0.));
#447=CARTESIAN_POINT('',(10.9042616176796,16.1662326648233,2.));
#448=CARTESIAN_POINT('Origin',(12.3022438763564,18.2388265962109,2.));
#449=CARTESIAN_POINT('',(10.9042616176796,16.1662326648233,0.));
#450=CARTESIAN_POINT('Origin',(0.,0.,0.));
#451=CARTESIAN_POINT('',(-10.9042616176796,16.1662326648233,2.));
#452=CARTESIAN_POINT('Origin',(0.,0.,2.));
#453=CARTESIAN_POINT('',(-10.9042616176796,16.1662326648233,0.));
#454=CARTESIAN_POINT('Origin',(-12.3022438763564,18.2388265962109,0.));
#455=CARTESIAN_POINT('',(-13.4451118294511,20.4623042421047,2.));
#456=CARTESIAN_POINT('Origin',(-12.3022438763564,18.2388265962109,2.));
#457=CARTESIAN_POINT('',(-13.4451118294511,20.4623042421047,0.));
#458=CARTESIAN_POINT('Origin',(-1.37144154371358,26.6681731750725,0.));
#459=CARTESIAN_POINT('',(-1.37144154371358,26.6681731750725,2.));
#460=CARTESIAN_POINT('Origin',(13.4451118294511,20.4623042421047,0.));
#461=CARTESIAN_POINT('',(13.4451118294511,20.4623042421047,2.));
#462=CARTESIAN_POINT('Origin',(0.,21.3694132981055,2.));
#463=UNCERTAINTY_MEASURE_WITH_UNIT(LENGTH_MEASURE(0.01),#467,
'DISTANCE_ACCURACY_VALUE',
'Maximum model space distance between geometric entities at asserted c
onnectivities');
#464=UNCERTAINTY_MEASURE_WITH_UNIT(LENGTH_MEASURE(0.01),#467,
'DISTANCE_ACCURACY_VALUE',
'Maximum model space distance between geometric entities at asserted c
onnectivities');
#465=(
GEOMETRIC_REPRESENTATION_CONTEXT(3)
GLOBAL_UNCERTAINTY_ASSIGNED_CONTEXT((#463))
GLOBAL_UNIT_ASSIGNED_CONTEXT((#467,#469,#470))
REPRESENTATION_CONTEXT('','3D')
);
#466=(
GEOMETRIC_REPRESENTATION_CONTEXT(3)
GLOBAL_UNCERTAINTY_ASSIGNED_CONTEXT((#464))
GLOBAL_UNIT_ASSIGNED_CONTEXT((#467,#469,#470))
REPRESENTATION_CONTEXT('','3D')
);
#467=(
LENGTH_UNIT()
NAMED_UNIT(*)
SI_UNIT(.MILLI.,.METRE.)
);
#468=(
LENGTH_UNIT()
NAMED_UNIT(*)
SI_UNIT($,.METRE.)
);
#469=(
NAMED_UNIT(*)
PLANE_ANGLE_UNIT()
SI_UNIT($,.RADIAN.)
);
#470=(
NAMED_UNIT(*)
SI_UNIT($,.STERADIAN.)
SOLID_ANGLE_UNIT()
);
#471=SHAPE_DEFINITION_REPRESENTATION(#472,#473);
#472=PRODUCT_DEFINITION_SHAPE('',$,#475);
#473=SHAPE_REPRESENTATION('',(#255),#465);
#474=PRODUCT_DEFINITION_CONTEXT('part definition',#479,'design');
#475=PRODUCT_DEFINITION('Haltebr\X\FCcke','Haltebr\X\FCcke v7',#476,#474);
#476=PRODUCT_DEFINITION_FORMATION('',$,#481);
#477=PRODUCT_RELATED_PRODUCT_CATEGORY('Haltebr\X\FCcke v7',
'Haltebr\X\FCcke v7',(#481));
#478=APPLICATION_PROTOCOL_DEFINITION('international standard',
'automotive_design',2009,#479);
#479=APPLICATION_CONTEXT(
'Core Data for Automotive Mechanical Design Process');
#480=PRODUCT_CONTEXT('part definition',#479,'mechanical');
#481=PRODUCT('Haltebr\X\FCcke','Haltebr\X\FCcke v7',$,(#480));
#482=PRESENTATION_STYLE_ASSIGNMENT((#483));
#483=SURFACE_STYLE_USAGE(.BOTH.,#484);
#484=SURFACE_SIDE_STYLE('',(#485));
#485=SURFACE_STYLE_FILL_AREA(#486);
#486=FILL_AREA_STYLE('Stahl - satiniert',(#487));
#487=FILL_AREA_STYLE_COLOUR('Stahl - satiniert',#488);
#488=COLOUR_RGB('Stahl - satiniert',0.627450980392157,0.627450980392157,
0.627450980392157);
ENDSEC;
END-ISO-10303-21;
