ISO-10303-21;
HEADER;
/* Generated by software containing ST-Developer
 * from STEP Tools, Inc. (www.steptools.com) 
 */

FILE_DESCRIPTION(
/* description */ (''),
/* implementation_level */ '2;1');

FILE_NAME(
/* name */ 'USB Halter.step',
/* time_stamp */ '2026-10-02T07:22:45+02:00',
/* author */ (''),
/* organization */ (''),
/* preprocessor_version */ 'ST-DEVELOPER v20.2',
/* originating_system */ 'Autodesk Translation Framework v15.15.0.0',
/* authorisation */ '');

FILE_SCHEMA (('AUTOMOTIVE_DESIGN { 1 0 10303 214 3 1 1 }'));
ENDSEC;

DATA;
#10=MECHANICAL_DESIGN_GEOMETRIC_PRESENTATION_REPRESENTATION('',(#13),#802);
#11=SHAPE_REPRESENTATION_RELATIONSHIP('SRR','None',#809,#12);
#12=ADVANCED_BREP_SHAPE_REPRESENTATION('',(#14),#801);
#13=STYLED_ITEM('',(#818),#14);
#14=MANIFOLD_SOLID_BREP('K\X\F6rper1',#486);
#15=CYLINDRICAL_SURFACE('',#523,1.05);
#16=CYLINDRICAL_SURFACE('',#524,1.05);
#17=CYLINDRICAL_SURFACE('',#533,1.8);
#18=CYLINDRICAL_SURFACE('',#534,1.8);
#19=CYLINDRICAL_SURFACE('',#535,3.);
#20=CYLINDRICAL_SURFACE('',#536,3.00000000000003);
#21=FACE_BOUND('',#70,.T.);
#22=FACE_BOUND('',#71,.T.);
#23=FACE_BOUND('',#73,.T.);
#24=FACE_BOUND('',#75,.T.);
#25=FACE_BOUND('',#85,.T.);
#26=FACE_BOUND('',#86,.T.);
#27=FACE_BOUND('',#92,.T.);
#28=FACE_BOUND('',#94,.T.);
#29=CIRCLE('',#504,3.);
#30=CIRCLE('',#505,3.00000000000003);
#31=CIRCLE('',#506,1.8);
#32=CIRCLE('',#507,1.8);
#33=CIRCLE('',#509,1.05);
#34=CIRCLE('',#511,1.05);
#35=CIRCLE('',#521,1.05);
#36=CIRCLE('',#522,1.05);
#37=CIRCLE('',#528,3.);
#38=CIRCLE('',#529,1.8);
#39=CIRCLE('',#531,3.00000000000003);
#40=CIRCLE('',#532,1.8);
#41=FACE_OUTER_BOUND('',#66,.T.);
#42=FACE_OUTER_BOUND('',#67,.T.);
#43=FACE_OUTER_BOUND('',#68,.T.);
#44=FACE_OUTER_BOUND('',#69,.T.);
#45=FACE_OUTER_BOUND('',#72,.T.);
#46=FACE_OUTER_BOUND('',#74,.T.);
#47=FACE_OUTER_BOUND('',#76,.T.);
#48=FACE_OUTER_BOUND('',#77,.T.);
#49=FACE_OUTER_BOUND('',#78,.T.);
#50=FACE_OUTER_BOUND('',#79,.T.);
#51=FACE_OUTER_BOUND('',#80,.T.);
#52=FACE_OUTER_BOUND('',#81,.T.);
#53=FACE_OUTER_BOUND('',#82,.T.);
#54=FACE_OUTER_BOUND('',#83,.T.);
#55=FACE_OUTER_BOUND('',#84,.T.);
#56=FACE_OUTER_BOUND('',#87,.T.);
#57=FACE_OUTER_BOUND('',#88,.T.);
#58=FACE_OUTER_BOUND('',#89,.T.);
#59=FACE_OUTER_BOUND('',#90,.T.);
#60=FACE_OUTER_BOUND('',#91,.T.);
#61=FACE_OUTER_BOUND('',#93,.T.);
#62=FACE_OUTER_BOUND('',#95,.T.);
#63=FACE_OUTER_BOUND('',#96,.T.);
#64=FACE_OUTER_BOUND('',#97,.T.);
#65=FACE_OUTER_BOUND('',#98,.T.);
#66=EDGE_LOOP('',(#312,#313,#314,#315,#316,#317));
#67=EDGE_LOOP('',(#318,#319,#320,#321,#322,#323));
#68=EDGE_LOOP('',(#324,#325,#326,#327));
#69=EDGE_LOOP('',(#328,#329,#330,#331,#332,#333,#334,#335));
#70=EDGE_LOOP('',(#336));
#71=EDGE_LOOP('',(#337));
#72=EDGE_LOOP('',(#338,#339,#340,#341));
#73=EDGE_LOOP('',(#342));
#74=EDGE_LOOP('',(#343,#344,#345,#346));
#75=EDGE_LOOP('',(#347));
#76=EDGE_LOOP('',(#348,#349,#350,#351,#352));
#77=EDGE_LOOP('',(#353,#354,#355,#356,#357));
#78=EDGE_LOOP('',(#358,#359,#360,#361));
#79=EDGE_LOOP('',(#362,#363,#364,#365));
#80=EDGE_LOOP('',(#366,#367,#368,#369,#370));
#81=EDGE_LOOP('',(#371,#372,#373,#374));
#82=EDGE_LOOP('',(#375,#376,#377,#378));
#83=EDGE_LOOP('',(#379,#380,#381,#382));
#84=EDGE_LOOP('',(#383,#384,#385,#386,#387,#388,#389,#390));
#85=EDGE_LOOP('',(#391));
#86=EDGE_LOOP('',(#392));
#87=EDGE_LOOP('',(#393,#394,#395,#396));
#88=EDGE_LOOP('',(#397,#398,#399,#400));
#89=EDGE_LOOP('',(#401,#402,#403,#404,#405));
#90=EDGE_LOOP('',(#406,#407,#408,#409,#410,#411,#412,#413));
#91=EDGE_LOOP('',(#414,#415,#416,#417,#418));
#92=EDGE_LOOP('',(#419));
#93=EDGE_LOOP('',(#420,#421,#422,#423,#424));
#94=EDGE_LOOP('',(#425));
#95=EDGE_LOOP('',(#426,#427,#428,#429));
#96=EDGE_LOOP('',(#430,#431,#432,#433));
#97=EDGE_LOOP('',(#434,#435,#436,#437));
#98=EDGE_LOOP('',(#438,#439,#440,#441));
#99=LINE('',#670,#152);
#100=LINE('',#672,#153);
#101=LINE('',#674,#154);
#102=LINE('',#676,#155);
#103=LINE('',#678,#156);
#104=LINE('',#679,#157);
#105=LINE('',#683,#158);
#106=LINE('',#685,#159);
#107=LINE('',#687,#160);
#108=LINE('',#689,#161);
#109=LINE('',#691,#162);
#110=LINE('',#692,#163);
#111=LINE('',#694,#164);
#112=LINE('',#695,#165);
#113=LINE('',#698,#166);
#114=LINE('',#702,#167);
#115=LINE('',#705,#168);
#116=LINE('',#712,#169);
#117=LINE('',#714,#170);
#118=LINE('',#715,#171);
#119=LINE('',#720,#172);
#120=LINE('',#722,#173);
#121=LINE('',#723,#174);
#122=LINE('',#728,#175);
#123=LINE('',#730,#176);
#124=LINE('',#731,#177);
#125=LINE('',#734,#178);
#126=LINE('',#736,#179);
#127=LINE('',#737,#180);
#128=LINE('',#739,#181);
#129=LINE('',#741,#182);
#130=LINE('',#744,#183);
#131=LINE('',#746,#184);
#132=LINE('',#747,#185);
#133=LINE('',#751,#186);
#134=LINE('',#752,#187);
#135=LINE('',#753,#188);
#136=LINE('',#757,#189);
#137=LINE('',#759,#190);
#138=LINE('',#761,#191);
#139=LINE('',#762,#192);
#140=LINE('',#764,#193);
#141=LINE('',#765,#194);
#142=LINE('',#768,#195);
#143=LINE('',#770,#196);
#144=LINE('',#771,#197);
#145=LINE('',#772,#198);
#146=LINE('',#778,#199);
#147=LINE('',#780,#200);
#148=LINE('',#782,#201);
#149=LINE('',#783,#202);
#150=LINE('',#794,#203);
#151=LINE('',#796,#204);
#152=VECTOR('',#541,10.);
#153=VECTOR('',#542,10.);
#154=VECTOR('',#543,10.);
#155=VECTOR('',#544,10.);
#156=VECTOR('',#545,10.);
#157=VECTOR('',#546,10.);
#158=VECTOR('',#549,10.);
#159=VECTOR('',#550,10.);
#160=VECTOR('',#551,10.);
#161=VECTOR('',#552,10.);
#162=VECTOR('',#553,10.);
#163=VECTOR('',#554,10.);
#164=VECTOR('',#557,10.);
#165=VECTOR('',#558,10.);
#166=VECTOR('',#561,10.);
#167=VECTOR('',#564,10.);
#168=VECTOR('',#567,10.);
#169=VECTOR('',#574,10.);
#170=VECTOR('',#575,10.);
#171=VECTOR('',#576,10.);
#172=VECTOR('',#581,10.);
#173=VECTOR('',#582,10.);
#174=VECTOR('',#583,10.);
#175=VECTOR('',#588,10.);
#176=VECTOR('',#589,10.);
#177=VECTOR('',#590,10.);
#178=VECTOR('',#593,10.);
#179=VECTOR('',#594,10.);
#180=VECTOR('',#595,10.);
#181=VECTOR('',#598,10.);
#182=VECTOR('',#601,10.);
#183=VECTOR('',#604,10.);
#184=VECTOR('',#605,10.);
#185=VECTOR('',#606,10.);
#186=VECTOR('',#609,10.);
#187=VECTOR('',#610,10.);
#188=VECTOR('',#611,10.);
#189=VECTOR('',#614,10.);
#190=VECTOR('',#615,10.);
#191=VECTOR('',#616,10.);
#192=VECTOR('',#617,10.);
#193=VECTOR('',#620,10.);
#194=VECTOR('',#621,10.);
#195=VECTOR('',#624,10.);
#196=VECTOR('',#625,10.);
#197=VECTOR('',#626,10.);
#198=VECTOR('',#627,10.);
#199=VECTOR('',#634,1.05);
#200=VECTOR('',#637,1.05);
#201=VECTOR('',#640,10.);
#202=VECTOR('',#641,10.);
#203=VECTOR('',#658,1.8);
#204=VECTOR('',#661,1.8);
#205=VERTEX_POINT('',#668);
#206=VERTEX_POINT('',#669);
#207=VERTEX_POINT('',#671);
#208=VERTEX_POINT('',#673);
#209=VERTEX_POINT('',#675);
#210=VERTEX_POINT('',#677);
#211=VERTEX_POINT('',#681);
#212=VERTEX_POINT('',#682);
#213=VERTEX_POINT('',#684);
#214=VERTEX_POINT('',#686);
#215=VERTEX_POINT('',#688);
#216=VERTEX_POINT('',#690);
#217=VERTEX_POINT('',#697);
#218=VERTEX_POINT('',#699);
#219=VERTEX_POINT('',#701);
#220=VERTEX_POINT('',#703);
#221=VERTEX_POINT('',#706);
#222=VERTEX_POINT('',#708);
#223=VERTEX_POINT('',#711);
#224=VERTEX_POINT('',#713);
#225=VERTEX_POINT('',#716);
#226=VERTEX_POINT('',#719);
#227=VERTEX_POINT('',#721);
#228=VERTEX_POINT('',#724);
#229=VERTEX_POINT('',#727);
#230=VERTEX_POINT('',#729);
#231=VERTEX_POINT('',#733);
#232=VERTEX_POINT('',#735);
#233=VERTEX_POINT('',#743);
#234=VERTEX_POINT('',#745);
#235=VERTEX_POINT('',#749);
#236=VERTEX_POINT('',#750);
#237=VERTEX_POINT('',#755);
#238=VERTEX_POINT('',#756);
#239=VERTEX_POINT('',#758);
#240=VERTEX_POINT('',#760);
#241=VERTEX_POINT('',#767);
#242=VERTEX_POINT('',#769);
#243=VERTEX_POINT('',#773);
#244=VERTEX_POINT('',#775);
#245=VERTEX_POINT('',#787);
#246=VERTEX_POINT('',#791);
#247=EDGE_CURVE('',#205,#206,#99,.T.);
#248=EDGE_CURVE('',#207,#205,#100,.T.);
#249=EDGE_CURVE('',#208,#207,#101,.T.);
#250=EDGE_CURVE('',#209,#208,#102,.T.);
#251=EDGE_CURVE('',#210,#209,#103,.T.);
#252=EDGE_CURVE('',#206,#210,#104,.T.);
#253=EDGE_CURVE('',#211,#212,#105,.T.);
#254=EDGE_CURVE('',#213,#211,#106,.T.);
#255=EDGE_CURVE('',#214,#213,#107,.T.);
#256=EDGE_CURVE('',#215,#214,#108,.T.);
#257=EDGE_CURVE('',#215,#216,#109,.T.);
#258=EDGE_CURVE('',#212,#216,#110,.T.);
#259=EDGE_CURVE('',#216,#207,#111,.T.);
#260=EDGE_CURVE('',#208,#215,#112,.T.);
#261=EDGE_CURVE('',#205,#217,#113,.T.);
#262=EDGE_CURVE('',#217,#218,#29,.T.);
#263=EDGE_CURVE('',#218,#219,#114,.T.);
#264=EDGE_CURVE('',#219,#220,#30,.T.);
#265=EDGE_CURVE('',#220,#212,#115,.T.);
#266=EDGE_CURVE('',#221,#221,#31,.T.);
#267=EDGE_CURVE('',#222,#222,#32,.T.);
#268=EDGE_CURVE('',#223,#209,#116,.T.);
#269=EDGE_CURVE('',#224,#223,#117,.T.);
#270=EDGE_CURVE('',#224,#210,#118,.T.);
#271=EDGE_CURVE('',#225,#225,#33,.T.);
#272=EDGE_CURVE('',#213,#226,#119,.T.);
#273=EDGE_CURVE('',#226,#227,#120,.T.);
#274=EDGE_CURVE('',#214,#227,#121,.T.);
#275=EDGE_CURVE('',#228,#228,#34,.T.);
#276=EDGE_CURVE('',#206,#229,#122,.T.);
#277=EDGE_CURVE('',#229,#230,#123,.T.);
#278=EDGE_CURVE('',#230,#217,#124,.T.);
#279=EDGE_CURVE('',#231,#220,#125,.T.);
#280=EDGE_CURVE('',#231,#232,#126,.T.);
#281=EDGE_CURVE('',#232,#211,#127,.T.);
#282=EDGE_CURVE('',#229,#224,#128,.T.);
#283=EDGE_CURVE('',#226,#232,#129,.T.);
#284=EDGE_CURVE('',#233,#223,#130,.T.);
#285=EDGE_CURVE('',#234,#233,#131,.T.);
#286=EDGE_CURVE('',#229,#234,#132,.T.);
#287=EDGE_CURVE('',#235,#236,#133,.T.);
#288=EDGE_CURVE('',#236,#234,#134,.F.);
#289=EDGE_CURVE('',#233,#235,#135,.T.);
#290=EDGE_CURVE('',#237,#238,#136,.T.);
#291=EDGE_CURVE('',#238,#239,#137,.F.);
#292=EDGE_CURVE('',#239,#240,#138,.T.);
#293=EDGE_CURVE('',#240,#237,#139,.T.);
#294=EDGE_CURVE('',#233,#237,#140,.T.);
#295=EDGE_CURVE('',#240,#235,#141,.T.);
#296=EDGE_CURVE('',#236,#241,#142,.T.);
#297=EDGE_CURVE('',#242,#239,#143,.T.);
#298=EDGE_CURVE('',#242,#219,#144,.T.);
#299=EDGE_CURVE('',#241,#218,#145,.T.);
#300=EDGE_CURVE('',#243,#243,#35,.T.);
#301=EDGE_CURVE('',#244,#244,#36,.T.);
#302=EDGE_CURVE('',#244,#228,#146,.T.);
#303=EDGE_CURVE('',#243,#225,#147,.T.);
#304=EDGE_CURVE('',#238,#232,#148,.T.);
#305=EDGE_CURVE('',#227,#237,#149,.T.);
#306=EDGE_CURVE('',#230,#241,#37,.T.);
#307=EDGE_CURVE('',#245,#245,#38,.T.);
#308=EDGE_CURVE('',#242,#231,#39,.T.);
#309=EDGE_CURVE('',#246,#246,#40,.T.);
#310=EDGE_CURVE('',#221,#246,#150,.T.);
#311=EDGE_CURVE('',#222,#245,#151,.T.);
#312=ORIENTED_EDGE('',*,*,#247,.F.);
#313=ORIENTED_EDGE('',*,*,#248,.F.);
#314=ORIENTED_EDGE('',*,*,#249,.F.);
#315=ORIENTED_EDGE('',*,*,#250,.F.);
#316=ORIENTED_EDGE('',*,*,#251,.F.);
#317=ORIENTED_EDGE('',*,*,#252,.F.);
#318=ORIENTED_EDGE('',*,*,#253,.F.);
#319=ORIENTED_EDGE('',*,*,#254,.F.);
#320=ORIENTED_EDGE('',*,*,#255,.F.);
#321=ORIENTED_EDGE('',*,*,#256,.F.);
#322=ORIENTED_EDGE('',*,*,#257,.T.);
#323=ORIENTED_EDGE('',*,*,#258,.F.);
#324=ORIENTED_EDGE('',*,*,#259,.F.);
#325=ORIENTED_EDGE('',*,*,#257,.F.);
#326=ORIENTED_EDGE('',*,*,#260,.F.);
#327=ORIENTED_EDGE('',*,*,#249,.T.);
#328=ORIENTED_EDGE('',*,*,#258,.T.);
#329=ORIENTED_EDGE('',*,*,#259,.T.);
#330=ORIENTED_EDGE('',*,*,#248,.T.);
#331=ORIENTED_EDGE('',*,*,#261,.T.);
#332=ORIENTED_EDGE('',*,*,#262,.T.);
#333=ORIENTED_EDGE('',*,*,#263,.T.);
#334=ORIENTED_EDGE('',*,*,#264,.T.);
#335=ORIENTED_EDGE('',*,*,#265,.T.);
#336=ORIENTED_EDGE('',*,*,#266,.T.);
#337=ORIENTED_EDGE('',*,*,#267,.T.);
#338=ORIENTED_EDGE('',*,*,#251,.T.);
#339=ORIENTED_EDGE('',*,*,#268,.F.);
#340=ORIENTED_EDGE('',*,*,#269,.F.);
#341=ORIENTED_EDGE('',*,*,#270,.T.);
#342=ORIENTED_EDGE('',*,*,#271,.T.);
#343=ORIENTED_EDGE('',*,*,#255,.T.);
#344=ORIENTED_EDGE('',*,*,#272,.T.);
#345=ORIENTED_EDGE('',*,*,#273,.T.);
#346=ORIENTED_EDGE('',*,*,#274,.F.);
#347=ORIENTED_EDGE('',*,*,#275,.T.);
#348=ORIENTED_EDGE('',*,*,#247,.T.);
#349=ORIENTED_EDGE('',*,*,#276,.T.);
#350=ORIENTED_EDGE('',*,*,#277,.T.);
#351=ORIENTED_EDGE('',*,*,#278,.T.);
#352=ORIENTED_EDGE('',*,*,#261,.F.);
#353=ORIENTED_EDGE('',*,*,#253,.T.);
#354=ORIENTED_EDGE('',*,*,#265,.F.);
#355=ORIENTED_EDGE('',*,*,#279,.F.);
#356=ORIENTED_EDGE('',*,*,#280,.T.);
#357=ORIENTED_EDGE('',*,*,#281,.T.);
#358=ORIENTED_EDGE('',*,*,#252,.T.);
#359=ORIENTED_EDGE('',*,*,#270,.F.);
#360=ORIENTED_EDGE('',*,*,#282,.F.);
#361=ORIENTED_EDGE('',*,*,#276,.F.);
#362=ORIENTED_EDGE('',*,*,#254,.T.);
#363=ORIENTED_EDGE('',*,*,#281,.F.);
#364=ORIENTED_EDGE('',*,*,#283,.F.);
#365=ORIENTED_EDGE('',*,*,#272,.F.);
#366=ORIENTED_EDGE('',*,*,#282,.T.);
#367=ORIENTED_EDGE('',*,*,#269,.T.);
#368=ORIENTED_EDGE('',*,*,#284,.F.);
#369=ORIENTED_EDGE('',*,*,#285,.F.);
#370=ORIENTED_EDGE('',*,*,#286,.F.);
#371=ORIENTED_EDGE('',*,*,#287,.T.);
#372=ORIENTED_EDGE('',*,*,#288,.T.);
#373=ORIENTED_EDGE('',*,*,#285,.T.);
#374=ORIENTED_EDGE('',*,*,#289,.T.);
#375=ORIENTED_EDGE('',*,*,#290,.T.);
#376=ORIENTED_EDGE('',*,*,#291,.T.);
#377=ORIENTED_EDGE('',*,*,#292,.T.);
#378=ORIENTED_EDGE('',*,*,#293,.T.);
#379=ORIENTED_EDGE('',*,*,#294,.T.);
#380=ORIENTED_EDGE('',*,*,#293,.F.);
#381=ORIENTED_EDGE('',*,*,#295,.T.);
#382=ORIENTED_EDGE('',*,*,#289,.F.);
#383=ORIENTED_EDGE('',*,*,#296,.F.);
#384=ORIENTED_EDGE('',*,*,#287,.F.);
#385=ORIENTED_EDGE('',*,*,#295,.F.);
#386=ORIENTED_EDGE('',*,*,#292,.F.);
#387=ORIENTED_EDGE('',*,*,#297,.F.);
#388=ORIENTED_EDGE('',*,*,#298,.T.);
#389=ORIENTED_EDGE('',*,*,#263,.F.);
#390=ORIENTED_EDGE('',*,*,#299,.F.);
#391=ORIENTED_EDGE('',*,*,#300,.T.);
#392=ORIENTED_EDGE('',*,*,#301,.T.);
#393=ORIENTED_EDGE('',*,*,#301,.F.);
#394=ORIENTED_EDGE('',*,*,#302,.T.);
#395=ORIENTED_EDGE('',*,*,#275,.F.);
#396=ORIENTED_EDGE('',*,*,#302,.F.);
#397=ORIENTED_EDGE('',*,*,#300,.F.);
#398=ORIENTED_EDGE('',*,*,#303,.T.);
#399=ORIENTED_EDGE('',*,*,#271,.F.);
#400=ORIENTED_EDGE('',*,*,#303,.F.);
#401=ORIENTED_EDGE('',*,*,#283,.T.);
#402=ORIENTED_EDGE('',*,*,#304,.F.);
#403=ORIENTED_EDGE('',*,*,#290,.F.);
#404=ORIENTED_EDGE('',*,*,#305,.F.);
#405=ORIENTED_EDGE('',*,*,#273,.F.);
#406=ORIENTED_EDGE('',*,*,#256,.T.);
#407=ORIENTED_EDGE('',*,*,#274,.T.);
#408=ORIENTED_EDGE('',*,*,#305,.T.);
#409=ORIENTED_EDGE('',*,*,#294,.F.);
#410=ORIENTED_EDGE('',*,*,#284,.T.);
#411=ORIENTED_EDGE('',*,*,#268,.T.);
#412=ORIENTED_EDGE('',*,*,#250,.T.);
#413=ORIENTED_EDGE('',*,*,#260,.T.);
#414=ORIENTED_EDGE('',*,*,#286,.T.);
#415=ORIENTED_EDGE('',*,*,#288,.F.);
#416=ORIENTED_EDGE('',*,*,#296,.T.);
#417=ORIENTED_EDGE('',*,*,#306,.F.);
#418=ORIENTED_EDGE('',*,*,#277,.F.);
#419=ORIENTED_EDGE('',*,*,#307,.F.);
#420=ORIENTED_EDGE('',*,*,#304,.T.);
#421=ORIENTED_EDGE('',*,*,#280,.F.);
#422=ORIENTED_EDGE('',*,*,#308,.F.);
#423=ORIENTED_EDGE('',*,*,#297,.T.);
#424=ORIENTED_EDGE('',*,*,#291,.F.);
#425=ORIENTED_EDGE('',*,*,#309,.F.);
#426=ORIENTED_EDGE('',*,*,#266,.F.);
#427=ORIENTED_EDGE('',*,*,#310,.T.);
#428=ORIENTED_EDGE('',*,*,#309,.T.);
#429=ORIENTED_EDGE('',*,*,#310,.F.);
#430=ORIENTED_EDGE('',*,*,#267,.F.);
#431=ORIENTED_EDGE('',*,*,#311,.T.);
#432=ORIENTED_EDGE('',*,*,#307,.T.);
#433=ORIENTED_EDGE('',*,*,#311,.F.);
#434=ORIENTED_EDGE('',*,*,#306,.T.);
#435=ORIENTED_EDGE('',*,*,#299,.T.);
#436=ORIENTED_EDGE('',*,*,#262,.F.);
#437=ORIENTED_EDGE('',*,*,#278,.F.);
#438=ORIENTED_EDGE('',*,*,#308,.T.);
#439=ORIENTED_EDGE('',*,*,#279,.T.);
#440=ORIENTED_EDGE('',*,*,#264,.F.);
#441=ORIENTED_EDGE('',*,*,#298,.F.);
#442=PLANE('',#500);
#443=PLANE('',#501);
#444=PLANE('',#502);
#445=PLANE('',#503);
#446=PLANE('',#508);
#447=PLANE('',#510);
#448=PLANE('',#512);
#449=PLANE('',#513);
#450=PLANE('',#514);
#451=PLANE('',#515);
#452=PLANE('',#516);
#453=PLANE('',#517);
#454=PLANE('',#518);
#455=PLANE('',#519);
#456=PLANE('',#520);
#457=PLANE('',#525);
#458=PLANE('',#526);
#459=PLANE('',#527);
#460=PLANE('',#530);
#461=ADVANCED_FACE('',(#41),#442,.F.);
#462=ADVANCED_FACE('',(#42),#443,.F.);
#463=ADVANCED_FACE('',(#43),#444,.F.);
#464=ADVANCED_FACE('',(#44,#21,#22),#445,.T.);
#465=ADVANCED_FACE('',(#45,#23),#446,.T.);
#466=ADVANCED_FACE('',(#46,#24),#447,.T.);
#467=ADVANCED_FACE('',(#47),#448,.T.);
#468=ADVANCED_FACE('',(#48),#449,.T.);
#469=ADVANCED_FACE('',(#49),#450,.F.);
#470=ADVANCED_FACE('',(#50),#451,.F.);
#471=ADVANCED_FACE('',(#51),#452,.T.);
#472=ADVANCED_FACE('',(#52),#453,.T.);
#473=ADVANCED_FACE('',(#53),#454,.T.);
#474=ADVANCED_FACE('',(#54),#455,.T.);
#475=ADVANCED_FACE('',(#55,#25,#26),#456,.T.);
#476=ADVANCED_FACE('',(#56),#15,.F.);
#477=ADVANCED_FACE('',(#57),#16,.F.);
#478=ADVANCED_FACE('',(#58),#457,.T.);
#479=ADVANCED_FACE('',(#59),#458,.T.);
#480=ADVANCED_FACE('',(#60,#27),#459,.F.);
#481=ADVANCED_FACE('',(#61,#28),#460,.F.);
#482=ADVANCED_FACE('',(#62),#17,.F.);
#483=ADVANCED_FACE('',(#63),#18,.F.);
#484=ADVANCED_FACE('',(#64),#19,.T.);
#485=ADVANCED_FACE('',(#65),#20,.T.);
#486=CLOSED_SHELL('',(#461,#462,#463,#464,#465,#466,#467,#468,#469,#470,
#471,#472,#473,#474,#475,#476,#477,#478,#479,#480,#481,#482,#483,#484,#485));
#487=DERIVED_UNIT_ELEMENT(#489,1.);
#488=DERIVED_UNIT_ELEMENT(#804,-3.);
#489=(
MASS_UNIT()
NAMED_UNIT(*)
SI_UNIT(.KILO.,.GRAM.)
);
#490=DERIVED_UNIT((#487,#488));
#491=MEASURE_REPRESENTATION_ITEM('density measure',
POSITIVE_RATIO_MEASURE(7850.),#490);
#492=PROPERTY_DEFINITION_REPRESENTATION(#497,#494);
#493=PROPERTY_DEFINITION_REPRESENTATION(#498,#495);
#494=REPRESENTATION('material name',(#496),#801);
#495=REPRESENTATION('density',(#491),#801);
#496=DESCRIPTIVE_REPRESENTATION_ITEM('Stahl','Stahl');
#497=PROPERTY_DEFINITION('material property','material name',#811);
#498=PROPERTY_DEFINITION('material property','density of part',#811);
#499=AXIS2_PLACEMENT_3D('',#666,#537,#538);
#500=AXIS2_PLACEMENT_3D('',#667,#539,#540);
#501=AXIS2_PLACEMENT_3D('',#680,#547,#548);
#502=AXIS2_PLACEMENT_3D('',#693,#555,#556);
#503=AXIS2_PLACEMENT_3D('',#696,#559,#560);
#504=AXIS2_PLACEMENT_3D('',#700,#562,#563);
#505=AXIS2_PLACEMENT_3D('',#704,#565,#566);
#506=AXIS2_PLACEMENT_3D('',#707,#568,#569);
#507=AXIS2_PLACEMENT_3D('',#709,#570,#571);
#508=AXIS2_PLACEMENT_3D('',#710,#572,#573);
#509=AXIS2_PLACEMENT_3D('',#717,#577,#578);
#510=AXIS2_PLACEMENT_3D('',#718,#579,#580);
#511=AXIS2_PLACEMENT_3D('',#725,#584,#585);
#512=AXIS2_PLACEMENT_3D('',#726,#586,#587);
#513=AXIS2_PLACEMENT_3D('',#732,#591,#592);
#514=AXIS2_PLACEMENT_3D('',#738,#596,#597);
#515=AXIS2_PLACEMENT_3D('',#740,#599,#600);
#516=AXIS2_PLACEMENT_3D('',#742,#602,#603);
#517=AXIS2_PLACEMENT_3D('',#748,#607,#608);
#518=AXIS2_PLACEMENT_3D('',#754,#612,#613);
#519=AXIS2_PLACEMENT_3D('',#763,#618,#619);
#520=AXIS2_PLACEMENT_3D('',#766,#622,#623);
#521=AXIS2_PLACEMENT_3D('',#774,#628,#629);
#522=AXIS2_PLACEMENT_3D('',#776,#630,#631);
#523=AXIS2_PLACEMENT_3D('',#777,#632,#633);
#524=AXIS2_PLACEMENT_3D('',#779,#635,#636);
#525=AXIS2_PLACEMENT_3D('',#781,#638,#639);
#526=AXIS2_PLACEMENT_3D('',#784,#642,#643);
#527=AXIS2_PLACEMENT_3D('',#785,#644,#645);
#528=AXIS2_PLACEMENT_3D('',#786,#646,#647);
#529=AXIS2_PLACEMENT_3D('',#788,#648,#649);
#530=AXIS2_PLACEMENT_3D('',#789,#650,#651);
#531=AXIS2_PLACEMENT_3D('',#790,#652,#653);
#532=AXIS2_PLACEMENT_3D('',#792,#654,#655);
#533=AXIS2_PLACEMENT_3D('',#793,#656,#657);
#534=AXIS2_PLACEMENT_3D('',#795,#659,#660);
#535=AXIS2_PLACEMENT_3D('',#797,#662,#663);
#536=AXIS2_PLACEMENT_3D('',#798,#664,#665);
#537=DIRECTION('axis',(0.,0.,1.));
#538=DIRECTION('refdir',(1.,0.,0.));
#539=DIRECTION('center_axis',(0.573576436351046,0.819152044288992,0.));
#540=DIRECTION('ref_axis',(-0.819152044288992,0.573576436351046,0.));
#541=DIRECTION('',(0.,0.,-1.));
#542=DIRECTION('',(0.819152044288992,-0.573576436351046,0.));
#543=DIRECTION('',(0.,0.,1.));
#544=DIRECTION('',(-0.819152044288992,0.573576436351046,0.));
#545=DIRECTION('',(0.,0.,-1.));
#546=DIRECTION('',(0.289528354641405,-0.202729936445365,-0.935453849597883));
#547=DIRECTION('center_axis',(-0.573576436351045,0.819152044288993,0.));
#548=DIRECTION('ref_axis',(-0.819152044288992,-0.573576436351045,0.));
#549=DIRECTION('',(0.,0.,1.));
#550=DIRECTION('',(0.289528354641405,0.202729936445365,0.935453849597883));
#551=DIRECTION('',(0.,0.,1.));
#552=DIRECTION('',(-0.819152044288992,-0.573576436351045,0.));
#553=DIRECTION('',(0.,0.,1.));
#554=DIRECTION('',(0.819152044288992,0.573576436351045,0.));
#555=DIRECTION('center_axis',(9.11212651940817E-16,1.,0.));
#556=DIRECTION('ref_axis',(-1.,9.11212651940817E-16,0.));
#557=DIRECTION('',(1.,-9.11212651940817E-16,0.));
#558=DIRECTION('',(-1.,9.11212651940817E-16,0.));
#559=DIRECTION('center_axis',(0.,0.,1.));
#560=DIRECTION('ref_axis',(1.,0.,0.));
#561=DIRECTION('',(1.,0.,0.));
#562=DIRECTION('center_axis',(0.,0.,1.));
#563=DIRECTION('ref_axis',(0.,-1.,0.));
#564=DIRECTION('',(-1.,0.,0.));
#565=DIRECTION('center_axis',(0.,0.,1.));
#566=DIRECTION('ref_axis',(-1.39077503587732E-7,0.99999999999999,0.));
#567=DIRECTION('',(1.,0.,0.));
#568=DIRECTION('center_axis',(0.,0.,-1.));
#569=DIRECTION('ref_axis',(1.,0.,0.));
#570=DIRECTION('center_axis',(0.,0.,-1.));
#571=DIRECTION('ref_axis',(1.,0.,0.));
#572=DIRECTION('center_axis',(-1.80733980752932E-16,-1.,0.));
#573=DIRECTION('ref_axis',(-1.,1.80733980752932E-16,0.));
#574=DIRECTION('',(-1.,1.80733980752932E-16,0.));
#575=DIRECTION('',(0.,0.,-1.));
#576=DIRECTION('',(-1.,1.80733980752932E-16,8.3395822547423E-16));
#577=DIRECTION('center_axis',(1.80733980752932E-16,1.,0.));
#578=DIRECTION('ref_axis',(-1.,0.,0.));
#579=DIRECTION('center_axis',(-1.80733980752932E-16,-1.,0.));
#580=DIRECTION('ref_axis',(-1.,1.80733980752932E-16,0.));
#581=DIRECTION('',(-1.,1.80733980752932E-16,8.3395822547423E-16));
#582=DIRECTION('',(0.,0.,-1.));
#583=DIRECTION('',(-1.,1.80733980752932E-16,0.));
#584=DIRECTION('center_axis',(1.80733980752932E-16,1.,0.));
#585=DIRECTION('ref_axis',(-1.,0.,0.));
#586=DIRECTION('center_axis',(0.,-1.,0.));
#587=DIRECTION('ref_axis',(1.,0.,0.));
#588=DIRECTION('',(1.,0.,0.));
#589=DIRECTION('',(1.,0.,0.));
#590=DIRECTION('',(0.,0.,1.));
#591=DIRECTION('center_axis',(0.,-1.,0.));
#592=DIRECTION('ref_axis',(1.,0.,0.));
#593=DIRECTION('',(0.,0.,1.));
#594=DIRECTION('',(1.,0.,0.));
#595=DIRECTION('',(1.,0.,0.));
#596=DIRECTION('center_axis',(0.,0.977312702499413,-0.211801514473561));
#597=DIRECTION('ref_axis',(0.,0.211801514473561,0.977312702499413));
#598=DIRECTION('',(0.,-0.211801514473561,-0.977312702499413));
#599=DIRECTION('center_axis',(0.,0.977312702499413,-0.211801514473561));
#600=DIRECTION('ref_axis',(0.,0.211801514473561,0.977312702499413));
#601=DIRECTION('',(0.,0.211801514473561,0.977312702499413));
#602=DIRECTION('center_axis',(1.,0.,0.));
#603=DIRECTION('ref_axis',(0.,-1.,0.));
#604=DIRECTION('',(0.,-1.,0.));
#605=DIRECTION('',(0.,0.,-1.));
#606=DIRECTION('',(0.,1.,0.));
#607=DIRECTION('center_axis',(0.707106781186548,0.707106781186548,0.));
#608=DIRECTION('ref_axis',(0.,0.,-1.));
#609=DIRECTION('',(0.,0.,1.));
#610=DIRECTION('',(-0.707106781186548,0.707106781186548,0.));
#611=DIRECTION('',(-0.577350269189626,0.577350269189626,0.577350269189626));
#612=DIRECTION('center_axis',(-0.707106781186547,0.707106781186548,0.));
#613=DIRECTION('ref_axis',(0.,0.,1.));
#614=DIRECTION('',(0.,0.,1.));
#615=DIRECTION('',(-0.707106781186548,-0.707106781186547,0.));
#616=DIRECTION('',(0.,0.,-1.));
#617=DIRECTION('',(-0.577350269189626,-0.577350269189626,-0.577350269189626));
#618=DIRECTION('center_axis',(0.,0.707106781186547,-0.707106781186548));
#619=DIRECTION('ref_axis',(-1.,0.,0.));
#620=DIRECTION('',(-1.,0.,0.));
#621=DIRECTION('',(1.,0.,0.));
#622=DIRECTION('center_axis',(0.,1.,0.));
#623=DIRECTION('ref_axis',(-1.,0.,0.));
#624=DIRECTION('',(1.,0.,0.));
#625=DIRECTION('',(1.,0.,0.));
#626=DIRECTION('',(0.,0.,1.));
#627=DIRECTION('',(0.,0.,1.));
#628=DIRECTION('center_axis',(0.,-1.,0.));
#629=DIRECTION('ref_axis',(-1.,0.,0.));
#630=DIRECTION('center_axis',(0.,-1.,0.));
#631=DIRECTION('ref_axis',(-1.,0.,0.));
#632=DIRECTION('center_axis',(0.,-1.,0.));
#633=DIRECTION('ref_axis',(-1.,0.,0.));
#634=DIRECTION('',(0.,-1.,0.));
#635=DIRECTION('center_axis',(0.,-1.,0.));
#636=DIRECTION('ref_axis',(-1.,0.,0.));
#637=DIRECTION('',(0.,-1.,0.));
#638=DIRECTION('center_axis',(-1.,0.,0.));
#639=DIRECTION('ref_axis',(0.,1.,0.));
#640=DIRECTION('',(0.,-1.,0.));
#641=DIRECTION('',(0.,1.,0.));
#642=DIRECTION('center_axis',(0.,0.,-1.));
#643=DIRECTION('ref_axis',(-1.,0.,0.));
#644=DIRECTION('center_axis',(0.,0.,1.));
#645=DIRECTION('ref_axis',(1.,0.,0.));
#646=DIRECTION('center_axis',(0.,0.,1.));
#647=DIRECTION('ref_axis',(0.,-1.,0.));
#648=DIRECTION('center_axis',(0.,0.,-1.));
#649=DIRECTION('ref_axis',(1.,0.,0.));
#650=DIRECTION('center_axis',(0.,0.,1.));
#651=DIRECTION('ref_axis',(1.,0.,0.));
#652=DIRECTION('center_axis',(0.,0.,1.));
#653=DIRECTION('ref_axis',(-1.39077503587732E-7,0.99999999999999,0.));
#654=DIRECTION('center_axis',(0.,0.,-1.));
#655=DIRECTION('ref_axis',(1.,0.,0.));
#656=DIRECTION('center_axis',(0.,0.,1.));
#657=DIRECTION('ref_axis',(1.,0.,0.));
#658=DIRECTION('',(0.,0.,-1.));
#659=DIRECTION('center_axis',(0.,0.,1.));
#660=DIRECTION('ref_axis',(1.,0.,0.));
#661=DIRECTION('',(0.,0.,-1.));
#662=DIRECTION('center_axis',(0.,0.,1.));
#663=DIRECTION('ref_axis',(0.,-1.,0.));
#664=DIRECTION('center_axis',(0.,0.,1.));
#665=DIRECTION('ref_axis',(-1.39077503587732E-7,0.99999999999999,0.));
#666=CARTESIAN_POINT('',(0.,0.,0.));
#667=CARTESIAN_POINT('Origin',(-8.25,-3.70000000000001,-8.23));
#668=CARTESIAN_POINT('',(-9.2497036047195,-3.,3.));
#669=CARTESIAN_POINT('',(-9.2497036047195,-3.,0.));
#670=CARTESIAN_POINT('',(-9.2497036047195,-3.,-4.115));
#671=CARTESIAN_POINT('',(-11.1062960134842,-1.70000000000002,3.));
#672=CARTESIAN_POINT('',(-11.0483696302576,-1.74056049019651,3.));
#673=CARTESIAN_POINT('',(-11.1062960134842,-1.70000000000002,-8.23));
#674=CARTESIAN_POINT('',(-11.1062960134842,-1.70000000000002,-8.23));
#675=CARTESIAN_POINT('',(-8.25,-3.70000000000001,-8.23));
#676=CARTESIAN_POINT('',(-10.9661465259389,-1.79813372765552,-8.23));
#677=CARTESIAN_POINT('',(-8.25,-3.70000000000001,-3.23));
#678=CARTESIAN_POINT('',(-8.25,-3.70000000000001,-4.115));
#679=CARTESIAN_POINT('',(-8.26446897737361,-3.68986871297283,-3.18325134700314));
#680=CARTESIAN_POINT('Origin',(-16.8937039865158,-1.70000000000001,-8.23));
#681=CARTESIAN_POINT('',(-18.7502963952805,-3.,0.));
#682=CARTESIAN_POINT('',(-18.7502963952805,-3.,3.));
#683=CARTESIAN_POINT('',(-18.7502963952805,-3.,-4.115));
#684=CARTESIAN_POINT('',(-19.75,-3.70000000000001,-3.22999999999999));
#685=CARTESIAN_POINT('',(-20.4582547511925,-4.19592531575785,-5.51834109985397));
#686=CARTESIAN_POINT('',(-19.75,-3.70000000000001,-8.23));
#687=CARTESIAN_POINT('',(-19.75,-3.70000000000001,-4.115));
#688=CARTESIAN_POINT('',(-16.8937039865158,-1.70000000000001,-8.23));
#689=CARTESIAN_POINT('',(-15.605705467319,-0.798133727655518,-8.23));
#690=CARTESIAN_POINT('',(-16.8937039865158,-1.70000000000001,3.));
#691=CARTESIAN_POINT('',(-16.8937039865158,-1.70000000000001,-8.23));
#692=CARTESIAN_POINT('',(-15.5234823630003,-0.74056049019652,3.));
#693=CARTESIAN_POINT('Origin',(-11.1062960134842,-1.70000000000002,-8.23));
#694=CARTESIAN_POINT('',(-12.5531480067421,-1.70000000000002,3.));
#695=CARTESIAN_POINT('',(-12.5531480067421,-1.70000000000002,-8.23));
#696=CARTESIAN_POINT('Origin',(-14.,-1.49880108324396E-14,3.));
#697=CARTESIAN_POINT('',(0.,-3.,3.));
#698=CARTESIAN_POINT('',(-28.,-3.,3.));
#699=CARTESIAN_POINT('',(2.77555756156289E-16,3.,3.));
#700=CARTESIAN_POINT('Origin',(0.,0.,3.));
#701=CARTESIAN_POINT('',(-28.0000004172325,3.,3.));
#702=CARTESIAN_POINT('',(-28.0000004172325,3.,3.));
#703=CARTESIAN_POINT('',(-27.9999999997338,-3.00000000000003,3.));
#704=CARTESIAN_POINT('Origin',(-28.,0.,3.));
#705=CARTESIAN_POINT('',(-28.,-3.,3.));
#706=CARTESIAN_POINT('',(-29.8,-2.20436423846524E-16,3.));
#707=CARTESIAN_POINT('Origin',(-28.,0.,3.));
#708=CARTESIAN_POINT('',(-1.8,-2.20436423846524E-16,3.));
#709=CARTESIAN_POINT('Origin',(0.,0.,3.));
#710=CARTESIAN_POINT('Origin',(-3.25,-3.70000000000001,0.));
#711=CARTESIAN_POINT('',(-3.25,-3.70000000000001,-8.23));
#712=CARTESIAN_POINT('',(-3.25,-3.70000000000001,-8.23));
#713=CARTESIAN_POINT('',(-3.25,-3.70000000000001,-3.23));
#714=CARTESIAN_POINT('',(-3.25,-3.70000000000001,0.));
#715=CARTESIAN_POINT('',(-14.,-3.70000000000001,-3.23));
#716=CARTESIAN_POINT('',(-4.7,-3.70000000000001,-5.73));
#717=CARTESIAN_POINT('Origin',(-5.75,-3.70000000000001,-5.73));
#718=CARTESIAN_POINT('Origin',(-3.25,-3.70000000000001,0.));
#719=CARTESIAN_POINT('',(-24.75,-3.70000000000001,-3.23));
#720=CARTESIAN_POINT('',(-14.,-3.70000000000001,-3.23));
#721=CARTESIAN_POINT('',(-24.75,-3.70000000000001,-8.23));
#722=CARTESIAN_POINT('',(-24.75,-3.70000000000001,0.));
#723=CARTESIAN_POINT('',(-3.25,-3.70000000000001,-8.23));
#724=CARTESIAN_POINT('',(-21.2,-3.70000000000001,-5.73));
#725=CARTESIAN_POINT('Origin',(-22.25,-3.70000000000001,-5.73));
#726=CARTESIAN_POINT('Origin',(-27.9999999997338,-3.,0.));
#727=CARTESIAN_POINT('',(-3.25,-3.,0.));
#728=CARTESIAN_POINT('',(-28.,-3.,0.));
#729=CARTESIAN_POINT('',(0.,-3.,0.));
#730=CARTESIAN_POINT('',(-28.,-3.,0.));
#731=CARTESIAN_POINT('',(0.,-3.,0.));
#732=CARTESIAN_POINT('Origin',(-27.9999999997338,-3.,0.));
#733=CARTESIAN_POINT('',(-27.9999999997338,-3.00000000000003,0.));
#734=CARTESIAN_POINT('',(-27.9999999997338,-3.00000000000003,0.));
#735=CARTESIAN_POINT('',(-24.75,-3.,0.));
#736=CARTESIAN_POINT('',(-28.,-3.,0.));
#737=CARTESIAN_POINT('',(-28.,-3.,0.));
#738=CARTESIAN_POINT('Origin',(-24.75,-3.70000000000001,-3.23));
#739=CARTESIAN_POINT('',(-3.25,-3.21542035540012,-0.994011068489128));
#740=CARTESIAN_POINT('Origin',(-24.75,-3.70000000000001,-3.23));
#741=CARTESIAN_POINT('',(-24.75,-3.36570095853666,-1.68744870867627));
#742=CARTESIAN_POINT('Origin',(-3.25,3.,0.));
#743=CARTESIAN_POINT('',(-3.25,2.,-8.23));
#744=CARTESIAN_POINT('',(-3.25,3.,-8.23));
#745=CARTESIAN_POINT('',(-3.25,2.,0.));
#746=CARTESIAN_POINT('',(-3.25,2.,0.));
#747=CARTESIAN_POINT('',(-3.25,1.49999999999999,0.));
#748=CARTESIAN_POINT('Origin',(-3.75,2.5,0.));
#749=CARTESIAN_POINT('',(-4.25,3.,-7.23));
#750=CARTESIAN_POINT('',(-4.25,3.,0.));
#751=CARTESIAN_POINT('',(-4.25,3.,0.));
#752=CARTESIAN_POINT('',(-5.6875,4.4375,0.));
#753=CARTESIAN_POINT('',(-3.25,2.,-8.23));
#754=CARTESIAN_POINT('Origin',(-24.25,2.5,0.));
#755=CARTESIAN_POINT('',(-24.75,2.,-8.23));
#756=CARTESIAN_POINT('',(-24.75,2.,0.));
#757=CARTESIAN_POINT('',(-24.75,2.,0.));
#758=CARTESIAN_POINT('',(-23.75,3.,0.));
#759=CARTESIAN_POINT('',(-22.3125,4.43749999999999,0.));
#760=CARTESIAN_POINT('',(-23.75,3.,-7.23));
#761=CARTESIAN_POINT('',(-23.75,3.,0.));
#762=CARTESIAN_POINT('',(-23.75,3.,-7.23));
#763=CARTESIAN_POINT('Origin',(-7.,2.5,-7.73));
#764=CARTESIAN_POINT('',(-7.,2.,-8.23));
#765=CARTESIAN_POINT('',(-7.,3.,-7.23));
#766=CARTESIAN_POINT('Origin',(0.,3.,0.));
#767=CARTESIAN_POINT('',(3.67394039744206E-16,3.,0.));
#768=CARTESIAN_POINT('',(-28.0000004172325,3.,0.));
#769=CARTESIAN_POINT('',(-28.0000004172325,3.,0.));
#770=CARTESIAN_POINT('',(-28.0000004172325,3.,0.));
#771=CARTESIAN_POINT('',(-28.0000004172325,3.,0.));
#772=CARTESIAN_POINT('',(3.67394039744206E-16,3.,0.));
#773=CARTESIAN_POINT('',(-4.7,3.,-5.73));
#774=CARTESIAN_POINT('Origin',(-5.75,3.,-5.73));
#775=CARTESIAN_POINT('',(-21.2,3.,-5.73));
#776=CARTESIAN_POINT('Origin',(-22.25,3.,-5.73));
#777=CARTESIAN_POINT('Origin',(-22.25,3.,-5.73));
#778=CARTESIAN_POINT('',(-21.2,3.,-5.73));
#779=CARTESIAN_POINT('Origin',(-5.75,3.,-5.73));
#780=CARTESIAN_POINT('',(-4.7,3.,-5.73));
#781=CARTESIAN_POINT('Origin',(-24.75,-3.70000000000001,0.));
#782=CARTESIAN_POINT('',(-24.75,-1.85000000000001,0.));
#783=CARTESIAN_POINT('',(-24.75,-3.70000000000001,-8.23));
#784=CARTESIAN_POINT('Origin',(-14.,-0.350000000000007,-8.23));
#785=CARTESIAN_POINT('Origin',(-14.,-1.49880108324396E-14,0.));
#786=CARTESIAN_POINT('Origin',(0.,0.,0.));
#787=CARTESIAN_POINT('',(-1.8,-2.20436423846524E-16,0.));
#788=CARTESIAN_POINT('Origin',(0.,0.,0.));
#789=CARTESIAN_POINT('Origin',(-14.,-1.49880108324396E-14,0.));
#790=CARTESIAN_POINT('Origin',(-28.,0.,0.));
#791=CARTESIAN_POINT('',(-29.8,-2.20436423846524E-16,0.));
#792=CARTESIAN_POINT('Origin',(-28.,0.,0.));
#793=CARTESIAN_POINT('Origin',(-28.,0.,0.));
#794=CARTESIAN_POINT('',(-29.8,-2.20436423846524E-16,0.));
#795=CARTESIAN_POINT('Origin',(0.,0.,0.));
#796=CARTESIAN_POINT('',(-1.8,-2.20436423846524E-16,0.));
#797=CARTESIAN_POINT('Origin',(0.,0.,0.));
#798=CARTESIAN_POINT('Origin',(-28.,0.,0.));
#799=UNCERTAINTY_MEASURE_WITH_UNIT(LENGTH_MEASURE(0.01),#803,
'DISTANCE_ACCURACY_VALUE',
'Maximum model space distance between geometric entities at asserted c
onnectivities');
#800=UNCERTAINTY_MEASURE_WITH_UNIT(LENGTH_MEASURE(0.01),#803,
'DISTANCE_ACCURACY_VALUE',
'Maximum model space distance between geometric entities at asserted c
onnectivities');
#801=(
GEOMETRIC_REPRESENTATION_CONTEXT(3)
GLOBAL_UNCERTAINTY_ASSIGNED_CONTEXT((#799))
GLOBAL_UNIT_ASSIGNED_CONTEXT((#803,#805,#806))
REPRESENTATION_CONTEXT('','3D')
);
#802=(
GEOMETRIC_REPRESENTATION_CONTEXT(3)
GLOBAL_UNCERTAINTY_ASSIGNED_CONTEXT((#800))
GLOBAL_UNIT_ASSIGNED_CONTEXT((#803,#805,#806))
REPRESENTATION_CONTEXT('','3D')
);
#803=(
LENGTH_UNIT()
NAMED_UNIT(*)
SI_UNIT(.MILLI.,.METRE.)
);
#804=(
LENGTH_UNIT()
NAMED_UNIT(*)
SI_UNIT($,.METRE.)
);
#805=(
NAMED_UNIT(*)
PLANE_ANGLE_UNIT()
SI_UNIT($,.RADIAN.)
);
#806=(
NAMED_UNIT(*)
SI_UNIT($,.STERADIAN.)
SOLID_ANGLE_UNIT()
);
#807=SHAPE_DEFINITION_REPRESENTATION(#808,#809);
#808=PRODUCT_DEFINITION_SHAPE('',$,#811);
#809=SHAPE_REPRESENTATION('',(#499),#801);
#810=PRODUCT_DEFINITION_CONTEXT('part definition',#815,'design');
#811=PRODUCT_DEFINITION('USB Halter','USB Halter v12',#812,#810);
#812=PRODUCT_DEFINITION_FORMATION('',$,#817);
#813=PRODUCT_RELATED_PRODUCT_CATEGORY('USB Halter v12','USB Halter v12',
(#817));
#814=APPLICATION_PROTOCOL_DEFINITION('international standard',
'automotive_design',2009,#815);
#815=APPLICATION_CONTEXT(
'Core Data for Automotive Mechanical Design Process');
#816=PRODUCT_CONTEXT('part definition',#815,'mechanical');
#817=PRODUCT('USB Halter','USB Halter v12',$,(#816));
#818=PRESENTATION_STYLE_ASSIGNMENT((#819));
#819=SURFACE_STYLE_USAGE(.BOTH.,#820);
#820=SURFACE_SIDE_STYLE('',(#821));
#821=SURFACE_STYLE_FILL_AREA(#822);
#822=FILL_AREA_STYLE('Stahl - satiniert',(#823));
#823=FILL_AREA_STYLE_COLOUR('Stahl - satiniert',#824);
#824=COLOUR_RGB('Stahl - satiniert',0.627450980392157,0.627450980392157,
0.627450980392157);
ENDSEC;
END-ISO-10303-21;
